<?xml version="1.0" encoding="utf-8"?>
<!-- Generator: Adobe Illustrator 23.1.1, SVG Export Plug-In . SVG Version: 6.00 Build 0)  -->
<svg version="1.1" id="Capa_1" xmlns="http://www.w3.org/2000/svg" xmlns:xlink="http://www.w3.org/1999/xlink" x="0px" y="0px"
	 viewBox="0 0 1946 1364" style="enable-background:new 0 0 1946 1364;" xml:space="preserve">
<style type="text/css">
	.st0{fill:#629043;}
	.st1{fill:#5B853D;}
	.st2{fill:#AB3222;}
	.st3{fill:#C3D59C;}
	.st4{fill:#B4C12B;}
	.st5{fill:#9E2E1F;}
	.st6{fill:#86B472;}
	.st7{fill:#9FC288;}
	.st8{fill:#C3C0AA;}
	.st9{fill:#9B9427;}
	.st10{fill:#E3E9F5;}
	.st11{fill:#FFFFFF;}
	.st12{fill:#C7D9A0;}
	.st13{fill:#BBD4AF;}
	.st14{fill:#BA574B;}
	.st15{fill:#DECF68;}
	.st16{fill:#202020;}
</style>
<g>
	<path class="st0" d="M500.2,881.1c11.9,8.1,24.1,15.9,36.4,23.5c49.7,13.1,91.4,40.3,134.2,68.1c7.4,2.7,14.8,5.4,22.2,8.1
		c17.7-5.5,32.5-19.7,34.3-43.5c1.7-22.2-2.9-45.1-17.9-61.2c0.5-13.3,0-26.6-1.6-40.6c-3.1-26.7-26-38.7-49-38.1
		c-4.6-4.9-10.2-8.8-16.3-11.4c-2.3-14.3-11.5-27.4-23.7-35.4c0.7-4.9,1.3-9.8,1.9-14.6c2.9-24.4-10.2-39.9-27.9-46
		c-4.1-13.1-12.6-22.9-23.3-28.5c-5.2-18.5-21.6-32.2-39.8-35.6c0.5-5,0.8-10.1,1.1-15.1c0.8-14.5-6-27.4-16.2-36.3
		c0.7-2.3,1.5-4.5,2.2-6.8c6.1-18.5-1.1-35.3-13.5-46.1c1.1-4.7,2.2-9.4,3.2-14.1c3.9-18.1,0.1-36.6-16.3-47.5
		c-13.9-9.3-38.4-10.1-50.4,3.3c-7.1,8-13.9,16.3-20.2,24.7c-3.3,2.6-6.2,5.8-8.5,9.7c-3.5,5.9-6.8,11.8-10.2,17.7
		c-0.3,0.5-0.6,1.1-1,1.6c-0.3-0.1-0.5-0.2-0.7-0.3c-4.7-11.4-14.4-18.8-25.2-21.4c-0.1-0.9-0.2-1.8-0.3-2.7
		c-4-27-41.4-33.6-57.2-13.7c0.1-4.5,0.1-9,0.1-13.5c0.3-19.1-25.4-19.2-28.7-1.5C281,500,273.8,536,267,572.2
		c3.6,4.5,6.4,10.1,8.1,17c6.1,24.4,14.3,47.4,24.1,69.2c1.5-0.7,3-1.5,4.3-2.5c1.2,1.8,2.6,3.5,4,5.1c0.3,14.4,8.3,25.3,19,31.4
		c-1.4,5.2-1.8,10.1-1.5,14.7c7,11.4,14.6,22.5,22.5,33.2c2.4,1.2,4.9,2.2,7.5,3c5.4,17.3,22.1,28.4,39.4,29.6
		c1.4,12,6.7,22.9,16.5,30.6c0.7,3.9,2,7.4,3.8,10.6c6.4,5.8,12.8,11.6,19.5,17.2c10,4.3,21.8,5.6,33.2,3.4
		c3.8,3.6,8.2,6.6,12.8,8.9c3.3,5.9,8,10.8,13.6,14.7C493.7,866.9,496.1,874.6,500.2,881.1z"/>
	<path class="st0" d="M1621.8,899.3c71-24.6,77.7-95,81.2-161.4c0.3-6.1,0.4-12.3,0.6-18.4c-19.6-6.4-34.2-25.4-25.1-49.4
		c13.9-36.5,11.1-75.2,11.9-113.6c-7.5-2-14.6-6-20.5-11.8c-10.9-10.8-17-16.2-27.9-24.1c-1.3,1.6-3,3.9-4,5.3
		c0.1-0.2,0.3-0.3,0.4-0.4c-2.1,2.8-1.6,2.2-0.4,0.4c-17.7,23.7-56.4,20.1-69.5-3c-7.8,1.3-15.5,3.9-22.7,8.4
		c-5.5-11.7-15.6-21.3-27.4-27c-17.8-18.3-36.1-37.2-57-50.6c-8.3-5.3-17-9.3-26-12.6c-15.2-24.8-34.3-45.8-60.8-58.8
		c-22.5-11.1-44.3-12-64.6,4.3c-2.3,1.8-4.4,3.8-6.4,5.8c-4.7-0.7-9.5-0.8-14.3-0.4c-0.6-0.6-1.2-1.2-1.9-1.8
		c-1.2-8.2-3.8-16.4-8.1-24.4c-4.4-8.2-10.6-15.2-17.9-20.8c1.3-4.2,2.7-8.3,3.9-12.5c12.7-43.4-34-82.5-72-62.5
		c-11.9-1.9-24.5,0.6-35.3,9c3.9-19.4-6.8-38.1-24.3-45.9c-2.9-15.7-23.9-22.8-37-16.1c-13.2,6.7-24.5,15.7-34.8,25.9
		c-6.1-8.3-14.5-14.6-24-17.2c12.9-32.7,15.8-68.3,6.6-103.5c-1.4-5.5-3.6-10.3-6.3-14.7c-9.5,2.1-19.8,1.1-29.1-4.5
		c-9.1-5.5-18.3-11.1-27.5-16.6c-2.2,0.6-4.4,1.4-6.6,2.3c-1.1,0.5-2.3,1.1-3.5,1.6c-8.7,11.6-23.1,17.9-36.7,17.5
		c-3,1.4-6,2.8-9,4.1c-0.4,0-0.7,0-1.1,0c0-1.9-0.1-3.8-0.1-5.8c-11.6-3.6-21.4-13-24.5-29.6C898,65,864.8,59.1,854.9,60.1
		c-4.3,0.4-8.3,0.3-12.2-0.3c-4.1,9.6-10.3,18.4-18.5,25.1c-4.3,3.6-8.8,6-13.3,7.5c-0.5,1.3-0.9,2.5-1.4,3.8
		c-7.4,21.4-29.8,31.7-51.2,25.7c-20.9-5.9-32.6-31.2-25.7-51.2c3.7-10.6,8.2-20.8,13.2-30.9c-24.8-32-83.4-27.1-85.3,23.1
		c-0.1,1.6-0.2,3.3-0.3,4.9c-2.3,1.6-4.5,3.2-6.6,4.9c-2.6,0.2-5.1,0.8-7.7,1.6c-1.6-3.4-3.5-6.7-5.8-9.7
		c-13.3-17.4-36-24.3-57.1-21.2c-8.2,1.2-15.2,4.1-21.9,7.6c-15.5-4.9-33.1-1.1-43.6,16.8c-10,17.1-17,34.3-20.9,52.8
		c-2.5-0.4-5-1-7.5-2.1c-26.9-8.3-56.4,21.1-41.3,47.7c9.1,16,17.7,32.2,26.5,48.3c4.8,8.9,12,14.6,20.2,17.2
		c4.4,33.8,23.2,65.1,52.2,86.1c20,14.5,51.2,3.5,58.2-19.9c6.2-20.7,12.6-41.4,18.9-62.1c3.5-2.7,6.5-6.1,8.7-10.2
		c4.5-8.7,9.4-17,14.5-25.1c14.2,16.7,39.5,24.5,58.6,13.8c12.2,3,25.4,2.9,38.7,0.7c10.9,21.1,33.7,30.4,54.5,25
		c10.9,14.4,28.9,23.1,46.9,19.6c4.4,0.7,8.9,0.9,13.4,0.6c3.8,2.7,8.1,4.8,12.6,6.3c10.4,7.7,23.2,11.6,35.7,9.7
		c-19.5,13-34.5,32.4-44.6,55.1c-10.5,23.6,7.9,49.1,28.9,57.7c4.3,1.8,8.6,3.3,13,4.5c6.9,3.7,14.9,5.8,23,5.7
		c1.4,2.4,2.9,4.8,4.7,7.1c8.4,11.3,18.1,18.2,28.7,21.8c13.2,17,38.5,25.7,59.7,15.7c15.1-7.1,29.8-15,44.1-23.6
		c6,4.3,13,7.5,20.3,9.1c6.9,16.2,21.7,29.5,38,33.5c0.2,15.7,5.5,28.3,14.2,37.3c0.6,19.4,13.7,38.6,30.5,46.6
		c17.5,8.2,35.2,6.7,50.1-2.3c4,29.3,38,53,66.8,47c8,5.6,17.2,9.4,26.6,10.4c-0.8,21.9,11.6,38.1,28.4,46.3
		c20,24.1,58.7,32.2,83,1.3c10.4,4.1,21.9,5.7,33,4.1c5.6,5.5,12.5,9.8,20,12.7c12.2,24.3,42.4,36.1,67.7,27.7
		c1.6,0.4,3.2,0.8,4.7,1.1c-6.9,17.2-3.5,35.5,5.6,50.3c-9.8,22.1-7,47,8.2,63.8l-6.3,17.8c-3.2,9.1-3.4,19-1.3,28.5
		c-27.9-6.5-57.7-7.8-85.5-5.9c-9.3,0.7-18.5,1.5-27.7,2.8c-15.4-21.3-44.4-33.1-68-19.1c-2.3-1.4-4.6-2.8-7-4.1
		c-5.2-32.1-45.6-59.2-75.8-39.9c-20.2,12.9-33.4,31.4-35.2,52.7c-0.2,0.6-0.5,1.2-0.7,1.8c-3,7.5-4.2,14.5-4.1,20.9
		c-19.2-12.9-46.9-14.6-64.6,2.3c-5.3,5.1-10.5,10.3-15.7,15.6c-3.6-39.1-50.6-57.7-80.5-24.3c-0.3-6.5-2.1-13.2-5-19.3
		c2.4-29.8-35.5-57.1-62.8-40.7c-39.2,23.5-73.2,53.4-99.5,89.8c-8.2,9.8-15.1,20.7-20.4,32.4c-2,3.6-3.9,7.3-5.7,11.1
		c-1.6,3.3-2.8,6.7-3.7,10.1c-2.6,1-5.1,2.2-7.6,3.5c-5.4-25.6-43.2-39.3-60-12.5c-4.6,7.3-8.4,14.7-11.7,22.3
		c-2.6,3.8-5.5,7.3-8.7,10.4c-24.7-22-59.6,4.3-56.6,34.9c0,0.5,0.1,1,0.1,1.4c39,15,77.9,30.3,116.9,45.3
		c6.8-4.3,13.6-8.4,20.5-12.4c4.6,19.9,27.4,33.6,47.9,31c15.8,11.7,38.4,14.5,52.6-1.6c1.2-1.3,2.3-2.7,3.5-4.1
		c12.3,17,39.2,24.7,60,15.3c16.1,20.2,49.2,27.6,71.3,9.8c3.1,3.8,6.9,7.4,11.5,10.5c11,7.4,23.8,9.8,36,8
		c11.5,5.9,24.5,7.8,36.7,4.1c20,23,58.5,28.7,84.9-4c4.7-5.8,9.2-11.8,13.6-17.9c4.3,0.2,8.5-0.1,12.7-1.1
		c21.4,19.1,56.1,22.1,78.6-9.5c3.2-4.5,6.2-9.1,9.1-13.8c4.3,2.1,9,3.7,13.8,4.5c21.1,13.6,45.2,10.3,66.2-4.5
		c8.9-6.2,17.9-12.2,27-18c19,7.8,43,7.1,57.3-8.9c6.6-7.4,13.3-14.9,19.9-22.3c7.1-6.5,15.2-12.3,21.2-19.8
		c11.1-13.8,19.1-29.6,21-47.5C1632.2,928,1628.9,912.5,1621.8,899.3z"/>
	<path class="st0" d="M990.5,585c-21.7-38.6-55.4-32.1-86.2-15.1c-7.8-9.3-18.6-15.8-31.9-16.9c-6.6-0.5-13.3,0.2-19.5,2.1
		c0,0,0,0,0,0c-8.5-11-20.8-18.9-37.3-21.1c-14.3-1.9-26.9,1-37.2,7.2c-7.4,0.3-15,2.7-22,7.5c0.4-3.1,0.4-6.1,0.2-8.9
		c1.8-8.1,3-16.4,3.7-25.2c2.2-27.4-27.3-43.2-50.5-33c-36.8,16.1-59.1,51.6-61,91.3c-0.7,15.2,6.6,27.3,17.4,34.3
		c-0.5,13,0.6,25.7,5,36.6c-3.2,1.7-6.5,3.4-9.7,5c-29.6,14.9-30.4,67.1,5.4,75.6c12.8,3,30.7,10.9,43.7,10.3c1.5,0.4,3,0.7,4.5,1.1
		c8.7,17.4,24.3,29.5,44.1,31.9c16.4,2,32-2.1,46.7-9.5c14.3,9.1,33.3,10.1,47.7-4c14.7-14.4,23.6-30.7,27.4-47.1
		c3.6,1.7,7.5,2.9,11.4,3.4c0.8,38.2,53.7,52.5,75.5,20.9C993.6,694.1,1014.8,628.2,990.5,585z"/>
	<path class="st1" d="M523.3,877.4c8.2,5.9,21.2,3.8,26.8-5c1.2-1.8,2.2-3.7,3.2-5.6c6.3-4.9,11.7-11.3,15.8-18.3
		c2.9-4.9,5.5-10.2,7.7-15.7c0,0.2,0,0.4,0,0.6c0.3,10.6-0.1,21.8-2.8,32.1c-1.2,4.7-2.5,8.6-5.7,12.2c-2.1,2.3-13.6,7.1-4.4,4.1
		c-8.9,3-14.4,10-12.9,19.8c0.5,3,1.4,5.6,2.5,8.1c13.2,4.5,25.9,9.9,38.3,16c2.4-0.6,4.8-1.5,7.1-2.5c9.1-4.4,15.1-11.2,18.8-19.3
		c1.5-1.2,2.8-2.5,4.1-4.1c6.7-8.4,9-18.5,8.7-29.4c6.4,3.2,11.8,7.5,15.9,14.2c4.6,7.6,4.7,16.4,6.6,24.7l-4.9,4.9
		c-3.4,3.4-4.4,9.3-0.8,13c3.3,3.4,9.4,4.5,13,0.8l7.3-7.3c0.2-0.1,0.5-0.1,0.7-0.2c19.8-8.6,16.4-37.6,9.7-53.5
		c-8.3-19.7-27.2-35.4-48.8-36.8c-2.4-0.2-4.6,0.2-6.7,0.8c-4.5-14.3-9.7-27.9-11.8-39c-0.5-2.6-4.5-2.3-4.6,0.4
		c-0.1,3.5-0.5,7-0.8,10.5c-1.7-3.3-3.5-6.5-5.5-9.5c-1.5-2.4-6.8-9.7-12.5-14c0.3-20.2-3.7-40.3-12.7-56.9c-0.3-0.6-0.7-1.2-1-1.8
		c-2.4-4.2-5-8.1-8.1-11.8c-3.1-3.7-10-2.8-11.6,2c-0.9,0.1-1.9,0.3-2.9,0.6c-13.8,4.2-24.1,11.3-33.7,20.1
		c4.9-26.1,0.6-51.4-13.6-75.2c-1-1.6-3.3-2-4.7-1.1c-0.8-10.4-2.4-20.1-4.7-28.8c-0.6-2.4-3.5-2.3-4.5-0.3
		c-8.5,18-15.9,36.3-23.8,54.5c1.2-11.1,1.7-22.4,1.4-33.5c10.1-30.4,15.3-62.6,16.3-93.6c0.3-8.3,4.3-44.3-9-47.6
		c-4.3-1.1-5.6-1.8-7.7,2.9c-0.1,0.3,0,0.7,0.2,0.9c0.5,0.5,1,1.1,1.5,1.6c0.7,0.7,1.7-0.2,1.2-1c1.9,2.8-0.3,12.7-3.1,22.7
		c1.1-8.6,1-16.9-1.1-24.5c-0.8-3-3.5-5-6.7-4.4c-20,3.9-35.1,22.4-46.3,43.5c-0.6-0.5-1.4-0.8-2.2-0.6c-27.4,6.8-51.2,32.4-65,62.9
		c-0.5-3.9-0.9-7.8-0.9-11.9c-0.1-13.3,14.3-83.2,36.1-53.9c1.4,1.9,4.5,0.2,4-2c-3.3-13.4-14.5-23.8-28.3-26.7
		c-21-4.4-37.4,10.6-47.8,27c1.6-7.7,3.8-15.2,7-22.4c1.9-4.4,20.1-36,28.3-26.9c1.4,1.6,4.5,0.8,4.5-1.6
		c-0.2-11.6-9.2-19.6-21.3-19.9c-1.1,0-2.2,0.1-3.3,0.2c-15.1-24.2-44.1-24.1-66.9-11.1c3.5,6.2,5.1,13.1,3.8,20.4
		c-4.4,23.5-8.2,47.1-11.4,70.8c2.9,3.2,5.2,6.9,7,10.9c8.5,4.8,15.5,13.4,18.7,26.1c8.9,35.4,22,68.1,38.4,98.2
		c3,3.7,6.3,7.3,10,10.6c5.4,4.9,11.8,7.2,18.1,7.4c6.4,12,16.4,21.9,30.7,28.4c4.2,1.9,9.9,0.5,13.8-2.7c0.4,0.8,0.7,1.6,1.1,2.4
		c1,2,2.3,3.6,3.7,5c-4.3,4.1-8.8,8-13.7,11.5c-6,4.3-9.2,9.3-10.4,14.5c10.3,12.2,21.2,23.9,32.7,35.2c0.9,0,1.7,0.1,2.6,0
		c8.8-0.7,16.3-3.9,22.6-8.6c3.6,0.9,7.4,1.4,11.2,1.3c1.9,3.5,5.4,6.4,8.9,7.8c3.4,1.4,6.8,2,10,2.3c2.9,2.8,6.1,5.3,9.8,7.3
		c-1.8,5.3-0.9,11.5,3,16.6c4.9,6.4,10.9,10.8,17.5,13.5c-1.1,16.9,13,32.4,29,36.4C517.1,876.9,520.2,877.3,523.3,877.4z
		 M294.6,490.5c-0.6,0.4-1.2,0.8-1.8,1.2l0,0c-8.3,6.5-15.1,14.6-20,24.1c3.4-16.4,15-30.6,31-34.2
		C300.5,484.3,297.4,487.3,294.6,490.5z M438.6,636.7c1.2-8.6,2.6-17.2,4.6-25.7c3.1-13,9.4-28.2,14.8-43.8
		c-3.4,15.4-7.1,30.7-11.6,45.8C444,620.9,441.4,628.8,438.6,636.7z"/>
	<path class="st1" d="M1558.5,907.4c-1.9-21.6-29.6-30.7-46.6-22.5c-10.8,5.2-21.1,11.3-30.9,17.9c-6.1-15.3-27.7-25.1-42.3-15.8
		c-1.9,1.2-3.7,2.5-5.6,3.8c-8.5-0.5-16.8,0.8-24.7,3.5c-4-20.9-14.8-37.4-40-36.6c-17.9,0.5-33,10.8-45.6,25.1
		c-7.2-8.4-19.9-6.3-26.1,1.9c-19.8,26.5-42.7,50.2-57.9,79.7c1-6.3,1.8-12.6,2.3-19c0.3-3.5-4.7-5.2-6.6-2.2
		c-0.9,1.4-1.7,2.8-2.5,4.2c-0.4-5.4-0.8-10.9-1.4-16.3c-1.1-9.4-7.4-15-15-17.2c-3.1-19.8-30.3-31.3-46.2-10.9
		c-0.6,0.7-1.1,1.5-1.6,2.2c-4.8,1.8-9.4,5.2-13.1,10.6c-0.4,0.7-0.9,1.3-1.3,2c8.7-25.1-26.6-46.3-44-22.1
		c-22.3,31-36.9,66-44,103.6c-1.3,6.8-2.7,15.3-3.6,24.4c0-0.1-0.1-0.1-0.1-0.2c-0.6-4.7-0.6-9.5,0.1-14.2
		c0.5-13.3,2.2-26.5,4.7-39.6c5.2-27.4,13.9-53.8,25.6-79c4.9-10.6-2.8-19.1-12.2-21.3c1-2.1,2-4.2,3-6.3
		c11.2-23.1-24.9-37.5-38.8-19c-1.2,1.6-2.3,3.3-3.5,4.9c-3.5-17-26-26.4-40.1-8.6c-15.5,19.5-29.2,40.3-40.7,62.3
		c-5.1,0.8-9.9,3.8-12,9.5c-2.8,7.4-6.4,14.6-10.6,21.6c-2.2,3.2-4.3,6.4-6.4,9.7c-5.9,8.4-12.7,16.4-20.2,23.6
		c2.4-3.1,4.8-6.3,7-9.6c9.4-14.2-6.2-28.5-20.3-23.1c-38.4,14.7-75.3,32-113.5,47.2c-13.3,5.3-16.6,17.6-13.7,28.8
		c15.2,5.9,30.4,11.8,45.5,17.7c3.8-1,7.6-2.1,11.3-3.4c0.2,3,1,5.9,2.3,8.7c9.2,3.6,18.5,7.2,27.8,10.7
		c20.5-3.6,39.1-10.7,55.2-20.7c-0.7,6.8-0.9,13.5,0,20c1,7.2,12.2,9.4,15.8,3c1.6-2.9,3-5.9,4.1-8.8c4.9,2.4,10.3,3.7,15.6,4
		c5.6,2.6,12.5,3.2,21.1,1.2c3.6-0.9,7.3-3,9.9-5.9c2,0.2,4.1,0.1,6.1,0c0.6,4.2,1.3,8.4,2.2,12.6c5.3,23.5,28.8,26.8,43.7,16.6
		c9.9,4.6,21.4,4.3,32.4-3.5c3.2,13.6,10.2,24.9,23.8,29.9c6.4,2.3,11.7,2.6,16.1,1.4c16,5.5,34.7,3,47.2-6c1.3,0.8,2.7,1.5,4.1,2.1
		c1,11.3,6.5,20.3,21,21.4c15.8,1.2,26.6-8.5,34.2-21.7c0.1,0,0.3,0.1,0.4,0.2c10.5,2.4,19.4,2,26.8-0.5c3.9,3.7,8.7,6.4,13.9,8
		c3.8,10.1,18,13.1,25.3,3.2c1.5-2,2.7-4.1,4.1-6.1c3.6-1.9,7-4.1,10.2-6.8c-0.3,4.3-0.5,8.7-0.6,13c-0.1,6.6,1.7,12.4,4.8,17.3
		c17.4-3.8,37-9.4,53.2-2.2c0.6,0.1,1.1,0.2,1.7,0.3c7.9-12,15.1-24.6,21.4-37.6c7.8,0.8,15.9-1.1,22.6-6.3
		c13.8,13.8,38.2,16.1,52.8-4.3c15.6-21.9,26.3-45.9,32.5-70.9c1.5-2.1,3.1-4.2,4.7-6.3c-1,2.3-2,4.5-3.1,6.7
		c-22.4,44.3,41.1,76,61.2,30C1558.3,988.7,1562.2,948.8,1558.5,907.4z"/>
	<path class="st1" d="M1682.9,705.4c-7-9.1-9.7-21.3-4.4-35.3c0.4-1,0.7-2,1-3c-4.1-10.9-12.3-18.2-22.2-20.5
		c0.1-0.4,0.1-0.7,0.2-1.1c4.1-22.8,7.4-53.7-16.2-67.3c-4.1-2.3-8.3-3.6-12.6-4c-0.1-5.6-0.3-11.1-0.8-16.7
		c-0.8-8.3-5.4-13.8-11.5-17.1c-9.2,2.5-19.2,1.9-27.9-1.3c-7.1,2.6-14.1,5.4-20.9,8.4c-0.1-7.6-0.5-15.2-1.6-22.8
		c-1.9-14.2-20-18.1-30-10c-9.8,8-20.4,14.7-31.1,21.3c-3.6-7.3-10.2-11.7-21.2-11.4c-10,0.2-21.5,5.5-32.6,12.6
		c1.7-12.5,2.4-25.1,1.7-37.8c-0.3-4.7-6-5.8-8-1.5c-5.4,11.7-10.4,23.4-15.6,35c6.8-19.5,13.7-38.9,20.5-58.4
		c11.9-33.9-39.4-50.3-52.6-17.5c-6.3,15.7-12.6,31.4-19,47.1c0.1-14.7-0.8-29.4-2.6-43.4c1.9-7.9,0.5-14.7-3-20
		c-0.7-4.1-1.5-8.1-2.4-12c-2.9-13.3-24.1-13.3-25.7-0.1c-6.6,1.1-12.8,4.8-16.8,11.6c2.3-9.9,4.7-19.7,7.2-29.2
		c8.4-31.3-38.2-47.4-48.2-16c-17.5,54.8-44.4,113.4-38.8,171.9c1.2,12.3,14.7,14.8,23.9,10c1.1,1.8,2.2,3.6,3.6,5.3
		c6.7,8.4,16.1,10.7,25.1,9.1c0,0.6,0,1.2,0.1,1.9c-3.2,17.1,12.4,37.1,28.7,33.3c1.6,7.8,7,15,14.4,20.4c4.2,3,9.9,4.7,15.5,4.9
		c0.7,25.3,38.3,33.4,50.5,6.8c0.8-1.8,1.6-3.6,2.5-5.4c3.7,25.2,38.2,39.9,55.3,15.2c0.2,25.2,35.6,36.9,53.2,20.7
		c5,21.3,32.4,36.1,51.9,22.7c-3.9,8.6-7.9,17.3-11.9,25.9l0.8,0.2c-8.1,30.1,23.1,51.1,46,39c-14.2,38-32.7,73.9-45.9,112.3
		c-11.6,33.5,36.6,57.5,56.2,27.5c23.6-36.3,36.3-80.9,46.9-122.5C1671.5,767.5,1681,735.3,1682.9,705.4z M1459.6,569
		c-8.2,8-16.3,16.9-23.5,26.6c2-5.5,3.8-11.1,5.6-16.7c8.6-10.7,18.9-22.6,26.2-28.3C1465.6,556.4,1462.8,562.6,1459.6,569z
		 M1509.5,585.3c-3.2,3-6.2,6.2-9.1,9.5c2.4-7.6,4.4-15.2,5.8-22.5c3.9-4.9,8.3-9.2,13.1-12.9C1516.2,568.2,1513,576.8,1509.5,585.3
		z"/>
	<path class="st1" d="M898.8,102.7c1.6-4.6-5.1-8-7.8-3.8c-11.6,17.9-24.4,34.5-39.2,49.7c3.1-6.6,6.3-13.2,9.5-19.8
		c6-12.2,5.4-26.6-6.9-34.9c-7.3-4.9-17.5-5.3-25.5-1.4c1-2.2,1.9-4.3,2.8-6.3c1.7-3.7,2-7.3,1.5-10.6c-2.7,3.3-5.6,6.5-8.9,9.2
		c-4.3,3.6-8.8,6-13.3,7.5c-0.5,1.3-0.9,2.5-1.4,3.8c-7.4,21.4-29.8,31.7-51.2,25.7c-1.3-0.4-2.6-0.8-3.8-1.3
		c-0.6,0.8-1.2,1.5-1.8,2.3c-11.4,13.6-22.7,25.2-26.8,41.3c-5.3-5.4-12.5-9-20-9.8c5.2-7.2,9.5-15.1,12.7-23.6
		c1.7-4.4-4.7-7.3-7.3-3.6c-4.7,6.7-10.3,12.6-16.5,17.6c1.2-4.3,2.3-8.7,3.3-13.1c6.9-31.9-36.7-41.7-45.7-17.5
		c-7.3,10.7-14,22.2-20.2,33.8c2.6-7,5.8-14.1,9.8-21.1c4.7-8.2,5.3-16.3,3.3-23.5c2.2-6.6,4.3-13.2,6.6-19.8
		c1.3-3.8-4.4-5.6-5.8-1.9c-1.6,4.1-3.4,8.1-5.4,12c-4.9-7-12.5-12-20.6-13.6c-5.2-1.8-11.4-1.1-16.4,2.1c-4.4,2.2-8.6,5.7-12,11.1
		c-0.1,0.2-0.3,0.5-0.4,0.7c0.2-2.3,0.2-4.6,0.1-6.8c-0.2-5.1-5.3-7.3-9.4-4.5c-15.5,10.6-27.7,30.5-38.3,45.9
		c-3.2,4.7-6.7,9.5-10.1,14.4c5.2-14.4,11.4-28.4,17.6-42.3c6.4-14.2-14.8-22.4-23.3-11.4c-24.6,31.9-69.9,84.6-52.5,129
		c12.4,31.6,63.6,36.4,74.9,1.6c0,0,0-0.1,0-0.1c0,0,0.1,0,0.1,0c0.5,8.2,1.8,16.3,4.3,24c5.3,16.6,22.9,28.2,38.9,22.9
		c12.8,16.3,41.8,16.7,54.2-2c1.5-2.3,2.9-4.6,4.3-7c4.2,4.4,9.7,7.1,15.3,7.7c-0.1,0-0.1,0.1-0.2,0.1c0.3,0,0.5-0.1,0.8-0.1
		c3.3,0.2,6.6-0.4,9.7-1.7c12.6-3.9,20.5-14,27.6-26.5c7.3-12.9,15.2-25.5,23.6-37.8c1.6-2.3,2.7-4.6,3.6-6.9
		c3.5,2.1,7.8,3.1,12.6,2.6c16.9-1.7,30.9-12.2,42.8-26.6c-0.1,4.7,0.3,9.4,1.7,14.1c2.4,8.2,10.8,15.9,20.1,13.1
		c0.4-0.1,0.7-0.2,1-0.4c-0.7,1.5-1.4,3-2,4.6c-2.8,7.5,4.7,16.6,12.7,14.3c7.3-2.1,14-5.8,20.2-10.4c0,1-0.1,2.1-0.1,3.1
		c0.3,11.3,17.8,16.5,21,4c2.8-10.7,3.2-21.9,2.6-33.1C880.7,154,891.1,124.6,898.8,102.7z"/>
	<path class="st0" d="M855.9,1043.5c3.9-8.4,6.6-17.2,11-25.5c5.3-10,14.1-17.5,21.1-26.2c9.9-12.3-4.2-27.2-17.2-25.5
		c-27.4,3.7-53.1,33.3-55.1,61.6C829,1033.1,842.4,1038.3,855.9,1043.5z"/>
	<path class="st0" d="M973.1,918.4c-30.6,21.7-50,50.2-49.6,88.8c0.1,10.4,16.1,14.8,19,3.6c7.7-29.9,18-62.2,36.4-87.3
		C981.6,919.6,976.4,916,973.1,918.4z"/>
	<path class="st0" d="M1008.9,1053.9c5.3-30.4-0.9-61.2,6.8-91.7c7.8-30.9,23.4-57.4,37.4-85.6c1.7-3.4-1.1-7.2-4.9-5.6
		c-60,25.6-106.1,130.8-67.9,188.9C988.8,1072.9,1006.2,1069.2,1008.9,1053.9z"/>
	<path class="st0" d="M1069.3,1032.4c3.9-41.8,9.4-83.2,21.2-123.5c1.7-5.7-6.8-8.6-8.8-2.9c-14,41.1-22.5,82.4-20.7,126
		C1061.3,1037.1,1068.8,1037.7,1069.3,1032.4z"/>
	<path class="st0" d="M1166.2,1000c9.4-32.7,15.1-64.8,20.7-98.2c0.9-5.4-7.2-6.3-9-1.7c-12.1,30.5-25.8,60.7-38.8,90.9
		c-11,25.6-34,56.4-31.8,84.6c0.9,11.3,12.5,18.4,22.1,10.7C1153.1,1067.3,1158.1,1028.1,1166.2,1000z"/>
	<path class="st0" d="M1219.5,975.6c0.6-4.8-7.4-6.4-8.5-1.6c-8,34-24.5,62.7-39.4,93.9c-3.3,6.8,6.9,10.1,11,5.4
		C1205.6,1046.4,1214.8,1010.1,1219.5,975.6z"/>
	<path class="st0" d="M1237.9,1006.9c-14.9,21.6-34.9,43.9-44.3,68.5c-3.3,8.5,8.2,12.3,13.2,6.5c16.8-19.3,26.9-47.1,38.7-69.8
		C1248.3,1006.9,1241.4,1001.9,1237.9,1006.9z"/>
	<path class="st0" d="M1305.4,947.3c0.7-5.7-8.6-7.5-10-1.9c-7.3,28.3-20.7,55.4-35.4,80.6c-4.2,7.3,5.4,13.4,10.7,7.1
		C1291.9,1007.8,1301.3,979.9,1305.4,947.3z"/>
	<path class="st0" d="M1426.9,936.4c-1.6-6-10.9-5.7-11.2,0.9c-0.8,20.3-5.7,40.5-15.4,58.4c0.6-2.4,1.2-4.8,1.7-7.2
		c5.4-25.5,10.9-79.8-26.5-83.4c-5.1-0.5-6,6.7-1.6,8.5c25.2,10-2.9,65.3-10.5,78.9c-8.6,15.4-19.8,25.4-33.2,34.1
		c5.6-11,10.1-22.2,13.7-32.4c12.2-34.5,15.2-70.6,10.5-106.8c-0.7-5.5-9.4-4.7-9.6,0.8c-1.3,34.8-9.9,68-27.4,98.3
		c-15.3,26.5-41.3,43.8-56.6,69.4c-8.6,14.3,5.8,30.3,21,23.8c9.3-4,17.5-10.4,24.8-18.1c2.3,6.2,7.7,10.9,16.1,10.5
		c19.3-1,35.1-9.2,47.6-21.4c3.2,6.2,12,9.5,18.9,6.7C1431.3,1039.9,1436.8,974.4,1426.9,936.4z"/>
	<path class="st0" d="M1534.5,941.4c-0.6-7.7-11.4-8.7-12.3-0.6c-3.3,31.3-11.8,62-23.3,91.2c-5.3,13.5,16.1,20.6,21.4,7.1
		C1532.9,1007.1,1536.9,975.6,1534.5,941.4z"/>
	<path class="st0" d="M363.4,662.8c5.9,0.6,12.2-5.6,11-12.1c-3-16.1-7.5-31.7-11.3-47.7c-3.7-15.6-3.4-32-7.5-47.3
		c-1-3.6-6.3-5-8.4-1.5c-13.5,23.2-12.5,55-2.6,81.1C350.6,644.9,356.9,654,363.4,662.8z"/>
	<path class="st0" d="M379.5,524.9c-3.4-4.5-9.8,1.4-6.4,5.9c37.4,49.6,43.8,105.3,55.3,164.1c2.7,14,25.5,12.3,25.3-2.3
		C452.8,629.8,416,573.3,379.5,524.9z"/>
	<path class="st0" d="M430.3,573c-1.1-3.7-7.4-5.1-8.4-0.5c-4.5,20.4-6.5,41.3-11.9,61.5c-5.5,20.8-15.2,39.8-22,60.2
		c-4.6,13.8,15.3,24.1,23.3,11.4C433.9,669.6,442.3,614,430.3,573z"/>
	<path class="st0" d="M473.5,625.9c-0.5-5.3-8.8-4.4-9.1,0.7c-3,48-17.9,92.2-24.7,139.2c-2.3,16.3,23,20.3,28,5.3
		C482.5,726.4,478.1,672.1,473.5,625.9z"/>
	<path class="st0" d="M508.4,793.7c7.4-49.7,11.9-99.6,17.1-149.6c0.6-5.4-8.3-7.2-9.5-1.8c-11.2,49.9-22.8,99.7-31.7,150.1
		C481.6,807.5,506.1,809.1,508.4,793.7z"/>
	<path class="st0" d="M603.7,835.5c0.3-27.1,0.7-54.1,1-81.2c0.3-26.3-40.2-28.7-41-2.1c-0.9,27-1.7,54.1-2.6,81.1
		C560.3,860.6,603.4,862.9,603.7,835.5z"/>
	<path class="st0" d="M984.8,244.1c-2.9-4-10.7-1.5-10.3,3.6c1.7,21.7,7.5,42.1,7.5,64.2c0,5.7-0.1,11.4-0.4,17.1
		c-2.3-4.6-6-8.5-10.2-10.4c-8.7-4.1-22.4-2.5-27.3,7.2c-7.3,14.3-14.3,28.5-20.6,43.2c-9.2,21.4,25.4,38.5,37,18.1
		c7.1-12.5,13.5-25.2,19.7-38.1c-0.9,9.7-2,19.3-3.7,28.8c-2.6,14.4,22,19.1,25.5,4.8C1012.7,338.9,1012.3,282.3,984.8,244.1z"/>
	<path class="st0" d="M1120.2,308.5c4.7-20.2-26.3-30.4-30.7-10.2c-4.2,19.6-8.4,39.1-12.7,58.7c-4.2,19.4,25.1,29.6,29.7,9.9
		C1111.1,347.4,1115.6,327.9,1120.2,308.5z"/>
	<path class="st0" d="M1174.1,339c6.8-21.1-25.4-31.8-32.6-10.8c-10.9,31.7-21.7,62.1-26.6,95.4c-1.8,12.3,17.6,18.7,23.5,7.8
		C1154.3,401.7,1163.8,370.9,1174.1,339z"/>
	<path class="st0" d="M1204.7,360.2c0.6-5.9-9.1-7.9-10.5-2c-8.4,35-20.5,68.6-34.3,101.8c-5.8,13.9,17.4,21.9,22.4,7.4
		C1194.3,432.7,1201.1,396.8,1204.7,360.2z"/>
	<path class="st0" d="M1280.6,400.5c1.7-24.5-35.4-26.2-37.9-2c-2.3,22-7.7,44.3-13.3,65.8c-4.3,16.6,19.1,30.8,28.8,14.1
		C1272.4,453.6,1278.6,429,1280.6,400.5z"/>
	<path class="st0" d="M1310.3,510c3.5-13.5,7.1-27,10.6-40.5c2.2-8.3-9.4-12.2-12.7-4.2c-5.2,12.9-10.5,25.9-15.7,38.8
		c-4.8,11.9-11,23.6-12.4,36.4c-1.1,9.7,13.4,14.5,18.3,6.1C1304.9,535.6,1307,522.4,1310.3,510z"/>
	<path class="st0" d="M1391.7,474.2c8.8-24.8-28.6-36.6-38.5-12.8c-9.5,22.8-19,45.6-28.5,68.4c-8.8,21.3-20,42-21.7,65.2
		c-1.5,20.9,25.1,27,36.6,12.2c14.1-18.1,19.7-41.9,27.3-63.3C1375.2,520.7,1383.4,497.5,1391.7,474.2z"/>
	<path class="st0" d="M1415,505.4c-0.5-6.7-11.2-10.5-13-2.4c-3.9,17.2-9.4,33.8-17.3,49.6c-7.1,14.2-17.2,27.3-17.5,43.7
		c-0.2,9.3,10.9,19.3,20,13.1C1417.5,589,1417.2,538.1,1415,505.4z"/>
	<path class="st0" d="M1492.1,538.4c2.9-31.7-45.5-33.9-49.2-2.5c-2.2,18.4-7.4,35.4-12.1,53.2c-4.2,15.8-3.2,37.8,17,40.5
		C1484.9,634.5,1490,562.4,1492.1,538.4z"/>
	<path class="st0" d="M1595.4,678.3c6.9-24.3,25.1-67.7,13.5-92.5c-11.4-24.3-40.3-21.3-68.1-10.2c0.1-0.5,0.2-1,0.3-1.4
		c6.6-27.6-32.2-41.4-42.4-14.1c-7.5,20.1-15.4,40-22,60.3c-8.8,26.7,32,49,46,22.5c4.6-8.8,8.8-16.1,16.2-23.1
		c7.2-6.7,18.9-8.1,25.2-13.4c1,0.1,1.8,0.1,2.6,0.1c-0.2,0.7-0.4,1.4-0.7,2.1c-4.8,9.2-7.2,22.5-10.7,32.3
		c-11.5,32.4-40.1,72.1-31.6,107.1c2.8,11.4,15.8,18.7,26.7,12.9C1580.4,745.3,1586.9,708.4,1595.4,678.3z"/>
	<path class="st0" d="M1624.3,715c-9.4,22-18.8,44.1-28.3,66.1c-11.2,26.1,30.8,39.9,41.9,13.9c9.4-22,18.8-44.1,28.3-66.1
		C1677.3,702.8,1635.3,689,1624.3,715z"/>
	<path class="st0" d="M861.4,145.2c-15.7,20.4-32.2,40-49.2,59.2c-13.5,15.2-27.7,28.8-36.2,47.3c-6.7,14.5,13.2,23.1,23.5,15.6
		c34.8-25.5,54.5-79,72.4-117C874.8,144,865.2,140.2,861.4,145.2z"/>
	<path class="st0" d="M810.9,92.6c-0.4,1.2-0.9,2.4-1.3,3.6c-7.4,21.4-29.8,31.7-51.2,25.7c-1-0.3-2-0.7-3-1
		c-17.4,24.9-36.2,49-50.7,75.4C694,216,716.4,237.9,735,222.8c33.1-27.1,56.2-67.8,77.2-104.5C817.6,108.8,815.9,99.5,810.9,92.6z"
		/>
	<path class="st0" d="M680.1,143.4c-13.9,32-29.6,62.8-46.6,93.3c-13.3,23.8-28.1,45.4-32.1,72.8c-1.4,9.7,12.8,16.7,19.6,9.5
		c20.3-21.4,27.7-49,37-76.4c10.9-31.9,21.2-63.9,32.3-95.7C692.6,140.1,682.8,137.1,680.1,143.4z"/>
	<path class="st0" d="M548.6,160.9c-19,35.8-40.5,71.3-55.5,109c-4.9,12.4,15.3,22.8,21.5,10.5c18.2-36.5,30.5-76.1,44.6-114.4
		C561.3,160,551.7,155,548.6,160.9z"/>
	<path class="st1" d="M999,695.7c0.7-10.9,2.4-21.4,1.5-32.3c-0.8-10.5-0.9-21.1-0.5-31.6c1.1-26.7-39.4-28.9-41.5-2.2
		c-0.2,1.9-0.3,3.9-0.4,5.8c-0.3,0.3-0.7,0.6-1,1.1c-0.3,0.5-0.5,1-0.8,1.5c-0.9-3.5-2-7.1-3-10.8c-4-13.7-7.9-27.3-11.9-41
		c-5.3-18.3-27-19.1-36.1-7.9c-7.7-11.9-29.2-14.1-35.2,3.5c-4,11.5-7.9,23-11.9,34.5c-1.3-6.2-2.6-12.4-4-18.5
		c3.3-7.7,6.2-15.3,8.6-22.6c7.4-22.6-26.8-33.9-35.1-11.6c-0.6,1.7-1.4,3.4-2.1,5.1c-11,1.9-20.6,11-17.2,25.1
		c0.5,2.1,1,4.3,1.5,6.5c-3.7,6.1-7.6,12.1-12,17.7c3.6-16.4,6.7-33,9.8-49.7c1-5.5-7.7-5.9-8.7-0.5c-2,10.6-4.5,21-7.3,31.4
		c-1.1-9.7-2.2-19.5-3.2-29.1c-1.5-15.8-13.7-21.8-25.9-20.2c0.7-15-22.9-15.6-25.1-0.1c-1.6,11-3.6,21.9-5.7,32.8
		c-4.2,2-7.7,5.6-9.1,10.5c1.5-13.9,4.1-27,1.7-41c-0.6-3.4-5.1-4.8-7.6-2.5c-1.7,1.6-3.3,3.4-4.8,5.1c-1.1-10.5-3.2-21-5.9-31.4
		c-4-15.3-26.9-10.6-24.1,5.1c2.7,14.8,3.2,29.6,3.1,44.5l-2.9,9.6c-1.3,4.3,0,7.8,2.4,10.2c-0.3,7.5-0.5,15-0.7,22.5
		c-0.1,4.7,2.4,7.6,5.5,8.8c-0.2,5.9-0.2,11.7,0.2,17.1c0.1,1.5,0.4,2.8,0.8,4.1c-2.8,2.4-5.1,5.5-6.8,9.1
		c-8.4,17.5-19.1,35.1-21.6,54.5c-1.9,14.7,19.8,26.2,30.2,14.6c11-12.1,17.6-27.5,24-42.7c0.6,0.8,1.3,1.5,2,2.2
		c-0.9,3.7-1.8,7.5-2.7,11.3c-2.8,11.9,11.5,18.9,18.6,11.9c1,0.3,2.1,0.4,3.3,0.4c7-0.4,13.7-1.7,20.3-3.7c0.7,1.8,2.1,3.1,3.9,3.9
		c0.8,0.7,1.7,1.2,2.6,1.7c-4.6,12.8-9.8,25.6-10.3,39.1c-0.4,10.2,13,14.6,18.8,6.2c8.6-12.4,11.9-27.7,16.5-41.9
		c1.1-3.3,2.2-6.7,3.3-10c-0.9,4.9-1.8,9.9-2.4,14.9c-1.2,9.4,14.4,10.4,14.9,0.8c0.9-18.6,4.1-36.7,9.3-54.4
		c2.3-2.7,4.6-5.5,6.8-8.4c0.6,4.5,1.1,9.2,1.6,13.9c-1,2.5-0.5,5.3,1,7.7c-1.9,9.2-3.6,18.4-4.4,27.8c-0.5,5.5,1.4,9.9,4.3,12.9
		c-1.4,4.6-2.6,9.1-3.6,13.7c-2.9,12.9,14,18.6,19.5,6.5c2.5-5.5,4.7-11.3,6.7-17.2c3.3-1.8,6.1-4.7,7.8-8.8
		c1.5-0.2,3.1-0.5,4.7-1.1c13.6-5.2,18.5-17.3,22.1-30.3c-1.1,6.9-2,13.9-2.7,20.8c-0.1,1.5,0.1,2.8,0.5,4.1
		c-1.8,7.1-3.3,14.1-4.1,21.3c-1,8.4,10.1,10.5,14.6,4.8c15.4-19.8,21.8-47.9,25.1-75.2c2.2,7.3,5.5,14.2,11.5,19.9
		c3.2,3,7,4.7,10.9,5.4c-6.3,14.1-12.7,27.5-14.7,43c-1.5,11.4,16,17.2,21.6,7.2c8.1-14.4,10.8-29.8,14.5-45.7
		c0.6-2.8,1.3-5.6,2-8.3c2,8.6,5.5,16.7,9.1,24.9C975.5,716.9,998.1,711.1,999,695.7z M718,631.6c1.7-11.1,3-22.2,4.2-33.5
		c0,0.8,0,1.6,0.1,2.4c0.7,5.4,1.5,10.8,2.2,16.2c-1.2,5.3-2.4,10.7-3.7,16C719.9,632.2,718.9,631.8,718,631.6z M905.1,611.7
		c-1.2-0.1-2.4-0.1-3.6,0.1c0.7-2.3,1.5-4.7,2.2-7C904.2,607.1,904.7,609.4,905.1,611.7z"/>
	<path class="st1" d="M1431.4,1000.8c15.4-21.2,30.6-43.5,35.5-69.2l-0.7,0.2c-0.2-10.3-8.3-21.3-20.7-14.2c-7,4-13.5,9.1-19.7,14.6
		c-7-5.7-17.1-7.6-24,0.2c-18.7,21.2-39.4,42.1-57.9,64.3c-3.3-3.1-7.3-5.1-11.5-5.9c16.3-18.3,31.2-37.7,45.1-55.6
		c14.4-18.6-15.9-38.6-30.3-20.3c-13.9,17.8-29.6,33.9-45.6,49.9c2.6-13.8-19.6-25.8-31.2-11.5c-11.2,13.6-22.2,27.3-33,41.2
		c-3.3-5.1-9.4-8.3-15.8-8.8c2.7-3.5,5.3-7,7.9-10.4c14-18.2-10.8-38.6-27.5-29c1.6-18.3-25.9-32.5-39.3-13.5
		c-27.5,39-62.3,74.8-85.2,116.6c-8.1,14.8,8,27.9,21.4,18.8c5.7-3.9,11.1-8.2,16.4-12.7c1.2,1.4,2.6,2.6,4.1,3.7
		c-0.2,7.8,10,13.7,17.1,10.2c20.2-10.1,37.6-26.1,53.3-43.9c-6,14.4-11.2,29.2-13.1,44.6c-2.1,17.5,21.7,22.9,31,10.3
		c8.4-11.5,14.4-24.9,19.5-38.7c3.3,0.6,6.8,0,9.7-2.6c-0.8,9.6,10.4,18.5,20.2,13.7c16.3-8.1,31.4-19.2,45.5-31.9
		c-9.3,19.1-16.2,38.8-20,60.2c-4,22.6,32,28.1,39,7.3c1.8-5.4,3.6-10.8,5.5-16.1c4.9,8.6,16.6,13.4,26.4,8.7
		c20.7-9.9,37.2-26.9,51.6-45.2c-2.9,4.6-5.8,9.2-8.6,13.8c-12.1,19.3,17.1,38.9,29.4,19.7c8.9-13.8,17.7-27.6,26.6-41.4
		C1462.9,1012.2,1445.1,996,1431.4,1000.8z"/>
	<path class="st1" d="M1125.6,921.1c-33.7,37.9-73.4,67.5-110.5,101.7c-10.9,10.1,1,28,14.5,21.5c46.1-22,84.7-60.2,118.4-97.8
		C1162.3,930.5,1140,904.9,1125.6,921.1z"/>
	<path class="st1" d="M999.7,947.4c-11.8,16.6-25.7,31.5-39.2,46.7c14-21.4,25.7-44.9,38.5-66.8c11.1-19-17.1-38.2-28.6-19.1
		c-16.7,27.8-36,55.3-49.5,84.8c-6.9,15.1,11.2,25.3,23.6,19.9c-4.7,5.9-9.3,11.8-13.5,18.1c-6.6,9.8,4.7,23.4,15.4,17.5
		c33.5-18.4,58.4-52.3,80.6-82.8C1039.4,948.5,1012,930.2,999.7,947.4z"/>
	<path class="st1" d="M514.7,734.8c-2.9-13.6-4.6-26.7-4.4-40.6c0.4-32.5-49-35.5-50.7-2.6c0,0.9-0.1,1.8-0.1,2.8
		c-6.1-28.9-13.2-57.7-15.4-87.2c-1.1-14.3-15.2-20.9-25.8-18.4c0.6-6.8,1.4-13.7,2.5-20.5c5.3-31.7-45.1-34.4-50.2-2.6
		c-0.3,2-0.6,4.1-0.9,6.3c-1.1-11.4-2.4-22.8-3.8-34.1c-2.9-23.2-34.6-18.4-38.7,1.4c-4.4-5-10.7-8.4-17.2-8.7
		c-13.8-0.7-23.7,9.9-25.3,22.8c-3.5,27.9-0.8,54.5,10.6,80.2c7.2,16.4,26.4,14.2,35.6,3.1c0.1,5,0.2,10,0.4,15
		c0.8,25.7,38.5,28.5,40.5,2.1c0.2-2.1,0.2-4.1,0.3-6.2c3.6,13.1,9.5,25.2,18.6,34.8c6.6,6.9,15.9,7.4,22.8,3.5
		c4.1,26.9,11.1,53,23.8,74.9c6.3,10.9,25.4,11.5,30.3,0.5c4.9,10.9,12.5,19.8,24.1,23.9c6.8,2.4,16.6-0.4,20.3-7
		C520.1,763.7,518,750.5,514.7,734.8z"/>
	<path class="st1" d="M586.3,827.8c-5.8-23.3-13.1-46-20.3-68.9c-3.5-11.2-13.5-19.4-25.8-16.8c-11.1,2.4-19.8,14.4-16.8,25.8
		c6,23.2,11.9,46.3,19.3,69.1c3.7,11.4,13.8,19.9,26.5,17.2C580.5,851.8,589.2,839.6,586.3,827.8z"/>
	<path class="st1" d="M649.4,833.3c-3.9-15.8-8.1-31.3-13.1-46.7c-3.6-11.1-13.3-19.2-25.5-16.6c-10.9,2.3-19.7,14.3-16.6,25.5
		c4.3,15.7,9.2,31,14.6,46.4c3.7,10.6,12.7,18.6,24.6,16C644.1,855.7,652.1,844.3,649.4,833.3z"/>
	<path class="st1" d="M1028.2,339.8c3.2-16.8-1.2-36.5-2.6-53.5c-1-12-15.7-19.5-26.5-17.2c-12.7,2.7-18.6,14.4-17.2,26.5
		c2,17.5,2.3,35.7,8.9,52.1c3.3,8,13.7,12.2,21.7,10.5C1021.9,356.1,1026.6,348.6,1028.2,339.8z"/>
	<path class="st1" d="M1102.2,364.7c0.9-31.1-3.9-59.5-14.1-88.8c-7.2-20.9-40.7-15.3-34.6,7.3c7.4,27.3,11.9,56.1,14.7,84.2
		C1070.2,386.9,1101.6,383.9,1102.2,364.7z"/>
	<path class="st1" d="M1576.8,606.5c-4.8-5.2-10.2-10-16-14.1c0.4-5.4,0.7-10.7,0.8-16c0.4-19.7-16.4-33.3-35.5-30.3
		c-19.6,3-36.9,11.3-52.3,23.5c-6.8-10.5-14.5-20.5-23.7-28.7c-3.7-3.3-9.9-1-8.9,4.4c3,16,7.4,31.6,10.1,47.6
		c-5.1,6.1-10.5,12-16.2,16.5c-0.6-1.4-1.1-2.9-1.7-4.3c5.7-3.6,10-9.5,10.3-16.2c2.7-16.2-3.6-32.2-9.3-47.4
		c-6-16.1-13.7-31.3-22.8-45.8c-10-16-31.5-10.5-35.8,3.3c-2.3-18-4.5-36-6.8-54c-3.6-28.5-52-25.2-50.7,4c0.1,2.6,0.2,5.2,0.3,7.8
		c-1.2,0.9-2.3,1.9-3.4,3.1c-9.2-20.1-18.3-40.2-26.4-60.2c-8.5-21.1-44.8-9.1-38.6,12.8c-9.1-16.8-18.9-33.3-26.9-49.2
		c-3.2-6.3-8.4-9-13.8-9.2c-3.7-13.6-22-16-32.3-8.9c-0.2-1.8-0.5-3.6-0.7-5.3c-1.6-12.5-16-20.5-27.7-18c-12.9,2.7-20,15.2-18,27.7
		l9.6,61.5c1.9,12,15.3,19.9,26.8,17.4c2.5-0.5,4.7-1.5,6.7-2.7c0.2,3.8,0.4,7.6,0.7,11.5c1,16.7,1.2,48.7,26.3,46.6
		c13-1.1,17.8-10.2,19.2-20.8c4,12.8,8.5,25.4,14.5,37.3c4.3,8.6,15.8,15.2,25.5,12.3c1.9-0.6,3.8-1.3,5.6-2
		c5.2-2,8.7-6.4,10.7-11.4c0.9,3.2,1.9,6.4,2.8,9.6c7.3,26.3,10.8,63.4,25.9,86c5.8,8.7,14.7,18.2,26.5,17.3
		c1.1-0.1,2.2-0.2,3.4-0.2c16.1-1.2,29-10.2,30.5-27.5c0.1-0.8,0.1-1.6,0.2-2.5c0.2-1.9,0-3.7-0.2-5.5c1.1-0.5,2-1.2,2.9-2
		c-0.1,0.3-0.3,0.6-0.3,0.9c-2.3,11.3-5.7,22.8-5.7,34.3c0.1,0,0.1,0,0.2,0c-0.3,9.1,5.2,18.5,14.2,21.1c8.7,2.5,16.7-0.1,22.1-6.1
		c1.1,3,2.2,6.1,3.4,9.1c5.1,12.3,11,21.7,25.7,22.1c14.1,0.4,25.7-6.4,36.6-15.1c1.2,1,2.4,1.9,3.8,2.7c4.4,2.5,9.1,3.2,13.5,2.2
		c-1.8,11.1-2.7,22.1-2.1,32.5c1.1,18.8,25,37.3,41.3,20c9.6-10.3,17.1-22.5,23-35.8c5.7-0.7,11.2-2.6,16-5.9
		c1,20.7,2.5,43.4,25.1,51c7.3,2.5,15.6-0.5,20-6.8C1623.9,673.8,1595.6,626.9,1576.8,606.5z M1373.2,567
		c4.1-12.7,7.9-25.2,10.9-38.2c2.4,6.1,4.5,12.3,6.3,18.6c-6.2,2.7-11,8.2-10.6,15.3C1377.4,563.7,1375.1,565.1,1373.2,567z"/>
	<path class="st1" d="M1661.9,747.5c-15.7-5.2-23.8,19.1-8.1,24.3C1669.4,777.1,1677.5,752.7,1661.9,747.5z"/>
	<path class="st1" d="M576.8,268.1c1.2-13.8-2-27-3.8-40.6c-1.8-13.5-2.4-27.1-2.7-40.8c-0.2-6.9-2.9-12.2-7-15.9
		c4.8-19.9,8.6-40.3,13.9-59.5c9.7-34.9-45-52.4-53.1-17.6c-8.7,37.7-18.4,81.1-9.5,119.6c1.7,7.2,6.4,11.5,11.8,13.1
		c0.4,17.6,2.4,35.2,8.8,50.5C544.2,298,575,288.6,576.8,268.1z"/>
	<path class="st1" d="M679.6,151.8c3.5-4.2,7-8.5,10.5-12.7c4.2-5.1,4.8-12.9,3.7-19.2c-1.3-7.7-6.9-13.9-13.6-17.2
		c-6.3-3.1-12.6-3.5-19.2-1.2c-3.2,0.8-5.9,2.4-8.4,4.7c-3.4,3-5.8,6.7-7.3,11c-1.2,2.6-2.4,5.1-3.6,7.7c-5.4,1.8-9.9,5.8-11.2,12.6
		c-3.7,19.7-7.5,39.5-11.2,59.2c-3.6,18.8-7.5,34.9-1.4,53.6c4.1,12.3,18.7,15.9,26.9,5.2c12-15.5,13.9-31.9,16.7-50.8
		c2.2-14.7,4.4-29.4,6.6-44.1C672.8,158.7,676.3,155.8,679.6,151.8z"/>
	<path class="st1" d="M1239.3,493.9c1.3-8.4,2.5-16.8,3.7-25.2c11.8-25.9,17.1-56.9,20.4-83.1c3.8-29.9,3.7-70.7-29.4-84.5
		c-2.4-1-4.8-1.7-7.2-2.2c-0.5-3.5-1-6.7-1.6-9.5c-5.5-28.3-38.4-27.4-51.3-9.1c-0.4-3.8-6-4.5-7.4-0.7c-8,20.8-14.7,41.4-20.4,62.3
		c0.8-16.2,0.5-31.8-0.1-44.5c-0.7-17.2-15.2-26-31-20.3c-10.5,3.8-20.7,8.2-30.4,13.4c-3.2-33-20.2-56.3-64.8-44.7
		c-3.6,0.9-7.4,2.3-11.4,3.8c15.2-27.2,15.2-63.1,21.6-92.7c3.9-18-2.8-36.9-21.6-43.1c-6.8-2.3-14.6-2-21.6,0.3
		c-0.7-11.7-8.6-18.6-18.1-20.5c-20.1,21.7-61.6,20.6-68.7-17c-0.2-0.9-0.6-1.8-1.2-2.7c1.1,15.9,0.2,31-1.6,45.8
		c-6.6-3-14.4-4.8-21.1-2.5c-6.6,2.3-11.3,3.3-16.6,8.3c-0.6,0.6-1.2,1.1-1.8,1.7c-1-15.9-2.3-31.8-3.8-47.6
		c-0.8-8.3-7.3-12.6-14.5-13.4c-3.9,7.1-9.1,13.6-15.4,18.8c-1.6,1.4-3.3,2.5-5,3.6c0.1,3.5,0.2,7.1,0.3,10.6
		c-2.1-2.6-4.9-4.8-8.3-6.7c-0.1,0-0.3,0.1-0.4,0.1c-0.5,1.3-0.9,2.5-1.4,3.8c-7.4,21.4-29.8,31.7-51.2,25.7
		c-14.2-4-24.2-17-26.9-31.2c-11.1,3.3-20.8,14.4-21.3,26.2c-0.9,2.5-1.5,5.2-1.5,8l0.3,20.7c-14.5,0.2-25.2,10.4-26.8,24.7
		c-0.7,6.7-1.8,13.4-1.7,20.2c0.1,12.7,7.9,23.6,20.7,26c11.7,2.2,25.5-4.5,28.8-16.7c0.2-0.8,0.4-1.6,0.5-2.4c3.3,1,7,1.4,10.8,1.1
		c5.9-0.5,10.9-2.5,15-5.6c7.4,3.8,15.7,5.5,25,3.9c9-1.5,16.3-10.5,16.7-19.5c0.1-1.5,0-2.9-0.1-4.4c3.6-4,6.9-8.1,9.7-12.8
		c4.3-7.3,8-15,11.7-22.6c-0.5,11.9-1.3,23.7-2.7,35.7c-3.2,27.8-14.5,58.3-8,85.9c4.2,17.6,30.9,25.5,40.9,7.9
		c14.2-25.2,12.1-55.9,11-84.5c3.3,2.3,7,4.1,10.8,5.2c-4.3,5.3-6.8,11.3-7.5,19.9c-0.5,6,5.7,11.7,11.8,10
		c8.3-2.2,13.8-5.6,18.3-10.8c8.8,7,23.2,7.8,34.2,2.5c0.6,5.7,2,11.1,4.4,16.2c-2.4,5.9-4.7,11.9-6.5,17.9
		c-3,9.7-4.4,18.4-3.9,27.1c-18.4,16.8-28.3,42.5-34.9,66.9c-5.9,21.7,12.8,36.7,29.8,36c2,6.6,5.2,13.1,10.1,19.4
		c17.1,22.1,46.8,23.6,68.8,10.2c0.1,0,0.3,0.1,0.4,0.2c4.3,1.2,8.1,0.5,11.2-1.5c0.6,30.3,41,32.2,53.2,7.1
		c5.5-11.4,11.9-28.9,16.7-48.4c5.3-10,11.9-19.1,19.9-26.5c-1.9,8.7-4.1,17.4-7,26c-6.2,18.6-16.8,34.4-15.5,54.4l1.1-0.8
		c-0.7,19,19.6,34.8,38.1,19.7c6.9-5.6,12.3-13,16.7-21.4c-1.9,10.8-3.6,21.7-5.1,32.8c-0.9,6.3,5,9.7,10.3,9.1
		c3.2,9.1,9.4,16.9,19.4,19.6c4.6,1.2,8.9,1.8,12.9,2.1c-1.6,20.3,20.9,38.9,42.2,31.5c-3.4,9.8-5.4,19.8-3,30.3
		c1.4,6.3,10.2,10.3,15.1,5C1235.3,529,1236.5,511.7,1239.3,493.9z M1030.8,335c1-12.8,0-25.5-2.8-36.6c2.3-1,4.5-2,6.8-2.8
		c0.1-6.4,0.4-3.5,0.9,8.7c0.2,9.2-0.5,18.1-2,26.9C1032.7,332.4,1031.7,333.7,1030.8,335z"/>
	<path class="st0" d="M957.6,371.9c7.5-38.2,7.7-75.6,4.9-114.4c-0.9-12.5-20.4-14.1-20-1c1.3,37.4-1.3,74.7-2.9,112.1
		C939.2,378.5,955.5,382.4,957.6,371.9z"/>
	<path class="st0" d="M1029.2,340.1c0.3-21.3-2.3-42.3-7.9-62.8c-1.6-5.7-10.8-3.7-9,1.9c6.1,19.7,9.4,39.8,9.8,60.5
		C1022.1,344.3,1029.1,344.8,1029.2,340.1z"/>
	<path class="st0" d="M1072.4,401.7c7-32.7,9.5-65.9,13.1-99.1c1.3-12.5-17.9-13.4-19.5-1c-4.1,32.3-9.4,64.4-10.1,97
		C1055.7,407.7,1070.3,411.4,1072.4,401.7z"/>
	<path class="st0" d="M1106.8,413.1c6.4-33.5,8.2-66.7,5.4-100.7c-1-12.6-23-11-22.3,1.8c1.7,30.7-0.4,61-6.9,91
		C1079.5,420.9,1103.8,428.8,1106.8,413.1z"/>
	<path class="st0" d="M1170.5,341.9c0.9-19.1-28.4-20.7-29.7-1.5c-1.9,27.3-5.2,54-0.9,81.2c1.8,11,18.7,11.9,21.8,1.2
		C1169.3,396.2,1169.1,369.3,1170.5,341.9z"/>
	<path class="st0" d="M1215.3,340.5c1.2-16.8-24.6-18.1-26.1-1.4c-4.1,44.9-13.4,92.7-8.5,137.6c1.2,10.7,18,11.1,20.8,1.2
		C1213.6,434.3,1212,385.5,1215.3,340.5z"/>
	<path class="st0" d="M1286.4,451.1c-10.7-3-22.3,2.1-25.9,13l-7.5,22.7c-3.4,10.2,2.3,22.9,13,25.9c10.7,3,22.3-2.1,25.9-13
		l7.5-22.7C1302.8,466.9,1297.1,454.1,1286.4,451.1z"/>
	<path class="st0" d="M901.1,177c-5.7,9.4-11.3,18.8-17,28.1c-9.3,15.5,13.3,30.9,23.5,15.7c6.1-9.1,12.2-18.2,18.2-27.3
		C936.5,177.5,910.9,160.6,901.1,177z"/>
	<path class="st0" d="M877.3,109.2c-19.4,30.7-43.6,61.4-54.1,96.4c-4.2,14.1,13.3,27.3,24.8,16.4c26.6-25.2,43-59.9,61.8-91.1
		C922.6,109.4,890.7,87.9,877.3,109.2z"/>
	<path class="st0" d="M815.9,119.5c-13.9,23.3-31.5,43.3-49,63.8c-10,11.8,8.3,24.8,19.1,16.8c22.9-16.9,39.7-40.1,53.8-64.6
		C848.9,119.5,825.3,103.5,815.9,119.5z"/>
	<path class="st0" d="M758.3,121.9c-6.9-1.9-12.7-6-17.2-11.2c-16.9,23.3-37.9,41.4-57.4,63.1c-9.4,10.5,0.1,26.3,13.9,20.7
		c32.1-13,56.8-42.4,75.7-70.9C768.5,123.8,763.4,123.3,758.3,121.9z"/>
	<path class="st0" d="M658.4,108.7c-18.7,24.3-40,48.2-55.2,74.8c-7.3,12.7,8.5,28.9,20.3,17.8c23.3-22,42.2-49.3,62.2-74.4
		C698.9,110.5,671.3,91.9,658.4,108.7z"/>
	<path class="st0" d="M576.2,98.2c-18.1,40.4-46.5,70.9-69.2,108.1c-9.5,15.5,8.8,29.1,22.6,19.8c38.9-26.3,63.5-74.3,82.2-116
		C621.6,88,586,76.3,576.2,98.2z"/>
	<path class="st0" d="M510,104.5c-33.7,43.2-60.6,92.3-67.6,147.1c-2.5,19.8,27,23.9,33.5,6.3c17.3-47.4,33.7-92.5,63.1-134
		C552.1,105.4,523.7,87,510,104.5z"/>
	<path class="st1" d="M534.4,156.6c5.7-20.7,12.3-41.1,19.5-61.4c3.6-10-11.6-14.8-15.6-5.2c-2.9,7-5.7,14-8.5,21.1
		c-3.2,0.5-6.3,2.5-8.1,6.9c-3.9,9.3-8.7,18.1-13.3,27.1c-2.8,5.4,0.9,10.3,5.3,10.9c-5.6,16.3-11.9,33.2-10.8,50.3
		c0.5,7,10.2,12.4,14.6,4.8C527.2,194.8,529.4,174.9,534.4,156.6z"/>
	<path class="st1" d="M673.6,180.8c5.8-6.3,11.5-12.7,17.3-19c1.5-4,1.2-9.7,1.9-14c0-0.1,0-0.2,0.1-0.3c4.5-10.4,7.6-21.5,9.2-33
		c2.9-21.1-29.4-22.2-32.8-1.7c-0.2,0.9-0.4,1.8-0.6,2.7c-1-10.9-4.6-20.9-15.3-25c-13.8-5.3-28.6,0.2-42.3,10.4
		c-5.3-0.6-10.8,1.9-13.1,8.8c-0.5,1.4-0.9,2.8-1.4,4.2c-6.4,6.7-12.3,14.1-17.4,21.4c2.3-7,4.7-14,7-21c5.5-16.3-20-24.8-25.3-8.4
		c-9.9,30.2-20.4,60.4-29.4,90.9c-4.6,15.5,18.2,23.1,23.9,7.9c0.8-2.2,1.6-4.4,2.4-6.7c1.4,6.1,4.8,11.6,10.9,16
		c12.5,8.9,29.1,7.9,43.9,3.9c3.8,3.8,9.1,5.7,14.2,5c6.8,4.7,17.7,4.3,22.8-3.5c5.3-8.2,9.1-17.8,11.8-27.9
		c3.8-3.4,7.5-7.1,10.9-11C672.7,180.6,673.1,180.7,673.6,180.8z M611.8,167.6c3.4-14.4,6.7-28.8,10.1-43.2c1.8-1.5,3.7-3,5.7-4.3
		c-4.8,14.2-8.4,28.4-11.9,43c-1.4,5.8-3.2,11.7-4.7,17.7c-0.8,0.3-1.5,0.5-2.3,0.7C609.7,177,610.7,172.3,611.8,167.6z"/>
	<path class="st1" d="M764,123.1c-1.9-0.3-3.8-0.6-5.7-1.2c-7-2-13-6.2-17.6-11.7L728.1,174c-3,15.3,20,23.4,23.4,7.8
		C755.6,162.2,759.8,142.6,764,123.1z"/>
	<path class="st1" d="M812.5,139.2c4.9-16.1-19.1-24.1-24.8-8.2c-5.7,15.8-13.3,32.1-15.7,48.8c-1.8,12.6,17.9,19.1,23.9,8
		C804,172.8,807.6,155.2,812.5,139.2z"/>
	<path class="st1" d="M846.7,137.9c3.8-16.4-19.9-25-25.3-8.4c-7.9,24.5-20,46.2-30.1,69.7c-7.1,16.5,19,29,28.3,13.9
		C833.4,190.7,840.9,163.3,846.7,137.9z"/>
	<path class="st1" d="M906.7,134.8c2.1-12-10.2-22.8-21.1-23.4c-13.3-0.8-21.3,9.3-23.4,21.1c-5,27.1-16.8,51.7-23.8,78.1
		c-5.7,21.6,21,34.5,34.7,17C893.5,201.5,901.1,166.8,906.7,134.8z"/>
	<path class="st1" d="M1006.5,270.7c12.9-33.1-41.8-51.6-52.6-17.5c-9.8,31-26.6,56.6-41.9,84.9c-10.3,19,7.9,39.4,26.2,31.7
		c-4.5,17,21.3,25.7,26.3,8.6c4.9-16.8,9.4-33.7,13.7-50.6C989.9,309.9,998.9,290.1,1006.5,270.7z"/>
	<path class="st1" d="M1079.9,311.8c4.3-17.7-21.9-27-27.3-9.1c-13.8,45.7-38.3,98.2-38.9,146.1c-0.1,12.8,18.2,21,25.4,8.4
		C1063,415.4,1068.6,358.4,1079.9,311.8z"/>
	<path class="st1" d="M1094.6,333.6c-12.5,28-31.4,58.1-33.8,89c-0.8,10.6,14.3,19.5,22.1,10.7c21.7-24.2,31-59.5,43.3-89.2
		C1134.5,324.1,1103.2,314.3,1094.6,333.6z"/>
	<path class="st1" d="M1279.6,421.3c-7.8-2.6-15.4-1.8-22.1,1.3c-0.5-8.1-2.1-16.1-5.6-23.9c-11.4-25.6-43.5-41.6-69-25.9
		c-5.8,3.6-8.5,8.7-9,13.8c-3.9-20.9-12-40.9-22.4-56.2c-6.3-9.4-19.8-0.8-18.6,8.8c-3.1,1.8-5.7,4.7-6.9,9
		c-3.8,13.7-8.1,27.3-13,40.7c-5.1,14-10.8,25-9.3,40.2c0.2-0.1,0.5-0.2,0.7-0.3c2.8,10.4,13.3,18.6,23.4,15.4
		c-1.9,3.9-3.7,7.9-5.2,12.1c-6.2,17.2,17.1,33.7,30.5,20.2c20.6-20.5,25.9-51.1,22.2-80.9c1.6,3.8,4.5,7,8.2,8.9
		c0.1,15-4.1,28.7-10.3,43.3c-5,11.8,3.6,26.2,15,30c1.9,0.6,3.7,0.9,5.5,1.1c-2.4,9.7-3.5,19.6-2.1,30.5
		c2.3,18.6,18.6,23.3,32.4,18.3c11.1,11.8,34.4,12.1,45-2.6c13.7-19.1,21.1-43.2,30-64.9C1305.5,444.8,1294.6,426.3,1279.6,421.3z"
		/>
	<path class="st2" d="M643.6,395c-6.5-21.7-25.6-28-41.1-22.8c-15.9-32-49.1-57.1-81.5-65.7c-5.8-1.5-12.5-2-19.1-1.1
		c-1.4-1.2-2.9-2.4-4.7-3.6c-34.6-21.5-78.2-32.6-117.2-15.7c-30.2,13.1-53.3,41.7-58,74.1c-16.1,10.5-28.2,23.8-32.1,38.3
		c-0.1,0.4-0.1,0.8-0.3,1.3c-4.4,2.3-8.8,4.6-13.1,7.1c-27,15.3-20.1,58,12.6,60c13.3,0.8,25.9-1,37.5-7c2.1,0.8,4.2,1.6,6.4,2.3
		c1.1,0.9,2.1,1.8,3.3,2.6c6.7,4.6,14.2,7.4,22.2,8.5c1.9,10.2,5.4,20.3,8.8,29.8c1.4,3.9,4.3,5.7,7.6,5.9c-0.1,0.3-0.2,0.5-0.2,0.8
		c-1,3.1-0.9,5.9-0.2,8.3c-0.2,7.9,5.3,12.4,11.4,12.9c4.6,9.7,20.6,8.1,22.8-4.7c1-6,2.5-11.9,4.1-17.8c0.1-0.1,0.1-0.2,0.2-0.4
		c1.7-2.4,3-5.2,3.6-8.3c5.6-13.3,10.5-27,12-41.2c10.6-0.8,20.9-3.1,30.9-6.4c6.5,9.9,16.7,17.5,31.3,21.5c0.2,0.6,0.3,1.2,0.5,1.7
		c0.1,0.3,0.2,0.5,0.3,0.8c2.7,13.8,9.4,27.5,8.1,40.7c-4,40.5,46.3,52.6,70,31.7c4.8-0.7,9.7-2.8,14.4-6.6
		C627.7,507.5,660.5,451,643.6,395z"/>
	<path class="st3" d="M863.3,394.1c2.1-12.5-1.9-22.8-10.4-32.1c-3-3.3-6.6-5.5-10.4-6.7c0.3-1.7,0.4-3.3,0.7-5
		c1-5.6-0.7-10.6-3.8-14.5c0.5-2,0.9-3.9,1.4-5.9c0.9-4.1,0.6-8.3-0.6-12.4c12.6-8,19.7-23.4,18.2-39c-2.5-26.4-27.3-38.5-49.3-47.3
		c-24.4-19.8-57.4-29.9-85.4-24.3c-30.2-4-60.6-1.8-90.1,11.6c-7.5,3.4-11.4,10.2-12.3,17.6c-14.8,13.3-31.2,31.4-33,51.1
		c-0.9,9.4,2.5,18.2,9.1,23.6c0,5.2,0.7,10.4,2.8,14.8c5.5,11.5,16.2,20.5,24.6,31.1c2.2,3.4,4.5,6.8,6.7,10.2
		c2.7,4.1,6.1,6.9,9.8,8.8c-0.7,1.2-1.4,2.3-1.9,3.7c-1.4,3.5-2.7,7-4.1,10.5c-8.3,21.2,15.6,35.2,33.2,28.8
		c31.7-11.5,64.3,1,84.4,26.5c6.7,8.5,19.2,9.7,28.5,5.6c12.3-5.5,23.5-12.1,33.8-19.8c8.5,0.8,17.6-2.3,22.5-9.5
		c1.3-1.8,2.4-3.6,3.4-5.4C853.4,414.4,861.2,406.8,863.3,394.1z"/>
	<path class="st3" d="M1573.8,785.4c2.2-3.3,4-6.8,5.4-10.7c5.5-15.7,0-29.4-10.4-39.3c-5.9-22.5-25.1-39.4-47.5-47.6
		c-3.7-2.2-7.7-4.1-11.8-5.7c-26.7-20.3-62.1-31.2-88.9-22.4c-7.8,2.5-14.1,6.8-19.1,12.1c-22.8-4.3-46.3-1.6-58.2,20.3
		c-6.5,11.9-4.4,25.2-2.1,38.2c-6.3,3.8-12,8.2-16.6,14c-13.3,17-4.7,36.1,13.3,46.1c5.2,2.8,10.7,4.8,16.3,5.8
		c1,4.2,1.9,8.5,2.9,12.7c5.4,23.2,41.2,41.3,62.7,27c8-5.3,13.7-11.5,18.3-18.3c1.5,0.3,2.9,0.5,4.4,0.7c2.4,0.8,4.8,1.6,7.2,2.3
		c2.4,8.4,10.1,16,17.6,19.6c2.9,1.4,5.9,2.6,8.9,3.6c0,0.1-0.1,0.1-0.1,0.2c2,0.6,4,1.2,6,1.6
		C1526.2,857.6,1584.2,841.1,1573.8,785.4z"/>
	<path class="st3" d="M1163.6,506.8c-10.4-12.7-22.1-24-34.7-33.7c-2-2.9-4.5-5.9-7.7-9c-26.6-25.8-65.1-37.5-101.7-32.3
		c-33.6,4.8-14,36,10,39.4c1.7,0.3,3.4,0.7,5.1,1c0.7,0.6,1.4,1.2,2.1,1.8c-8.1,10.4-9.6,25.6-7.8,38.7
		c1.8,12.4,15.3,19.9,27.7,20.7c8.1,12.1,31.7,18.8,42.8,8.7c15,15.3,52.8,9.6,48-7.2c2.4-0.1,4.9-0.4,7.2-1.1
		C1167.3,530.1,1172.5,517.6,1163.6,506.8z"/>
	<path class="st4" d="M784.3,498.7c-12-26.1-31-47-54.6-61.2c-0.2-10.9-19.2-19.5-28.4-18.6c-2.9,0.3-5.8,0.8-8.6,1.3
		c-6.3-3.2-14.5-3.8-19.6-0.9c-0.3,0.2-0.6,0.3-0.8,0.5c-4.6,0.8-7.6,2.8-9.3,5.5c-3.6,2.8-3.5,6-1.4,8.9c0.1,0.6,0.2,1.2,0.4,1.9
		c-1,1.6-1.9,3.1-3,4.7c-3.8,5.9-2.3,11.5,1.8,16c0.3,0.7,0.8,1.4,1.2,2.1c-0.5,1.3-1,2.6-1.3,3.9c-8.3,8.2-15,17.4-20.9,27.5
		c-12.4,21.1-20.3,44.5-26.6,68c-6.1,23.2,43.7,39.9,51.1,17c6.1-19,11.5-38.4,20.3-56.4c2.7-5.5,5.7-10.8,9.1-15.8
		c1.6,0.3,3.3,0.5,4.9,0.6c8.9,7,20,11.1,30.9,11.5c15,10.8,37.1,14,53.1-3.6C785.8,508.3,786.2,502.7,784.3,498.7z"/>
	<path class="st4" d="M815,831.1c-1.8,0.7-3.6,1.3-5.5,2c-3.1,1.1,1.1,4.7,3.2,3.3c1.5-1,3-2,4.4-3
		C818.8,832.3,816.1,830.7,815,831.1z"/>
	<path class="st3" d="M704.4,730.7c0.2-3.6-4.6-6.4-7.3-7.4c-5.3-1.8-10.4-1.8-15.6-1.1c-2.4-2.6-5.3-4.7-8.3-6.1
		c-6.2-2.9-12.7-5.2-19.2-6.7c-3.3-12.1-1-25.5,2.9-37c6.9-20,17.9-39.6,9.3-61.1c-7.7-19.4-26.1-29.9-46-32.6
		c-6.5-0.9-21.9,0.3-23.1,9.6c-0.3,2.3-0.6,4.7-0.9,7c-5.1,0.2-9.9,1.7-13,5c-8.7,9-13.7,17.7-18.5,29.1c-0.1,0.2-0.1,0.4-0.2,0.6
		c-6.6,10.3-13,20.7-19.5,31.1c-11.7,18.7,18.8,36.2,36.6,31.2c4.4,16.8,10.8,33.3,15.1,48.4c2.6,9,13.8,15.9,25.3,18.1
		c8.2,8.5,23.4,14.6,34.4,11.3c2.1-0.6,4-1.5,5.8-2.4c11.8-5.3,19.9-12.6,23.9-25.8C693.8,741.6,703.8,739.6,704.4,730.7z"/>
	<path class="st3" d="M966.5,852.7c1.9-5.8-2-11.9-6.4-15.4c-6.4-5.1-13.2-8.7-21-11.3c-6.7-2.3-13.7-3.5-20.5-5.1
		c-7.4-1.7-18.2,0.8-21.8,7.9c-6.2-10.8-15.2-20-26.8-26.5c-7.7-10.5-16.9-20.1-27.5-28.5c-30.7-24.4-99.3-51.8-136.6-26.1
		c-6,4.2-10.1,9.8-12.2,16c-3.9,2.3-7.6,5.2-11,8.4c-11.2-3.1-23.6-4-34.4-6.7c-19.1-4.7-34.6,21.1-16,32.7
		c35.9,22.4,56.2,59.5,54.6,101.9c-0.5,13.3,13.5,22.6,24.8,19.8c1.3,2.2,2.6,4.4,4,6.6c3,11.7,9.7,22,22.3,29.9
		c1.8,5.2,5.6,10,10.4,12.6c1.2,2.1,2.8,4,4.8,5.4c2.3,15.5,24,25,36,8.7c5.7-7.8,10.4-15.8,14.3-24.1c3.2,0.5,6.5,0.3,9.5-0.8
		c1.7-0.6,3.7-1.3,5.7-2c5.4-0.4,10.6-0.9,15.4-1.8c3.4,2,7.4,3,11.2,2.5c31-3.9,54.3-28.1,60.7-58.3c1.9-9,2.1-17.9,1.1-26.5
		c0.3-7.6-0.6-15.3-2.4-22.6c3.1,2.2,6.6,3.9,9.7,5c1.1,0.4,2.2,0.8,3.3,1.2c0.9,0.4,1.7,0.9,2.6,1.2c0,4.2,3.8,8.7,6.6,11.1
		c4.7,4,11,6.5,17.1,7.4c2.7,0.4,6.8,0.2,9.2-1.4c2-1.3,4.1-3.6,3.6-6.3c-0.5-2.3-1.6-4.4-2.8-6.4
		C959.4,860.1,964.7,858.1,966.5,852.7z"/>
	<path class="st2" d="M1330.7,716.3c0-5.1-0.6-10.2-2.7-14.8c-0.7-1.5-1.6-2.9-2.7-4.1c0.5-1.7,1-3.4,1.4-5.2
		c5.5-28.4-5.3-57.3-21.7-80.1c-34.2-47.6-100.7-80.9-159.3-79c-60.5,2-119.5,48.3-115.2,113.1c0.5,7.9,4.1,15,9.4,20.4
		c-0.6,6.7-0.7,13.5-0.3,20.3c-5.8,9.1-7.3,20.4-0.7,31c10.4,16.7,27.7,27.8,45.8,31.3c-2.6,5.1-4.9,10.1-6.9,14.8
		c-0.9,2-0.8,4,0,5.6c-27.7-18.9-58.5-33-89.6-45c-3.9-1.5-14.9-2-20.2,1.8c-21.7-11.7-44.4-21.6-67.7-29.9
		c-14.8-5.3-37.8,8.8-18.8,21.9c16.1,11.1,32.5,21,50.4,29c10.9,4.8,23.5,9.3,35.5,14.5c8.3,10.9,19.2,19.7,31.1,26.8
		c10.5,6.3,26.1,2.4,26.4-6.6c2.7,1.5,5.7,2.7,7.9,3.6c3.1,1.3,6.2,2.3,9.4,3.2c3.6,1.4,7.1,2.7,10.7,3.6
		c6.9,4.4,13.7,8.8,20.6,13.2c16,10.1,46.1-2.9,25.2-20.5c-4.6-3.9-9.4-7.5-14.2-11c2.8,0.4,5.7-0.5,7.5-3.3
		c2.8-4.4,5.8-8.5,8.8-12.6c2.6,1.1,5.6,1.1,8.6-0.6c20-11.1,41.8-17,63.3-24.2c8.6-0.8,17.2-1.1,25.8-1.3
		c2.1,5.9,7.6,10.8,15.5,9.8c8.3-1.1,16.8-1.9,25.2-3c1.9,0.9,4.1,1.6,6.5,1.9c11,1.3,21.2,2.7,31.1,6.4c1.8,10,8.3,19.1,21,23.3
		C1332.3,782.3,1352.4,737,1330.7,716.3z"/>
	<path class="st3" d="M1032.5,713.6c-0.1-12.2-8.9-25.6-11.3-37.9c-1-5.1-1.6-10.3-2.1-15.5c5.8-24.6,10.7-55.5,6.3-78.4
		c5.3-2.1,6.6-7.2,3.1-12.1c-6.4-8.7-14.3-16.3-23-22.8c-7-10.5-15.8-19.6-26.1-26.7c-6.3-10.3-14.3-19.3-26.6-25.4
		c-6.6-3.3-13.8-5.4-21-6.2c-4.5-1.7-9.5-2.2-13.8-0.9c-3.2,1-6,2-8.6,3.2c-6.6,2.4-12.7,6.4-17.6,12.4c-5.9,7.1,0,14.5,8.5,18.4
		c-0.1,0.3-0.2,0.5-0.3,0.8c-1,0.5-1.9,1.2-2.7,1.9c-5.2,5.2-7.5,10-7.7,16.3c-0.1,0.3-0.3,0.5-0.4,0.8c0.1,0.1,0.2,0.1,0.4,0.2
		c-11,13.5,19.7,28.7,32.5,17.8c5.4-4.5,8-8.8,9.3-14.2c0.6,0.3,1.2,0.6,1.8,0.8c-4.9,4.6-5.6,12.1,2.6,18.6
		c13.9,11.1,28.5,20.6,44.7,28c0.8,0.4,1.7,0.7,2.6,1c-0.3,2.4-0.6,4.4-0.6,5.2c-1.3,22.8-4.7,45.2-6.8,67.9
		c-0.8,8.2,9.4,14.9,19.6,16.9c1.2,13.2,4.8,26.5,13.1,35.2c2.6,2.7,10.2,5.7,12.1,0.7c0.5-1.4,0.8-2.8,1-4.4
		C1024.9,718.1,1032.5,718.5,1032.5,713.6z"/>
	<path class="st2" d="M908,489c0.6-0.1,1.3-0.2,1.9-0.3c2.8-0.8,6.5-2.9,7.3-6c2-7.9-6.2-13.9-12.7-16.1c-3.8-1.3-8.6-1.8-12.5-0.7
		c-2.8,0.8-6.5,2.9-7.3,6c-0.2,0.9-0.3,1.7-0.3,2.5c-2.2-0.7-4.3-1.2-6.3-1.4c-12-4.2-25.5-3.8-38.3,1.4c-3.1,1.2-5.8,2.7-8.4,4.4
		c-18.2,0.5-34.3,7.9-40.4,29.6c-0.4,1.3-0.3,2.6,0,3.8c-7.2,8.9-10,17.4-10.9,29c-0.1,2.1,0.6,4.1,1.9,5.9c-1,2.3-2,4.6-2.9,7.1
		c-1,2.5-0.2,4.6,1.5,6.3c-0.1,0.3-0.2,0.6-0.3,0.9c-1.2,3.3,0.5,6,3.2,8c0.3,4,0.9,8.1,1.9,12.1c1.8,7.4,18.1,16.9,23.7,7.9
		c10.8-17.5,23.5-36.3,39.3-50.2c0.6-0.2,1.3-0.4,1.9-0.6c1.2-0.1,2.4-0.3,3.4-0.7c2.7,1.3,5.6,2.6,8.5,3.7c1.7,0.6,3.8,1,6,1
		c7.9,5.1,19.6,6.4,24-0.5c8.7-13.6,14.8-27,18.6-42.8C911.8,495.5,910.5,491.9,908,489z"/>
	<path class="st5" d="M609.5,537.1c-14.1,5.1-25.9,15.1-38.1,23.6c-9.7,6.8-19.4,13.6-29.1,20.4c-8.6-2.2-17.3-3.8-25.9-5.9
		c-10.6-2.7-21.5-5.8-32.6-4.8c-3.9,0.3-6.4,3.2-3.8,6.8c7.4,10.3,20.4,15.7,32,19.7c14.1,4.9,28.8,9.1,43.8,8.1
		c8.4-0.5,10.5-4.8,9.2-9.4c9.9-3.1,18.5-9.5,22.9-19.6c0.5-1.1,0.3-2-0.3-2.9c11.9-7.5,26.3-14.2,35.3-25.1
		C628.4,541.4,614.6,535.2,609.5,537.1z"/>
	<path class="st5" d="M979.8,799.5c-1.5,0.2-3,0.5-4.6,0.9c-24.3-27.9-51.9-51-83.2-70.7c-2.6-1.7-6.4-2.3-9.8-1.9
		c-3.8-5.6-7.5-11.3-11.4-17c-1.3-1.9-5.1-3-7.4-2c-1.1-0.9-2.2-1.9-3.3-2.8c-1.4-1.1-6.9-2.9-7.3,0.3c-1.8,12.3,3.3,25.4,10.7,37.7
		c4.9,14.2,14.6,27.9,22.8,38.5c15.2,19.7,33.7,36.7,56.3,47.3c1.4,0.6,2.9,1.1,4.6,1.4c1.1,1.2,2.4,2.3,3.7,3.2
		c6.8,4.6,15.5,6,23,2.5c4.7-2.2,8.8-6.4,12.9-9.7c4.1-3.3,9-8.5,10.3-13.7C999.1,804.9,987,798.5,979.8,799.5z"/>
	<path class="st5" d="M471.9,340.3c-0.4-0.1-0.5,0.3-0.1,0.4C472.1,340.8,472.3,340.4,471.9,340.3z"/>
	<path class="st5" d="M611,431c-9.8-44.2-46.3-91.3-93.2-99.2c0.3-1.7,0.6-3.3,0.9-5c0.6-3.8-6.3-6.1-8.1-2.7
		c-12.1,23.4-21.9,48-34.1,71.4c-2.8,5.3-6.1,10.6-9.5,16c14.4-30.3,27.3-61.3,37.7-93.3c1.9-5.7-9.7-9.1-12.4-4.1
		c-15.1,27.6-29.7,55.6-44.7,83.3c4.3-9.9,8.1-20,11.3-30.2c1.8-2.6,3.5-5.2,5.3-7.7c2.8-3.9,2.3-7.8-0.1-11.1
		c0.7-3.2,1.6-6.4,2.2-9.5c0.8-4.4-7.7-8.3-10.3-4.5c-0.2,0.2-0.3,0.5-0.5,0.7c-6-4.4-15.3-6.1-20.4-2.3c-1.6,1.2-3.2,2.5-4.9,3.7
		c-7.6-3.2-17.4-3.6-22.4,1c-0.9,0.9-1.9,1.8-2.8,2.6c-1.8-0.9-3.8-1.7-5.7-2.2c20.1-10,43.6-13.9,70.8-8.7c8.1,1.6,8.3-7.7,1.1-9.7
		c-87.1-23.5-172.5,43.4-172.4,133.8c0,5.5,12.2,9.1,14.1,3.3c0.5-1.6,1.1-3.2,1.6-4.8c1.2,0.9,2.6,1.8,4.1,2.5
		c-0.6,11.6,22.9,20.2,30.9,10.8c1.4-1.6,2.8-3.3,4.2-5c-0.6,1-1.2,2-1.7,3c-1.3,2.5-1.3,4.9-0.2,7.1c-3.9,13.2,27,24.6,34.3,13.4
		c3.1-4.8,6.2-9.6,9.2-14.5c2.3-0.6,4.1-1.8,5.3-3.7c0.2-0.3,0.4-0.7,0.6-1c2,0.2,3.9,0.2,5.6-0.2c-7.1,10.2-14.4,20.3-22,30.7
		c-5.9,8.1,9.2,14.5,15.4,12.6c19.6-5.9,31.2-24,40.6-42.6c0,0,0,0.1,0,0.1c-0.9,6.4,9.5,11.9,14.7,8c4.6-3.5,8.5-7.6,12-12
		c-1.6,7-2.8,14.3-3.5,21.6c-1,10.9,17.8,14.8,25.4,8.8c5.9,6.5,18.6,9.6,25.4,5.1c0.3,0.1,0.5,0.3,0.8,0.4
		c-2.6,7.9-4.7,15.9-6.3,24.1c-3,15.5,27.6,27,34.9,14.4c2-1.2,3.7-2.9,4.9-5.3c12.8-25.5,21.6-51.2,28.5-78.9
		c1.2-4.8-1.5-9.4-5.7-12.9c2-7.3,4.1-14.5,6.1-21.8c2.3,7.5,3.9,15.5,4.6,24.1c1.9,23.9-3.8,47.4-15.3,68.3
		c-10.1,18.4-27.5,30.9-37,49c-4.5,8.5,12.8,13.7,18.3,12.2C602,555.2,621.7,479.1,611,431z M564.6,397.1
		c-7.6-1.7-14.2-0.2-19.9,3.5c-0.6-0.1-1.2-0.2-1.8-0.2c1.4-10.2,2.3-20.4,2.7-30.8c0.1-2-0.6-3.8-1.8-5.2
		c10.8,10.5,20.2,21.9,27,35C568.7,398.3,566.5,397.5,564.6,397.1z M542.3,362.8c-5.3-4.1-15.2-4.6-19.2-0.8
		c-8,7.5-14.8,15.5-20.6,24c5.5-14.8,10.3-29.9,13.6-45.3C525.3,347.8,534.2,355.1,542.3,362.8z"/>
	<path class="st5" d="M1310.3,715.6c-3.8-17.5-13.9-33.8-23-49.4c1.7-1.9,2.9-4.4,2.9-7.9c0.3-15.3-13.3-32.7-21.7-44.7
		c-9.6-13.7-21.8-27.1-36.7-35.1c-4.7-2.5-15.6-3.3-19.2,1.1c-6.4-5.1-13.2-9.8-20.1-13.9c-2.3-1.4-5.2-2-7.9-1.9
		c-0.6-1.2-1.6-2.4-3.1-3.6c-4.8-3.9-9.9-6.9-15.1-9.2c-4.5-7-19.2-10.9-23-5.4c-3.1-0.2-6.3-0.2-9.4,0.1c-5.3-4-14.3-5-16.6,1.2
		c-0.3,0.7-0.6,1.5-0.9,2.2c-29,8.8-55.2,32.7-66,59.5c-22.7,56.4-4.5,129.8,48.3,161.6c1.4,0.8,2.7,1.5,4.1,2
		c5.2,15.5,35.6,19.9,43.5,5.7c12.1-21.7,22.8-43.9,32.4-66.5c3-1.4,5.5-3.8,6.8-7.4c0.8-2.2,1.4-4.3,2.2-6.5
		c7.4,12.6,15.9,24.5,25.9,35.3c8.6,9.3,51.9,15.9,39.5-6c-12-21.2-24.8-41.6-37-62.2c1-14.9-1.4-29.7-6.4-44.5
		c-0.1-0.2-0.2-0.4-0.2-0.7c0.7-2.8,1.4-5.7,2.1-8.5c1.9,2.2,3.7,4.5,5.5,6.7c2.5,15.1,5.2,30.3,9.2,45
		c5.9,21.5,17.5,38.2,26.3,58.1c1.9,4.2,6.1,7.8,11,10.1c-2.2,3.3-5.4,6.3-9.9,8.8c-14.8,8.3,5.1,24.2,14.9,24.8
		C1298.2,766,1316.6,745,1310.3,715.6z M1087.6,691.9c-0.4,0.9-0.8,1.8-1.1,2.7c-4-18.4-3.8-37.9-0.7-54.4c3.6,1,7.4,1.4,10.7,0.7
		c-3.9,10.6-6.2,22.1-6.5,34.6c-0.1,2,0.5,3.8,1.5,5.5C1090.2,684.6,1088.9,688.2,1087.6,691.9z M1093.6,716.7
		c-0.8-1.8-1.6-3.7-2.4-5.6c1.2,0.7,2.6,1.2,3.9,1.6C1094.6,714,1094.1,715.3,1093.6,716.7z M1143.8,586.6
		c-4.3-3.3-8.7-4.9-13.2-5.2c0.3-0.8,0.6-1.7,0.8-2.5c4.8-1.8,9.9-3.1,15.2-4c0.6,3.6,1.3,7.1,2,10.7
		C1147,585.7,1145.3,586,1143.8,586.6z"/>
	<path class="st5" d="M1064.5,786.7c-1.1-0.6-2.1-1.2-3.2-1.8c0-2.1-1-4.4-3.4-6.1c0,0-0.1-0.1-0.1-0.1c-0.7-1.7-2.3-3.5-5.2-5.4
		c-29-18.7-58-37.4-87-56.1c-6.5-4.2-19.1,2.1-10.2,8.2c5,3.5,10,6.9,15,10.4c-5.4-3.2-10.7-6.5-15.9-10c-2.6-1.7-6-2.1-9-1.5
		c-4.3-3.2-8.6-6.3-13-9.3c-1.6-1.1-4.1-1.3-6.2-0.9c-1.2-0.8-2.4-1.7-3.6-2.5c-1.8-1.3-4.5-1.6-6.7-1.1c-5.3-2.8-10.7-5.6-15.9-8.6
		c-10.2-5.7-22.5,4.2-9.9,11.4c8.1,4.5,16.1,9.1,24.2,13.7c-2.7-0.8-5.4-1.6-8.1-2.4c-5.7-1.6-7.9,4.4-2,6.1
		c17.4,5,33.9,11.3,49.9,18.5c4.8,3.4,9.7,6.7,14.8,9.7c22.9,18.2,46.1,36,70.5,51.2c6.8,4.2,19.5-1.2,10.7-8.7
		c-4.4-3.8-9-7.4-13.6-11c0.4-0.2,0.6-0.4,0.9-0.6c6.8,2.8,13.7,5.5,20.6,8.1C1067.1,801.2,1074.2,792.2,1064.5,786.7z"/>
	<path class="st6" d="M817,304.2c0.8-4.8-4.7-8.9-10-9.8c0-0.3,0.1-0.6,0.1-0.9c0.5-1.5,1-3.1,1.4-4.6c0.5-1.7,0-3.2-1-4.5
		c0-0.4,0-0.8,0-1.2c0-2.5-2.8-4.3-5.6-4.8c0.4-1.3,0.8-2.6,1.2-3.8c0.6-1.9-0.5-3.7-2.2-5c0.5-1.3,0.9-2.5,1.4-3.7
		c3.5-9.7-18.1-16.9-22-7.3c-8.2,20.1-18.3,38.7-32,55.7c-6.2,7.7-19.7,25.2-32.6,34.2c0-0.1,0-0.1,0-0.2
		c22-24.4,38.8-53.6,48.8-84.9c1.8-5.6-7-9.7-12.4-8.1c-0.7-1.1-1.8-2-3.1-2.7c1.1-2.1,2.2-4.2,3.3-6.3c4.3-8.9-14.2-12.8-19.3-8.4
		c-21.5,19-38.2,39.9-51.1,63.9c3.4-12.9,8.5-25.3,15.7-36.5c2-2.8,4-5.7,6-8.5c7-8.9-13.5-18.1-19.9-10.9
		c-15.3,17.1-26.8,35.6-35.6,56.7c-1.6,3.8,0.8,7.2,4.6,9.3c-2.9,8.8-5.2,17.9-6.8,27.6c-2.1,12.6,17.4,19.7,26.7,13.1
		c-1.5,2.8-3,5.5-4.4,8.3c-4.7,9.1,15.8,16.6,21.7,11.8c1.8-1.4,3.4-3,5.1-4.5c0.2,0.1,0.4,0.3,0.5,0.4c15.3,9.8,30.3,6.3,44.2-4
		c-0.4,0.6-0.8,1.3-1.2,1.9c-2,3.6,4.1,5.6,7.8,5.1c-1.5,2.7-3.1,5.4-4.6,8.2c-1.6,3,0.3,5.5,3.5,7.2c-3.1,3.6-5.9,7.3-8.2,11.4
		c-4.2,7.2,7.6,13.8,13.8,11.3C789.9,394.4,810.5,342.3,817,304.2z"/>
	<path class="st7" d="M839.4,288.8c-5.5,3.9-10.8,8-16,12.2c-0.6-3.2-1.4-6.3-2.3-9.4c0.6-1.1,1.2-2.2,1.7-3.2
		c2.9-5.5-2.9-11-9.8-13.7c-18.3-28.2-55.3-41.6-89-37.3c-1.1-0.2-2.2-0.5-3.3-0.6c-15.3-2.1-28.8,1.3-39.6,8.5
		c-64.1,18-106.4,142.2-18.7,150.6c5.6,0.5,8.9-0.8,10.3-2.9c26.6,21.7,65,31.4,96.5,17c20-9.2,32.5-25.8,38-44.9
		c6.3-7.1,11.3-16.2,14.3-27.4c10.2-12.6,22.4-23.4,35.8-33.1C868.7,296.4,848.1,282.6,839.4,288.8z M763.4,280.9
		c0-0.7-0.1-1.4-0.3-2.1c3,1.3,6.6,1.8,9.6,1.5c3.8,4.7,7.3,9.8,10.3,15.2c-1.6,1.9-3.2,3.9-4.8,5.8c0.5-0.9,1.1-1.8,1.7-2.8
		C784.4,290.3,773.7,282.8,763.4,280.9z M698,304c-0.9-1-2.1-1.8-3.5-2.5c12.6-11.1,24.2-23.3,35.4-34.7c1.2-1.3,0.8-2.7-0.3-3.8
		c6.5-1,13.1,0.1,19.5,4.1c-6.5-2-13.5-1.9-17.6,2.1c-4.7,4.7-9.1,9.7-13.3,14.8C711.6,290.9,704.9,297.6,698,304z M642.2,330.7
		c0.1,0,0.1-0.1,0.2-0.1c-0.8,15.5,3.3,31.2,14.1,45.6C639.7,368.6,637.1,350.6,642.2,330.7z M690.3,373.9c6,2.1,12.6,2.4,16.7-0.1
		c0,0,0.1,0,0.1-0.1c2.2,1.1,4.4,2.2,6.7,3.2c2,1.2,4.4,2.1,6.8,2.7c4.8,1.7,9.6,3.1,14.5,4.1c-0.1,0.9-0.2,1.8-0.3,2.8
		c0,1.1,0.2,2.2,0.5,3.2C718.8,390.7,702.2,384.9,690.3,373.9z"/>
	<path class="st7" d="M853.9,809.6c-2-1.8-4-3.5-6.1-5.1c-24.6-25.9-65.1-46-100.5-35c-1.1,0.3-2.1,0.8-3.2,1.2c-0.4,0-0.9,0-1.3,0
		c-6.8-0.8-13.3,0-19.2,2.2c-9.5,2.6-18.3,7.6-25.3,15.8c-6.3,7.4-9.4,15.3-10.1,23.4c-8.6,8-9.9,20.9-4.9,34.1
		c0.9,20.3,14,38.4,31.1,50c20.8,23.2,50.2,41,80,45.1c0.8,0.1,1.6,0.1,2.4,0.2c32.9,8.9,66.5,3.8,87.3-25.7
		C908.8,880.7,881.2,834.1,853.9,809.6z M791.4,903.7c4.8,0.6,9.7,0.8,14.5,0.6c-5.1,2.4-11.4,2.5-18.2,0.8
		C789,904.6,790.2,904.2,791.4,903.7z"/>
	<path class="st7" d="M1542.4,744.9c-0.5-1.5-1-3.1-1.7-4.6c-11.3-23.5-40.3-36.1-64-42.1c-6-1.5-12.2-2.2-18.2-2.2
		c-7.7-10.5-21.1-17.3-33.6-19.3c-39.6-6.3-80.5,35.7-74.5,75.7c1.6,11,6.7,20,13.7,26.7c0.9,1.8,1.8,3.7,3,5.4
		c14.1,21.8,43.9,35.8,70.5,32.9c13.7,8.9,31.2,13,46.7,12.4C1530.6,828.1,1562.4,785.3,1542.4,744.9z"/>
	<path class="st7" d="M1120.3,486.7c0.7-12.1-9.2-24.1-17.3-32.1c-17.1-16.9-49.4-26.4-69.3-8.6c-2.8,2.5-4.9,5.5-6.3,8.7
		c-0.1,0.1-0.3,0.1-0.4,0.2c-9.1,5.7-6.9,12.9-0.7,18.7c0.3,0.9,0.5,1.9,0.9,2.8c5.6,13.4,19.4,20.8,33.1,22.8
		c5.3,0.8,11.5,0.1,15.8-3.1c6.7,4.9,15.3,7.4,23.3,7.2C1109.5,503.2,1119.7,497.8,1120.3,486.7z"/>
	<path class="st8" d="M1016.5,496.3c-47.9-79.8-153.3-56.6-227.6-39.9c-9.1,2,1.9,11.4,8,10.2c72.5-14.4,146.7-19,205.4,33.5
		C1005.6,503.1,1021.2,504,1016.5,496.3z"/>
	<path class="st8" d="M1289.9,767.8c-7.8-4.5-15.9-8.3-24.1-11.5c3.2-3.4,2.7-8.4-5.6-12.4c-59.7-29.2-132.9-15.5-174.7,37.5
		c-7.1,9,13.7,18.5,20.2,11.1c2.6,0.3,5,0,6.9-0.9c53.8-27.7,111.4-26.8,167.5-6.9C1293.9,789.5,1304.5,776.3,1289.9,767.8z"/>
	<path class="st5" d="M1280.6,809.4c-9.4-6.3-23.3-11.9-39.2-15.9c-12.9-8.4-26-10-38.5-7.1c2.1-2.1,4.1-4.2,6.2-6.3
		c3.1-2.9-5.4-7.7-8.1-4.5c-3.3,4-6.8,7.8-10.3,11.6c-0.7,0-1.3,0-2,0.1c-36.2,0.8-69.7,12.9-77,45.3c-2.7,12.2,2.9,22.8,12.9,25.8
		c3.4,5.2,14.2,8.5,18.8,5.3c0.2-0.1,0.4-0.3,0.6-0.4c2.1-0.3,3.8-1.1,4.8-2.7c9.4-7.7,17.9-15.4,27-22.1
		c16.2-8,33.1-11.7,53.1-14.4c4.1-0.6,8.7-2.8,10.9-6.1c10.1,2.7,20.2,5.9,30.8,8.7C1285.1,830.4,1295,819.1,1280.6,809.4z"/>
	<path class="st4" d="M1299.4,905.2c-5.6-6-9.2-12.5-11.5-19.2c0.3-1.9,0.7-3.7,1.3-5.5c1.1-3.3-1.3-6.2-4-8
		c-0.8-9.6,0.4-19.7,2.5-30c1.3-6.5-3.4-12-8.9-14.9c-8-4.3-19.6-6.5-26.5,0.4c-0.8-0.4-1.6-0.8-2.2-1c-3.7-1.4-7.5-2.8-11.2-4.2
		c-5.3-2-15.3-2.5-19.2,2.8c-2.3,3.1-3.7,6.3-4.3,9.4c-7.4-0.6-15.1,2.8-18.7,8.8c-7.1,1.7-13,6.2-14.9,15
		c-3.4,16.1,21.8,24.3,33.4,18.1c5.3-2.8,10.5-4.8,15.7-6.4c6.1,7.8,12.3,16.4,19.3,24c3.4,7.5,7.9,14.4,13.2,20.3
		c7,7.8,19,13,29.6,9.8C1301.7,922.2,1306.4,912.8,1299.4,905.2z"/>
	<path class="st9" d="M729.4,476.1c-6.4-2.3-12.2-2.5-17.4-1.2c3.1-4.1,6.3-8.2,9.7-12.2c6.5-7.8-11.8-15.7-17.7-9.7
		c-1.1,1.1-2.1,2.3-3.2,3.4c-4.6-2.7-10.2-4.2-14.5-3c-2.4,0.6-4.8,1.4-7.1,2.3c5.8-11.2,13.2-20.8,19.8-14.5
		c3.2,3.1,10.7,0.7,6.2-3.6c-26.4-25.4-48.6,12.2-61.1,44.7c-7.1,10-11.2,21.8-10.3,34.3c-0.1,1,0,1.9,0.4,2.8
		c0.4,3.4,1.1,6.8,2.3,10.2c1.2,3.6,6.6,7.1,12.1,8.7c-0.8,2.3-1.7,4.6-2.4,7c-2.4,8.2,13.5,12.6,17.4,5.8
		c7-12.4,14.1-24.7,21.6-36.7c4.6,5.2,16.1,7,19.2,0.5c3.5-7.6,13.1-28.4,23.7-26.7C738.5,489.8,737.8,479.1,729.4,476.1z"/>
	<path class="st9" d="M646.3,573.8c-9.3-7.9-10.8-23-3.7-32.7c3.9-5.3-7.5-10-11.2-6.1c-12.9,13.3-10.8,34.2,3.3,45.6
		c3,2.4,8.6,4.2,12.1,1.8C650.3,580.1,649.1,576.2,646.3,573.8z"/>
	<path class="st10" d="M1530.4,1033.8c-29.8,19.9-61.8,31.8-95.4,43.5c-32.5,11.3-66.5,23.2-101.5,18.7c-1.5-0.2-3-0.5-4.5-0.7
		c-53.5,44.9-110.8,83-175.7,114.2c-85.5,41.2-180.4,63.2-275,67.9c-48.4,2.4-85.4,0.7-133.1-6.3c-12.7-1.9-25.4-4-38.1-6.5
		c-5.4-1.1-10.8-2.2-16.1-3.4c-1.5-0.4-4.2-1.1-8.4-2.1c-21.1-5.8-42.7-14.3-64.6-18.9c24.1,11.3,48,23.1,71.8,35
		c53,17.2,105.9,35.1,158.6,53.2c1.7-0.2,3.5-0.3,5.3-0.3c58.5,0.3,115.9,14.4,174.5,14.3c51.5-0.1,102.5-6.8,153.8-3.1
		c133.6-53.3,257.5-143.8,335.4-264.1c12.1-18.7,24-38.2,35.2-58.2C1545.7,1022.8,1538.3,1028.5,1530.4,1033.8z"/>
	<path class="st9" d="M1264.5,903.5c-1.2-0.7-2.3-1.6-3.4-2.5c2.5,0.3,5.3,0.2,6.9-1.8c1.9-2.3,0.5-5.8-1.7-7.4
		c-4.5-3.2-8-7.4-10-12.2c1-1.2,1.3-3,0.2-5.4c-0.2-0.4-0.3-0.8-0.5-1.3c0.5-2.1,0-4.3-1.5-6.4c0.3-1.8,0.7-3.6,1.5-5.5
		c0.9-2.2-0.1-4.3-2-5.9c0.6-3,1.7-5.8,3.4-8.5c3.8-5.7-4.1-11.3-10.5-11.6c1.7-2.3,1.6-4.6,0.2-6.8c5.6-4.9-6.1-13.5-13-11.5
		c-8,2.3-16.5,6.6-24.2,12.2c-1.2,0.3-2.3,0.7-3.2,1.5c-5.8,5.1-11.6,10.1-17.5,15.2c-2.1,1.8-0.6,4.4,1.1,6.1
		c-3.2,7-4.6,14.5-3,22.4c1.5,7.4,16.4,13.4,20.1,4.7c1.3-3,2.3-6.1,3.4-9.2c4.2,2,9.7,2.2,12.3-0.9c0.5-0.7,1-1.4,1.5-2
		c-2.7,9.2-3,18.9,0.9,28.2c1.2,2.9,10.3,6.5,11,1.6c0.2-1.2,0.3-2.4,0.5-3.6c3.9,8.3,10.5,15.2,19.5,19.5c3.3,1.6,8.8,2.9,11.6-0.4
		C1270.9,908.8,1267.3,905.2,1264.5,903.5z"/>
	<path class="st2" d="M438.7,354.4c-18.2-4.5-43.8-5.6-59.9,6c-3,2.2,1,4.1,3.2,3.9c18.6-1.3,36.3-5,55.3-3.8
		C441.8,360.8,443.9,355.7,438.7,354.4z"/>
	<path class="st2" d="M431.6,435.1c-20.5,2.1-48.3,8.1-61.7,25.5c-4.5,5.9,5.7,7.9,9.5,6.9c19.9-5.2,38.8-15.3,58.5-21.5
		C448.4,442.8,438.5,434.4,431.6,435.1z"/>
	<path class="st2" d="M602.9,554.2C591.1,506.5,541.3,459,489,463c-1.3,0.1-1.3,1.4-0.3,2c42.5,21.9,74.2,45.3,97.5,88.4
		C588.6,557.8,605,562.6,602.9,554.2z"/>
	<path class="st2" d="M1098.6,599c-3.4,1.7-6.7,3.4-10.1,5c-0.3,0.2,0.2,0.5,0.5,0.4l10.1-5C1099.4,599.2,1098.9,598.8,1098.6,599z"
		/>
	<path class="st2" d="M1143.3,594c-25.7,16.5-56.6,36.2-73.4,62.5c-0.8,1.3,1.6,2.3,2.6,1.7c28.3-16.7,53-38.8,81.8-55.2
		C1161.3,599,1148.8,590.4,1143.3,594z"/>
	<path class="st2" d="M1150.7,658.7c-16.4,0.2-31.2,3.3-44,14c-10.1,8.5-21.8,21.7-21,35.9c0.2,2.9,5.2,4.7,7.4,3.2
		c10.8-7.2,18.7-17.8,29.8-24.8c10.5-6.6,22.6-13.5,34.5-17.2C1166.9,666.9,1156.1,658.6,1150.7,658.7z"/>
	<path class="st2" d="M1153.6,713.8c-25.2-0.5-47.6,8.1-61.5,30.1c-0.7,1.1,1.3,1.7,2.1,1.4c20.4-9.5,42.9-17.5,64.8-22.6
		C1166.8,720.9,1157.6,713.9,1153.6,713.8z"/>
	<path class="st2" d="M1282.3,620.5c-16.2-3.6-32.2-7.5-48.8-8.8c-3.4-0.3-7-0.7-10.6-1c16.6-8.1,35-9.8,53.4-9
		c4.4,0.2,1.9-5-1.3-5.2c-19.8-1.6-37.5,4-55,12.9c-0.6,0.3-0.5,0.7-0.2,1.1c-8.1-0.6-16.3-0.7-23.4,1.9c-2.7,1-1.7,3.5,0.3,4.6
		c24.7,14.7,60.7,13.9,88.6,15C1295.7,632.5,1288.2,621.8,1282.3,620.5z"/>
	<path class="st2" d="M1300.6,674.1c-22.4-18.9-62.9-37.3-91.9-23.9c-2.2,1,0.4,3.3,1.6,3.8c27,10.2,54.6,15.1,80.9,27.8
		C1297,684.6,1308.8,681,1300.6,674.1z"/>
	<path class="st2" d="M1326.2,744.8c-12.5-20.7-28.5-33-50.8-42.4c-14.4-6.1-35.5-13.7-50.6-6.2c-0.6,0.3-0.4,1.1,0.1,1.4
		c12.4,8.4,27.2,11.8,40.3,19c16.6,9.1,33,21.4,47.5,33.7C1317.8,754.6,1331.8,753.9,1326.2,744.8z"/>
	<path class="st2" d="M573.7,448.8c-17-22.1-43.1-38.7-70.9-42.9c-3.2-0.5-5.7,0.3-7.5,1.7c1.8-7.4,3.5-14.8,5-22.3
		c0.2,0,0.4,0,0.5,0c24.3-6,53.2,2.1,72,18.1c5.4,4.6,17.5,1.1,10.1-5.9c-23.8-22.5-52.5-26.9-81.9-15.4
		c5.1-24.8,9.4-49.7,14.8-73.4c0.3-1.3-2.3-2.2-2.8-0.9c-7.8,21.7-17.6,43.4-27.2,65.2c2.3-15.1,3.9-30.1,5.1-44.4
		c0.5-5.5-11.8-8.7-13.8-3.3c-3.9,10.4-8,21.2-12,32.1c0.9-9.2,1.6-18.3,2.3-27.1c0-0.4-0.9-0.6-1-0.1c-1.5,16.4-4.5,31.9-8.4,46.9
		c-2.7,7.7-5.3,15.4-7.8,23.2c-0.2-0.1-0.3-0.3-0.6-0.4c-26.1-15.4-58.9-22.8-88.2-11.8c-10.2,3.8,1.3,12.6,7.5,12.5
		c25.7-0.4,51.3-0.1,76.2,7c0.9,0.3,1.8,0.3,2.7,0.3c-2.1,7-4.2,14-6,21c-3.6,10.6-7.2,21.2-10.8,32.2c-0.6,1.8,0.9,3.3,2.8,4
		c-1,6.3-1.9,12.6-2.5,18.8c-0.6,6.2,13,10.9,16.9,6.2c2,4.7,10.5,8.2,13.4,3.6c14.9-23.9,24.4-50.8,31.6-78.7
		c0.8,1.7,2.3,3.3,4.8,4.5c21.4,10.4,41.3,20.5,60,35.6C563.7,459.4,581.3,458.7,573.7,448.8z"/>
	<path class="st2" d="M1217.8,743c4.4-36.4-8.5-72.1-19.8-106.5c-12.5-38-26.3-76.2-48.9-109.5c-0.5-0.8-3.4-1.5-3.2,0.1
		c3.2,30.3,12.3,59.9,20.1,89.5c-0.6-1.4-3.9-1.9-3.7-0.2c3,20.6,6,41.1,9,61.7c0.2,1.5,3.7,2.2,3.5,0.5
		c-2.9-20.4-5.8-40.8-8.7-61.2c1.6,5.9,3.1,11.9,4.5,17.8c2.3,9.8,4.2,19.6,6.2,29.4c2,18.4,4.1,36.7,6.1,55.1
		c0.1,1.2,3,1.8,2.9,0.4l-3.1-28.3c3.9,16.6,8.7,32.9,16.1,48.4C1201.1,744.9,1216.8,751.7,1217.8,743z"/>
	<path class="st2" d="M1070.1,781.3c-1.2-0.7-2.4-1.3-3.6-1.9c-0.2-0.5-0.5-0.9-0.9-1.5c-24-30.7-61.1-51.5-100.8-43
		c-2.6,0.6-3.7,1.8-3.7,3.2c-0.2-0.1-0.5-0.1-0.7-0.2c-1.1-0.3-1.9,0.6-0.8,1.3c0.7,0.4,1.4,0.8,2.1,1.3c1.5,2.8,5.2,5.5,7.9,5.8
		c0.7,0.1,1.4,0.2,2.2,0.3c13.4,7.9,26.7,15.4,40.3,22.4c-10.3-3.2-20.7-5.8-31-6.9c-1.3-0.1-2.2,0.9-1.1,1.9
		c20.4,19.8,53.6,27.1,80.5,32.6c5,1,6.9-1.9,6.2-4.9C1073.5,792.4,1077.9,785.8,1070.1,781.3z"/>
	<path class="st11" d="M716.2,270.5c-5.4,8-10.9,16-16.3,23.9c-0.6,0.9,1.4,1.9,2,1.1c5.4-8,10.9-16,16.3-23.9
		C718.8,270.7,716.7,269.7,716.2,270.5z"/>
	<path class="st12" d="M729.4,265.6c-24.7,12.1-54.5,24.9-70.3,48c-3.4,5,6.3,9.2,10,6.7c23-15.1,39.9-36.9,62.7-52.9
		C733.3,266.4,730.6,265,729.4,265.6z"/>
	<path class="st1" d="M885.8,290.4c-19.1-42.6-56-74.2-99.8-89.6c-38.8-13.6-82.3-13.8-119.9,3c-45.5,9.3-91.7,59-79.8,107.2
		c1.7,6.8,14.3,11.9,18.2,4.3c7.6-14.9,12.3-30.2,20.1-44.6c11.4-13.8,23.4-27,40.8-36.9c35-20.1,77.5-24.5,115.2-9.3
		c35.6,14.4,61.6,43.5,73,80c11,35.1-1.8,66.9,2.6,101.4c1.3,10.3,17.6,14.8,24.8,8.2C912.4,385.5,901.3,324.9,885.8,290.4z"/>
	<path class="st1" d="M1152.5,488.9c-15.1-22.9-34-43.1-58.1-56.8c-30.8-17.5-93.5-31-111.5,11.2c-0.8,1.9,0.3,4.8,1.5,6.2
		c1.2,1.3,3,4.9,5.3,5.1c11.9,0.8,16.5-3.9,27.6-8.5c27.3-11.1,53.5-0.5,74.6,18c27.9,24.6,35.7,67.1,66.8,86.1
		c4.8,2.9,14.2,3.7,16.9-2.5C1183.8,528.9,1162.9,504.7,1152.5,488.9z"/>
	<path class="st1" d="M950.8,951.4c7.6-57.2-22.3-111.1-66.8-145.8c-21.3-26-57.2-43.6-87.7-51.5c-37.4-9.6-103.7-10.9-139.5,16.6
		c-15.5,7-27.3,17.9-24.5,34.1c0.2,1.2,1.7,1.7,2.7,1.4c13.9-3.1,24.9-11.2,38.6-15.2c18.8-5.5,37.3-5.2,56.7-3.5
		c32,2.7,67.8,5.1,97.2,18.8c14.1,6.6,26.2,15.4,36.5,25.7c5.8,9,10.7,18.8,14.2,29.6c1.2,3.6,7.3,7.1,13.1,8.3
		c11.7,22.5,19,47.8,22.9,72.8C916,955.2,948.6,968.1,950.8,951.4z"/>
	<path class="st1" d="M1575.9,808.4c14.3-51.7,0.2-109.2-49.8-134.5c-41.8-21.1-111.5-28.8-153-3.7c-37,22.3-63,81.2-30,116.4
		c1.2,1.2,4.6,2.5,5.5,0.3c9.9-24.4,8.7-49.9,25.3-72c24-31.9,60.1-35.2,97.3-30.5c43.5,5.5,70.3,26.8,72,72.3
		c0.6,16.1-1.2,32.2-6.9,47.3c-3.8,10.2-19.4,38.8-34.7,36.1c-4-0.7-11.8,1.8-8.8,7.4c7.2,13.9,23.7,17.9,38.6,14
		C1554.9,855.5,1569.8,830.4,1575.9,808.4z"/>
	<path class="st13" d="M747.6,339.7c-1-1.3-2-2.6-3-3.8c10-9.1,24.9-23.3,24-36.6c-0.2-2.5-3.8-3.7-5.9-3.1
		c-11.9,3.5-22,13.2-32.5,21c-11.5-15.4-23.1-30.8-36.5-44.3c-3.1-3.1-17.9-5.5-16.2,2.4c4.4,20.1,15.5,39,26.6,56.8
		c-9.7,4.5-19.8,8.3-30.4,10.7c-22.3,4.9,5.4,35,24.4,24.8c6.9-3.7,13.7-7.6,20.3-11.7c10.6,17.9,24.6,39.1,43.2,41.7
		c5.1,0.7,10.8,0.6,14.8-2.8C789.6,383.6,753.7,347.3,747.6,339.7z"/>
	<path class="st13" d="M1481.9,809.4c-5.3-10.4-13.1-19.1-20.9-27.8c17.5-12,33.3-26.5,42.8-42.8c0.8-1.3-1.4-2.4-2.5-2
		c-19,6.1-36.3,15.3-54.5,23.2c-1,0.4-1.9,0.8-2.9,1.2c-9.3-12.2-17.9-25.3-24.8-38.8c-0.4-0.8-2.9-1.6-2.8-0.1
		c1.6,15.2,5.3,31.1,11.6,45.6c-13.1,5.3-26.3,10.3-39.3,15.8c-8.5,3.7-3.9,14.1,1.1,18.4c7.2,6.3,17.4,7.4,26,3.9
		c8.8-3.6,18.1-8,27.4-13.2c7.4,8.9,16.5,16.3,27.5,21.3C1473.8,815.5,1485.3,816.2,1481.9,809.4z"/>
	<path class="st13" d="M834.2,911.6c-11.3-16.9-27.2-31.5-41.5-46.5c2.9-1,5.8-1.9,8.8-2.7c1.3-0.4,38.7-7.4,30.8-14.8
		c-13.1-12.3-41.2-6.2-58-3.5c-9.2-11.2-18.8-22.3-31.1-29.4c-0.4-0.2-1.7-0.5-1.8,0.3c-1.5,10.9,4.4,22.3,11.2,32.8
		c-18.9,3.6-38.8,9.1-53.1,19.6c-16.8,12.5,11.8,27.5,23.9,24.2c16-4.5,31.3-11.3,46.7-17.7c11.5,17.3,24.4,34.7,40.6,47.5
		C819.2,928,844.9,927.6,834.2,911.6z"/>
	<path class="st13" d="M940.9,506.3c1.4-1,0.2-2.1-1.1-2.7c1-2.9,1.6-5.9,1.3-9.2c-0.1-0.7-0.8-1.2-1.4-1.4
		c-17.6-4.7-31.9,5.3-41.1,19.9c-10.7,17-9.5,34.8,4.9,49c4,3.9,13.2,5,16-0.7c5.9-11.6,5.5-24.8,9.9-37c1.9-5.2,5.1-9.8,7.7-14.6
		C938.3,508.4,939.6,507.2,940.9,506.3z"/>
	<path class="st1" d="M967.3,509.7c-2.8-0.1-5.8,0.2-8.8,0.6c0.3-1.2,0.6-2.4,0.8-3.6c0.2-1.1-1.6-1.9-2.4-1.3
		c-3,1.9-6.1,4.5-8.9,7.5c-8.9,2.9-17.5,7.8-24,14.1c3.1-4.1,6.5-7.7,10.7-10.9c4.1-3.1,10.5-9.2,15.1-11c0.8-0.3,0.3-1-0.3-1.3
		c-4.5-1.7-8.8-2.8-13.1-3.3c0.1-0.7,0.1-1.3,0.2-3c0.1-1.9-2.2-4.1-3.8-4.8c-14.8-6.8-26.2,2-33.7,15c-2.7,4.6-4.6,9.2-5.8,13.8
		c-10.2,14.4-10.9,32.5,2.2,46.3c2.3,2.4,8.9,5,10.7,0.6c2.5-6,4.4-12.4,6.6-18.6c-0.2,5.9,1.4,12.2,5.5,18.7
		c2.7,4.2,14.4,7.3,16.4,0.9c0.5-1.6,0.9-3.2,1.4-4.8c1.9,1.5,4.9,2.2,6.5,0.3c6.7-8,6-17.5,8.1-27.3c1.5-7.1,4.2-13.7,6.2-20.6
		c3.2-2.3,7-4.2,11.6-5.2C970.2,511.3,968.2,509.7,967.3,509.7z"/>
	<path class="st1" d="M969.4,537.8c1.3-7.7,3.5-14.8,4-22.5c0.1-1.3-2.3-1.7-3-1c-11.7,11.9-17,30.3-14.3,46.7
		c0.4,2.7,6.4,5.1,7.5,1.8C966.4,554.5,968,546.3,969.4,537.8z"/>
	<path class="st1" d="M1022.1,686.3c-20.2-26.4-35.8-56.6-41.3-89.5c-0.2-1.2-2.9-1.9-2.9-0.4c0.3,12,1.9,23.7,4.7,34.8
		c-7.9-15.8-14.7-32.9-15.1-50.8c0-1.4-2.9-2.2-3.4-0.8c-8.5,20.7-5.6,40.9,10.3,56.9c1.8,1.8,8.2,2.4,9.7,0.1
		c5.7,19.1,15.4,36.7,30,51.9C1016.7,691.2,1025.9,691.3,1022.1,686.3z"/>
	<path class="st14" d="M475.4,337.5l-38.9,117.1c-2.7,8,15.3,14,18,6l38.9-117.1C496.1,335.5,478.1,329.5,475.4,337.5z"/>
	<path class="st14" d="M422,297c-69.5,24.5-125.9,96-111.5,172.2c1.5,7.9,20.4,7.6,20.9-1c3.8-68.2,33.6-132.5,100.3-159.3
		C444.1,304,430.8,293.9,422,297z"/>
	<path class="st14" d="M607.5,376.4c-26.9-45.3-70.9-74.8-121.6-86.6c-9.8-2.3-9.7,9-1.4,11.6c45.3,14.2,84.5,44.9,104.8,88.5
		c2.3,4.9,4.1,9.6,5.7,14.4c-5.9-1.1-11.8,0.8-9.8,7.2c9.7,31.3,5.8,63-8.6,92.2c-14.7,29.6-38.6,46.4-64.1,65.8
		c-10.2,7.8,7.3,15.6,14.2,14.3c39-7.3,64.9-36.8,77.5-72.3C644.6,480.4,630.4,415.1,607.5,376.4z"/>
	<path class="st14" d="M1163.7,744.6c-45.5-15-86.5-43-94.9-93.6c-7.4-44.7,18.3-89.8,63.8-99.3c11.3-2.4-1.1-14.6-8.3-13.8
		c-58.7,6.6-98.2,58-86.8,116.7c11.4,58.5,67.3,98.9,124.6,103.5C1173.5,759,1173.8,747.9,1163.7,744.6z"/>
	<path class="st14" d="M1240.1,727.6c-7.7-30.6-20.8-59.9-35.2-88c-13.3-25.7-27.6-55.8-48.8-75.9c-2.1-2-12.4-3.8-11.2,1.7
		c5.7,26,23.7,51.3,34.9,75.4c9.2,19.7,17.5,39.9,26.3,59.7c0.4,3.7,0.8,7.3,1.2,11c0.2,2.3,3.1,3.8,5.7,4.1
		c1.7,3.6,3.3,7.3,5.1,10.9C1221.2,732.9,1242.8,738.4,1240.1,727.6z"/>
	<path class="st14" d="M1335.2,668c-32.5-68.2-107.7-116.5-182.9-122.1c-8.7-0.7-9.4,8.4-1.3,10.5c69.9,18.5,121.3,56.5,163.9,114.7
		C1319.3,677.1,1340.5,679.2,1335.2,668z"/>
	<path class="st14" d="M1028.7,804.8c-49.2-26.3-94.1-53.5-133.2-94c-1-1.1-4.8-1-3.2,0.9c35.5,43.1,78.9,81.2,130.8,102.8
		C1030.9,817.8,1037.2,809.4,1028.7,804.8z"/>
	<path class="st14" d="M864.8,469.2c1.7-1.3,3.4-2.6,5.2-3.9c4.3-3.1-3.5-6.7-6.5-5.4c-4.8,2.1-9.9,4.7-14.9,7.7
		c-34.6,10.4-66.5,41-64,79.1c0.4,6,13.8,10.6,16,3.8c2.8-8.9,6.2-17.5,10.2-25.6c2.3,0.4,4.5,0,5.8-1.5c8.3-9.6,14.2-21.2,22.6-31
		c1.9-2.3,4-4.4,6.1-6.5c5.6-3.3,11.9-5.9,18.8-7.8C870.2,476.5,868.6,472.2,864.8,469.2z"/>
	<path class="st5" d="M426.7,347.8c-9.4-7.2-25.4-5.7-32.1,4.2c-4.6,6.8-8.4,13.9-11.5,21.3c-11.2,8.4-13.8,27.9-17,40.2
		c-2.9,11.2-8.9,26.2-2.7,37.3c5.6,9.9,19.2,12.9,29.8,10.7c6,2.2,13.4,2.5,22.1,0.4c25.1-6.1,30.7-31.8,33-54.2
		C450.6,384.2,446.1,362.5,426.7,347.8z"/>
	<path class="st5" d="M570.7,487.6c0.7-6,0.9-12,0.3-18c0-1.1-0.3-2.3-0.7-3.4c0.1-1.1,0.2-2.3,0.3-3.4c2.4-8.8,4.2-17.9,5.3-27.4
		c0-0.1,0-0.2,0.1-0.2c0,0,0,0,0,0c0.2-1.4,0.4-2.8,0.6-4.3c1-10.4-12.5-18.6-25.3-20.3c-0.1-0.1-0.1-0.3-0.1-0.5
		c0.2-1.7,0.4-3.4,0.6-5.1c0.7-5.4-3.2-9.8-8.5-12.5c-1.1-2-2.3-3.9-3.6-5.8c-0.8-1.2-1.9-2.4-3.3-3.4c0-3.6-0.1-7.3-0.4-11
		c-0.9-11.7-23.5-20-31.1-10.3c-21.8,27.9-31.8,60.8-28.3,96.1c0.8,8.5,13.4,16.1,23.8,16.6c-2.2,10.9-4.3,21.8-6.2,32.8
		c-3.4,19.2,30.7,33.1,43,18.7c6.7-7.9,12.5-16.1,17.4-24.6C562.9,501.2,570,497,570.7,487.6z"/>
	<path class="st5" d="M1168.1,704.8c-0.1-7.6-1.2-15.1-3.3-22.3c1-8.6,0.9-17.1,0.5-23.7c-1.8-25.7-12.2-49.6-28.1-69.6
		c-6.6-8.3-37-19.6-40.5-2.2c-2.3,11.6-3.4,23.8-3.1,36c-0.5,0.7-1,1.4-1.4,2.3c-9.9,20.4-10.1,44.5,0.5,64.7
		c9.3,17.8,29.6,37.2,51.4,29.3c1-0.4,1.9-0.8,2.8-1.3c3.2,0.4,6.4,0.2,9.5-0.8c2.2-0.7,3.9-1.6,5.3-2.7
		C1165.5,712.8,1168.2,709.9,1168.1,704.8z"/>
	<path class="st5" d="M1317.8,709.6c-5.8-7.9-12-15.5-18.4-22.9c-4.4-12.8-12.7-24-23.7-33c-2.8-2.3-8.2-4.3-14-5.4
		c-4-8.6-8-17.2-11.5-26.1c-6.1-15.2-42.4-20.5-41.5-2.6c-7.4,1.3-11.8,6-7.7,16.1c8.9,21.7,21.8,41.1,37.9,57.6
		c3.7,5.5,7.5,11.1,11.4,16.7c2.5,3.6,7.8,6.4,13.8,8c2.1,2.6,4.5,4.9,7,6.8c14,10.6,34.5,13.2,47.7,0.5
		C1323.3,720.8,1320.9,713.8,1317.8,709.6z"/>
	<path class="st14" d="M443.8,418.6c-2.1-10.2-8.2-19.6-12.6-29.3c5.4-18-3.4-36.1-11.9-52.2c-4-7.7-16.9-7.9-21.7-0.9
		c-17.7,26.3,8.5,75.6,33.6,88.2C435.6,426.4,445.1,425,443.8,418.6z"/>
	<path class="st14" d="M435.2,463.7c-7.7-5.4-15.5-10.9-22-17.7c-3.2-3.3-6.2-6.8-9.1-10.4c0.3-17.5-10.6-22.4-22-33.2
		c-1.2-1.2-2.4-2.4-3.9-3.5c-0.1,0.1-0.1,0.2-0.2,0.3c-9-5.7-25.1-6.8-30.3,3.6c-11.1,21.8,20.5,52.7,36.8,64.4
		c10.9,7.8,22.9,13.7,36.1,16.9c7,1.7,25.3,4.4,27.2-5.9C449.1,471.2,439.9,467.1,435.2,463.7z"/>
	<path class="st14" d="M552.3,386.9c1-5.5-1.2-10.2-5.7-13.7c-5.5-4.2-11.6-7.1-18.8-6.2c-5.4,0.7-10.5,2.1-12.7,7.5
		c-2.9,7.1-4.8,13.2-9.8,19.2c-4.2,5.2-9.8,9.7-13.3,15.3c-4.3,7.1,4.5,13.7,11.2,14.2C524.7,424.8,548.4,409.2,552.3,386.9z"/>
	<path class="st14" d="M561.7,423.8c-4.8-7.1-11.6-9.6-20-9.5c-11,0.2-16.6,6.8-23.1,14.9c-5.7,7.2-11.4,14.4-16.9,21.7
		c-5.3,7.1-13.8,15.2-15.4,24c-1.4,8.2,9.5,11.8,15.9,10.6c12.7-2.5,24.8-12.3,34.7-20.4c10.6-8.8,21.1-18.3,27.4-30.7
		C566,431,563.5,426.4,561.7,423.8z"/>
	<path class="st14" d="M1144.7,637.7c-20.4-8.4-23.7-29.5-38.3-43.4c-6.3-6-27.4-10.9-30.7,1.3c-4,14.8,10.7,30.5,21.1,39.4
		c11.9,10.2,26.6,17.7,41.8,21.3c5.5,1.3,14.9,2.4,17.2-4.6C1158.1,644.8,1149.8,639.8,1144.7,637.7z"/>
	<path class="st14" d="M1169.3,702.7c-19.8-8.2-36.7-20.8-53-34.4c-7.4-6.2-22.3-10.3-30.4-3.1c-9,7.9-0.2,17.2,7,22.1
		c21.8,14.6,46.3,23.6,71.5,30.1C1178.4,721,1182.7,708.2,1169.3,702.7z"/>
	<path class="st14" d="M1242.4,586.3c-3.3-5-16.1-9.1-20.3-3c-6,8.7-3.7,19.2-5.2,29.3c-1.6,10.9-5.7,20.7-9.2,31.1
		c-3.5,10.5,18.8,19.2,24.5,10.6C1243.6,637.3,1254.7,604.7,1242.4,586.3z"/>
	<path class="st14" d="M1299.7,636.8c3.1-13.5-23.3-24.7-31.3-13.6c-10.9,15.2-67.3,115.9-12.9,107.8c8.8-1.3,10.7-6.5,8.6-11.4
		c0.2-0.8,0.5-1.6,0.7-2.4c0.4-1.4,0-2.8-0.8-3.9c4.3-10.6,16.5-29.4,18.1-32.9C1288.6,666.5,1296.3,651.7,1299.7,636.8z"/>
	<path class="st14" d="M1065.7,776.3c-20.6-3.4-35.5-13-51-25c-1.5-3.9-6.4-6.9-9.8-8.2c-15-5.6-30-10.5-45.4-14.8
		c-4.7-1.3-12.9-1.9-14.9,4c-2,6,5.1,10.4,9.6,12.1c14.9,5.9,29.9,10.9,45.2,15.4c0.6,0.2,1.2,0.3,1.9,0.4
		c16.3,18.7,42.3,29.3,65.9,33.2C1083.5,796.2,1079,778.4,1065.7,776.3z"/>
	<path class="st15" d="M1742.9,1324.1c-1.2-0.4-1.6,0.9-0.4,1.3C1743.7,1325.7,1744.1,1324.5,1742.9,1324.1z"/>
	<path class="st15" d="M1679.6,1400.2l-5,15.1c-0.1,0.2,0.5,0.4,0.5,0.2l5-15.1C1680.2,1400.1,1679.6,1400,1679.6,1400.2z"/>
	<path class="st15" d="M1698.3,1393.8l-6.3,6.3c-0.3,0.3,0.5,0.7,0.8,0.4c2.1-2.1,4.2-4.2,6.3-6.3
		C1699.4,1393.9,1698.6,1393.5,1698.3,1393.8z"/>
	<path class="st15" d="M1712,1369c0.2-0.6-1.2-1.1-1.4-0.5c-1.3,3.8-2.6,7.5-3.9,11.3c-0.2,0.7,1.4,1.2,1.6,0.5
		C1709.5,1376.6,1710.8,1372.8,1712,1369z"/>
	<path class="st16" d="M1678.1,865c1.4-2.4,1.8-5.2,0.1-8c-0.4-0.6-0.8-1.2-1.2-1.8c2.9-13.3,4.9-27,5.7-41.3c0.1-2,0.2-3.9,0.3-5.9
		c4.2-4.4,8-9.1,11.5-14.5c9.5-14.5,28.5-43.3,25.9-61.1c-2.8-18.9-28.2-22-40.8-30.7c-34.3-23.9,2.5-48.8,12.1-75.3
		c12.1-33.3,2.1-75.6-26.9-97c-12.8-9.5-28.4-13.5-42.3-3.3c-13.8,10.1-16.8,26.9-15.8,43c-7.2-10.2-14.9-20.1-22.8-29.9
		c-4.3-17.3-9-34.4-21.8-47.6c-8.5-8.7-22-15.4-34.3-11.9c-4.1-3.8-8.3-7.6-12.6-11.4c-27.8-24.4-57.2-47.5-87.8-69.3
		c-5.5-6-11.4-11.5-17.5-16.1c-6.1-4.6-12.5-7.6-19.1-9c-46-30.4-94.3-57.9-143.6-82.7c-0.2-3.4-0.8-6.9-2.3-10.5
		c-6.9-17-23.4-28.1-40.2-33.7c-9-3-19.6-1.8-28-4.7c-13-4.5-13.5-16.4-21.2-26c-11.3-14.1-29.6-20.8-47.3-21.1
		c-18.9-0.3-34.5,6.6-47.3,17.5c-20.7-6.8-41.7-13-62.9-18.5c-3.3-25.7,28.8-40.8,26-70c-1.7-17.8-18.2-25.4-34.3-23
		c-25.5,3.8-61.9,56.6-80.8,19.6c-8.3-16.3-1.9-37.1-19-49.2c-16.5-11.6-50.1-7.3-68.1-0.8c-22.3,8.1-28.9,24-36.3,44.9
		c-4.3,12.1-19.1,52.6-44.2,16.2c-9.7-14.1-7.8-31.2-3.8-46.6c2.6-10.2,9.8-21.8,9.3-32.5c-1.3-24.3-26.9-16.8-43.4-25.2
		c-2.3-1.2-5.3-0.7-6.1,2.1c-3,9.5-5.5,19.2-8.2,28.8c-2.5,8.7-4.6,26.7-10.5,33.5c-9.6,11.2-20.1-3.1-27.2-12.2
		c-3.9-5-7.7-9.7-12.6-14c-18.4-16-45.3-22.7-69.4-19.9c-46.4,5.5-67.8,51.4-64.7,93.2c-29.2-8.7-61,9.2-63.5,43
		c-1.3,17.7,6.5,32.8,19.8,43.9c-41.7,19.8-81.6,44.6-118.9,74.9c-23.4,19-44.2,40.5-63.6,63.4c-6.7,7.9,6.5,19.5,13.8,12.1
		c2.6-2.7,5.4-5.3,8-7.9c-1.9,3.1-3.8,6.3-5.7,9.5c-16.3,28.8-26.2,59.1-30.7,89.9c-1,0.5-2,1-3,1.6c-0.7,0.4-0.2,1.5,0.6,1.1
		c0.7-0.3,1.4-0.6,2.1-0.9c-12.3,88.9,20.2,181.7,74.1,255.1C421.3,839,548.2,910,674.2,966.9c126,56.8,256.9,108,392.8,135
		c125.6,25,257.1,27.7,379.2-15.3c37.4-13.2,73.1-30.9,104.9-52.9c-41.6,55.7-86.9,108.3-140.8,154.4
		c-107.1,91.7-238.8,141-380.2,135.9c-141.5-5.1-278.5-56.8-401.9-123.5C564.9,1166.2,501,1129,445.3,1083
		c-64.3-53.1-105.5-120.8-131.5-199.5C287.2,802.9,271,718,262.9,633.6c-8.6-89.8-10.1-185.2,2.9-274.6c0.1-0.4-0.6-0.4-0.6,0
		c-12.9,84.8-21.9,167.1-17.8,253.2c3.8,80.5,15.4,160.6,35.8,238.7C302,923,329.7,993.8,379,1051.1
		c51.9,60.3,121.2,104.4,188.8,144.9c124.1,74.3,261.5,133.8,406,151.8c142.2,17.8,282.2-14,400.5-95.5
		c132.3-91.3,234.6-233.3,305.9-375.6C1682.5,872.2,1681,867.7,1678.1,865z M1652.9,541.5c9.4,4.2,17.2,16.1,21.4,24.9
		c9.7,20.1,9.5,45.1-2,64.5c-5.3,9-12.2,16.5-17.7,23.9c-9.7-23.2-21.7-45.6-35.4-66.9c2.2-1,3.8-3,3.8-6c-0.1-5.5-0.2-11-0.4-16.6
		C1620.7,547.4,1630.8,539.5,1652.9,541.5z M1512.2,494.3c-8.7,15.4-13.9,34.4-35.5,12.9c-14.9-14.8-15.2-38.8-20.5-59.4
		C1475.5,462.5,1494.3,478,1512.2,494.3z M1359.1,381.7c-14.1,11.8-39.6,45-57.1,39.2c0.9-0.6,1.7-1.4,2.4-2.4
		c15.3-20.9,13.8-50.4-1-70.4C1322.2,359,1340.7,370.2,1359.1,381.7z M1264.6,326.5c-5.7-1-10.4-2.3-13.4-7.2
		C1255.7,321.7,1260.1,324.1,1264.6,326.5z M1195.9,263.1c11.3,3.4,19.2,8.3,24.4,15c-12.2-5.8-24.4-11.5-36.6-16.9
		C1188,261.6,1192.2,262,1195.9,263.1z M1126.8,215.9c15.1,6.8,16.5,19.9,23.3,30.6c-9.1-3.8-18.3-7.6-27.4-11.3
		c-13.9-5.6-28-10.8-42.3-15.8C1093.3,210.8,1108.9,207.9,1126.8,215.9z M1039.4,283.8c4.3-14.9,11.9-32.5,22.7-46.6
		c57,19.4,112.5,43.2,166.4,70.4c0,0.5,0,1,0,1.5c-0.1,11.3,0,21,9.4,29.1c11,9.5,26.6,6.1,38.7,13c19.6,11.2,23.1,38.5,10.7,55.8
		c-0.3,0.4-0.4,0.7-0.6,1.1c-3.4,0.1-6.7,2.8-5.6,7c3.4,13.2,13.3,21,27.3,21.9c20.2,1.2,33.6-15.1,46.1-28.5
		c7.7-8.2,15.8-13.1,24.1-14.4c4.2,2.7,8.5,5.4,12.7,8.2c11.1,7.3,22.2,14.8,33.1,22.5c5.3,7.6,9.8,15.7,13,24.6
		c7.9,22.6,6.4,49,22.5,68.3c10.1,12.1,25.8,19.7,41.7,15.7c6-1.5,11.6-4.5,15.8-9c3.7-4,3.2-5.8,6-9.6c1.2-2.4,2-4.9,2.7-7.5
		c17.1,16.5,33.2,33.9,48,52.3c0.2,0.5,0.3,1,0.5,1.4c5.1,13,11.4,23.6,22.9,30.3c21.8,32.4,39.3,67.6,50.6,106.2
		c9.9,33.8,15.1,69.2,14.1,104.4c-8.5,6.9-16.9,14.3-18.1,23.2c-1.4,9.9,5.3,20.5,11.5,29.8c-0.2,0.9-0.4,1.8-0.6,2.7
		c-16.7,7.1-32.5,14.9-46.6,26.8c-13.4-8.7-27.5-17.1-42.2-23.7c34-26.6,46-79.8,32.9-119.4c-17-51.1-67.7-87.7-118.5-100
		c-39.4-9.5-105-10-137.5,21.5c-13-47.3-38.9-85.2-82.7-111.4c-24.2-14.4-51.6-23.2-79.7-26.1c1.1-1,1.8-2.6,1.1-4.5
		c-14.9-40.2-48.7-73.9-86.6-92.9c-17.8-8.9-38-15.4-58-16c-23.1-0.7-42.6,11.5-64.5,16.9c-2.5,0.6-1.7,4.2,0.8,3.9
		c19.9-2.5,39.2-11.7,59.4-11.5c20,0.2,40.1,7.3,57.9,15.7c39.3,18.6,64.8,49.3,84.1,87.4c0.1,0.2,0.3,0.4,0.4,0.6
		c-27.5-2.1-55.4,1.4-81.3,10.7c-12.4,4.5-23.1,10.3-32.3,17c-2.4-60.2-66.5-117.2-119.7-132.1c-25.2-7-52.3-8-78.1-3.2
		c5.5-5.4,7.7-16,8.6-22.5c0.3-2.5,0.5-4.9,0.5-7.3c6,7,9.7,13.6,6.4,17.9c-0.9,1.2,1,2.3,1.9,1.2c7.7-9.1,7.4-17.5,0.9-27.5
		c-7.3-11.2-18.5-17.2-22-31.4c-3.4-13.7,1.7-26.2,10.9-33.2c2.5-0.1,4.8-1.2,5.9-3.4c6.7-2.9,14.6-3.3,22.9,0
		c6.3,2.5,12.2-3.9,11.2-10c-5.3-29.7,15.8-60.9,46.3-65.7c30-4.7,57.9,19.2,64.4,47.2C1023.5,291.4,1036.8,292.9,1039.4,283.8z
		 M1275.8,859.5c1.7,9.2,6.5,16.8,11.5,24.6c3.7,5.6,8.4,10.7,11.6,16.5c6.7,12.2,10.1,19.3-6.4,21.8c-14.4,2.2-12.7,0.9-20.3-9.6
		c-2.8-3.9-5.4-8.1-8.4-11.9c-5.3-6.8-10.9-12.8-18.2-17.5c-13.7-8.9-30.5-11.9-46.6-13.1c-8.4-0.6-17.6-0.4-27,0
		c5-26.9,31.3-44.6,56.7-50.3c20.2-4.5,38.2,0.4,57.7,3.5C1277.6,833.3,1273.3,846.1,1275.8,859.5z M1291.5,818.9
		c-37.4-33.1-124.5-0.7-123,51.6c-17.3,0.7-35.4,1.5-51.5-1.9c0.1-0.2,0.2-0.4,0.3-0.6c6.4-18.3,6.5-35.4,2.3-51.1
		c23.9-32.2,75.3-42.1,112.3-37.6c23.3,2.8,45.9,11.3,66.2,22.9c3.6,2,7,4.3,10.3,6.7C1302.6,811,1297,814.3,1291.5,818.9z
		 M1217,764.1c-30.5-0.3-83.5,11.6-101.2,42.1c-3.1-7.4-7.1-14.6-11.9-21.3c19.2-14.9,34.9-27.7,60.5-33c26.1-5.5,53.4-3.5,79.5,0.8
		c29.8,4.9,60,13,85.9,29c15.6,9.7,26.8,21.9,36.6,35.7c-11.6-6.5-23.7-11-36-11.8C1301.5,778.7,1251.7,764.4,1217,764.1z
		 M970.6,835.7c-29.3-18.2-59.6-31.1-84.7-56c-21.1-21-37.9-49-43.2-78.7c8,5,17.2,8.6,25.5,13.3c14.7,8.3,28.9,17.6,42.4,27.6
		c27.7,20.6,50.2,49.1,80.2,66.5c0.2,0.1,0.5,0.2,0.7,0.3C982.8,816,975.5,825.2,970.6,835.7z M963.8,873
		c-12.1-3.1-25.6,0.8-37.2,8.6c-1.1,0.7-2,1.5-3,2.2c3-22.2-3.4-44.1-15.3-63.9c17.7,12.6,37.5,22.4,57.8,28.6
		C964,856.3,963.2,864.5,963.8,873z M583.8,691.8c-9-4.5-16.3-1.8-25.4-3.3c-2.6,0.5-5.3,1-7.9,1.4c-6.4-5.7-12.8-11.4-19.3-17.2
		c-0.2-0.4-0.4-2.6-0.6-5c13.2-2.8,25.1-12.8,27.3-27.8c1.3-9,0.4-16.7-2.1-23.2c21.3-7.7,40.6-24.2,55.5-44.5
		c9,16.6,32.2,38.5,52.8,30.1c3.9,8.1,9.1,15.7,15.5,22.4c-7.6-1.4-15.1-2.2-22.2,0.2c-15.5,5.1-19.4,20.1-17.9,35
		c1.7,17.5,11.1,34.8,23.5,47.1c12.7,12.6,41.2,18.7,54.8,32c-41,6.2-81.1,22.4-110.3,46.2c-3.6-0.8-7.3-1.5-11-1.9
		C610.4,752.3,620.4,710.3,583.8,691.8z M991,215.7c1.5,2.6,3.3,5.1,5.3,7.6c-13-6.2-27.9-8.6-43-5.6c-35.9,7.1-57.5,39.5-59.5,73.9
		c-4.9-0.7-9.9-0.6-14.7,0.2c0.6-53.8-45.7-87.9-96.6-105.3c68.6,0.9,137.7,10.6,204.9,28.2C988.6,215,989.8,215.4,991,215.7z
		 M863.3,297.8c-8.7,5.3-15.6,13.6-19,24c-4,12.5-2.7,26.4,3,38.1c2,4.1,8.9,10.6,16,17.5c-0.4,5.7-1.5,11.3-3.6,16.6
		c-2.9,7.5-10.3,14.7-8.8,22.9c0.2,1.3,1,2.2,1.9,2.9c-5.3,1.4-10.5,2.9-15.6,4.8c-20.2,7.4-48.7,20.6-55.2,42.7
		c-5.1-10.9-12.3-21-20.9-29.2c-27.2-26.5-93.4-43.5-108,0.5c-0.9-12.7-3.4-25.2-7.4-37.2c-12.1-36.5-35.9-64.8-65.8-84.8
		c11.6-68.8,58.6-127.8,134.4-124.3C773.9,195.2,868.9,224.7,863.3,297.8z M660.3,593c-7-2-14.7-2.2-21.7-4.8
		c-10.4-3.7-18.7-9.4-25.8-17.9c0,0-0.1,0-0.1-0.1c12.6-17.7,22-38.1,26.4-58.1c9.9-19.5,14.6-41.5,14.4-63.6
		c7.6-30.2,45.1-29.3,67.4-21c14.2,5.3,27.1,15.1,36.5,26.8c10.4,12.9,17.6,29.3,17.9,46c0.3,15.1-5.9,24.3-14.1,34.2
		c-2.4-5-4.7-9-6.8-11.2c-26.6-27.5-72.4-15.6-89.5,16C655.4,557.4,654.8,576.1,660.3,593z M618,541.4c-3,5.7-6.3,11.2-10.1,16.7
		c-15.5,22.3-35.5,35.1-55.6,51.8c-13.6-21.1-47.2-27.2-73.7-27.5c3.6-6.3,7-12.8,10.1-19.5c37,26.2,93.9,10.9,125.3-17.6
		C615.4,544.1,616.7,542.7,618,541.4z M683.8,709.8c-8.4-5.7-14.8-12.7-20.1-21.2c-10-16-11.4-20.9-1.1-36.6
		c11.1-16.8,8.8-12.2,25.3-9.4c6.5,1.1,12.2,1.9,18.8,1.5c6.8-0.4,11.9-9.9,4.7-14c-26.1-14.8-46.4-42-36.8-73.5
		c11.5-37.8,59.6-44.8,79-9.5c13.9,25.2,19.5,60.3,55.9,56.9c2.8-0.3,4.8-3.3,5-5.9c3.5-45.7,64.3-55.3,79.4-10.5
		c0.9,2.8,4.2,5.4,7.3,3.5c16.8-10.4,46.3-29.8,65.4-13.7c19.9,16.9,6.1,26.9,6,46.2c-0.1,8.5,4,14.7,7.3,22.4
		c8.1,18.6,11.5,36.4,9.9,56.6c-0.6,7.1,10.8,7.7,11,0.6c0.6-20.8-4-38.4-12.1-57.4c-7.7-18-5.1-0.7-2-38.5c0.2-2.2,1.8-4.7,1.8-7.1
		c-0.1-5.6-0.3-9.9-2.6-15.1c-16.2-36.2-58.4-20.8-84.5-6c-12.8-27.8-45.6-42.7-73.9-25.4c-6.5,4-12.3,9.4-16.6,15.6
		c-2.4,3.4-7,20.7-8.6,21.4c-13.8,6.3-25.6-21.5-35.3-43.7c17.4-5.2,23.7-28.9,23.3-46c-0.1-3.4-0.4-6.7-1-10
		c35.2-25.9,81.9-30.2,123.7-18.3c-22.9,18.7-36.8,47.2-40,76.3c-0.2,1.8,2.7,2.4,3.1,0.6c7.4-30.4,22.7-53.3,45.1-74.3
		c1.5,0.5,2.9,1,4.4,1.5c46.5,17.3,77.7,52.7,99.4,96.1c3.2,6.4,12.3,1.5,9.7-4.9c-20-50.8-63.8-93.6-116.6-108.7
		c-38.3-11-96.4-10.7-127.3,19.6c7.7-28.3,55.4-40.8,80.4-44.4c27.8-4.1,57-0.4,82.8,10.7c24.7,10.6,46.2,28.2,62.1,49.9
		c16.1,21.9,20.5,46,30.5,70.3c-42.4,44.6-37.4,116.6-1.3,169.5c-5.5-3-11-5.9-16.5-8.4c-37-17-76.8-31.8-116.5-40.9
		c-21.5-5-45.5-7.7-64.1,4.9c-2.3-0.6-4.6-1.1-6.9-1.4c0-0.1,0-0.2,0-0.4c0-0.6-0.9-0.7-1,0c0,0.1,0,0.2,0,0.3
		c-3.5-0.4-6.9-0.4-10.2,0c-0.3,0-0.3,0.4-0.2,0.5c2.8,3.7,6.3,6.7,9.9,9.3c-0.3,25.2,7.1,48.7,19.7,69.5
		c-11.7-8.4-24-15.2-35.7-19.9c-28.5-11.4-62.3-14.6-95.9-10.9C718.9,723,698.2,719.6,683.8,709.8z M1319.4,764.1
		c-23.2-11.6-48.6-19-70.3-22.9c-40.7-7.4-130.4-13.5-150.6,36.6c-1.7-2-3.4-3.9-5.2-5.9c0.1-1.2-0.2-2.5-1.2-3.6
		c-30.9-35.7-61.6-72.7-59.1-123c2.6-52.6,39.3-85.3,88.9-96.2c90.3-19.8,182,33.9,216.9,118c-0.5,0.6-1,1.2-1.5,1.8
		C1323.3,686.5,1309.3,734.9,1319.4,764.1z M911.1,724.9c-14.2-9.4-34.4-24-54.1-31.4c46.6-6.3,101.3,22.1,142,39
		c43.8,18.2,99.8,49.4,105.1,98.9c-7.5-15-21.6-27.2-36.6-33.4c-23.1-9.6-46.1-7-64.6,3.3c-0.1-2-1.1-4.1-3.3-5.7
		C969.3,772.7,942.8,745.8,911.1,724.9z M1350.1,783.4c0.7-2.2,0-4.8-3-6.1c-22.5-9.7-11.3-47.8-6.5-65.2
		c7.5-27.5,20.7-40.8,47.9-49c34.8-10.5,72.6-8.2,106.4,4.6c35.1,13.2,68.7,40.1,82.8,75.7c17.1,43.2-3.5,79.9-33.7,109.3
		c-13.1-3.7-26.7-5.4-40.7-4c-13.1,1.3-25.2,4.9-35.8,10.8c0-9.9-2-20-6.1-30.1c-1.7-4.2-6.8-5.9-10.9-5.2
		c-18.3,2.7-34.6,8.4-50.3,17.8c-5.1-4.5-10.7-9-16.4-13.3C1377.7,810.6,1365.4,795.7,1350.1,783.4z M1030.6,255
		c-6.5-11.3-15.8-20.9-26.7-27.7c3-0.6,5.6-3.3,5.8-6.5c11.6,3.3,23.1,6.8,34.6,10.4C1039,238.7,1034.4,246.7,1030.6,255z
		 M466.4,206.2c-24.7-32.6,14.5-62,45.1-47.6c6.4,3,10.9-5.1,8.9-10.3c-19.3-50,32-103.6,82.6-90.5c23.2,6,34.4,20.6,48.6,38.3
		c8.3,10.3,14.7,15.9,27.6,18.3c2.7,0.5,4.8-1.9,5.8-4c11-23.3,17.8-48.6,19.7-74.3c2.6,0.4,5.1,0.6,8,0.9c4.2,0.2,8.5,0.5,12.7,0.9
		c4.6,7.5,9.2,15.1,13.7,22.6c1.5,10.6-9.7,27.6-10.2,39.7c-0.7,17.9,6.8,38.5,24.6,45.9c14.4,6,27.7-0.9,35.8-13.3
		c8.4-12.9,8.6-29.6,20.6-40.8c12.5-11.6,38.2-15.9,54.7-12.8c38.6,7.3,19.7,39.9,40.5,61.3c13.3,13.7,31.8,9.1,46.5,0.5
		c11.8-6.9,31.9-30.1,46-24.5c3.2,5.8,6.4,11.7,9.6,17.5c-2.3,4.9-5.1,9.5-8.2,14c-3.5,5.5-7.6,10.7-10.4,16.6
		c-4,8.7-5.8,17.5-5.4,26.1c-167.4-41.1-347.5-40.4-503.8,27.4C474.7,214.8,470,211,466.4,206.2z M488.2,242.9
		c20.3,10.6,41.3,22.9,39,46.5c-0.3,3.5,4.8,4.3,5.9,1.1c7.7-22.6-3.9-41.4-22.5-54.4c-0.8-0.5-1.6-1-2.3-1.5
		c37.3-14.6,75.9-25.9,115.2-33.7c-34.6,25.5-57,65.9-50.8,111.2c-48.2-29.1-110.6-38-166.6-26.4C432.5,269.3,460,255.1,488.2,242.9
		z M282.7,438.1c10.9-38.9,30-73.3,54.9-102.9c8.2-6.9,16.7-13.4,25.2-19.8c43.2-9.6,86-19.8,130.6-12.6
		c51.5,8.3,102.2,36.7,127.5,83.8c21.7,40.3,22.2,94.3-4.7,132.4c-30,42.6-78.5,49.2-125.3,39.1c8.2-19.2,12.6-39.7,6.4-60.3
		c-7.4-24.2-26.6-42.4-52.5-42.7c-3.4,0-6.4,1.9-7.5,5.2c-5.7,15.9-11.4,31.7-17,47.6c-2.4,6.8-3.8,18.8-8.3,23.9
		c-6.5,7.4-16.2,6.4-24.2-1c-15.2-13.9-18.5-37.8-34.5-51.9c-20.9-18.5-50.2-24.1-76.1-15.9C278.6,454.7,280.4,446.4,282.7,438.1z
		 M455.8,820.3c-106.1-81.5-202.2-214.8-179.3-354.4c25.9-6.5,54.5,0.3,73,21.1c15.9,17.8,19.2,45.2,37.8,60.9
		c7.3,6.2,21.3,12.2,30.3,5.3c7.1-5.5,11.7-27.8,14.6-35.9c5.7-15.5,11.4-31.1,17-46.6c23,3.6,35.7,26.7,34.9,49.6
		c-0.8,24-14.7,46.1-26.7,66.1c-2.9,4.8-0.3,13,6.3,12.6c17.9-1.1,37.9-3,54.5,5.1c7.6,3.7,18.2,10.2,20.6,19.3
		c-0.7,7.9-1.5,15.8-2.2,23.6c-3.5,2.9-7,4.5-10.5,4.8c-5-9-13.6-14.2-25.1-12c-5.3,1-7.9,7.1-5.7,11.8c4,8.1,10.4,13,17.6,15.3
		c2.8,10,4,23.7,6.4,27.5c3.8,6.1,9,10.2,16.2,11.8c19.9,4.6,36.1-14.8,53.3,12.1c13.4,21-2.7,49.2-12.9,67.7
		c-3,5.5-0.3,13.2,6.7,13.4c26,0.7,50.3,11.1,67,31.4c18.5,22.5,19.1,50.9,26,77.9c5.2,20.6,16,40.4,32.2,51.6
		C619.2,922.5,532.2,879,455.8,820.3z M728.1,968.8c5.1,1,10.5,1.4,16.3,0.8c10-0.9,8.8-18.3-1.4-17.8c-58.9,3-49.1-86.6-71.7-122.3
		c-13.9-22-35.7-37-60.2-43.5c28.5-10.6,55-24.5,85-31.7c9.2-2.2,18.6-4,28.1-5.2c0.1,0.2,0.2,0.4,0.3,0.7c1.3,4.7,8.3,3.3,7.5-1.5
		c25.3-2.4,51-0.7,75.4,6.7c29.5,9,56.5,27,76,51c21.8,26.9,25.5,53.5,30,86.4c0.1,0.4,0.2,0.8,0.4,1.1c-5.4,6.6-9.6,14.2-13.9,21.9
		c-14,25.1-26.2,38.8-56.9,39.9c-21.7,0.8-43.7-0.2-54.2,22.3c-2.1,4.5-3.4,9.4-3.6,14C766.1,984.3,747.1,976.7,728.1,968.8z
		 M1605.4,956.9c-24,29.2-54.2,53.4-87.2,72.5c-106.9,62-235.5,76.6-356.7,64.7c-123.7-12.1-243.6-50.1-358.9-95.3
		c-4.1-1.6-8.2-3.3-12.3-4.9c1.5-9.4,10.2-19.5,17.2-22.6c11.6-5.2,26-2.8,38.4-3.3c13.3-0.5,25.9-1.9,37.3-9.4
		c20.1-13.2,56.8-101,86.1-63.1c4.9,6.3,16.5,0.7,14.2-7.1c-10.6-34.8,7.4-74.5,46.1-79.3c14.7-1.8,29.8,1.5,42.1,10.1
		c6.9,4.8,13.2,11.4,16.9,19.2c2.6,5.4,3.5,12.5,2.7,19.1c-3.8-2.9-7.2-6.3-10.3-10.4c-2.8-3.7-9.8-3.4-12.1,0.8
		c-5.1,9.6-10.3,19.2-15.3,28.9c-2.7,5.2-0.9,9.9,4.2,12.4c15.6,7.6,32.7,2.4,42.7-9.7c18,6.5,38.6,6.9,58.1,6.9
		c19.8-0.1,40.5-1.6,59.9,3.5c25.6,6.8,33.2,27.5,49.8,45.3c20.8,22.5,53.7,13.2,51.8-19.9c-1.2-21.7-20.8-32.3-25.3-51.7
		c-5.8-25.4,13.7-39,35.9-38.7c3.9,2.5,8,4.7,12.3,6.5c2.2,0.9,4.4-1.3,4.3-3.4c17,6.2,32.1,20.8,44.5,32.3
		c2.9,2.7,7.8,4.7,11.6,2.3c13.4-8.7,27.1-14.3,42.4-17.5c3.3,12.6,2,24.7-3.4,35.9c-2.8,3.6-5.2,7.6-7.4,11.9
		c-0.1,0.1-0.2,0.2-0.2,0.3c0,0,0,0,0.1,0c-0.4,0.8-0.8,1.6-1.2,2.4c-5.1,10.7,11.2,16.8,17.7,8.6c4.2-5.3,7.5-10.9,10.1-16.6
		c34.1-41.7,101.5-8.2,140.8,16c1.8,5.9,6.3,11.7,9.5,16.6c2.9,4.4,5.9,9.2,9.1,13.6C1615.7,941.5,1610.6,949.3,1605.4,956.9z
		 M1085.2,871.8c-3.2,3.3-7.5,5.1-13.2,4.5c1.7-3.6,3.5-7.2,5.2-10.7C1079.8,867.9,1082.4,869.9,1085.2,871.8z M1633.8,914.5
		c-1.1,1.6-2.1,3.2-3.2,4.8c-2.2-2.7-4.4-5.4-6.5-8c-1.2-1.5-2.4-3.1-3.7-4.6c4.1-3.8,5.2-10.9-0.8-14.9c-1.3-0.9-2.7-1.8-4.1-2.7
		c11.5-3.1,22.7-7.1,33.8-11.2c-0.5,1.6-1,3.3-1.6,4.9C1643.8,893.8,1639.1,904.3,1633.8,914.5z M1683.1,781
		c-0.8-22.2-3.7-43.9-8.6-65.1c4.1,2.4,8.3,4.8,12.2,8C1706.5,740.4,1696.1,762.8,1683.1,781z"/>
</g>
</svg>
