<?xml version="1.0" encoding="utf-8"?>
<!-- Generator: Adobe Illustrator 23.1.1, SVG Export Plug-In . SVG Version: 6.00 Build 0)  -->
<svg version="1.1" id="Capa_1" xmlns="http://www.w3.org/2000/svg" xmlns:xlink="http://www.w3.org/1999/xlink" x="0px" y="0px"
	 viewBox="0 0 1946 1364" style="enable-background:new 0 0 1946 1364;" xml:space="preserve">
<style type="text/css">
	.st0{fill:#EEE0C7;}
	.st1{fill:#EFD7AD;}
	.st2{fill:#931F27;}
	.st3{fill:#C0BD7B;}
	.st4{fill:#DEBB78;}
	.st5{fill:#202020;}
</style>
<g>
	<path class="st0" d="M1685.9,254c-1.1-6.3-4-12.7-9-18.6c-15.3-28.1-36.7-53.4-58.8-72.1c-60.7-51.3-137-73.7-215.2-86.7
		c-108.3-39.6-224.3-61.5-341-70c-123.1-8.9-246.9-3-369.6,8.2C598.1,23.4,433,31.5,441.9,159.4c0.8,11.9,5,21.5,11.2,28.9
		c2.3,7.4,6.3,14.1,12.3,18.6c71.8,53.2,154.8,56.1,242,44.2c85.6-11.7,168.1-29,255.1-29.9c135.6-1.5,271.4,22.4,397.2,70.1
		c33.9,18.5,67.6,37.5,102.8,53.9c15.3,7.2,34.6,16.4,55.4,24.5c21.2,13.6,42.6,26.9,65.4,34.6c39.1,13.4,79.5-0.7,100.3-35
		C1705.4,333.4,1702,292.1,1685.9,254z"/>
	<path class="st1" d="M1493.5,375.5c-15.6-5.3-31.2-10.4-46.9-15.4c-51.9-53.3-121.4-93.7-194.6-114.9
		c-96.4-27.9-199-31.2-299.1-30.4c-92.1,0.7-184,6.2-275.5,15.4c-12.2-4.9-25.9-6-37.6-2c-1.9-0.8-3.8-1.7-5.9-2.3
		c-24.1-6.9-57.3,6.4-62.8,31.7C515.6,513.8,460,769.9,405.3,1026.2c-21.9,102.5-51.5,245.2,71.5,303.3
		c57,26.9,114.4,8.3,168.2-15.9c49.5-22.2,98.5-45.6,146.7-70.3c193-98.4,377.6-217.7,531.5-366.3
		c76.2-73.5,145.2-154.6,202.5-242.2c27.1-41.4,60.7-88,70.1-136.5C1609.7,427.7,1554.6,396.3,1493.5,375.5z"/>
	<path class="st2" d="M840.1,504.1c-1.8-12-5.3-24.2-10.8-36.6c-0.7-1.6-1.6-3.2-2.5-4.6c-13.3-25.7-36-46.8-64.9-58.2
		c-5.4-2.1-11-4.1-16.7-5.8c-30.6-17.4-66.2-22.6-101.4-18.2c-77.6,5.6-158.7,53.1-159.8,129c-5.8,33,3.1,67.3,26.9,95.4
		c34.7,41.2,91.7,61.6,145.9,64.8c71.2,4.3,137.3-30.2,167.5-82.7c10.8-9.3,19.5-20.8,23-38.7C850.5,532.1,847.5,516.9,840.1,504.1z
		"/>
	<path class="st3" d="M1065,353.7c-5.5,42.2-17.9,83-35.9,123.1c-20.3,45.2,76.2,67.1,96.4,22.1c20.8-46.3,33.8-94,40.1-142.7
		C1171.7,308.8,1071.1,306.5,1065,353.7z"/>
	<path class="st0" d="M1336.1,728.8c-106.4,97.4-214.9,192.7-325.7,285.7c-54.5,45.7-109.4,91-164.9,135.5
		c-53.7,43.1-108.4,84.6-172.4,113.3c-10.6,4.7-9.9,15.4-4,22c-41.4,15.6-84.6,26.7-129.7,31.2c-12.2,1.2-17.3,13-14.7,21.4
		c-11.8,3-25,6-31.2,6.1c-4.9-7-15.4-10.6-23.6-3c-0.7,0.6-1.3,1.2-2,1.8c-6.2,5.8-6.3,14.9-0.6,21c10.2,11,20.5,9.7,34.6,7.4
		c24.7-3.9,49.3-9.3,73.6-15.2c43-10.5,85.3-23.7,126.5-39.2c88.2-33.3,170.4-78,246.1-132.2c13.5-9.6,0.6-26.1-13.4-24.7
		c108.3-85.3,205.4-182.4,302-279.2c7-7,5-16-0.6-21.4c40.7-36.1,81.3-72.5,121.4-109.2C1372.3,737.1,1350.7,715.5,1336.1,728.8z
		 M907.4,1143.3c-20.9,16.3-42.5,32.4-64.7,47.8c2.5-2,5.1-4,7.6-6c58.3-46.3,115.7-93.6,172.6-141.4c8.3-6.9,16.4-13.9,24.6-20.9
		C1002.5,1064.7,956.2,1105.2,907.4,1143.3z"/>
	<path class="st0" d="M470.6,988.7c-14.4,63.1-28.7,126.3-43.1,189.4c-4.2,18.6,25.8,27.4,30.1,8.7c14.4-63.1,28.7-126.3,43.1-189.4
		C504.9,978.7,474.9,969.9,470.6,988.7z"/>
	<path class="st3" d="M624.7,856.6c0.2-3,0.5-6,0.5-8.9c0-0.7-0.1-1.2-0.2-1.8l0.9-32c0.5-19.1-30.9-20-31.4-0.8l-1,34.2
		c-3.7,2.3-6.4,6-6.6,11.4c-0.3,9.4-0.7,18.8-1,28.2c-0.6,17.4,24.7,20.1,30.8,4.7c2.4-6.1,4.3-12.5,5.6-18.9c1.2-2,2.1-4.3,2.1-7.2
		L624.7,856.6z"/>
	<path class="st4" d="M1656.1,236.4c-47.3-50.1-114.5-79.9-180.8-100.8c-42.2-13.3-85.4-24.6-129.2-34.5c-9-2.8-18-5.5-27.1-8.1
		c3.3-7.3,1.5-17.5-8.4-21.7c-190.1-79.5-405.5-89.9-602.9-33c-4.2,0.2-8.5,0.4-12.7,0.7c-4.3-4.9-11.4-7.5-19.1-3.8
		c-4.7,2.3-9.1,5-13.3,7.9c-3.8-8.7-15.9-14.5-25.3-6c-0.8,0.7-1.5,1.4-2.2,2.1c-0.4,0-0.8,0-1.2,0c-0.1,0-0.1,0-0.2,0
		c4.6-10-3.2-24.5-17.6-21c-14.1,3.5-27.3,9.4-39.2,17c-53.3,19-116.5,76.9-80.7,130.3c12.4,18.5,36.5,29.1,61,36
		c15.7,15.4,36,26.9,58.3,32.4c13.1,3.2,21.5-8.5,19.8-18.1c6.9,0.7,13.9,1.1,20.8,1.5c33.5,20.4,73.6,31,114.7,28.3
		c20-1.3,21-31,0.8-29.7c-13,0.8-25.7,0.2-38.1-1.7c1.8-0.2,3.7-0.4,5.5-0.7c3.6-0.5,6.2-1.8,8.1-3.7
		c162.4-8.5,326.1,9.2,482.3,52.6c90.4,25.1,178.3,58.4,261.6,100.1c26.2,13.1,55.6,29.6,85.6,39.1c-0.2,0.5-0.4,0.9-0.6,1.4
		c-40-18.1-90.6-11.4-122.3,18.3c-24,22.5-35.7,51.8-41.4,82.7c-4.7,6.4-9.2,12.9-13.6,19.4c-106.5,156.3-225.6,308.3-369.3,435.5
		c-93.9,70.3-192.8,134.3-298.5,188.7c-87.8,45.2-179.5,82.8-274.8,111.2c-36.9,11-25.7,62.3,11,58.4c2.7,13.4,13.7,26.6,29.4,28.7
		c191,25.1,350.5-94.7,480.1-211.5c61-55,121.2-111,180.4-167.7c81.5-71.8,160.2-146.3,235.9-223.6c51.6-30.6,100.6-65.2,145.7-104
		c40.2-34.6,89.4-78.3,87.9-134.3c-0.2-7.4-1.5-14.3-3.6-20.7c0.2-0.2,0.3-0.3,0.5-0.5c16.1-18,5.5-41.7-11.1-49.9
		c-2.3-3.7-5-7.2-8-10.6c26.9,3.3,56,2.2,74.1-19.2c6.2-7.3,9.6-15.1,11-23.2C1729.8,338.2,1691.3,273.7,1656.1,236.4z M1531.8,494
		c-1.9-2.5-4.1-4.8-6.6-6.7c0,0,0,0,0,0c4.5-0.8,9-1,13.4-0.8C1536.3,489,1534,491.5,1531.8,494z M1192.6,62.7
		c-27.4-4.6-55-8.8-82.5-12.8c-48.6-7.7-97.6-14.2-146.7-17.7c-0.8-0.1-1.5-0.2-2.3-0.2C1039.2,32,1117.2,42.3,1192.6,62.7z
		 M524.7,114.6c-0.4,3.7-0.8,7.5-0.8,11.3c0,8.8,1.2,17.3,3.4,25.5C517.8,140.4,518.3,127.4,524.7,114.6z M574.8,174.6
		c-12.9-16.4-18.4-36.8-16.5-56.5c0.1,0.2,0.1,0.4,0.2,0.5c-0.2,19.2,6.4,38.4,19.8,53.6c0.8,1.4,1.6,2.6,2.5,3.9
		C578.7,175.6,576.7,175.2,574.8,174.6z M1578.6,371.5c-35.1-12.3-67.1-32.8-100.5-48.6c-34.1-16.1-68.9-30.9-104.2-44.4
		c-68.2-26.1-138.5-47.2-210-63.2c-111.5-24.9-225.3-37.1-339.3-36.9c-1.4-5.6-6-10-14.1-9.2c-14.2,1.4-28.5,2.8-42.9,3.9
		c-2.5-8.3-12-15-22.5-9.9c-12.1,5.9-26.1,7.8-39.5,6c-2.1-1.5-4.8-2.5-8-2.8c-2.4-0.2-4.7-0.6-7-1c-12.7-4.8-23.8-13.4-30.4-25.7
		c-6.2-11.5-7.2-24-4.4-35.8c5.8-8.9,12.5-17.1,18.1-23.4c0.2-0.2,0.3-0.5,0.5-0.7c12.4-4.3,24.9-8.4,37.5-12.1
		c11.1-0.2,22.1-0.1,32.4-0.1c82.7,0.1,165.5,4.1,247.8,11.6c114.8,10.5,232.9,25.4,346.8,51c3.5,1.1,7,2.1,10.5,3.3
		c70.4,23.1,138.2,55.1,196.6,99.2c30.1,22.7,57.7,48.9,81,77.9c11.3,14,28.2,33.2,30.5,51.4c0.3,2.5,0.5,4.8,0.4,6.9
		C1636.5,382,1600.4,379.2,1578.6,371.5z M1664.2,308.4c-32.2-44.2-73-82-118.8-113.5c31.5,15.3,60.8,34.3,84.9,59
		c17.5,17.9,39.5,45,44.7,71C1671.6,319.1,1667.9,313.5,1664.2,308.4z"/>
	<path class="st2" d="M1503.6,549.1c1.2-9,1.1-18.4-0.4-28.1c-6-37.7-30.9-63-62.8-76.4c-36.6-31.2-91.8-41.9-143.9-14.9
		c-39.8,20.6-59.1,57.7-60.4,96c-15.9,25.8-22,55.8-7.1,84.8c9.6,18.9,25.6,33.8,44.5,44.2c15.7,11.4,34.8,17.3,54.8,18.4
		c4.6,1.7,9.4,3.2,14.3,4.4C1424.3,696.9,1515.1,626,1503.6,549.1z"/>
	<path class="st2" d="M1051.8,895.5c-2.9-10.3-7-19.9-12.4-28.6c-1.2-3.6-2.6-7.2-4.2-10.8c-2-6-4.4-11.9-7.3-17.7
		c-47.9-97.6-185.6-107.3-250.4-20.9c-48.8,65.2-26.2,150.9,30.9,202.5c15.5,22.2,40,38.3,74.5,42.4c7.4,0.9,14.6,1.1,21.6,0.7
		c50,3.9,97-18.5,125.2-55.1c17.7-12.1,33-27.6,44.8-45.5C1093.1,934.2,1076.4,906.6,1051.8,895.5z"/>
	<path class="st5" d="M1702.2,282.1c-36.5-79.3-140.1-121.2-217.7-155c-96.1-41.8-197.3-73.2-300.9-93.5
		C1067.8,10.9,949,1.7,830.8,6.9C773,9.5,715.3,15.3,658.2,24.7c-35.9,5.9-80.6,10.4-104.4,38.4c-28.8,20.2-43.9,59.5-27.3,94.7
		c15.9,33.5,43.2,52.6,75.3,63.3c-13.6,64.8-27.1,129.7-40.7,194.5c-2.7,2.8-3,5.7-1.7,8.2c-12.4,59.2-24.8,118.4-37.1,177.7
		c-9.7-2.4-23.6,3.6-15.8,11.5c3.6,3.6,7.4,7.1,11.2,10.4c-11.7,56-23.4,112.1-35.1,168.1c-20.1,96-40.2,192-60.2,288.1
		c-12.2,58.6-36.3,134.8-2.7,191c-8.4-3.3-21.5,0.6-17.9,9.5c34.4,87,157.6,81.3,234.8,62c114.7-28.6,214.4-96.4,307.6-163.3
		c189.1-135.6,357.9-296.6,500.1-476.3c48.1-60.8,92.9-123.8,134.6-188.5c18-21.4,35.8-43,53.3-64.8c4.6-5.7,0.4-10.6-5.6-12.5
		c0.1-0.2,0.2-0.3,0.3-0.5C1703.5,426.2,1730.3,343.2,1702.2,282.1z M584.1,424.2c44.6-31.5,129.3-23.4,177.8-5.4
		c63.8,23.7,84.3,94.8,55.9,150.9c-49.6,98.2-190.7,114.7-274.3,48.6C557.1,553.6,570.6,488.9,584.1,424.2z M1261.9,877.3
		c-73.6,75.9-152.3,147.3-235.6,213.6c-85.2,67.8-175.3,135.1-273.3,185.7c-56.9,29.4-118.6,52.4-183.5,58.7
		c-50.7,4.9-114.9-4.6-139.8-51c41.6,49.7,112.8,44.9,169.9,25.2c78.3-27,149.5-78.8,217.7-123.1c55.1-35.8,109.2-73.2,162.1-112
		c0.1,0,0.1,0,0.2-0.1c10.4-4.7,19.1-11.6,26.5-19.9c78.1-58.5,153.7-119.9,226.4-184.4c62.8-55.8,123.3-113.9,181.6-173.9
		c9,0,12.7-6.3,11-11.4c8-8.4,16.2-16.6,24.2-25.1C1391.3,735.6,1328.8,808.3,1261.9,877.3z M965.4,1059
		c-33.2,11.7-85.8-3.3-116.6-14.3c-40.2-14.4-68.3-43.4-73.6-84.7c-8.8-68.7,38.4-124.5,84.9-172.4c62.5,2.5,142,10.8,168.4,72.6
		c14.8,34.5,6.5,73.6-5.4,107.7c-7.1,20.4-16.5,52.4-33.1,73C981.9,1046.9,973.6,1052.9,965.4,1059z M1415.4,436.4
		c4.7,2.1,10.1,1.1,13.8-1.3c50,29.5,74.6,89.1,56.9,143.6c-0.9,2.8-0.3,5.1,1.2,7c-28,31.2-56.6,62-85.9,92.3
		c-65.1-2.4-147.5-17-144.8-94.5C1259,516.5,1329.9,398.5,1415.4,436.4z M1558.1,504.4c-14,16.6-28.1,33-42.5,49.4
		c4.1-51.5-22-102.1-67.8-130.6c0.9-3.8-1.2-7.8-8.1-9.2c-6.1-1.2-12.1-2.5-18.2-3.7c-4.8-1-10.2,1.1-13.3,4.3
		c-88.9-22.1-160.8,75.3-174.1,150.6c-16.6,93.7,70.7,123.5,150.8,129.7c-109.4,111.7-226.9,216.4-351.5,312.9
		c3.7-8.7,6.9-17.4,9.9-25.5c14.3-38.3,25.4-82.3,10.7-122c-25.7-69.7-107.9-85.3-178.4-89.7c2.5-8.1-15.9-13.4-23-6.2
		c-1.7,1.7-3.4,3.5-5.2,5.3c-5.9,0.9-8.8,4.9-8.6,8.9c-57.3,60.1-118.9,140.8-75.5,223c17.3,32.7,49.9,51.9,85.7,62.8
		c23.7,7.2,55.7,16.2,85.4,17.2c-10.7,7.7-21.3,15.3-32,22.9c-67.2,47.2-136.2,92-206.9,134.5c-57.9,34.8-150.9,95.3-221.2,56.3
		c-76-42.1-40.7-151.1-27.4-215c18.9-90.4,37.8-180.7,56.7-271.1c11.8-56.6,23.7-113.1,35.5-169.7c99.6,64.7,257.8,43.9,305.9-72.4
		c26.4-63.9-2.1-137-70.3-163.2c-34.8-13.3-74.5-16.1-111.7-16.6c-25.5-0.4-50.9,1.9-73.5,11.3c11.9-57,23.8-114,35.8-171
		c45.4,9.5,96.8,6.6,139.2,5.6c207.2-5.2,427.4-0.3,616.4,90c47.6,22.7,88.8,53.4,133.6,80.2c25.7,15.4,55.1,29.9,85.8,33.2
		C1586.6,459.2,1572.6,481.9,1558.1,504.4z M1610.1,419.8c-56.8-3.2-124.5-61-164.4-84.3c-136.4-79.9-297.6-109.3-455.8-118.3
		c-92.5-5.3-184.6-2.3-277.1-0.7c-27.3,0.5-56.8-0.1-83.9-6.6c1.3-8.4-12.5-10.8-20.1-6.2c-18.7-7.2-35.6-18.1-48.7-34.8
		c-14.9-18.9-22.9-44.2-12.6-66.8c2.3-5.1,5.6-10,9.3-14.3c4.8,0,9.7-1.8,11.6-5.8c1.3-2.8,3-5.3,4.9-7.6c12.6-6.9,27.5-9,41.9-2.4
		c11.6,5.3,27.2-8.5,12.8-15.1c-5.7-2.6-11.4-4.4-17-5.6c26.2-8.3,57.7-10.1,79.5-13.2c48.1-7,96.5-11.5,145.1-13.5
		c87.6-3.6,175.6,0.7,262.3,12.9c171.7,24.1,351.6,76.8,497.9,167.3c61.3,37.9,126.5,112.6,77,183.7c-9.9,14.2-21.3,22.8-33.9,27.4
		c6.8-11.7,13.5-23.4,20.1-35.3c6.1-10.9-17.9-15.4-23.5-5.3C1627.3,390.2,1618.7,405,1610.1,419.8z"/>
	<path class="st5" d="M1155,298.8c-22.5-4-43.2-3.6-65.4,2c-1.9,0.5-3.4,1.2-4.7,2c-5.4,0.4-10.6,3.2-11.5,8.4
		c-8.7,54.6-17.3,109.3-26,163.9c-4.5,28.4-7,59.6,33.2,59.3c36.3-0.3,47.1-33.7,52.8-62c11-54.8,20.2-109.9,30.2-164.8
		C1164.5,303.3,1158.8,299.4,1155,298.8z M1111,460.8c-1.6,8.6-2.7,17.5-5.3,25.9c-4.7,15.3-4.7,22-23.9,19.2
		c-17.5-2.6-14.3-1.1-12.4-13.8c1.4-9.1,2.9-18.2,4.3-27.3l7.8-49.2l15.5-97.7c13.9-3.4,27-4.7,40.9-3.3
		c-5.6,30.5-11.2,60.9-16.8,91.4C1117.7,424.2,1114.5,442.5,1111,460.8z"/>
	<path class="st5" d="M644,821.4c-0.3-3.4-2.3-6.6-5.9-7.9c-14.4-5.2-28.9-10.5-43.3-15.7c-0.2-0.1-0.5-0.1-0.7-0.2
		c-6.3-4.8-20.6-3.1-21.6,5.9c-4.2,37-8.5,74.1-12.7,111.1c-0.5,4.3,4.7,8.2,8.8,8.8c23.9,4,46.1-3.9,61-22.4
		C647.8,878.4,646.1,848,644,821.4z M585.2,906.9c3.4-29.7,6.8-59.5,10.2-89.2c8.2,3,16.3,5.9,24.5,8.9
		C621.5,854,620.2,904.9,585.2,906.9z"/>
</g>
</svg>
