<?xml version="1.0" encoding="utf-8"?>
<!-- Generator: Adobe Illustrator 23.1.1, SVG Export Plug-In . SVG Version: 6.00 Build 0)  -->
<svg version="1.1" id="Capa_1" xmlns="http://www.w3.org/2000/svg" xmlns:xlink="http://www.w3.org/1999/xlink" x="0px" y="0px"
	 viewBox="0 0 1946 1364" style="enable-background:new 0 0 1946 1364;" xml:space="preserve">
<style type="text/css">
	.st0{fill:#76371C;}
	.st1{fill:#391A10;}
	.st2{fill:#813C1E;}
	.st3{fill:#5C2A17;}
	.st4{fill:#5D3729;}
	.st5{fill:#60392A;}
	.st6{fill:#E9C5AF;}
	.st7{fill:#EFD5C5;}
	.st8{fill:#5C2F1D;}
	.st9{fill:#41271C;}
	.st10{fill:#4F2F23;}
	.st11{fill:#563325;}
	.st12{fill:#6E4231;}
	.st13{fill:#272424;}
</style>
<path class="st0" d="M1627.5,491c1.5-11.4,4.2-22.8,5.7-34.1c1.8-14.1,7.6-25.4,15.5-34.1c-42.4,13-84.4,29.3-124.7,42.5
	c-66.8,21.9-133.4,44.5-199.8,67.7c-135.2,47.4-270.4,96.1-403,150.3c-118,48.1-234.9,98.3-351,150.2c-87.3,28.8-174,59-259.7,91.6
	c21.3,66.3,38.1,133.8,52.6,201.9c0.2-0.1,0.5-0.1,0.7-0.2c-0.2,0.1-0.5,0.3-0.7,0.4c14.1,66.2,26.2,132.9,38.7,199.5
	c5.4-1.6,10.8-3.2,16.2-5c-2.9,3.7-3.4,8.7,0,13.4c19.2,26.8,69.3,11.1,93.6,3.8c57.7-17.3,112.1-46,165.8-72.7
	c112.9-56,225.4-113.6,335.4-175.2l327.1-183.2c51.9-29.1,103.5-58.5,155.1-88.1c33.5-19.1,74.7-36.9,108.5-60.9
	c3-1.6,6-3.1,8.9-4.7c5-73.5,9.1-147.2,16.1-220.5c0.6-5.8,1.2-11.7,1.8-17.7C1627.3,509,1626.2,500.7,1627.5,491z"/>
<path class="st1" d="M1616,318.4c-8.9-10.5-18.3-20.8-27.7-31.2c-9.5-2.3-18.4-3.9-25.8-4.9c-1.2-1.3-2.3-2.6-3.4-3.9
	c-18.4-19.6-38.2-37.8-58.9-54.8c-45.7-37.5-93.6-69.8-146.9-95.4c-75-36-156.2-60.7-239.1-70.3c-24.7-8.6-50.1-15.6-76.4-20.8
	c-80.3-15.8-185.4-19.3-261.9,20.3c-17.1,43.7-27.3,89.3-40.7,135.4c-3.6,12.2-7.7,23.9-12,35.4c7.4,12.6,13.6,25.6,13.4,41.7
	c-19.9,14.9-38.9,30.9-57.1,46.6c-14.4,23.3-30.6,45.9-48.4,68.5c-47.8,60.7-93.9,122.7-141.2,183.8c-12.9,16.6-25.8,33.2-38.9,49.7
	c-0.6,0.8-1.1,1.4-1.6,2c-48.6,93.6-94.8,188.5-145.2,281.2c6.9,4.5,14.5,8.5,22,11.9c-9.6,22.4,32.3,34.1,47.5,36.7
	c25.5,4.3,51.8-0.1,76.6-6c13.6-3.3,26.7-7.7,39.6-12.7c58-7.4,114.8-27.2,165.3-54.8c3.1,5.2,5.7,9.6,6.5,11.6
	c19.3,44.1,42.9,82.7,90.1,100.8c59.7,22.9,133.8,10.7,181.1-32.9c44.8-41.3,47-97.9,64.3-152.5c16.4-51.5,52.5-95.3,105.7-111.2
	c58.8-17.5,116.7-10.8,172.4-40.9c4.8-2.6,8.3-5.9,10.9-9.7c37.1-13.1,74-26.6,110.3-42c62.6-26.5,120.6-59.9,181.1-90.5
	c16.2-8.2,24-22.9,23.5-37.5c13.3-8,24.4-16.9,34.3-26.7c0.3-0.2,0.5-0.5,0.8-0.7c3-9.1,7.8-16.6,13.7-22.8
	C1647.7,384.4,1641.5,348.6,1616,318.4z"/>
<path class="st2" d="M1559.2,693.3c-50.7,4.1-96,30.2-140.7,53.5c-47.9,24.9-94.2,52.6-139.6,81.7c-89.2,57.2-174.6,120-262,179.9
	c-91,62.4-185.3,119.1-283.9,168.7c-104,52.2-213.2,107.7-330.2,119.6c-9.7,1-9.5,11.3,0,12.5c107.9,13.4,221.3-27.9,319.3-68.7
	c107.3-44.7,209.9-98.9,308.1-161.1c94.2-59.7,184.8-125,278-186.1c45.3-29.7,91.3-58.3,138.7-84.5c27-14.9,54.3-29.2,82.3-42.1
	c23.2-10.7,47.3-17.1,65.1-36C1614.6,709,1576.8,691.9,1559.2,693.3z"/>
<path class="st2" d="M1475,609.8c8.2-4.2,16.5-8.5,24.6-12.9c18-10,17.8-28,4-40.8c-16.1-14.9-46.4-14.7-65.6-8
	c-93,32.6-182.4,80.8-272.8,120.4c-90.5,39.7-181.3,79.2-272.6,117c-181,75-366.5,133-550.9,198c-14.1,5,0.5,14.7,9.3,13.5
	c199.6-28,396.8-96.9,585.4-165.7c94-34.4,186.9-71.3,279.2-110.1c66.2-27.9,135.5-53.6,201.9-83.6c-23.8,15.1-46.6,32.7-69.3,47.4
	c-43.6,28.3-87.5,56.3-131.8,83.5c-86.2,53.2-174.1,103.5-264.7,149c-87.8,44.1-177.6,83.1-270.4,115.6
	c-49.2,17.2-99.2,31.5-149.9,43.6c-40.9,9.8-83.5,13-121,32.7c-6.5,3.4,0,8.3,4,9.3c46.3,11.8,95.1,2.6,141.8-4.3
	c49.3-7.3,98-18.6,146.1-31.2c102.5-26.9,201.4-65.8,297.3-110.9c93.1-43.8,183-94.5,271.2-147.5c46.9-28.2,93.3-57.1,139.5-86.5
	c39-24.8,101.1-50.8,127.7-88.9C1564.1,612.3,1499.9,603.3,1475,609.8z"/>
<path class="st1" d="M1609.5,449.3c-26.4-17.8-69.1-15.6-95.8,0c-67.4,39.3-134.7,78.9-202.2,118c-58.5,33.9-108.8,53.1-175.7,61.9
	c-57.4,7.6-113.9,19.9-160.3,56.5c-16.1,12.7-29.9,27.5-42.3,43.5c-25.2-4.2-53.4,1.1-64.1,15.5c-14.5,3.6-27.4,11.1-34.3,22.5
	c-4.6,7.6-8.4,15.5-11.4,23.5c-8.8-0.8-17.3-0.8-25.1,0.4c-1.3,0.2-2.6,0.6-3.9,0.8c-13.3-5.9-31.7-6.6-47.6-2.6
	c-9.1-1.4-18.5-1.7-28.2-0.5c-12.4,1.5-23,5.9-31.6,12.1c-2.3-1.6-4.5-3.2-6.9-4.7c-15.4-9.7-57.8,3.2-34.2,20.8
	c6.8,5.1,12.6,11,17.7,17.3c-0.4,1.7-0.8,3.3-1,5c-5.3,3.8-8.6,9.3-8.2,16.7c3.2,56.5,40.4,97.3,90,115.4
	c44.4,40.3,117.7,43.1,169.7,13.3c56-32.2,72.9-84.6,73-140.7c0.1-0.1,0.1-0.2,0.2-0.3c20.4-47.8,47.2-100.3,96-124.5
	c50-24.9,113.2-16.9,166.9-29.4c60.8-14.1,114.4-44,168.3-74.4c63.6-35.9,127.2-71.8,190.8-107.7
	C1635.7,492.9,1632.4,464.8,1609.5,449.3z"/>
<path class="st3" d="M1633.1,456.9c1.9-14.7,8.1-26.5,16.6-35.3c-2-37.2-8.2-73-33.7-103.2c-21.7-25.8-46.7-50.6-67-77.9
	c-26.4-5.8-54.6-9.1-82.8-9c-102.9-64.1-219.5-133.4-340.5-165C1020.1,11,888.6,1.9,780.3,55.1c-1.5,0.7-3,1.6-4.5,2.4
	c-17.1,43.7-27.3,89.4-40.7,135.5C713.7,266.3,678,325.4,631,385.1c-47.8,60.7-93.9,122.7-141.2,183.8
	c-12.9,16.6-25.8,33.2-38.9,49.7c-0.6,0.8-1.1,1.4-1.6,2c-52.7,101.5-102.6,204.5-158,304.6c6.7,8.5,15.1,16.3,25.6,23.1
	c63.2,40.9,142.5,18.5,209.3,0.8c48.3-12.8,95.7-30.3,137.2-58c0.9,5.2,1.7,10.4,2.8,15.6c7.3,35.2,40.1,49.7,74.8,51.1
	c12.1,4.3,25.5,6.8,39.7,6.7c34.5-0.1,68.3-13.7,93.5-37.1c30.2-28.1,40.7-64,57-100.5c37.5-83.8,128.7-88,207.3-108.8
	c84.5-22.4,167.7-61.9,245.5-102.8c0.3,0,0.7-0.1,1-0.1c6.5-1,13.1-2.1,19.6-3.4c4.6-0.9,9.2-1.9,13.8-3c1.4-0.3,2.8-0.6,4.2-1
	c51-12,98.5-32.7,140.8-61.1c22.4-1.8,45.4-8.8,57.8-24.6c2.6-3.3,5-6.7,7.5-10c-1.7-6.1-2.3-13.1-1.3-21
	C1628.9,479.6,1631.7,468.1,1633.1,456.9z M997.1,682.8c7.4-3.6,14.8-7.2,22.2-10.7c5.3,0.8,10,1.1,13.8,1.1c0.7,0,1.5-0.1,2.2-0.1
	C1022.5,676.1,1009.7,679.3,997.1,682.8z M1253.3,594.3c-27.2,12.5-54.5,25.3-82.3,36.8c12.8-9.1,24.4-19.8,34.5-31.7
	c8.6-4.3,16.7-9.2,24.1-14.8c9,3.6,18.8,6.1,28.9,7.3C1256.7,592.7,1255,593.5,1253.3,594.3z"/>
<path class="st4" d="M1616,318.4c-24.4-28.9-52.9-56.8-74.2-88.1c-25.1-7.9-51.2-13.4-76.6-18.1c-39-24.2-80-45.9-119.3-69
	c-57.6-33.9-117.2-67-181.3-87C1047.7,20,885.7,10.7,772.8,66.5c-0.2,0.1-0.3,0.2-0.5,0.3c-15,40.8-24.7,83.3-37.2,126.1
	C713.7,266.3,678,325.4,631,385.1c-47.8,60.7-93.9,122.7-141.2,183.8c-12.9,16.6-25.8,33.2-38.9,49.7c-0.6,0.8-1.1,1.4-1.6,2
	C397.8,719.6,349,820.2,295.2,918c27.8,7.5,62,1.2,84.1-15.9c2.4,0.5,4.9,0.8,7.4,1.2c-3.4,11.8,27.4,18.9,35.2,17.8
	c32.5-4.6,63.8-12.4,93.9-23.3c9,6.8,25.2,10.7,34.8,9.2c63.5-10.2,125.5-26.1,185.6-47.3c-1.2,3.5-2.4,7.1-3.5,10.7
	c-3.8,13.3,6.8,21.8,18.8,25.5c7.7,10.7,21.3,18.1,38.3,20.8c74.4,11.9,144.4-52.6,173.7-118.9c90.6-36.2,181.7-71.4,270-112.9
	c43.7-19.1,86.4-40.3,128.2-63.3c24.8-0.1,47.9-2.5,72.6-11.1c35.6-12.4,77.5-34.5,105.1-64.9c6.7-3.1,12.9-6.5,18.5-10.1
	c28.7-18.8,46.2-41.6,55.1-66.3c15.2-5.8,27.7-14.2,37.8-24.5C1649.4,399.1,1646.7,354.7,1616,318.4z M851.1,196.8
	c-1.3,0.4-2.6,0.8-3.8,1.3c2-3.3,4.1-6.5,6.2-9.8c0.9-0.1,1.8-0.2,2.7-0.4c1.6-0.3,3.3-0.5,4.9-0.8
	C857.5,190.1,854.1,193.3,851.1,196.8z"/>
<path class="st3" d="M1636.4,492.4c-9.6-14-19.2-18.6-35.8-22.4c-11.5-2.6-32.8-0.8-43.3,8.4c-13.5-6-31.7-8.4-46.9-4
	c-0.1-0.2-0.2-0.4-0.2-0.6c-95.7,33.7-189.5,73.7-284.8,108.6c-95.1,34.9-190.2,69.8-284.6,106.5c-88.9,34.5-176.7,71.8-262.8,113
	c-22.5,10.8-44.7,22.1-66.9,33.3c-4.5,1.6-9,3.2-13.5,4.8c-17.5,4.8-34.9,9.7-52.2,15.1c-26.6,8.3-58.5,18.1-80.1,37.6
	c-3.5,1.6-7.1,3.1-10.6,4.8c-6.8-0.4-13.7-1.1-20.7-2.2c-21.4-3.5-39.2,14.6-24.6,24.7c-1.4,0.7-2.8,1.4-4.1,2.1
	c-15.1,8.1,9.3,18.9,18.6,14.7c6.4-2.9,12.8-5.6,19.3-8.3c0,0,0.1,0,0.1,0c84,11.3,166.1-19.4,246.2-42.7c9-2.6,18-5.2,27-7.8
	c7.4,12.4,20.5,21.5,35.9,26.7c3.4,14.2,19.5,24.7,36.5,28.9c31.2,7.8,66.6,1,92.5-17.8c5.1-3.7,8.9-8.5,10.8-13.6
	c15.9-7.3,29.6-18.8,34.7-35.6c0.5-1.6,0.8-3.1,1-4.7c13.7-15.8,25.2-33.5,34.2-49.5c2.6-4.6,3.3-8.7,2.7-12.3
	c8.3-3.1,16.7-6.1,24.9-9.3c187.7-72.8,365.4-169.5,556.5-234.1c8.9-3,16.4-8.6,20-15.6c6-1.8,12-3.7,18.1-5.4
	c17.1-5,36.6-8,47.8-23.2C1635.8,507.6,1641,499,1636.4,492.4z"/>
<path class="st4" d="M681.3,837c-0.1-9.5-0.2-19-0.1-28.4c0.1-11.4-21.6-9.2-25.8-2.1c-1.7,2.8-3.5,5.7-5.3,8.6
	c-0.1-0.6-0.2-1.3-0.3-1.9c-2-14.5-26.6-12.1-33-2.7c-3.5,5.1-6.8,10.2-10.1,15.4c-5.7-4.1-17.5-2.4-21.2,2.8
	c-7.9-0.9-17.2,2-17.7,8.8c-1.3,15.3-3.5,30.3-5.7,45.5c-1.6,11.5,24.3,14,32,6.2c6.1,0.6,12.8-0.3,17.8-2.5
	c0.1,13.4,27.9,12.9,40,5.5c10.1,4.1,28.2,1.9,31.3-6.5c4.8-13.1,8.1-26,10.4-39.7C694.5,840.1,688.3,837.3,681.3,837z"/>
<path class="st4" d="M711,887.5c-1.8-13.8-3.4-27.6-4.2-41.5c-0.1-2.1-4.5-1.9-4.8,0c-3.3,19.5-5.1,38.7-3.4,58.4
	c0.5,5.4,13.2,6.4,14.4,1.2c1-4.4,2-8.8,3-13.1C716.7,889.5,714,887.9,711,887.5z"/>
<path class="st4" d="M1027.8,745.1c-0.3-2.3-0.4-4.7-0.5-7.1c-0.1-1.8-3.7-1.7-4.3-0.4c-1,2-1.9,4.1-2.9,6.1c0.3-5.8,0-11.7,0.3-15
	c1.1-13.9,2-27.9,1.9-41.9c0-2.2-4.9-2.3-5.5-0.5c-2.9,9.3-6.1,18.5-9.5,27.7c3.2-14.9,6.3-29.7,9.1-44.3c0.4-2.2-4.8-2.1-5.5-0.5
	c-4,9-8,18.1-12,27.2c1.4-9.2,2.5-18.2,3.3-26.8c0.2-2.2-4.8-2.2-5.5-0.5c-4.6,12.2-8.7,24.6-12.9,37c-1.5,1-2.7,2.2-3.3,3.8
	c-5,13.9-10.8,27.9-15.9,42.1c-7.5,0.8-14.6,3.8-17,8.6c-7.8,15.7-15.4,31.7-21.9,48.1c-0.5,0.4-0.9,0.9-1.4,1.3
	c0-0.2,0-0.5,0.1-0.7c4.4-33.3,8.5-66.6,12.7-99.9c0.2-1.7-3.9-1.8-4.3-0.4c-7.2,25.6-14.5,51.1-21.6,76.7c-0.3,1.1-0.6,2.1-0.9,3.2
	c-3.1,0.9-5.7,2.7-6.2,5.5c-2,11-4.2,21.9-6.1,32.9c-0.1,0.3-0.3,0.5-0.4,0.7c-1.5,3.6-2.9,7.2-4.4,10.9c-7.5-5.2-22.9-2.8-24.8,6.2
	c-0.4,1.9-0.9,3.7-1.3,5.5c-0.4-1.4-0.8-2.8-1.3-4.1c-1.8-5.5-14.8-4.6-15.5,1.3c-0.9,7.4-2.6,14.8-4.7,22.2
	c-0.5-1.8-0.9-3.6-1.5-5.3c-3-8.9-22.1-7.6-25.7,0c-2.7,5.7-5.5,11.4-8.2,17.1c-0.7-0.1-1.4-0.3-2.1-0.4c0-0.1,0-0.2,0-0.3
	c0.4-4.7-2.6-8.2-7.1-10.4c-1-3.8-2.2-7.6-3.8-11.4c-0.6-1.4-4.1-1.6-4.6,0c0,0.1-0.1,0.3-0.1,0.4c-0.9-9.6-19.6-8.1-23.3-1.5
	c-4.3,7.5-8.1,15-11.5,22.8c-1,0.4-1.9,1-2.8,1.5c0.1-3.9,0.3-7.7,0.2-11.6c0-2.4-5.3-2.3-5.6,0c-1.8,12.5-4.5,24.4-8.2,35.9
	c-2.3-14.5-3.9-29-3.6-44.4c0-1.7-3.9-1.8-4.3-0.4c-1.2,4.8-2.4,9.8-3.5,14.8c0-1,0-2.1,0-3.1c0-2.8-5.9-2.5-6.4,0
	c-3.9,18.5-7.3,37-13.3,55c-1.8,5.4,3.4,8.2,9.1,8.6c-3.9,2.1-5.5,5.5-0.4,9.5c2.6,2.1,5.2,4.1,8,6.1c4,2.9,17.9,3.6,19.4-3.1
	c0.3-1.5,0.6-3,0.9-4.5c1,2.7,2.9,5.1,5.4,7.4c-0.1,2.4,0,4.9-0.2,7.3c-0.5,6.3,9.2,6.9,14.3,6.1c-0.1,2.5-0.2,4.9-0.2,7.4
	c-0.5,16.1,34,15.5,39.1,3.2c4.1-9.8,6.6-19.8,8.3-29.9c0.8-3.4,1.6-6.8,2.4-10.2c6.5,4.1,18.1,5.1,26.6,2.4
	c4.4,13,32.8,13.7,40.7,1c10.4,0.8,22.3-2.9,25.7-10.8c13.1,2.3,29.4-1.2,32.1-10.5c0.4-1.5,0.9-2.9,1.3-4.3
	c16.4,3.2,37-2.4,38.9-17.6c2.3-19.4,1.4-38.2-1.7-56.9c2.2-1.6,4-3.5,5-5.8l0.1,0c0.1-0.3,0.1-0.5,0.2-0.8
	c10.8,0.3,21.7-3.3,24.4-11.3c7-21.1,7.8-44.1,10.3-66.1c3.9,1,9.2-0.2,9.7-3.9C1029.6,749.6,1028.2,747.8,1027.8,745.1z"/>
<path class="st4" d="M1634,484.6c-10.2-18.1-42.3-21.5-60-18c-14.1,2.8-28.1,6-42,9.3c-2.4-3.7-5.6-6.8-9.4-9.1
	c-0.3-0.4-0.6-0.8-0.9-1.2c-15.2-18.3-48.1-17.1-68.2-10.9c-8.3,2.5-16.2,5.6-24,9c-4.9,1.7-9.9,3.2-14.9,4.7
	c-2.3,0.4-4.5,1-6.8,1.5c0.3-1.5,0.6-3,0.9-4.5c2.5-12.6-30.4-14.2-33.7-2.8c-1.5,5.3-3.1,10.5-4.6,15.8c-7.6,1.9-15.1,3.8-22.7,5.9
	c-10.3,2.9-18.7,9.6-22.2,18.1c-5.5-1.5-13.4-0.1-14.8,4c-0.3,0.8-0.5,1.6-0.8,2.4c-141.5,43.7-282.7,88.6-423.4,134.8
	c-88.1,29-176.8,57.1-263.4,90.5c-41.7,16.1-82.7,33.8-123,53.4c-26.9,13.1-52.8,28.2-79.6,41.2c-15.3,5.8-30.5,11.8-45.6,18.2
	c-1.1,0.4-2.1,0.9-3.2,1.3c-1.4,0.6-2.7,1.1-4.1,1.7c-1.1,0.5-2.3,1-3.4,1.6c-16.8,7.4-32.8,16.3-47.7,27.2
	c-5.6,10.4-11.2,20.8-16.8,31.2c9,12.7,36.5,21.2,47.2,21.6c71.1,2.9,145.2,2.1,215.3-11.1c24.4-4.6,48.3-11.8,69.6-22.9
	c14.5,18,27.8,37.4,48.7,49.5c2.6,1.5,6.7,2.9,11.5,3.8c-1.8,8.3,1.7,17.1,13.7,24.4c43.5,26.6,91.5,27.6,136.3,13.2
	c21.6-1.8,41-8.4,60.5-18.7c9.6-5,13.7-12.7,13.6-20.5c19.6-14.8,37.1-31.9,51.6-50.2c39.8-50.1,66.1-113.4,101.7-168.2
	c61.9-36.7,127.5-65.8,194.9-90.1c8.9,0.6,18.5-1.7,22.5-6.6c0.5-0.6,0.9-1.2,1.4-1.8c47.5-16.2,95.8-30.3,144.3-43.1
	c10.5-2.8,19-9.7,22.4-18.3c52.6-16.7,105.3-32.6,158.3-47.7C1631.1,518.2,1643.6,501.8,1634,484.6z"/>
<path class="st4" d="M667.3,622.9c-25.8,0-25.9,25.8,0,25.8C693.1,648.7,693.2,622.9,667.3,622.9z"/>
<path class="st5" d="M1423.8,433.9c-3.1-11.8-15.5-18.7-30.2-21.4c-3.7-4-8.4-7.1-13.7-9.4c25.2-37.2-60.9-54.7-82.5-26.8
	c-1.7,2.2-3.4,4.2-5.2,6.3c-3.8-3.4-8.7-6.2-13.9-8.3c-44.4-17.5-89.9-30.6-136.6-40.2c-3.8-0.8-8.2-1-12.8-0.6
	c-43.1-9.2-86.6-16.4-130.5-21.7c-19.3-4.8-39.2-7-60.6-6.2c-14.9,0.5-40.7,5.5-47.2,21.6c-14.7-5.2-36.8-5.1-51.1-2.6
	c-6.1-4.1-14.8-6.4-24-7.4c1.2-11.4,2.4-22.7,3.6-34.1c3.4-32.3-62.3-28-76.1-12.6c-98.8,110.1-194.8,222.7-287.8,337.8
	c-45.6,56.5-90.5,113.6-134.7,171.2c-30.2,39.5-68.8,84.2-34.5,132.4c2.3,3.2,5.2,5.7,8.4,7.6c-0.2,0.3-0.3,0.7-0.5,1
	c1.2,0.3,2.4,0.5,3.5,0.7c12.6,5.9,29.8,4.7,43.6-0.9c28.2-5.5,53.7-16.3,77.4-30.6c6.2,7.1,15.1,13.2,27.1,17.9
	c62.3,24.5,157,14.6,215.5-16.1c17.9-9.4,34-21.5,49.1-35.2c-4.5,30,4.4,58.4,40.5,73.9c38.8,16.6,77.5,8.6,110-12
	c23.8-5.5,46.6-18,63.9-34.1c30.1-28,53.5-64.6,75.7-101.4c1.8-1.9,3.4-4,4.4-6.3c0.5-1.2,1-2.3,1.5-3.5c8-13.5,16-26.8,24-39.8
	c18.7-0.4,37.4-6.9,41.8-19.2c2.6-7.2,5.2-14.4,7.9-21.6c20.1,0.2,41.3-6.4,46.5-19.1c1.8-4.5,3.7-8.9,5.6-13.4c2.4-1,4.8-2,7.2-3.1
	c21.5,2.4,45.5-4.1,51.3-20.4c0.5-1.4,1-2.8,1.5-4.2c11.7-5.9,23.4-12,34.9-18.3c16.9-5.8,33-13.6,47.9-23.2
	c25.8,5.1,60-1.7,66.2-20.2c4.3-12.9,9-25.6,13.9-38.1c19.9-1.1,38.2-8.2,41.6-22.1c0-0.2,0.1-0.4,0.1-0.6
	c11.9-3.3,21.6-9.7,25.2-19.5C1429.7,469.2,1429.5,455.2,1423.8,433.9z M899.2,372.8c-4.4,4-9,7.8-13.5,11.8
	c5.4-9.5,10.9-19.1,16.1-28.7c5.1,3,11.1,5.1,17.1,6.6C911.6,364.4,904.8,367.8,899.2,372.8z M1118.2,461.2
	c-0.1,0.2-0.3,0.6-0.6,1.1c0-0.1-0.1-0.1-0.1-0.2c-1.5-3.4-2.4-9-2.5-15.3c1.1-0.1,2.2-0.1,3.3-0.2
	C1120,450.5,1120.1,455.3,1118.2,461.2z"/>
<path class="st6" d="M1021.6,409.9c-4.3-9.7-11.5-17.4-20.4-23.5c-0.4-4.4-2.4-8.9-6.3-13.2c-6-6.6-12.1-13.2-18.1-19.7
	c-9.4-10.2-27.6-15.7-45.6-15.7c-0.7-0.3-1.4-0.7-2.1-1c-4.4-2-18.4-6-34.3-11.2c-3.8-2.4-7.5-4.9-11.3-7.2
	c-2.5-1.5-5.4-2.9-8.6-4.1c-0.2-2.4-0.6-5.4-1.1-9.2c-0.8-6.3-1.7-11.8-4.5-17.6c-6.4-13.4-19.3-22.7-33.2-27.6
	c-35.1-12.3-80.1,2.8-107.7,25.8c-24.6,20.4-34.4,50.6-15.9,78.7c2,3.1,4.3,5.9,6.6,8.6c-3.4,0.2-6.7,0.6-10,1.3
	c-24.3,5.5-53.1,20.3-57.8,47.5c-2.6,15,3.6,27.5,13.5,36.8c-20.1,17.9-21.9,47.8-11.7,72.9c14.7,36.3,49.7,56,86.1,65.1
	c86.9,21.6,197.9-3.7,253.7-77.3C1012.9,492.8,1036.6,443.6,1021.6,409.9z M867.1,525.2c2.6-2.8,5-5.7,7.2-8.9
	c1.6,0.2,3.2,0.5,4.8,0.6C875.2,520,871.2,522.7,867.1,525.2z"/>
<path class="st7" d="M1012.1,386.1c-15.9-20.5-36.6-35.4-59.7-46.7c-25.6-18.9-57.3-32.2-88-40.1c-6-6.1-9.9-13.1-10.1-21.6
	c-0.4-18.4-39-18.2-45.1-3.7c-0.5,1.1-0.7,2.2-1.1,3.3c-9.8,1.2-18.3,6-18.2,14.4c0.3,76,87.6,74.2,137.8,103.2
	c5.9,6.8,10.4,14.3,12.6,22.9c6.8,26.9-14.5,55.4-29.1,78.7c-50.7,38-143.6,21.8-203.6,37.7c-32.4,8.6-14.5,37.3,9,42.1
	c13.6,2.7,30.8,4.3,50,4.4c-2.8,6.8,2.7,14.9,17.1,14.7c60.3-0.7,127.7-16.1,172.7-56.2c13.9-1.1,26.6-4.8,32.2-10.8
	C1024.8,490.4,1047.1,431.2,1012.1,386.1z"/>
<path class="st8" d="M1610.6,316.4c-6.3-12.9-26.1-21-46.4-22.6c-2.4-5.1-4.9-10.2-7.5-15.2c-6.8-13.5-25.7-21.1-45.1-22.4
	c-36.5-37.6-80.2-63.3-129.7-55.8C1243.6,114.5,1085,68.1,921.6,61.9c-23.1-0.9-46.2,14.4-49.1,30.4c-19.5-3.9-40.9-1.6-57.9,6.9
	c-12,3.1-22.8,9.3-30.4,19.5c-5,6.7-7.7,13.1-8.5,19.2c-2.4,3.9-4.5,7.9-5.9,12.3c-2.3,7.2-3.1,14-2.7,20.3
	c-2.9,16.9,3.4,35.2,22,48.5c14.4,10.3,31.4,15.2,48.7,15.7c0.6,3.7,3.4,7.7,9.1,12.1c45.8,34.9,98.7,48.2,155.6,48
	c11.8,0,22.9-3.9,30.9-9.6c34.3,9.3,69,16.6,104,22.2c86.6,31.4,174.6,58.1,264,80.7c22.2,15.3,44.4,30.5,66.8,45.5
	c3.2,2.1,6.8,3.7,10.5,5.1c3.2,9,12.2,16.5,23.2,19.8c12,3.6,23.6,6,35.1,7.4c20.3,8.6,49.7,7.4,66.4-3.5c4.4-1,8.8-2.1,13.3-3.4
	c10.6-3,26.3-13.8,25.2-26.8C1638.6,391.3,1628.5,353.1,1610.6,316.4z"/>
<path class="st9" d="M1442.1,494.1c-8.2,6.9-16.5,13.4-25,19.6c-1.7,0-3.2,0.3-4.5,0.8c-62.6,26.1-121.7,60.1-183.6,87.9
	c-50.7,22.8-103.5,41.5-153.1,66.7c-33.1,16.9-60,38.2-82.3,62.9c-4.8-0.3-9.9,0.7-12.4,3c-42.2,37.6-65.4,89.1-96.4,134.8
	c-3.8,0.3-7.2,1.1-8.9,2.4c-18.1,14.3-34.5,32-53.6,44.6c-21.2,14-48.5,9.8-66.8-5.8c-6.9-5.8-11.3-15-17.7-21.5
	c-26.5-26.5-60.5-29.6-96.4-27.2c-50.1,3.4-100.1,11.4-149,22.4c-27.3,6.2-54.3,14.2-81.9,18.6c-17.1,2.7-44,10.3-56-8.8
	c-9.6-15.2-0.3-39,4.5-53.9c1-3.1-5.2-3.5-6.6-1.7c-22.4,28.2-30.4,61.4-7.1,78.2c0.5,1.4,1.1,2.8,1.8,3.8
	c10.9,17.2,34.7,13.5,53.2,7.8c63.1,0.1,130.5-24.1,191.5-31.6c15.7-1.9,32.2-5,48.4-5.8c26.1,11.1,40.5,34.6,63.3,58.1
	c31.6,32.6,75.9,40.7,117.8,24.5c3.6-1.4,5.4-3,6-4.6c23.3-6.1,45.3-16.4,64.3-30.6c0.3,0.1,0.7,0.1,1,0
	c28.2-5.3,47.4-29.5,64.3-51.2c21.1-27.2,38.9-56.7,51-88.9c25.1-30.9,52.3-59.5,80.4-87.9c14.7-10.4,30.6-19.2,48.2-25.4
	c9.6-3.4,5.3-9.1-1-11.6c13.3-5.7,26.6-11.4,39.9-17.1c36.8-14,74.4-25.4,111.7-38.3c10.6-3.7,9.2-9.1,3.7-12.9
	c58.1-26.3,137.3-51.4,173.6-105.7C1470.3,490.3,1446.6,490.3,1442.1,494.1z M824.2,963.4c-4-3-11.2-4.8-16.3-3.1
	c-35.6,11.6-58.1,0-77.6-18.2c13.1,9.5,27.7,15.4,45.4,17.1c55.4,5.3,104-29.7,129.8-76.5c0.1-0.3,0.2-0.5,0.3-0.7
	c4.7-5.1,9.2-10.3,13.5-15.7c-3.4,10-6.5,20.2-9.5,30.6C887.5,926.6,858.8,950.3,824.2,963.4z M956.4,864
	c-13.2,20.2-31.2,50.2-53.5,65.3c6.7-6,12.9-12.6,18.7-19.7c1-0.1,1.9-0.3,2.1-1c0.5-1.2,1-2.4,1.5-3.6c5.5-7.3,10.4-15.1,14.6-23.6
	c0.7-1.3,0.6-2.4,0.1-3.3c2.7-4.7,5.3-9.6,7.7-14.5c10.2-15.2,21.9-29.9,33.9-44.1C973.8,834.8,965.7,849.8,956.4,864z"/>
<path class="st10" d="M1425.6,481.4c-42.2,26.1-80.2,57.5-122.7,83.2c-5.3-0.9-10.4-0.8-13,0.4c-74.8,33.3-154.7,58.9-227.3,96.7
	c-37.5,19.5-66.3,45.8-90.5,76.3c-8.6-0.5-17.5,0.9-21.6,3.5c-35,22.1-56.8,60.8-81.1,93.6c-12.8,17.3-25.6,36.4-41.4,51.2
	c-26.5,24.6-49.2-1.2-70.1-18.3c-32.8-26.8-71.9-32.5-111.2-28.2c-2.4-0.5-4.9-0.7-7.9-0.6c-44.7,1.6-89,5.9-132.7,15.4
	c-17.2,3.7-34.2,8.1-51.1,13c-11.6,3.4-94.8,37.4-83.6-2.1c2.7-9.5-16.5-10.4-20-3.4c-20.9,41.9,16.4,47.5,50.5,43.8
	c36.5-4,71.7-17.8,107.8-24.6c42.7-8.1,85.8-12.1,129.2-12.9c11.9-0.2,19-5.4,21.1-11.3c3,0.4,6,0.8,9,1.4
	c31.3,6.1,47.9,23.6,67.6,46.3c22.8,26.2,53.1,35.1,87.3,28c36.5-7.7,61.6-33.3,83.8-61.7c26-33.2,64.8-70.8,82.1-109.9
	c37.8-36.5,77.9-68.7,130.5-90.5c65.5-27.1,142.4-42.2,197.8-88.5c1.3-1.1,2.1-2.1,2.7-3.1c46.4-22.9,94.7-49.9,130.2-85.7
	C1463.1,481.2,1433.1,476.7,1425.6,481.4z"/>
<path class="st11" d="M1424.3,503.8c13.9-17.3-22.3-19.4-31.4-14.8c-54.1,27.6-102.7,65.8-158,92.7c-42.5,20.7-85.9,39.8-128.5,60.2
	c-84.6,26.5-166.5,63.2-225.9,131.5c-10,11.5-19.2,23.8-27.7,36.4c-21,20-40.5,41.3-58.4,63.7c-2.4-0.5-4.9-1.3-7.5-2.7
	c-16.2-8.3-28.9-23.4-46.2-31.5c-17.2-8-35.7-13.6-54.4-16.8c-42.1-7.2-85.6-3.4-126.9,6.6c-25.2,6.1-49.8,14.4-74.3,22.9
	c-11.4,4-139.8,51.1-118.1-8.6c0.8-2.3-3.7-2.4-4.7-1.2c-20.3,22.2-8,47.8,19.2,55.9c52.9,15.8,119.8-15.4,170.7-27.8
	c66.2-16.1,126.9-22.4,181.3,24.7c33.9,29.4,76.5,36.4,116.8,13.3c21.2-12.1,36.9-31.4,51-52.3c55.9-37,110.1-81.2,156.5-128.9
	c6.9-7.1,3.3-12.2-4-15c19.6-9.2,39.9-17.1,60.7-24.1c53.9-18.2,109.5-31.3,163.4-49.6c47-16,105.8-36.8,138.1-76.5
	c13.8-16.9-11.5-25.7-28.4-25C1401.7,527.1,1414.4,516.2,1424.3,503.8z"/>
<path class="st12" d="M1604.5,330.3c-49.1-70.5-135.1-115.3-220-150.1c-52.2-31-111.3-58.3-170.3-78.3c3.9-16.8-26.6-21.6-38.5-12.1
	c-33.2-14.2-67.5-26.3-102.7-35.8c-9.6-2.6-44.9-2.2-65,6.9c-25.6-10.3-64.8-6.6-75.9,14.2c-4.9-0.3-9.9-0.2-14.9,0.4
	c-3.6,0.4-6.9,1.1-10.1,1.8c-22.2-7.8-51.4-4.3-69.2,10.2c-4.4-0.9-8.7-1.5-12.8-1.5c-40.4,0-65.7,27-73.5,64.7
	c-10.2,49.6,27.8,66.9,64.4,89.4c43.1,26.5,82.6,54.5,135.3,53.3c7.1-0.2,25.7-4.1,35.1-12.4c89.2,47,185.6,59.8,283,83.6
	c52.9,12.9,101.9,32.9,145,66.6c46.9,36.6,85,59.9,146.5,53.7c12-1.2,28.8-8.5,34.8-20.6c5-1.9,10.1-4.3,15.2-7.5
	C1656,429.2,1627.4,363.2,1604.5,330.3z"/>
<path class="st13" d="M1660.9,371.4c-20.1-73.3-93-122.2-155-158.1c-75.3-43.7-157.2-78.8-238.8-108.9
	c-92.1-33.9-188.8-58.5-287.2-62.2c-82.8-3.1-183.8,2.8-245.6,65.4c-12.4,12.6,0.2,30.2,14,29.2c-6.5,19.2-6.7,41,0.3,60.5
	c5,13.9,12.4,26.2,21.6,37.1c-8.1,10-17.8,18.9-29.4,26.7c-18,12-37.1,23-46.2,43.7c-0.9,2.1-1.7,4.1-2.3,6.1
	c-0.6,0.7-1.3,1.4-1.9,2.1C617.8,395.8,551,487.1,489.6,578.2c-28.7,42.6-57.1,87.3-82.5,133.8c-32.1,33.9-59.6,71.6-81.3,113.1
	c-5,9.4-12,21.5-17.1,34c-24.6,16.1-29.8,47.4-11.5,71.3c4,5.2,8.7,9.5,13.9,13.3c4.2,46.3,18.5,93.7,27.3,136
	c7.5,36.6,15.3,73.1,22.9,109.7c7.6,36.6,12.3,75.8,27.2,110.4c8.8,20.5,22.4,39.1,43.7,48c29,12.1,59.1,0.5,86.5-10.5
	c68.7-27.6,135.6-60.3,201.1-94.7c133.4-70.1,261.4-150.1,391.8-225.5c49.4-28.5,99-56.5,149.4-83.2c-2.9-1.9-5.6-4.2-7.9-6.8
	c6.1-2.9,12.1-5.8,17.8-8.3c26.8-11.9,53-25.1,78.9-38.7c54.8-28.7,108.2-60.7,159.5-95.4c37.6-25.4,95.5-53.4,107.5-101.1
	c6.3-25.3,5.4-53.2,7.1-79.1c2.3-34.1,6.7-69,5-103.2c-0.1-2-0.6-3.9-1.4-5.5C1661.2,466.5,1672.9,415.4,1660.9,371.4z M718.6,321
	c18.6-19.4,39.1-36.8,63.3-49.6c6.2-3.3,12.5-6.2,18.9-8.8c9.8,7,20.5,13.1,31.5,18.6c1,3.3,2,6.6,3.3,9.8
	c10.2,25.5,30.5,33.5,55.7,39.7c6.7,1.6,18.3,3.1,23.4,8.4c22.1,22.6-6.2,28.7-17.8,32.6c-20.2,6.7-41.6,10.7-62.7,12.7
	c-18.8,1.8-37.9,2.1-56.7,0.8c-10.9-0.7-22.4-1.5-32.9-4.6c-4.5-1.8-9.1-3.7-13.6-5.5c-5.5-3.1-9.6-6.5-12.5-10.1
	c10.1,4,22,5.9,33.9,5.3c12-0.5,16.2-20.4,3-22.2c-6.7-0.9-14.6-1.4-21-4.1c-5.8-2.5-10-5.8-12.6-9.8c3-3.8,6.8-7.8,11.4-11.9
	c1.5-0.2,1.1-2.6-0.4-2.6c-5.7-0.1-10.4,0.9-14.4,2.5C718.5,321.9,718.6,321.5,718.6,321z M804.6,232c2-3.6,3.8-7.3,5.5-11.1
	c1.8,3.1,3.5,6.2,5.1,9.4c-3,1-6.1,1.9-9.1,3C805.6,232.9,805.1,232.5,804.6,232z M1294.8,687.6c94.4-45.8,192.2-90.6,281-146.8
	c1,29.6-0.4,59.1-5.5,87.3c-139.9,78.8-277.5,160.4-421.6,232c-57.1,28.4-114.7,55.8-172.8,82.3c27.1-32.9,40-72.2,58.6-112
	c5.2-11.2,11.2-21.4,17.8-30.9C1133.9,763.8,1214.7,726.5,1294.8,687.6z M1082.2,765.3c27.8-25.8,61.8-44.7,98.6-61.4
	c72.6-32.9,145.4-65,217.9-98.1c24-11,48.8-21.4,73.5-32.1c-65.7,33.8-130.6,69.3-196.9,101.5C1211.4,706.3,1147,736.2,1082.2,765.3
	z M1522.4,436.8c-14.9,2-20.2,18.3-15.2,28.3c-24.9-13.4-48.2-31.9-64.6-45.1c-99.4-79.7-218.6-107.2-343-120.2
	c-76.1-7.9-155.4-7-228.4-32.6c-5.3-1.9-10.7-3.9-16.1-6.2c-1.3-4.4-2.7-8.7-4.2-12.9c26-4.9,52.8-6.4,79.1-5.9
	c105.2,2.3,212.7,30.5,312.6,61.8c104.7,32.8,205.2,76.6,300.8,130C1536.4,434.9,1529.4,435.9,1522.4,436.8z M334.4,858.1
	c0.3-0.7,0.7-1.5,0.9-2.1c8.2-19.4,17.8-37.9,28.7-55.7c-7,16.5-13.4,33.2-19.2,50.1c3.5-2.2,7.2-4,11.1-5.6
	c1.7-0.9,3.4-1.8,5.1-2.7c18.1-38.9,37.1-77,58.1-114.2c2.3-2.5,4.6-5.1,7-7.6c2.7-2.8,3.2-6.1,2.4-8.9
	c14.4-24.9,29.6-49.4,45.9-73.7c60.1-89.4,127-173.8,194.4-257.7c8.8-10.9,17.6-22,26.7-32.8c2.3,3.5,5.1,6.5,8.4,9.3
	c2.4,12.1,9.5,24.3,19.9,31.4c20.7,14.2,50.2,16.4,74.5,17.9c33.5,2.1,67.7-1.3,100.3-9.5c19.3-4.9,43.6-11.2,51.4-32
	c2.1-5.6,2.5-11.1,1.7-16.4c7.3,0.2,14.5,2,21.5,6.8c6.7,4.5,10.9,10.4,13.5,17c-0.7,0.9-1.3,1.8-1.7,2.8c-8.3-0.5-17.1,0.6-26,3.5
	c-15.1,4.9-8.9,26.7,6.5,23.6c5.1-1,10.1-1.3,15-1c-8.4,8.1-20,18.1-22,19.4c-13.7,8.7-28.7,15.7-43.6,21.8
	c-29.6,12-61.1,20.2-92.9,23.8c-29.3,3.3-60.1,4.1-89.1-1.9c-16.9-3.5-35.9-10.3-48.5-22.7c-14.9-14.7-12.7-39.9,7.3-50.5
	c6.1-3.2,13.1-4.5,19.8-5.9c1.5-0.3,1.2-3-0.4-2.8c-29.2,2.9-60.6,18.7-44.8,53.4c4.6,10.1,11.5,18.2,19.9,24.7
	c-0.4,0.1-0.8,0.1-1.2,0.3c-56.2,28.8-3.8,94.4,33.7,111.9c54.5,25.4,124.2,22.4,181.1,7.6c56.5-14.7,121.8-49.8,145.2-106.7
	c14.8-35.9-1.3-72.9-30.2-89.5c-0.7-5.1-3.9-9.5-10.5-12.7c-9.7-21-33.7-36-55.9-33.1c-4.1-8.8-11.5-16.4-19.8-21.7
	c-3.5-2.2-7-3.9-10.5-5.4c0.9,0.2,1.7,0.4,2.6,0.6c160.1,34.9,333.5,17.4,473.4,118.5c8.8,6.4,17.7,13.3,26.6,20.4
	c15.4,4.6,29,14.8,36.5,28.2c3.1,2.2,6.1,4.6,9.2,6.7c-1.8,0.7-3.6,1.4-5.3,2.1c4.2,13,2.9,28-7.2,43.3c-0.5,0.8-1.1,1.4-1.7,2.2
	c19.3-7.4,38.5-15,57.5-23.1c0.6,0.2,1.2,0.4,1.7,0.7c-46.4,21-91.9,45.3-137.3,67c-65.2,31.2-130.6,62.1-195.1,94.8
	c-48.7,24.7-97.9,50.7-138,88.4c-12,11.3-21.9,23.8-30.8,37c-1.6,0.7-3.2,1.4-4.8,2.1c-6.1,9.9-12.7,19.6-19.7,28.9
	c2.5-1.1,5-2.1,7.5-3.1c-17.2,30.6-32.2,62.8-54.5,90.6c-40.6,50.4-106.4,84.6-172.2,74.3c-32.8-5.1-54.5-21.4-73.1-45.7
	c0.4-0.1,0.8-0.3,1.1-0.4c-2.3-1.9-4.5-3.9-6.8-6c-7.2-6.8-11.9-14.2-14.7-21.6c-8.1-10.1-17.3-18.8-30.2-24.4
	c-45.8-20-87.6,9.9-129.3,25.7c-37.6,14.3-79.1,22.4-119.4,21.7c-19-0.4-44.7-0.8-60.7-12.2c-7.3-5.2-12.9-12.2-16.2-19.8
	C314.3,890.3,318.9,872.2,334.4,858.1z M1005,407.9c14.7,9,23.7,25.4,19.1,46.8c-4.3,20.1-19.9,37.1-34.2,51
	c-28.6,27.8-65.7,45.6-104.1,55.5c-36.6,9.4-76,12.7-113.6,8.4c-19.4-2.2-39.1-6.8-56.5-16c-26-13.8-67.8-60.4-25-83.5
	c2.3-1.3,3.1-3.3,2.8-5.3c29.7,18.3,72.7,20.9,103.6,20.6c57.2-0.5,115.3-14.4,166-41C972.3,439.8,992.8,424.2,1005,407.9z
	 M338,992.8c-3.4-13.1-6.9-26.4-10-39.7c27.3,11.5,61.8,11.6,88.5,10.9c58.3-1.5,106.2-19.1,159.9-39c20.2-7.5,37.3-13.2,53.9,2.4
	c5.2,4.9,9.3,11.3,13.2,17.7c-46.2,17.2-92.6,34.3-139.1,50.7c-26.7,9.4-53.4,18.8-80.1,28.1c-24.6,8.6-55.3,20.7-77.9,1.7
	C343.6,1014.7,340.8,1003.8,338,992.8z M368.3,1112c-6.5-26.2-13.1-52.3-19.8-78.4c12.6,10.9,29.5,12.1,46.9,9.6
	c43.1-6.2,86.6-25.4,127.7-39.1c43.3-14.5,86.3-29.5,129.2-44.9c0.1,0.2,0.3,0.4,0.4,0.6c12.8,17.7,27.7,31.6,47.2,41.7
	c27.9,14.5,59.3,21.1,91.1,21.3c-44.2,18.3-88.7,36.2-133.4,53.4c-45.6,17.6-91.3,34.9-137.3,51.5c-22.9,8.3-45.8,16.6-68.9,24.4
	c-13.3,4.5-27.4,9.4-41.6,9.8c-11,0.3-22.8-3.3-31.7-9.8C374.9,1138.7,371.6,1125.4,368.3,1112z M1529.7,727.6
	c-21,15.1-42.3,29.6-63.8,44c-44.4,29.7-89.8,57.7-136,84.4c-23.8,13.8-48,26.9-72.1,40.2c-5,2.7-10.2,5.4-15.6,8.1
	c-0.1-0.7-0.2-1.3-0.3-1.9c-30.8,16.3-61.3,33-91.6,50.1c-115.1,64.9-227.4,134.6-342.2,200c-57.2,32.6-115.1,64.3-173.9,94
	c-28.6,14.4-57.6,28.3-86.8,41.6c-28.6,13-78.4,45.9-109.7,28.2c-28.3-16-34.2-61.9-41.2-90.2c-4.7-18.9-9.4-37.8-14-56.7
	c0.9,0.4,1.9,0.9,2.9,1.2c37.7,14.6,84.1-9,119.4-20.9c94.2-31.8,187.4-66.3,279.6-103.5c29.6-11.9,59-24.2,88.3-36.7
	c13.7-4.6,26.9-10.2,39.5-16.9c139.3-60.4,276.2-126.5,410.1-198.1c81.1-43.4,162.9-87.7,241.1-136.9c-2.9,9.9-6.3,19.5-10.3,28.9
	c5-3.2,9.9-6.4,14.9-9.6c4.9-3.1,9.7-4.9,14.3-5.6C1574.9,698.2,1552.5,711.2,1529.7,727.6z M1616.8,449.4c1.4-9.4-3.2-20-12.3-22.4
	c-1-0.9-2.2-1.8-3.5-2.6c-0.5-0.3-1-0.5-1.5-0.8c-1.5-9.5-3-19-4.6-28.4c-3.7-21.8-35.4-14.1-35.2,6.4
	c-87.9-47.1-179.8-86.5-274.6-117.7c-105.2-34.6-216.9-63-327.8-69.6c-40.5-2.4-79.6,0-116.3,8.6c-6.2-13.6-13.6-26.7-23.1-39.5
	c-6.4-8.7-21.8-9.1-24.8,3.2c-2.1,8.9-5.1,17.1-8.7,24.8c-3.9-5-7.3-10.4-10.2-16.1c-17.8-35.5-3.2-89.6,41.8-94.2
	c4.6-0.5,7.2-3.8,7.6-7.4c41.4-14.2,88-16.6,130.6-16.6c72.6,0,144.4,12.8,214,32.6c70.6,20.1,138.9,47.3,205.6,77.7
	c65,29.6,132.1,61.3,187.2,107.5C1603.7,331.1,1649.7,392.5,1616.8,449.4z"/>
</svg>
