<?xml version="1.0" encoding="utf-8"?>
<!-- Generator: Adobe Illustrator 23.1.1, SVG Export Plug-In . SVG Version: 6.00 Build 0)  -->
<svg version="1.1" id="Capa_1" xmlns="http://www.w3.org/2000/svg" xmlns:xlink="http://www.w3.org/1999/xlink" x="0px" y="0px"
	 viewBox="0 0 1946 1364" style="enable-background:new 0 0 1946 1364;" xml:space="preserve">
<style type="text/css">
	.st0{fill:#E0E6F3;}
	.st1{fill:#DA9661;}
	.st2{fill:#CE6C35;}
	.st3{fill:#DB9530;}
	.st4{fill:#D07334;}
	.st5{fill:#F3D868;}
	.st6{fill:#F1D366;}
	.st7{fill:#FBFDFC;}
	.st8{fill:#F1DBCD;}
	.st9{fill:#070308;}
</style>
<path class="st0" d="M1717.4,534c-63.2-46.2-130.1-87-198.6-125.2c-17.3-5.4-34.2-10.7-50.5-15.9c-69.6-22.4-137.1-47.4-206.6-65.7
	c6.1,13.6,10.4,28,13.3,42.8c-1.7-1-3.7-1.7-5.8-2.3c-0.6-1.5-1.2-3.1-1.8-4.6c-4.5-11.7-34-11.8-32.7,3.1c0.4,4.5,0.5,9,0.6,13.4
	c-2.5,1-4.5,2.9-4.7,5.9c-0.5,9.5,0.8,15.9,4.5,24.8c1.7,4,6.9,6.5,12.5,7.3c-1.4,0.7-2.8,1.3-4.2,2.1c-10.2,5.6-1.3,16.8,6.8,18
	c3.6,0.5,7.9,1,12.7,1.3c4.8,2.9,11.5,3,17.3,1.3c19.6,1.4,42.8,3.3,62.2,8.9c3.8,3.7,7.3,7.7,10.5,11.9c8.2,2.7,16.3,5.8,24.3,9
	c4.5,6.4,6.7,14.2,5.7,23.8c-1.1,11.1,15.1,16.5,23.2,16.3c15.7-0.4,23.7-3,31.3-16.8c0.2-0.4,0.3-0.7,0.4-1
	c5.7,3.3,10.9,7.4,15.6,12.4c0.8,0.8,1.7,1.7,2.5,2.6c3,3.4,12.2,14.9,14.5,18.8c0.1,0.1,0.2,0.3,0.2,0.5c18,17.3,30.6,36.8,34.7,58
	c9.7,4.9,19.3,9.9,28.9,15.2c2.9,1.6,5.8,3.3,8.7,4.9c3.5,1.2,6.9,2.5,10.3,4c23.5,10.5,43,25.2,58.3,42.7
	c17.2,15.6,25.9,26.5,34.1,41.1c0.9,1.8,1.7,3.2,2.2,4.2c1.3,4.1,2.5,8.2,3.5,12.4c-1.5-0.7-1.6,19,0.4,11.4
	c-0.5,2.6-1.3,5.2-2.1,7.7c11.6,55.3-3,116.5-45.4,161.3c-19.7,20.8-47.5,28.2-74.1,24.3c-3.6,0.2-7.3,0.3-10.9,0.2
	c-57.6,20.7-116.7,36.2-175.2,54.8c-16.3,8.1-32.7,15.9-49.4,23.2c-16.6,12.1-33.1,24.3-50.9,35c-61.9,37.3-132.2,62.3-204.3,70.4
	c-12.6,37,5.7,82.2,59.1,83.6c142.6,3.6,278.4-2.7,413.1-54.1c132.7-50.6,270-128.6,348.6-251c33.2-51.8,47.5-108.5,46.2-164.8
	C1837.2,663.1,1784.9,583.3,1717.4,534z"/>
<path class="st1" d="M1490.6,549.5c-2.5-21-19.9-36.7-40.8-41.7c-0.7-0.2-1.3-0.2-1.9-0.4C1465.4,520,1480.2,534.1,1490.6,549.5z"/>
<path class="st1" d="M1580.6,898.6c-1.3,0.7-2.6,1.3-3.9,1.9c7.8-1,15.4-2.7,22.5-5.7c25.8-10.8,37.8-34.1,36.6-58.2
	C1625.6,861.6,1607.4,883.7,1580.6,898.6z"/>
<path class="st2" d="M1580.6,898.6c-3.6,2-7.3,3.8-10.9,5.4c15-2.7,29.9-6.3,44.3-11.1c27.5-9.2,30-33.9,18.6-49.1
	C1622,865.8,1604.8,885.1,1580.6,898.6z"/>
<path class="st3" d="M1615.6,801.7c-24.4-64.1-96.7-88.7-160.3-75.3c4.8-25.7,3.6-52.5-4.1-77.5c-0.5-1.5-1-2.9-1.7-4.3
	c7.7-25.8,18.1-50.8,33.3-76.5c20.7-36-24.3-60.5-68.4-62.5c-4.6-6.5-10.3-12.8-17.4-18.5c-40.2-32.1-103.4-40.4-152-54.7
	c-0.7-0.2-1.4-0.4-2.2-0.5c1.6-7.8,0.7-16.6-3.4-26.3c-0.4-1-0.8-2-1.3-2.9c-3.2-16.4-7.9-32.2-15-48.1c-0.3-0.6-0.6-1.2-0.9-1.8
	c-1.2-4.2-2.3-8.5-3.5-12.7c-5.9-21.4-29.6-33.8-56.3-37.4c-27-22.7-58.4-38.1-93-38.7c-26-44.4-88.5-57-134.1-35.6
	c-10.4,4.9-21.4,13.9-27.6,24.5c-16.5-7.2-33.9-12.7-52-16.4c-14-2.9-29.3-0.2-42.5,5.8c-42.4-17.9-110.9-12.1-135.5,24.9
	c-5.3,7.9-10.8,15.3-16.7,22.2c-54.9,6.5-109.2,20.3-162.1,34.4c-36.5,9.7-29.5,40.4-6,49.9c6.6,5.3,15,8.5,23.5,9.2
	c-3.7,8.4-5.3,17.6-3.7,27.5c-37.8,20.4-76.6,37.5-119.3,42.3c-56.4,6.3-82.4,62.9-38,100.8c17.7,15.1,37,31,57.7,44.7
	c-2.5,1.4-5.1,2.9-7.6,4.4c-7.2,4.5-10.4,11.1-10.5,17.7c-6.4,2.2-12.6,5.1-18.3,9.2c-19.2,13.9-24.2,28.5-20.7,41.8
	c-3.6,5.8-7.1,12-10,18.7c-7.4,17,12.6,29.3,26.2,32.3c14.7,3.2,28.9,4.2,43.1,3.3c-11.1,15.1-20.3,30.6-27.2,47.4
	c-20.5,10.8-39.1,29.3-27.3,53c6.7,13.4,12.9,27,19.1,40.6c17.9,39.1,74.3,45.6,110.6,27.8c1.9,0.8,3.7,1.7,5.6,2.5
	c20.3,7.4,41.6,9.6,63.1,8.5c33.4-1.7,65.2-13.5,92.2-32.8c7-0.1,14-0.1,21.1,0.3c10.8,0.6,23.1-1.3,34.9-5.3
	c34.9,11.3,71.2,16.4,108.3,7.9c14.4-3.3,27.7-8.7,40-15.6c7.5,31.7,56.7,40.2,82.6,35.3c5.4-1,10.8-2.1,16.1-3.3
	c11.6,2.5,22.9,4,32.9,4.8c33.9,2.6,66.7-1.5,99.8-8.8c3.7-0.8,11.9-3.6,21.8-6.7c7.8,1.8,15.7,2.7,22.9,2.7
	c29.5,0.1,58.9,0.1,88.4,0.2c6.5,0,12.7-0.7,18.5-1.9c9.1,0.4,18.1,1,27.2,1.8c10.6,2.9,22.1,4.1,33.4,3.6
	c15.4,1.9,30.9,4.2,46.4,7.1c34.3,6.3,69.5,12.1,104.5,11.3c18-0.4,36.1-2.3,53.7-6c2.5-0.5,4.9-1.2,7.3-1.8
	c34.1,5,71.3-0.7,97.7-23.6C1636.5,850.7,1634.7,821.1,1615.6,801.7z"/>
<path class="st4" d="M931.7,734.9c-100.5,11-192.3-41.4-293.7-15.5c-23.8,6.1-47.2,14.7-71.5,18.4c-32.2,5-58-4.6-87.8-15.4
	c-31.8-11.5-59.9-18.3-92.8-8.3c-11.6,3.5-5.5,15.1,3.2,17.2c44.3,10.7,84.1,36.3,129.3,43.5c22.1,3.5,43.4,1.6,64.4-2.6
	c4.6,4,9.1,8.2,13.6,10.3c12.1,5.6,22.6,8.5,36.1,10.2c9.2,1.2,18.8,0,28,1.3c35.8,5.1,22.8,10.9,43.5,26.7
	c27.7,21,87.3,16.8,98.5-20c2.9-9.6-10.9-11.2-17-9.2c-25.9,8.6-34.8,17.6-72.2,1.2c-3.3-1.5-4.8-6.9-8.3-8.3
	c-14.6-5.7-22.1-7.5-38.3-7c-10.5,0.3-21,1.7-31.6,1.6c-17.1-0.2-23.8-5.4-36.2-10.4c20.3-4.9,40.5-11.2,61.1-15.8
	c59.2-13.2,113.1,4,170.8,15.4c40.4,8,87.6,17.4,124.4-5.1C978.9,748.9,945.4,733.4,931.7,734.9z"/>
<path class="st4" d="M1488.4,515.4c-40-23.6-85.4,2.7-124.7,12.2c-30.7,7.4-59.3,12.3-87.1,21.5c-1.9-6.5-10.6-12.2-19.6-12.9
	c-1.7-0.1-3.4-0.2-5.2-0.3c-11.1-5.9-26.7-8.9-35.6-6c-5.5,1.8-10.9,3.3-16.3,4.7c-23.8-0.2-47.5-0.8-72.3-6.6
	c-30.7-7.1-62,1.9-91-5.9c-22.2-5.9-35.4-24-59.3-27.2c-17.4-2.4-84.5,19.1-90.5,3.4c-0.7-1.9-3.8-2.3-5.4-1.5
	c-8.8,4.2-10.3,10.2-7.5,16.2c-50.8,1.4-101.2,9.1-152,17.2c-76,12.1-153.2,22.1-228.5,38.6c-48,10.5-99.8,27.5-123.6,74
	c-3.2,6.3,9.3,7.8,12.6,5.1c59.7-49.1,127.3-58.9,201.8-67.5c77.5-8.9,154.8-21,232.5-28.8c89-9,165.8,13.1,251.9,29.7
	c44.5,8.6,92,12.4,136,1.9c-12,5-23.7,8.4-36,11.3c-3.5-4-15.3-3.9-15.2,3.1c0,0.1,0,0.3,0,0.4c-6.5,1.4-13.2,2.9-20.2,4.5
	c-17.3,4.1-30,8.6-42.4,21.2c-3.8,3.9,3.8,6.2,6.4,5.9c19.9-2.3,38.8-4.4,57.2-7.4c1.4,16.8,4.5,33.8,11.8,48.4
	c9.8,19.7,24.4,28.3,9.5,50.4c-1.1-0.5-2.3-0.8-3.3-0.9c-26.4-0.6-46.6,19.7-45.2,46c0.2,3.3,3.6,4.4,6.7,3.8
	c-1.6,1.7-3.2,3.5-4.8,5.2c-37,39.8-75.4,64.9-129,76.9c-36.6,8.2-72.8,15.2-108.4,26c-5-4.4-10.4-8.1-16.4-11.1
	c-2.1-0.6-3.8-1-5.5-1.3c1.4-2.2,2.6-4.6,3.7-7.2c7.8-18.8-26-22-36-14.7c-43.3,32-83.2-3.9-128.4-10.5c-32.2-4.7-51,7-79.7,17.5
	c-31.3,11.4-64-7.9-96.9,0.4c-15.4,3.9-29.3,13.1-44.5,16.7c-37.9,8.8-58.4-5.6-83.3-28.3c5.6,2,11.1,3.3,16.3,3.7
	c28.7,2,46.6-13.5,72.2-22c32.8-10.9,59,15.5,91.9,4.8c15.4-5,7.5-20.2-4.3-23.1c-27.5-6.7-56.6-20.8-85.4-13.6
	c-12.7,3.2-23.5,9.8-34.8,16.2c-15.6,8.8-47.8,13.6-63.2,2.1c-7.4-5.5-12.8-22.4-17.3-31c-0.4-0.8-1.8-1.1-2.5-0.5
	c-26.1,22.7-5.7,48.3,19.4,60.3c-0.2,0.3-0.5,0.5-0.6,1c-6.5,35.2,28.3,55.1,59.1,59.5c17.7,2.6,35.1-0.1,52.1-5.5
	c26.6-8.4,30.7-12.6,57-9.9c-1.5,0.8-1.3,2.5,0.6,2.9c11.6,2.6,23.5,3.5,35.3,4.6c1.7,0.1,3-0.2,4.2-0.6c1.6,0.2,3.2,0.4,4.9,0.5
	c24.2,0.4,38.8-15.6,60.9-19.6c39.4-7.1,74.3,17.5,111.7,23.4c26.8,4.3,60.6,1.7,80.1-17.6c3.7,2.2,7.3,5.5,10.7,9
	c-3.4,1.2-6.7,2.3-10.1,3.6c-1.3,0.5-0.3,1.7,0.7,1.7c4.8,0,9.7,0,14.5,0c3,3.1,5.8,5.9,8.4,7.7c8.5,5.7,18.4,8.8,28.4,10.6
	c36.4,6.7,72-10,107.4-14.6c41.7-5.3,87.2-5.2,129.2-2.7c32.5,2,60.7,19.4,92.1,6.1c22.8-9.6,1.7-30.7-16-26.6
	c-6.2,1.4-15.3,0.1-24.7-1.9c1.6-85.5,143.1-68.6,195-105.7c35.5-25.3,74-88.3,53.3-131.8c-1.9-3.9-6.7-6.4-11.6-6.9
	c0.4-0.4,0.8-0.8,1.2-1.1c12.4-10.5,39.9-19.8,43.8-36.9c0.1-0.5,0-1,0-1.5c3.8,0.2,7.7-0.6,9.6-2.4
	C1517.8,560.6,1516.8,532.3,1488.4,515.4z M1113.8,863.4c-23.5,1.4-47.3,1.8-70.9,3.6c42-13.6,80.9-35.1,114.7-67.9
	c-1,2.8-1.8,5.8-2.3,9c-1.4,9.1,4.3,34.2,3.9,53.1C1144,861.1,1128.7,862.5,1113.8,863.4z M1405.8,607.2
	c-11.6,9.6-22.3,20.3-31.2,32.5c-4.3,5.9-20,38.2-27.2,33.1c-5.4-3.8-18.5-2-16.5,6.7c7.9,33.5,54.1,11,66.9-5.3
	c6.4-8.2,12.3-16.6,18.4-24.7c-9.2,24.1-12.2,50.6-29.4,72.5c-30.3,38.5-78.1,36.8-120.7,49.6c-45.9,13.8-86.6,46.6-69.9,94.7
	c-7.5-1.7-14.8-3.5-20.7-4.2c2-12.6,1.6-24.8,3.9-39.7c2.7-18,11.1-34.2,30.1-38.4c10.4-2.3,20.9-3.4,31.2-6
	c28.5-7,73.9-22.4,71.2-58.4c-0.7-8.6-13-8.8-18.5-5.4c-21.2,13-38.2,30.4-61.6,39.7c-14.8,5.9-30.7,8.7-45,15.4
	c20.3-22,40.8-49.6,36.9-74c-4.2-25.7-33.9-30-42-56.2c-2.5-8.3-2.8-15.1-3.6-21.6c25.5-5.6,50.2-14.1,74.9-28.4
	c24.2-14.1,47.8-20.6,72.9-25.5c-0.6,5-0.5,10.5-0.9,16.6c-0.6,11.6,1.2,13.8-8.8,16.2c-7.5,1.8-15.7-0.2-23.6,2.2
	c-12.7,3.9-21.5,11.6-27.5,23.6c-5.4,10.8-16,52-36.1,37.9c-2-1.4-6.8-1.5-7.7,1.4c-4.8,16.4,14.9,23.7,28.4,23.1
	c28.2-1.3,44.1-22.5,55.1-45.6c7.5-15.7,16.2-7.4,31.5-10.3c11.3-2.1,21.9-6.9,28.1-17.1c8.7-14.3,10.9-38.9,3.2-55.7
	c35-8.1,111.2-32.6,105.8,19.5c0,0.3,0.1,0.5,0.1,0.7C1449,573.1,1423.8,592.3,1405.8,607.2z"/>
<path class="st4" d="M1546.7,747.4c-3.1-1.2-10.8,2.4-5.8,5.3c23.7,13.5,44,29.9,50.1,57.8c2.7,12.4,5.7,28.1-1,40.1
	c-11.3,20.4-40.8,18.3-59.8,19.4c-46.3,2.8-90.2-2.4-128.6,26.9c-7,5.3-1.5,11.9,5.1,13.6c18.9,4.7,25.1-1.4,44.3-4.8
	c25.4-4.5,53.4-2.1,79.2-2.8c32.9-0.9,72.1,0.2,95.5-27.2C1678.5,814,1595.4,765.8,1546.7,747.4z"/>
<path class="st4" d="M835.2,640.9c-5.2,3.8-10.2,8.7-15.6,12.2c-37,23.8-55.7,18.6-92.2,7.5c-14.7-4.5-28.5-10.8-44.1-11.8
	c-44.7-3-75.9,46.2-121.4,33.3c-3.2-0.9-7.7,2.3-4.3,5.2c16.2,13.7,35.2,18.5,56.4,15.4c12.2-1.8,20.2-6.7,31.4-11.4
	c27.5-11.6,48.2-10.1,75.9-0.1c43,15.5,132.2,22.6,146.1-37.1C871.5,637.1,845.7,633.2,835.2,640.9z"/>
<path class="st4" d="M651.7,612.2c-2.2-14.8-27.7-18.7-36-6.8c-19.8,28.3-73.2,11.7-105.6,19.6c-39.2,9.6-117.9,74.9-149.9,29.1
	c-0.9-1.3-5-1.2-4.8,0.9c3.6,50,83.7,36.9,112.9,21.6c27.6-14.5,53.9-26.8,86.1-25.7c18.1,0.6,35.7,6.2,53.9,3.8
	C632.9,651.6,655.6,638.7,651.7,612.2z"/>
<path class="st4" d="M1025.5,600.7c-2.5-16.7-26.2-16.3-36-6.8c-41.7,40-78-17.5-121.6-17.1c-47,0.4-84,43.3-132.9,25.5
	c-1.8-0.7-6.1,0.3-4.3,3c12.9,19.3,30.4,25.2,53.4,24.8c15.2-0.2,28.8-4.9,43.4-7.9c14.1-2.8,18.5-5.9,34.6-4.4
	c23.4,2.2,13.8,3.9,29.5,12.2C923.1,646.7,1034.8,662.5,1025.5,600.7z"/>
<path class="st4" d="M686.7,499.3c-27.7,7-45.2,0-69.7-12.3c-9.3-4.7-16.4-8.5-27.2-8.6c-29.1-0.4-70.6,68.2-99.5,18.1
	c-1.2-2-6-2.4-6.1,0.6c-0.7,10.9,1.9,20.2,6.6,27.6c-1.6,0.9-3.2,1.9-4.9,2.8c-15.6,8.8-55.7-9.3-64-23.9c-1-1.8-5.2-2.1-5.4,0.5
	c-0.5,7.4,2.3,14,6.8,19.8c-9.5,1.3-18.7,5-28.5,5.5c-13.6,0.7-25.9-4-38.9-7.2c-5.1-1.3-15.3,3.1-10.4,9.5
	c10.6,13.6,30.6,19.6,47,21.8c16,2.1,42.3,2.8,53.4-11.5c3.1,1.7,6.1,3.2,8.9,4.6c20,9.4,43.5,9.6,61.2-3
	c14.5,4.6,31.7,3.4,46.6-4.7c9-4.9,18.3-22.6,25.4-25.2c8.7-3.2,24.3,10.2,32.8,13.4c27.5,10.3,55.2,8.6,82.6,0
	C727.7,519.4,705.3,494.5,686.7,499.3z"/>
<path class="st4" d="M848.1,481.8c-20-9.5-42.4-4.6-62.9,1.7c-26.3,8.1-49.2,12.4-76.5,15.2c-1.4,0.1-2.5,1.5-1.6,2.8
	c9.2,13.3,30.1,13.3,44.8,12c12.4-1,24.4-4.2,36.5-6.8c17.5-3.8,34.5-4.3,52.2-5.8C852.1,500,862.4,488.6,848.1,481.8z"/>
<path class="st4" d="M1215.6,413.3c2-0.7,4-1.5,5.9-2.2c11.9-4.3,18.3-17,10.4-27.7c-8.5-11.6-27.6-11.6-39.6-7.3
	c-18.4,6.6-97.7,49.3-110.6,22.8c-2.3-4.7-11.7-6.1-14.8-1.4c-2.5,3.8-3.8,7.3-4.3,10.5c-19.3-0.6-38.6-1.5-57.9-2.9
	c-34.6-2.5-69.5-7-104.3-8.2c19-2.5,36.9-9.9,48-26.3c16-23.6-25.7-32.8-40.7-22c-28.5,20.4-87.3,2.8-122.9,11.8
	c-19.9,5-41.3,18.2-63.2,29.5c37.5-24,79.3-40.4,115.6-65.1c20.3-13.8-8.4-26.7-21.1-25.4c-38.2,3.9-75,25.6-106.6,46.7
	c-9.7,6.5-18.8,15.9-29.1,21.1c-15.9,8.1-17.5,6.6-28.2-1.4c-11.5-8.5-13.6-20.9-28.5-27.3c-30.5-13.1-46.1,10.9-75.2,13.9
	c-19.3,1.9-34.5-6.2-49.6,9.6c-2.3,2.4,2.3,3.8,3.9,3.6c18.6-2.8,35.2,11.8,52.9,14.5c11.1,1.7,18.5-1,29.4-1.8
	c22.5-1.7,29.4,16.3,46,27c-1,0.9-1.3,2,0.1,3.3c2.6,2.4,5.3,4.5,7.9,6.5c-7-0.5-14.1-0.8-21.5-1c-19.2-0.4-33.7,6.7-52.3-5.5
	c-7-4.6-11.7-13.7-18.4-19c-11-8.7-19.1-12.2-33-12.3c-7.2-0.1-14.5,9.3-4.8,12.5c20.9,6.9,25.3,34.6,41.9,47.4
	c13.3,10.2,25.3,11.4,42,10.7c62.6-2.5,125.7,20.7,187.8,4.7c35.2-9.1,66.9-18.8,103.8-18.6c34.4,0.2,68.7,5.3,102.9,8.4
	c48.8,4.3,97.9,8.4,147,11.3c-6.6,0.5-13.3,0.8-20.1,0.5c-9.6-0.4-16.2-2.6-26.1-0.5c-10.9,2.3-16.2,7.4-26.1,12
	c-30.9,14.3-59.3,6.5-81.2-16.9c-1.1-1.2-3.6-1.2-4.4,0.4c-18.4,37.9,59.5,59.2,85.1,55.4c11.2-1.7,19.8-8.5,30-11.4
	c12.6-3.6,18.7,0.6,32.6,2c26.3,2.7,56.3-4.8,72.5-26.1c3.7-4.9,3.5-9,1.3-12.2c2.8,0.1,5.5,0.3,8.3,0.4
	C1243.3,458.4,1245.9,421.2,1215.6,413.3z M807.1,406c-29.9,8.1-53.3,16.7-81.2,17.7c12.8-3.8,25.7-8.9,38.2-14.1
	c30-12.4,53.9-18.7,86.7-15.2c6.3,0.7,12.5,1.7,18.7,2.5C848.6,397.8,827.8,400.4,807.1,406z"/>
<path class="st4" d="M1320.5,465.8c-8.4,8.3-14.2,14.6-26.2,17.3c-12.2,2.7-25.4-0.6-36.7,5.3c-6.2,3.2-8.6,9-2.6,14
	c14,11.6,43.6,9.6,60.3,6.2c17.4-3.4,38.6-13.3,45.2-30.9C1368.7,455.8,1330.5,456,1320.5,465.8z"/>
<path class="st5" d="M508.2,622.5c-2.3-3.8-12.7-2.1-10.8,3.2c-0.8-2.3-13.1-7.5-16.1-8.1c-3.2-0.5-5.2-0.6-8.5,0.6
	c-4.6,1.7-7.2,5-8.8,9c-4.8-3.5-10.5-5.1-17.1-2.4c-4.1,1.7-6.2,4.2-7.3,7.1c-3.8-3.5-8.7-5.4-15.1-4.4c-8.7,1.4-11.9,6.2-12.6,12.2
	c-1.8-0.7-3.7-1.1-6-1.2c-9-0.3-13.3,4.7-15.1,11.3c-6.2-5.3-14.2-7.7-21.6-1c-9.1,8.2-1.8,19.1,8.8,18.8c2.4-0.1,3.4-2.7,0.6-3.3
	c3.9,0.2,7.9,0.4,11.8,0.6c1.2,3.7,10.5,3.5,10-1c-0.2-0.4-0.1-0.6-0.3-0.9c0,0,0,0,0.1,0c-0.1-0.1-0.1-0.3-0.2-0.4
	c-1.5-4.6,0.6-6.7,6.8-5.8c2.9-1.5,5-2,6.6-1.6c0.9,4.1,1.9,8,2.3,11.4c0.6,5.2,11.6,5.1,11,0c-0.8-7.4-0.9-5.2-2.4-12.5
	c-0.7-3.5-1.4-7.1-2.2-10.6c10.4-0.8,15.6,2.8,16.2,10.6c0,0,0,0,0,0c0,0,0,0,0,0c0,0.4,0.2,0.7,0.2,1.1c1.1,5.1,10.9,3.5,11.7-1.1
	c0.6-3.6-1.1-10.3,0.2-13c2.9-6.2,7.7-5.7,12,0.9c2.5,3.8,11.3,2.7,11.7-2.2c1.6-20,16.6,1.3,28.5-2.5
	C510.3,634.9,512,628.8,508.2,622.5z"/>
<path class="st5" d="M648.5,574.6c-5.3,10.6-24.8,10.6-34,9.8c-4.1-0.4-8.2-0.9-12.4-1.3c-9.7-0.8-19.3-1.4-28.9-0.1
	c-20,2.8-49.2,34.6-67.5,26.3c0.5,0.2,1.7-0.1,1.2-0.8c-0.3-0.4-0.7-0.9-1-1.3c-0.3-0.4-1-0.5-1.5-0.4c-0.7,0.1-1.4,0.3-2.1,0.4
	c-0.9,0.2-2.1,0.9-2.1,1.9c0.3,7.5,11,10.1,17.1,10.7c17.8,1.7,26.1-11.8,39.6-20.1c24.7-15.2,52.2-0.9,78.5-3.8
	c12.1-1.3,24.1-6,27.4-18.6C664.4,569.8,651.3,569,648.5,574.6z"/>
<path class="st5" d="M667.3,606.4c-2.1-3.1-8.6-2-9.2,1.8c0,0.3,0.1,0.6,0.3,0.9c-1.2,0.8-1.1,2.6,1,3.1
	C662.3,612.9,670.6,611.1,667.3,606.4z"/>
<path class="st6" d="M526.7,830c-1.7-2.8-10.1-2.3-9.6,1.8c2.7,8.7-2.8,12.9-16.4,12.7c-3.2-4.1-12.5-3.2-13.2,2.5
	c-0.5,4.3-2.3,20.4-6.1,24.9c-4.5,1.6-9.1,3.3-13.6,4.9c4.8-9.8,4.6-20.4-6.1-27.3c-20-13-31.8,16.6-14.7,29.8
	c1.4,1.1,3.1,2.2,4.8,3.2c-5.2,10.5-17.1,12.8-35.6,6.8c-9.8-6.4-13.2-20.3-8-30.3c0.7-1.3-2-1.7-2.7-1.1
	c-22.6,19.1,8.8,45.3,30.3,43.5c8.2-0.7,17.8-6.7,25-14.7c7.9,2.9,16.6,4,23.3,0.5c9.9-5.1,13.8-17.8,15.9-29.3
	C517.3,864.1,539.2,850.7,526.7,830z"/>
<path class="st6" d="M715.6,815.8c-14,13.7-27.3,2.8-42.4,2.3c-3.2-0.1-5-0.8-8.3,0.1c-17.4,5-0.8,14.5-24.2,8.8
	c0.5-2.3,1-4.6,1.2-6.9c0.2-1.9-1.9-3.8-3.5-4.3c-22.2-6.6-27.5,14.8-19.1,29.3c-0.7,0.9-1.3,2-2.1,2.8c-5.6,3.4-11.1,6.8-16.7,10.3
	c-14.3,3.1-22.9-1.1-26-12.6c1.4-3.3-5-3.9-6.5-1.9c-11.9,15.2,21.3,24,31.3,23.3c11.8-0.7,21.1-5.9,28.1-13.4
	c5.2,3.3,11.9,4.9,20.2,2.8c9.6-2.4,12.8-7.6,18.8-14.5c5.4-6.2-3-7.3,8.8-9.5c2.3-0.4,5.6,3.6,8.4,4c16.5,2.2,35.7,1.3,41.3-17.7
	C726.5,813.3,718.1,813.3,715.6,815.8z"/>
<path class="st6" d="M627.9,774.2c-12.3,19.6-32.6,10.7-46.3,0.5c-4.1-3-12.9-2-13.6,3.9c-0.5,3.2-1,6.3-1.5,9.5
	c-4.9,9-9.5,10.1-14,3.5c-5.8-3.2-11.9-11.5-16.2-16.1c-3.1-3.3-12.8-4.4-14.3,1.3c-2.4,9-11.4,7-20.5,4.5
	c8.5-18.5-30.9-32.2-34.6-4.2c-0.2,1.4,0,2.7,0,4l-4.7-2.9c-3.9-0.6-6.2-2.7-10.9-1.7c-3.8,0.8-5.4,3.2-8.7,5.2
	c-11.5,6.7,11,5.6-18,5.1c-10.6,4.2-16.3,1.5-17.1-8.2c-6.7-10.1-2.2-16.9,13.5-20.7c1.2,1.1,6.4,1.1,5-1.5
	c-4.7-8.5-14.5-10.9-23.3-6c-16.7,9.4-10.5,34.8,1.6,45c11.7,9.8,27.7,9.4,40.3,1.6c3.5-2.2,7.8-9.2,12.9-9.1
	c1.8,0,9.9,6.2,12.7,6.9c1.1,0.3,2.2,0.4,3.4,0.5c5.8,6.4,14.6,10.8,22.5,11.9c15.3,2.3,28.5-4.5,36.1-16.4
	c8.6,9.3,19.1,18.7,31.2,17.2c11-1.3,16.1-9.5,18.7-18.8c20.8,10.6,50.9,15.8,58.2-11.8C641.7,771.8,630.7,769.8,627.9,774.2z"/>
<path class="st6" d="M858.9,760.7c-8.1-3.3-16.1-5.9-24.4-8.5c-4.3-1.3-15.5-0.3-12.8,6.9c11,29.7-20.9,8.9-28,4.7
	c-2.2-1.3-3.4-4.5-5.7-6.1c-4.5-3-9.6-4-14.7-2.6c-7.4,2-5.7,5.3-10.3,9.1c-15.8,13.2-25.8,16.4-43.1,3.8
	c-6.8-5-12.7-11.3-18.5-17.3c-3.2-3.2-13-4.5-14.6,1.3c-0.6,10.2-7.2,11.6-19.7,4.4c-10.7,3.7-16.9,2.4-18.6-3.7
	c3.3-0.4,6.5-0.9,9.8-1.7c2.5-0.5,2.7-3.4,0-3.8c-6.5-1-9.3-1.3-15.9-1.8c-2.1-0.2-5.9,1.4-5.7,4c2.7,34.1,42.6,39.4,59.9,16.2
	c11.4,11.2,24.5,21,40.8,22.8c9.1,1,19-0.4,27.1-5c2.6-1.4,14.9-16.1,14.7-16.1c-2.8,0,13,18.1,15.1,19.3c7.7,4.4,17.3,6.1,26,3.8
	c11.8-3.1,19.1-12.6,19.7-23.4c4.3,1.2,8.7,2.2,13.1,3.2C859.4,771.4,867.2,764.1,858.9,760.7z"/>
<path class="st6" d="M470.5,709.5c-2.3-0.2-5.5-1.6-7.3-3.2c-1.1-0.9-3.8-0.4-3.4,1.4c0.6,2.4,0.9,3.7,3.2,5.1
	c2,1.2,4.3,1.5,6.6,1.5C473,714.3,474.6,709.9,470.5,709.5z"/>
<path class="st6" d="M540.6,705.9c-4.6-3.8-9.7-6.7-14.9-9.8c-2-1.2-6.8,0.7-4,2.8c5.1,3.6,10.1,7.1,15.6,9.9
	C539.2,709.8,542.9,707.9,540.6,705.9z"/>
<path class="st6" d="M759.5,701.4c-22.5,9.5-42.7-1.8-45.6-23.7c0-1.2-0.1-2.5-0.3-3.8c0-0.4-0.1-0.7-0.1-1.1c0,0-0.1,0-0.1,0
	c-0.1-0.5-0.1-1.1-0.2-1.6c-1.4-6.7-16.9-5.7-16.9,1.6c0,2.6,0.3,5.1,0.7,7.5c-0.9,11.5-12.5,18.7-22.9,22c-4.3,1.4-13,3.8-20.3,3
	c2.4-9.2-1.6-17.8-17.1-22.3c-4.2-1.2-9.3,1-10.1,5.4c-1.8,10.1,1.9,17.4,8.7,22.1c-1.2,5.2-4.7,9.4-10.7,12.6
	c-5.7-0.2-11,0.5-16.2,1.5c0.8-2.3,1.3-4.7,1.1-7.3c-0.7-11.2-11.1-18.1-21.5-15.7c-10.5,2.4-15.9,13.8-11.5,23.7
	c1.7,4,4.8,6.9,8.5,9.1c-0.1,0.1-0.3,0.1-0.4,0.2c-4.4,3.1-9,5.8-14,8.1c-11.7,6.2-24.2,5.6-37.5-1.8c3.6-1.7-0.4-4.4-3-3.6
	c-7.7,2.7-5.1,8.1,0.4,12.5c12.3,9.9,33.1,5,46-0.1c6.1-2.4,14-6.1,20.6-11c5.1,0.9,10.4,0.9,14.8,0.4c12.5-1.4,28.2-11.7,36.6-23.3
	c18.4,3.8,43.5-2.1,56.6-16.1c13.8,19.1,41.1,26.4,62.5,9C773.8,703.8,764.2,699.5,759.5,701.4z"/>
<path class="st6" d="M958,694.9c-0.9-5.7-12.9-7.5-14.3-1.4c-3.3,14.3-18.1,15.5-29.5,11.5c-1.4-8.1-9.2-16.8-15.8-21.3
	c-4.1-2.8-12.7-2.7-14.8,2.7c-2.2,5.7-1.1,11.1,2.1,15.9c-2.3,4.3-5.7,4.7-10.1,0.9c-8.2-0.8-17.1-8.7-23.7-13.1
	c-4.1-2.7-14.1-2.4-14.3,4.2c-0.5,14.1-7.9,22.5-22.4,25.3c-12.2,5.1-18.6-0.3-19.4-16.2c1.6,2.7,8.1,2.6,7.2-1.4
	c-5.1-22.7-46.4-5.5-26.9,18.8c19,23.7,63.1,10.4,75.2-14.9c16,9.9,38.4,20.7,53.4,14.2c1.6-0.7,2.9-1.5,4.1-2.3
	C932.1,725.9,962.2,722.1,958,694.9z"/>
<path class="st6" d="M1167.5,828.1c-7.9,11.9-14.8,21.1-30.8,21.5c-15.8,0.4-30-8.2-43.2-16c-4.3-2.5-13-2.4-13.7,4
	c-2.9,24.9-3.5,26.2-32.3,33.9c7-15.1,4.3-33.5-17.8-32.6c-9.2,0.4-19.4,6.7-19.9,16.5c-0.4,10,9,16.9,18.4,21.6
	c-8.8,6.5-18.8,9.9-30.3,9.8c-26.6,0.9-52.5-12.2-75.5-24.1c-4.2-2.2-10.4,2.9-4.9,5.8c33.5,17.5,77.2,39.5,114.8,19.8
	c3-1.5,5.7-3.8,8.1-6.3c30.1,10.3,47.3-7.3,53.5-33.6c15.9,8.8,33,15.9,51.5,13.1c15.7-2.4,35.7-12.9,35-30.9
	C1180.1,825.1,1170.1,824.1,1167.5,828.1z"/>
<path class="st6" d="M1285.5,709.7c-4.4,29.1-26.8,5.2-39.6,12.9c-2.5,1.5-3.7,3.9-5.4,6.1c-1.1,4.5-3,8.7-5.6,12.6
	c-16.9,9.1-28.4,7.7-34.7-4.1c-3.5-5.1-19.1-2.7-15.5,4.6c-1.2,3.6-2.5,6.5-3.8,8.8c-0.2-13.5-5.8-24.8-24.1-22.2
	c-26.1,3.7-10.6,30.6,5.1,37.4c0.9,0.4,1.8,0.7,2.8,1c-1.4,5.5-3.3,10.9-5.3,16.2c-2.6,6.9-15.5,41.6-25.2,37.9
	c-4.4-1.7-10.9,3.1-5,6c23.7,11.6,40.4-31.9,46.4-48.2c1.1-3,2.2-6.5,3.1-10.3c9.2-0.6,18.1-4.3,22.4-10.7
	c17.2,8.8,37.6,0.8,52.2-14.9c6.8-7.3,0.7-5.1,10.7-5.2c5.9-0.1,10.9,1,16.8-0.8c13-3.9,20.7-13.8,21.8-27
	C1303.2,701.7,1286.7,701.9,1285.5,709.7z"/>
<path class="st6" d="M1343.9,558.9c-5.7,9.5-11.5,18.9-18,27.9c-1.8,2.5-16.7,23.2-26.6,22.9c-1.4-4.8-5.2-9.2-11.3-11.7
	c-2.9-1.2-7.7-0.9-10.5,1.1c-4.4-1.9-10.1-1.9-17.2,0.8c-1.9,0.7-4.4,2.7-4.1,5c1.3,11.8,8.6,22.1,18.9,24.5
	c0.1,7.1-0.9,14.9-5.4,20.4c-6,7.4-36.9,12.3-42.8,3c-4.8-7.4-4.3-15.9-0.6-23.9c2-4.3-7.1-5.3-9-1.7
	c-19.3,35.6,25.8,58.8,54.3,40.2c10.8-7.1,17.4-24.1,18.1-39.6c3.4-1.5,5.8-3.5,7.5-5.8c4.9,0.5,10.1-0.2,14.9-2
	c22.4-8.7,37.5-38.1,48.6-57.9C1364.8,554.7,1347.8,552.5,1343.9,558.9z"/>
<path class="st6" d="M1460,546.2c-18.4,3.6-14.6,22.9-27.5,32.7c-7.2,5.5-16.6,5.5-23.6,11.3c-2.5,2.1-16.1,20.1-16.3,19.2
	c-1.4-6.6-17.8-5.6-16.8,1.6c1,7.3,2.1,14.7,1.7,22c-0.7,4.3-1.3,8.6-2,12.9c-4.5,16.9-15.7,16.4-33.6-1.5c0.4-2.5-4.7-2.4-5.5-0.5
	c-7.6,18.5,9.7,32.8,27.7,29c23-4.8,28.2-27.2,28.9-47.8c7.7-0.8,16-6,20.8-13.2c7.8-11.7,12.6-13.2,25.2-18.6
	c4.7-2,8.5-3.9,12.1-7.5c8-8.3,12-23.6,17.1-33.9C1470.3,547.4,1462.8,545.6,1460,546.2z"/>
<path class="st6" d="M1424.9,703.6c-6.8,5.8-10.7,10.5-15.7,17.9c-8.1,12-6.7,16.1-22.1,14.9c-12.4-1-21.4-8.3-33.6-8.9
	c-21.1-1.1-39.1,18.2-42.9,37.5c-0.7,3.7,5.2,3.8,6.7,1.3c5.2-8.8,10.9-20.5,20.3-25.7c24.2-13.4,22.8,0.7,35.7,5.3
	c7.7,2.7,14.1,6.1,22.7,4.8c18.4-2.8,31.8-28.4,36.2-44.2C1433,702.9,1427,701.7,1424.9,703.6z"/>
<path class="st6" d="M1552.9,798.2c-0.4-1.4-3.7-1-3.3,0.6c2.4,8.3,4.7,16.5,7.1,24.8c0.5,1.7,4.5,1.2,3.9-0.8
	C1558.1,814.7,1555.5,806.5,1552.9,798.2z"/>
<path class="st6" d="M1568.7,810c-0.6-1-3.4-0.9-2.8,0.5c7,18.4,6,33.7,1.4,52.5c-0.6,2.5,3.7,2.7,4.7,0.9
	C1580.6,847.4,1578,825.7,1568.7,810z"/>
<path class="st6" d="M1533.5,803.2c-0.3-1.6-4.2-1.3-4,0.4c4.6,30.2,6.2,59.4-3.1,88.9c-0.9,2.8,4.1,2.9,5.3,1
	C1548.2,865.4,1540.1,833,1533.5,803.2z"/>
<path class="st6" d="M1502.4,825.8c-0.5-1.4-3.5-1-3.2,0.6c4.4,22.7,4.1,43.6,3.2,66.5c-0.1,2.4,5,2.7,5.5,0.5
	C1512.5,871.3,1509.4,847,1502.4,825.8z"/>
<path class="st6" d="M615.7,478.7c-8.4,6.9-9.9,14.3-15.8,22.5c-14.6,20.4-36.9-6.1-46.9-20.1c-3.9-5.4-14.9-3.5-16,3
	c-1,5.7-0.5,16.7-3.7,21c0.6,4.9-1.4,5.8-5.8,2.7c-3.5,0.1-5.6-1.2-6.5-3.9c-0.1-0.6,0-1.2-0.1-1.8c0,0-0.1,0-0.1,0
	c0-0.5-0.2-0.9-0.2-1.5c-1.9-6-17.1-5.5-16.1,1.5c1.4,10-2.9,18.3-10.2,22.2c1.7-3.2,2.9-6.6,3.1-9.8c0.8-12.2-12.7-15.8-22.6-18.9
	c-9.3-2.8-25.1-7.6-31.5,3.1c-6.6,11.2,6.5,25.1,14.8,31c2.8,2,5.9,3.6,9.1,4.9c-8.4,7.1-18.8,12.6-25.5,11.8
	c-28.4-3.2-33.9-35.3-61.3-39c-0.3,0-0.5,0.3-0.1,0.3c23.4,4.9,26,34.3,46.9,43.2c12.5,5.3,27.1,4,39.2-1.5
	c5.1-2.4,11.3-6.5,16.8-11.5c13.8,0.6,27.3-4.4,33.9-15.2c5.8,5.1,12.9,8.1,20.7,6.1c9.5-2.4,12.7-13.9,14.2-25.3
	c12.1,12.1,27.9,22.6,43.5,20.6c21.3-2.8,20.5-25.9,31.4-39.5C631.6,478.7,619.6,475.5,615.7,478.7z M469.7,505.9
	c13.4,2,12.8,10.5,6.5,19.2c-2.2-0.8-4.5-1.8-6.8-3.3C459.5,515.8,454,503.6,469.7,505.9z"/>
<path class="st6" d="M917.5,467.4c-10.5-0.7-13.6,4.2-21.5,9.4c-18.3,12-36.5,0.8-56.4,4c-18.9,3.1-35.1,18.1-55,12.8
	c-16.1-4.3-29.3-18.3-44.9-24.7c-3.9-1.6-11.5-0.7-11.8,4.7c-1.6,32.5-37,50.8-63.2,24.9c-2.1-2.1-9.1-0.6-6.4,2.6
	c26.8,30.7,72.6,18.7,83.2-17.7c27,14.9,45,31.8,79.2,18c13.7-5.5,24.8-8.8,40.2-7.5c9.1,0.7,17.8,3.2,27,2.1
	c4.4-0.5,8.8-1.6,12.7-3.6c6.7-3.5,11.7-13.7,18.5-15.6C926.7,474.7,924.5,467.9,917.5,467.4z"/>
<path class="st6" d="M1231.6,489.9c-1.1-0.4-2.3-0.7-3.4-1.1c-3-1-6.7-1-9.5,0.4c-2.6-0.9-6.6-0.6-9.1-0.5
	c-8.7,0.5-16.5,4.3-23.2,9.6c-12.9,10.1-19.2,24.3-38.9,21.6c-13.7-1.9-28.1-14.7-40.5-20.6c-15.6-7.3-23.9-6.1-35.6,4.8
	c-4,3.8,6.3,16.1-11.2,5.1c-4-2.5-7.8-12.8-11.1-16.3c-6.2-6.9-12.8-10.1-21.8-11.1c-5.1-0.6-12.3,1.2-11,7.7
	c-2-0.2-3.9-0.4-5.9-0.6c-0.4-1-0.6-2.1-0.9-3.2c6.8-12.2,8.2-27,1-41.3c-2.5-5-15-6.9-16.6,0c-2.5,11.1-5.8,28.5-2.6,42.2
	c-5.5,7.4-13.1,12.6-21.8,15.5c-6,2-37.9,7.6-36.6-5.6c0.5-5.1-10.7-5.3-11.2,0c-2.5,24.6,44.5,18.7,57.9,14
	c6.9-2.4,13.1-6.1,18.4-10.7c2,2.1,4.4,4,7.4,5.3c9.1,4,21.7,0.8,26.6-7.2c14.3,10.9,19.5,38.6,44.5,28.8c6-2.3,6.1-4.8,10.7-8.4
	c2-1.6,0.5-7.2,1.6-7.9c9.5-5.4,39.8,17.4,49.1,20.8c24.8,9,39.5-1.7,56.6-18.7c8-8,12.6-8.4,22.9-7.9c3.3,0.2,6,2,9.6,1.2
	c5.6-1.3,8.6-4.7,9.3-10.2C1236.5,493.1,1233.7,490.6,1231.6,489.9z"/>
<path class="st6" d="M1188.4,427.2c-2.1-4.9-12.2-4.5-12.9,1.2c-2.6,23.5-35.1,21-53.1,17.7c-6.8-1.3-13.7-2.2-20.6-1.7
	c-7.2,0.5-13.8,2.2-20,5.9c-2.6,1.5-4.8,4.9-7.3,5.7c-8.7,2.6-35.7-5.7-39.6-14.3c-1.6-3.6-10.3-2.8-8.8,1.7
	c4.9,14.1,13.3,27,29.1,30c23.3,4.4,35.8-21.1,59.7-17.2c18.3,3,36.1,11.2,54.6,4.5C1184.1,455.5,1195,442.5,1188.4,427.2z"/>
<path class="st6" d="M1218.2,382.9c-10.6,6.8-18.2,19.4-30.2,23.7c-20.1,7.3-26.3-7.9-42.4-8.1c-4.1,0-8.5,0.7-11.9,3
	c-2,1.4-3.3,4-5.1,5.4c-0.5,1.3-0.9,2.7-1.4,4c-14.4,4.9-25.9,0.5-34.6-13.2c-0.4-4.1-8.8-4.2-8.9,0c-0.4,17.3,15.5,21.5,31.7,23.9
	c4.3,0.6,11.7,1.9,16.3-0.2c3.7-1.7,5.8-6.8,8.3-8c14-6.4,32.2,8.6,48.2,4.6c15.7-3.9,32.5-16.4,38.4-31.6
	C1228.5,381.7,1220.6,381.3,1218.2,382.9z"/>
<path class="st6" d="M652.5,539.6c-43.1,2-83,20.8-124.9,29.5c-49.6,10.3-101.5,2.6-145.9-21.8c-19.4-10.7-63.9-38.7-34.7-61.7
	c17.2-13.6,49-13.2,69.7-18.2c41.9-10,85.8-22.9,122.9-45.3c5.6-3.4-3.1-6.8-6.4-5.8c-32.4,10.2-63.7,23.2-96.4,32.3
	c-28.1,7.8-57.8,10.5-85.4,19.2c-13.7,4.3-29,12.1-32.4,27.5c-4.5,20.3,12.8,36.6,27.6,47.4c40.2,29.5,91,44.7,140.7,44.1
	c57.5-0.7,111.1-26.8,167.5-35.2C664.6,550.1,661.5,539.1,652.5,539.6z"/>
<path class="st6" d="M1071.4,610.4c-18.2-12-38.8-15.1-59.8-15.9c14.9-9.5,12.9-30,17.5-46.7c2.1-7.7-12.4-9.2-15-2.9
	c-4,9.6-2.7,26.9-8.6,34.6c-8.6,11.3-30.5,6.3-42.7,10.3c-1.5,0.5-3.1,1.1-4.6,1.6c-27.7-4.5-53.4-13.7-81.7-21.2
	c-74.1-19.5-152.5-11.7-227.1,0.2c-6,1-4.2,7.9,1.5,7.5c49-3.3,99-8.6,148.3-5.9c-0.8,1.3-1.5,2.6-1.9,4c-1.9,6.3-0.5,12.8,2.7,18.7
	c-2.4,2.2-4.4,4-5.3,4.6c-19.2,12.4-40.4,17.3-63.1,16.4c-5.3-0.2-5.2,5.6,0,5.9c26.2,1.6,52.1-4.2,74.3-18.6c0,0,0,0,0,0
	c5.3,5.9,11.9,10.6,17.9,12.9c17.8,7,32.3,0.7,45.1-11.5c6.8-6.5-1.3-17.6,20.1-11.8c4.8,1.3,9.6,7.6,13.8,10.6
	c7.6,5.5,15.1,10,24.7,10.9c11.4,1.1,20-3.8,30.1-8c0.8,0.1,1.7,0.2,2.5,0.3c34.6,2.9,68.4-3.3,100.4,13.9
	C1066.7,623.6,1079.9,616.1,1071.4,610.4z M825.2,603.4c-1.6-0.9-4.6-4.9-7.2-9.1c6.8-5.6,13.2-12.6,13.1-19.4
	c11.2,1.5,22.3,3.6,33.3,6.2C853.4,592,857,621.7,825.2,603.4z"/>
<path class="st7" d="M1174.5,698.2c-0.3-1.3-0.6-2.5-0.9-3.8c-2-17.3-5.7-34-11.5-50.6c-1.9-5.3-11.9-4.9-14-0.2l0,0
	c-1.1-4.1-7.2-4.9-11.3-3.2c-0.2-0.1-0.5-0.2-0.7-0.4c-0.4-4.9-1.9-9.5-5.1-12.8c-7.3-7.4-25.4-7.8-34.5-6.7
	c-15.3,1.9-27.5,9.7-35.5,21c-5-1.4-11.6,0.5-11.7,5.6c0,2.1,0,4.2,0,6.3c-3.7,1.5-7.1,3.7-9.8,5.9c-7.5,6.3-14.1,14.1-19.6,22.7
	c-5,4.4-7,9.4-8.4,15.6c-0.3,0.7-0.6,1.3-0.9,2c-1.5-5.5-13-7.1-14.5-1c-0.3,1.1-0.4,2.1-0.6,3.2c-3.2,0.5-6,2.1-6.4,5.2
	c-0.9,7.2-2.5,13.9-4.3,20.6c-3.2-4.1-13.4-4-14.5,1.2c-0.1,0.3-0.1,0.6-0.2,0.9c-0.1,0-0.3,0-0.4,0c-2.8-0.7-6.1-0.3-8.2,1
	c-24,3.9-48.9,16.2-60.6,34.8c-3.4,5.4-5.9,11.2-7.8,17.2c-3-4.7-12.6-5.8-15,0.2c-3.6,8.7-6.4,17.3-8.7,26.2
	c-0.7,0.5-1.2,1.2-1.4,2c-0.7,2.6-1.3,5.1-1.9,7.6c-1-2.8-2-5.6-3.2-8.4c-2.3-5.5-15.1-4.3-13.2,2.5c1.4,5,3.2,9.6,5.2,14.1
	c0.1,0.3,0.2,0.7,0.3,1c1.7,11.4,4.2,22.3,8.1,33.5c0.7,1.9,2.9,3,5.5,3.4c-0.3,1.4-0.5,2.9-0.7,4.5c-0.5,5.6,8,6.7,11.6,6.2
	c3.3-0.5,6.6-1.2,9.8-1.8c1.5,0.1,3-0.2,4.2-0.8c9.2-1.8,18.3-3.9,27.3-6.5c2.9-0.9,8.5-3.6,6.3-7.8c-1.3-2.4-2.6-4.4-3.9-6.3
	c1.2-0.2,2.3-0.5,3.1-1.1c0,0,0.1,0,0.1,0c-3.9,5.2,8.3,10.1,13.6,8.2c3.6-1.5,7.3-2.7,11-3.6c0.9,0.1,1.8,0.2,2.7,0.3
	c0,0.1,0,0.1,0.1,0.2c4.8,9.1,17.8,8.8,24.7,3c2.2-1.9,2.8-4.2,2.2-6.2c2.7,0.1,5.4-0.5,6.9-1.7c2.1-1.6,4.1-3.3,6-5.1
	c4.4-0.7,8.8-2.3,13.3-5c0.1,0,0.1-0.1,0.2-0.2c4.2,3,11.2,2.3,14.7-1.3c10.2-10.7,19.9-21.8,29.3-33.1c-3.1,5-6.3,10-9.4,15
	c-3.1,5,1.7,7.1,6.4,7.1c-3.5,4.8-7,9.5-10.7,14.2c-5.6,7.2,8.4,10.6,13.1,7.1c20.9-16.1,37.8-35.3,51.4-57.4
	c4.7,1.6,11.8,0.8,14.2-3.3c17.4-29.3,46-50.3,56.7-83.6c0.3-1,0.4-2,0.2-2.8c0.7-0.6,1.1-1.4,1.2-2.4
	C1174.5,700.2,1174.7,699.3,1174.5,698.2z M907.1,840.6c-0.4,0-0.7,0.1-1.1,0.1c0-1.2,0-2.4-0.1-3.5c0.1-6.2,0.3-12.4,0.4-18.6
	c2.6,7,4.4,14.3,5.7,21.9C910.4,840.5,908.7,840.6,907.1,840.6z M1042.2,683.8c-0.8-0.8-2.2-1.2-3.6-1.1c2.3-3.6,4.9-7,7.6-9.9
	C1045.1,676.4,1043.8,680.1,1042.2,683.8z M1094,746.6c2.1-2.8,4.4-5.5,6.5-8.3c1.6-2.1,1.7-3.9,0.9-5.4c1.7-1,2.9-2.5,2.8-4.6
	c0-0.2,0-0.4,0-0.7c0.9-1,1.3-2.2,1.1-3.7c4,0,7.9-1.5,8.5-4.5c4.1,0.5,8.6-1.1,9.7-4.3c0.1-0.1,0.2-0.1,0.3-0.1
	c0.4,1.2,0.8,2.5,1.2,3.7c-2.6,4.4-5.1,8.8-7.4,13.3c-13.8,11.5-23.4,25.7-28.8,43.3c-3.2,2-5.6,4.9-7.3,8.7
	c-1.4-0.2-2.8-0.2-4.2,0.1c-0.5-1.7-3-2.8-5.5-3c7.3-9.6,14.4-19.4,21.2-29.4C1094.4,749.7,1094.6,748,1094,746.6z"/>
<path class="st7" d="M1393.3,871.2c-2-2.8-4-5-6.1-7.1c3-1.1,4.8-3.3,3.3-6.9c-1.1-2.6-2.1-5.1-3.2-7.7c-1.3-5.4-2.7-10.8-4-16.2
	c2-0.6,3.5-2,2.8-4.5c-1.4-5.1-3.8-9.6-6.7-13.9c1.1-1.2,1.4-2.7,0.3-4.7c-2.4-4.1-5.1-7.6-8-10.6c-0.8-6.8-2.5-13.5-7.4-17.6
	c-3-2.5-6.8-3.8-10.9-4.4c-6.8-4.3-14.4-4.5-22.3-2.8c-2.8-1.3-6.4-1.9-9.3-1c-8.2,2.4-16.4,4.9-24.6,7.3c-1.4,0.4-2.3,1-3,1.6
	c-6.1,1.2-12.1,2.6-18.1,4.2c-3.3,0.9-5.3,2.8-6,4.8c-4.7,1.5-8.5,3.8-11.2,6.9c-6.6,2.2-10,7-11,13.2c-3.8-1.6-9.1-0.8-11.6,2.1
	c-2.4,2.7-4.2,6.2-5.5,9.9c-2.7,0.7-5,2.4-5.5,5.1c-3.2,17.6-1.1,28.5,8.4,39.6c0.1,4.1,1,8.1,2.9,13.3c1.9,5,10.1,5.3,13.8,2.6
	c3.3-2.4,5.8-5.5,7.8-8.9c0.8,3.5,1.7,7,2.6,10.6c1.3,5.5,14.9,4.8,14.2-1.3c-0.1-0.5-0.2-1-0.3-1.6c2.9-0.4,5.5-1.7,6.3-4.4
	c0,0,0-0.1,0-0.1c0.7,0.8,1.7,1.6,3.4,2.1c0.7,0.2,1.5,0.4,2.2,0.6l0,0c1.9,0.5,3.9,1,5.8,1.5c0.5,0.1,1,0.3,1.5,0.4
	c0.7,0.9,1.7,1.7,3.5,2.3c12.9,3.8,25.6,6.6,39,8.1c5.2,0.6,9.6-2.2,10.8-5.4c2.8-0.2,5.6-0.5,8.4-0.8c7.5,5,18.3,6,24.6-1.8
	c0.9-1.2,1.7-2.4,2.4-3.7c2.5-0.7,5-1.3,7.5-2.2C1393.8,878.8,1395.8,874.6,1393.3,871.2z"/>
<path class="st8" d="M1154.6,719.5c-10,6.4-19.5,13.3-28.8,20.5c-34.2,25-67.4,52.1-96,82.9c-1.3,0.8-2.7,1.6-4,2.3
	c3.7-4.9,7.6-9.6,12-14.2c5.9-6.2-7.1-9.7-11.3-7.9c-32.2,13.8-64.4,27.7-96.6,41.5c-5.4,2.3-4.7,5.7-1.8,8
	c-4.2,1.3-8.4,2.7-12.6,3.7c-3.1,0.8-6.4,1.3-9.7,1.6c1.1-0.6,2.2-1.3,3.2-1.9c1.8,0.8,4.4,0.7,5.5-0.8c1.1-1.6,2.4-3,3.5-4.5
	c14-8.3,27.6-16.9,40.2-28.3c9.1-8.3,23-18.3,21.9-31.4c3.2-1.6,6.4-3.3,9.5-5.1c4.1-2.4,8.2-5.2,12.2-8.2
	c-4.3,6.3,9.2,9.7,13.3,4.9c18.3-21,36.5-42.1,54.8-63.2c0.5-0.6,1.2-1.3,1.8-1.9c0.4-0.4,0.8-0.8,1.1-1.2c10.5-8.5,21-17,31.5-25.5
	c1.3,0.3,2.6,0.5,3.9,0.5c-10.1,7.9-19.1,16.8-27.3,27.3c-5.7,7.3,9,9.6,13.5,5.5c12.2-11.2,23.8-22.8,35-34.8
	c2.4-1.9,4.8-3.9,7.4-5.8c2-1.4,2.1-2.8,1.4-3.9c5-5.6,9.9-11.3,14.7-17.1c5.6-6.8-8-9.6-12.3-6.6l-14.5,9.9
	c-2.6-2.7-9.1-3.2-12.1-1.2c-6.6,4.5-12.9,9.3-19.1,14.2c0-0.1,0-0.3,0-0.4c-0.3-1.3-1.2-2.1-2.3-2.7c3.2-2.8,6.4-5.6,9.7-8.4
	c2.2-1.9,2.7-3.8,2.1-5.4c4.7-5.2,9.6-10.3,14.7-15.2c2.7-2.6,1.7-4.8-0.6-6.4c1.4-2.3,0.4-4.2-1.8-5.5c0.5-0.5,1-1,1.5-1.5
	c3.3-3.3,1-6.1-2.8-7.6c5.9-7.4-8.8-10.4-13.5-7.2c-1.6,1.1-3.2,2.2-4.8,3.3c-2.4-0.1-4.6,0.3-6,1.1c-1.5,0.9-2.8,2-4.2,2.9
	c-3.7-2-10-2.2-12.9,0.9c-1.6,1.8-3.2,3.4-4.8,5.1c0,0,0,0-0.1,0c0.3-0.3,0.6-0.6,0.9-1c2-2.5,1.2-4.3-0.7-5.4
	c5.3-5.1,10.8-10.1,16.1-15.2c3.6-3.4-3.9-5.8-7.6-4.1c-0.1,0-0.1-0.1-0.2-0.1c-0.3,0.2-0.5,0.5-0.8,0.7l0,0
	c-10.3,9.4-20.8,18.7-31.2,28.2c-11.8,9.2-22.7,19.3-33,30.3c-1.3,1.4-1.2,2.6-0.4,3.6c-1.4,1.1-2.7,2.2-4.1,3.3
	c-4.8,3.9-0.9,7.5,3.8,8.4c-2.9,2.9-5.7,5.8-8.7,8.7c-6.4,6,8.3,9.9,12.7,6.9c2.9-2,5.7-4.1,8.5-6.2c3.6,1.3,8.8,1.3,11,0
	c5-2.9,9.8-6,14.6-9.2c-1.6,5.2,10.8,8.1,15,5.1c3.1-2.2,6-4.5,9-6.7c1.4-1,2.9-2,4.3-3.1c1,0.8,2.4,1.4,3.9,1.8
	c-9.5,12.3-19.4,24.1-29.8,35.6c-14.2,5.5-24.7,16.5-34.8,27.9c-16.9,18.9-32.5,33.2-55.6,44.6c-34,16.8-55,35.8-74.8,66.7
	c-2-2.8-2.6-6.8-0.7-12.4c9.2-8.5,17.5-17.9,24.9-28.5c2.6-3.8,0.5-6.7-2.9-8.2c9.5-7.6,18.4-15.8,26.6-24.7
	c8.5-6.3,17.4-12.1,27-17.1c9.6-5-0.6-13.5-8.1-10.4c-2.4-3.5-10.9-4.1-14.4-2c-37.5,23-65.7,56.3-82.3,97.2
	c-1.7,4.1,1.5,6.3,5.3,7.1c0.7,4.3,3.1,8.3,8.2,11.6c32.9,21.1,87.2-9.7,116.9-23.3c5.9-2.7,4.5-6.8,0.8-9c6.3-2.7,12.7-5.4,19-8.2
	c-4.2,6-8.1,12.3-11.7,19c-4,7.4,10.5,7.5,13.8,5.6c10.3-5.8,20.4-11.8,30.6-17.6c-1.5,5.6,9.1,8.4,13.1,4.8
	c0.4-0.4,0.8-0.8,1.2-1.1l0,0l0,0c9.8-8.7,19.4-17.6,28.9-26.5c24.3-9.8,45.7-23.6,64.9-41.6c0.1,0,0.1-0.1,0.2-0.1c0,0,0,0,0,0
	c0.4-0.4,0.9-0.7,1.3-1.2c6.7-6.4-8.6-9.7-13-7c-2.2,1.4-4.5,2.7-6.7,4.1c7.8-8,15.5-16.2,23.2-24.4c1.5-1.6,1.7-3.1,1.1-4.3
	c3.6-2.5,7.1-5.1,10.8-7.6C1172.9,721.8,1160.2,715.9,1154.6,719.5z M935.8,829.6c10.1-11,21-21.1,32.7-30.5
	C962.8,810.8,945.3,822.8,935.8,829.6z M937,813.8c3.1-2.3,6.4-4.4,9.8-6.3c-11.8,11.3-22.6,23.4-32.6,36.4
	c-2.8,1.6-5.6,3.2-8.5,4.6C914.6,835.7,924.4,823.3,937,813.8z"/>
<path class="st8" d="M1404.7,808.9c-0.5-2.8-3.9-3.4-6.2-2.5c-4,1.6-7.3,4.4-10.3,7.8c-3.9-10.3-10.1-19.6-20.1-22.6
	c0-0.1-0.1-0.1-0.1-0.2c-0.7-1.1-1.4-2.2-2.1-3.3c1.9-3.2-1.4-6.1-5.3-7.1c-16.9-20.2-43.4-29.8-69.7-21.5
	c-26.1,8.2-44.7,30.7-56.9,55c-17.5,19.7-25.4,46.1-23.4,73.2c0.3,4.7,10.2,4.7,10,0c-0.2-6.7,0.2-13.5,1.4-20.2
	c1.1,1,3,1.5,4.7,1.4c3.1,6.4,8.2,11.5,15.7,14.1c-0.5,1-1.1,2-1.5,3c-2.6,6.2,7.9,8,11.7,6.3c9.5-4.4,18.5-9.3,27.3-14.7
	c1.9,0.3,3.8,0.5,5.7,0.6c5.6,12.7,28,16.5,39.2,17.7c4.4,0.5,13-1.2,11.3-7.5c8,2.5,16.6,2.6,22.9-0.1c-0.9,4.6-1.8,9-2.9,12.8
	c-2.2,8.3,11.7,9.6,15.8,4.7c17-20.6,25.4-46.5,21-73.1C1399.2,825.2,1406,816.3,1404.7,808.9z M1314.5,770.4
	c13.7,1.4,23.7,7.2,31.1,15.5c-3.3,1.6-6.6,3.4-9.8,4.9c0-0.8-0.5-1.6-1.8-2.4c-17.8-10.4-42.5-7.5-63.1,0.7
	C1282.2,776.9,1296.5,768.5,1314.5,770.4z M1251.7,817.6c1.1-2,2.2-4.1,3.4-6.1c13.5-10.2,26.7-13.7,40.8-14.9
	c-4.4,2.3-8.8,4.6-13,7.2c-1.2,0.2-2.3,0.4-2.9,0.8c-9.9,6.1-18.9,13-27.3,20.7c-1.6,0.1-3.1,0.4-4.1,1.2c-0.7,0.5-1.2,1-1.9,1.5
	C1248.3,824.3,1250,820.8,1251.7,817.6z M1350.9,871.1c-0.2,1.4-0.6,2.5-1.2,3.2c3-9-6.7-14.2-16.1-16.4c-1.8-1.8-4.5-3-6.9-2.9
	c-4,0.2-9.4-0.1-15.1-0.1c0.3-0.2,0.5-0.4,0.8-0.6c8.1-6.8-5.8-12.4-11.9-8.3c-5.6,3.8-11.3,7.7-16.9,11.5c-1.9-0.9-4.2-1.1-6.1-0.7
	c-1.9,0.4-3.7,0.9-5.5,1.4l-0.2-6c0.4-6-12.4-6.1-13,0c-0.3,3-0.1,5.5,0.3,7.9c0,1.3,0.1,2.5,0.1,3.8c-3.5,2.2-6.5,4.8-9.2,7.9
	c-7.1-4.8-9.7-11.8-9.6-19.4c1.7,0,3.4-0.2,4.4-1c4.9-3.5,8.3-7,10.8-11.4c1.6-1.6,3.3-3.1,5-4.7c0.9,0,1.7,0,2.3-0.2
	c11.7-3.9,20.1-10.4,26.7-20c1.7-1.1,3.5-2.2,5.3-3.2c1.8,2.7,6.6,4.5,10,3.7c16.9-3.8,33.8-9.3,48.7-18.2c4.1,8,6.8,17.3,8.2,27.1
	c-1.9,4.2-2.9,9.2-3.9,12.9c-2.3,8.2-5,17.7-4,26.2c0,0.4,0.6,0.4,0.8,0.1c2.9-5.7,4.5-12,7.1-17.9c0.5-1.1,1.1-2.2,1.6-3.4
	c0.2,7.7-0.1,15.5-0.8,23C1357.5,864.2,1351.5,866.2,1350.9,871.1z"/>
<path class="st9" d="M1881.3,1053c-6-0.8-12.5,2.2-15.4,7.6c-4.2,1.2-8.2,3.4-10.8,5.8c-3.6,3.3-4.4,9.7-1.8,13.8
	c11.2,17.4,41.2,8.5,41.2-12.3C1894.4,1060.3,1888.7,1054,1881.3,1053z"/>
<path class="st9" d="M275.5,1208.1c-4.9,0-14,2.1-14,8.5c0,6.4,9.2,8.5,14,8.5c4.9,0,14-2.1,14-8.5
	C289.5,1210.3,280.3,1208.1,275.5,1208.1z"/>
<path class="st9" d="M534.3,818.1c-4.1-0.3-8,0.4-12.1,1.2c-0.8,0.1-0.8,1,0,1.2c4.1,0.8,7.9,1.4,12.1,1.2
	C537.4,821.4,537.4,818.4,534.3,818.1z"/>
<path class="st9" d="M985.5,719.2c-11.3,13-20.9,29.1-39.6,32.2c-0.7,0.1-0.2,0.8,0.4,0.6c16.3-5.5,38.2-12.7,43.8-31.5
	C990.8,718.1,986.7,717.9,985.5,719.2z"/>
<path class="st9" d="M1098.9,611.6c-19.9,15.2-34.8,37.1-52.4,55c-17.1,17.4-36.3,31.7-47.8,53.7c-0.8,1.6,2.5,1.8,3.2,1
	c17.3-19.3,38.5-35.1,56.9-53.3c15.8-15.6,35.6-33.6,43.3-55C1102.7,611.2,1099.8,610.9,1098.9,611.6z"/>
<path class="st9" d="M1447.5,536.7c-3.7,0-9,2-9.1,6.4c-0.1,4.4,5.6,6.4,9.1,6.4c3.7,0,9.1-2,9.1-6.4
	C1456.7,538.7,1451,536.7,1447.5,536.7z"/>
<path class="st9" d="M810.6,627.3c-19.8,43.7-96.1,0.3-130.4,2.3c-41.2,2.4-76.6,44.7-119.6,27.6c-4.3-1.7-10.6,2.9-4.9,5.9
	c16.6,8.7,30.4,11,49,8.2c13.8-2.1,24.9-7.1,37.9-11.8c34-12.4,68.4-7.3,103,1.2c36.8,9,74,9.9,92.8-27.9
	C844.7,620.1,816.1,615.3,810.6,627.3z"/>
<path class="st9" d="M991,561.6c-35.1,20.4-69,32.7-109.7,17.9c-13.8-5-25.2-12.6-40.2-14.3c-39.8-4.4-62,37.2-104.9,17.2
	c-3.7-1.7-11.7,2.9-6.4,5.8c52.9,29.3,94.4-18,147.6,5.9c50.4,22.6,91.7,12.8,138.2-15.3C1033.8,567.8,1004.1,554,991,561.6z"/>
<path class="st9" d="M700.6,480.9c-6.8,3.4-13.2,8.4-21.2,7.7c-9.3-0.9-15.9-8.3-19.2-16.5c-1.9-4.7-12.5-3.6-11.1,2.1
	c0.9,3.5,2.4,6.8,4.3,9.7c-22.6-7.8-52.2-17.6-75.3-16.4c-4.4,0.2-8.9,0.9-12.8,3.1c-3.5,2-5.3,5.4-8.1,7.9
	c-9.4,8.1-29.1,61.5-49.8,4c-1.3-3.5-9.9-3.4-9.5,0.9c0.5,6,2.4,11.2,5.1,15.5c-13.3,4.4-24.3,7.9-39.1,3.7
	c-14.2-4-26-12.5-34.2-24.8c-0.9-1.3-4.7-0.6-3.8,1.1c8.2,14.7,21.1,24.9,37.4,29.4c13.3,3.7,32.6,4.6,45.2-3.1
	c9,7.8,22.4,10.3,35.8,6.3c16.9-5.1,22-22.9,36.4-28.7c7.2-2.9,28.9,4.3,36.2,5.3c12.9,1.7,25.2,3.4,38.2,3.7c1.3,0,2.6-0.6,3.5-1.4
	c4.8,4.4,10.9,7.4,17.6,8.6c11.1,1.9,28.4-1.5,32.4-13.6C710.2,481,703.5,479.5,700.6,480.9z"/>
<path class="st9" d="M840,466.1c-18.5,5-33.5-6-51.6-3.4c-19,2.7-35.1,20.5-55.2,12.1c-2.6-1.1-8.5,2.1-4.6,4.2
	c19.2,10.6,31.9,0.3,51.1-4c18.8-4.2,33.7,6.3,51.4,5.6c7.8-0.3,11.5-2.1,16.3-7.8C851,468.4,843.4,465.2,840,466.1z"/>
<path class="st9" d="M1091.9,492.5c-9.3-4-14.5-5.3-24.1-2.2c-5.6,1.9-12.2,10.5-17.5,11.6c-10.8,2.2-32.9-8.7-43.3-12.5
	c-15.2-5.6-31.9-14.6-48.4-15.3c-24.8-1.1-34.5,16.4-65.7,3.7c-3.1-1.3-10.5,2.3-5.7,5.2c36.6,21.9,70.5,3.6,108.6,19.8
	c16.5,7,34.6,19.6,52.9,20.3c16.4,0.6,24.9-12.5,40.3-15.7C1097.5,505.6,1100.9,496.4,1091.9,492.5z"/>
<path class="st9" d="M1281.3,498.8c-27.7,15-51.8,11.4-80.9,8.6c-4.1-0.4-8.3-1.3-12.4-0.9c-19.6,1.8-1.9,1.6-21.9,7.1
	c-28.2,7.8-43,4-64.8-18.1c-1.1-1.1-5.7-1-4.6,1.3c13.8,28.2,40.5,44.8,71.2,33.2c3.1-2.8,6.2-5.7,9.3-8.7c13.8-7.6,27.1-8.4,40-2.4
	c4.7,0.3,9.4,2.4,14.1,2.8c21.6,2.2,41.4-4,58.3-17.1C1295.7,499.9,1285.5,496.5,1281.3,498.8z"/>
<path class="st9" d="M1918.5,692.1C1880.8,575,1755.9,503,1654.4,448.4c-132.7-71.4-276.6-123.8-424.8-151.5
	c-22.1-31.6-50.4-39.9-91.8-44c-30.7-3.1-50.4-10.2-75.1-28.3c-18.1-13.3-36.4-25.4-59.7-25.9c-33.7-0.6-66,16-99.8,18.2
	c-34.1,2.2-67.9-1.8-101.8-4.5c-46.5-3.7-96.6-1.5-120.2,45.1c-0.2,0.3-0.2,0.6-0.3,0.9c-40.9,2.3-81.2,9-121.4,16.7
	c-23.6,4.5-49,7.3-72,14.2c-8,2.4-13.9,3.9-18.9,11.1c-7,10.2-6.3,20.7-1,30.8c-108.1,34.6-223,65.2-310.2,140.7
	c-74,64.1-128.2,166.5-104.5,266c25.7,108.1,132.6,168.4,227,209c127.5,54.8,263.4,86.7,400.1,108.8
	c263.8,42.7,539.1,66.1,803.1,12.9C1650.4,1035,1995.8,931.5,1918.5,692.1z M1255.7,461.8c14.8,5.1,31.4,9.7,46.4,2.8
	c7.4-3.4,13.1-9.6,20.4-13.2c13.1-6.5,28-5.5,42.2-4.8c1.8,0.1,3.3-0.3,4.6-0.9c19,9.2,29.4,24.3,24.3,41.2
	c-4.8,2.3-9.5,4.5-13.9,6.2c-26.7,10.5-54.1,18.9-82,25.7c-3,0.7-3.9,4-3.1,6.5c-1.1,0.2-2.1,0.5-3.2,0.7c-4.3,1-2.5,7.6,1.8,6.6
	c11.1-2.5,22.2-5.3,33.3-8c0.5,1.1,1.5,2.1,3.4,3c18.2,8.3,17.4,29.6,11,44.6c-4.9,11.4-14.8,17.6-26.4,21.2c-0.1,0-0.3,0.1-0.4,0.1
	c-1.2-14.1-8.2-26.7-20.2-35.8c-2.4-1.8-8,0.7-4.8,3.4c10.3,8.6,16.9,20.8,18.6,33.9c-0.7,0.1-1.3,0.3-2,0.5c-0.6-3-1.6-5.9-2.7-8.3
	c-4-8.5-11.1-14.9-20-17.9c-2.9-1-7.4-1.1-9.5,1.7c-1.9,2.6-0.4,5.6,2.5,6.6c6.7,2.3,11.5,7.3,14,13.9c1,2.5,1.4,4.9,1.5,7.5
	c-1.9,0.8-3.9,1.7-5.7,3c-23,15.3-8.4,58.2-48.7,42.2c-3.4-1.3-10.8,1.8-6.1,5.5c13.4,10.2,31.6,19.2,47.6,8.2
	c9-6.2,10.7-15.6,13.3-25.5c5-18.9,18.3-21.9,35.7-27.3c35.8-11.2,55.8-68.7,18.4-84.4c15-3,29.8-6.6,44.5-11.1
	c14-4.3,28.7-12.6,43-15.5c32.9-6.8,74.6,9.9,49.9,51.2c-0.9,1.6-1.9,3-2.8,4.5c-2.9-0.2-6.2,0.8-7.7,2.4
	c-10.9,12.2-14.7,24.7-30.3,32.4c-1.2,0.6-2.4,1.1-3.6,1.6c2.3-6.2-1.2-15.2-3.4-20.8c-3.6-8.9-8.8-17-15.8-23.6
	c-2.3-2.2-9.6-0.4-6.6,2.7c6.1,6.4,11,14,12.9,22.8c1.5,7-1.5,16.6,3,22.2c-5,1.5-9.9,3.1-14.5,5.9c-0.3-2.5-0.6-4.9-0.9-7.3
	c-0.7-6.4-1.6-12.8-2.9-19.1c-0.2-1-2.8-0.9-2.6,0.2c1,6.2,1.8,12.5,1.8,18.9c0,3.8-0.6,7.7-0.9,11.5c-18.8,18.4-39.7,73-71.2,42.6
	c-4.3-4.1-18-0.9-12.5,5.1c24.5,26.5,60.8,12.1,79.8-13.3c5.4-7.2,8.9-18.5,14.8-24.9c10.4-11.1,23.7-13.2,36.5-18
	c-2.6,6.5-4.5,13.6-5.5,21.9c-3.7,31.5,8.6,64-7.2,92.3c-5.5,2.9-10.9,5.7-16.5,8.4c0.6-4.8-0.3-10-0.9-15.1
	c-1.1-8.9-2.7-17.7-4.6-26.4c-0.8-3.7-9.4-3.1-9.3,0.9c0.3,9.1,0.2,18.2-0.6,27.3c-0.6,7.1-2.3,13.5,0.3,19.7
	c-2.4,0.9-4.7,1.8-7.1,2.6c1.4-16.2-6.5-35.2-14.4-46.9c-2.2-3.3-12.1-1.4-9.7,2.9c5.3,9.2,8.8,18.9,9.7,29.6
	c0.5,6.5-0.8,12.8-1.5,19.2c-10.5,2.6-21.2,4.5-32.2,5.5c-6.1,0-12,0.4-17,0.8c-0.1,0-0.2,0-0.3,0c-1.5,0-3,0.1-4.5,0.1
	c-0.9,0-1.6,0.3-2.2,0.7c-26.5,3.6-50,14.7-71.5,31c-3.7,2.8-3.9,7.4-2.1,10.6c-3.1-4-9-5.7-14.2-1.1c-24.6,21.8-35.5,54.5-21,78.5
	c-18.5,1.6-36.9,2.5-55.5,1.7c4.1-1.9,8.1-4.3,11.8-7.5c22-18.5,14.1-37.7,14.1-63c0.1-55.4,117.9-34.8,118.6-99.7
	c0-3.6-7.4-3.6-7.7,0c-1.6,24.2-19.8,34.9-41.9,41.8c0.6-6.7-3.5-14.6-6.3-20.2c-4-7.9-9.9-15.1-15.5-22c-0.2-0.2-0.7-0.1-0.5,0.2
	c5.8,7.6,8.3,15.8,9.7,25.2c0.9,6.4-0.8,14,1.7,19.9c-4.1,1.1-8.3,2-12.4,3c3.9-10.3-5.4-24.5-11.6-31.7c-1.5-1.8-6.7-0.6-4.8,2
	c3.9,5.5,5.2,10.6,5.1,17.3c-0.1,4.9-1.7,10.4-0.2,15.1c0,0.1,0.1,0.1,0.1,0.1c-17.3,4.2-33.1,9-42,18.6
	c-25.8,28,16.8,103-46.2,98.3c-21.9-3.5-40.2-9.4-63.2-2.3c-30.9,9.6-57.5,16.6-90.6,17.9c-14.2,0.6-72.8,7.3-92.7-7.7
	c5.4-1.7,10.5-3.7,15.1-5.2c29.8-9.9,56.5-17.8,87.8-22c3.1-0.4,6.2-0.8,9.4-1.3c-2.6,2.8-5.2,5.6-7.6,8.5c-3,3.7,3.9,5.8,6.4,4.5
	c9.6-4.7,18.8-10.6,27.5-17.3c18.5-3.6,36.1-8.9,52.1-18.2c-0.1,4.1,0.5,8.6,2,14c1.5,5.5,13.8,5.6,15.3,0c0.9-3.3,4.6-21,4.9-21.8
	c5.1-11.4,14.8-14.4,23.2-21.8c7.1-6.2,12.6-13.6,16-22.5c3.9-10.2,0.5-24.3,6.2-33.1c4-6.1,20-11.8,26-15.4
	c8.7-5.1,17.3-10.1,25.7-15.6c3.8-2.5-2.1-5.3-4.6-4.2c-0.8,0.4-1.7,0.7-2.6,1.1c7.3-6.9,13-15.1,7.8-24.5
	c-3.8-6.9-13.6-8.9-18.6-14.9c-9.9-11.8-8.3-26.2-1.3-38.1c0.3,0,0.5-0.1,0.8-0.1c0.7-1.5,1.5-3,2.2-4.4c0.7-1,1.4-2,2.2-2.9
	c3.1-3.6-1.8-5.7-5.7-5.6c-18.1-13.3-40.5-17.9-62.7-15.5c3.4-1.2,6.8-2.3,10.5-3.3c13.1-3.7,26.2-7.4,39.2-11.2
	c34.6-5.2,68.8-14.3,101.9-24.2c9.5-2.8,5.4-16.2-4-14.6c-1.8,0.3-3.5,0.6-5.3,1c-1.4-1.3-3.2-2-5.6-1.7c-34.4,5.4-69,11-103.3,17.9
	c-12.8,0.8-25.6,0.9-38.4,0.1c-47.5-2.9-93-18.3-140.1-23.7c-96.8-11.2-197.3-8.8-294.2-2.4c-45.1,3-89.6,7.9-134,16.6
	c-52.3,10.3-107.4,25.6-152.6-12.4c-3.3-2.8-7.1-6.1-11-9.7c6.7,0.4,13.6-0.1,20.5-2c2.7-0.7,1.1-3.1-1.1-2.8
	c-8.5,1.1-17.1,0.8-25.3-0.9c-10.5-10.3-20.8-22.4-24.9-33.3c-11.9-31.6,26.4-27.9,45.3-31.3c36.5-6.5,69.8-22.6,100-43.5
	c0.3,0.2,0.7,0.3,1,0.1c12.5-6.2,24.9-10.3,38-13.6c16.4,29.8,47.6,49.7,82.4,48.7c9-0.2,16.9-3.1,25.6-4.6
	c17.9-3.1,29.9,1.5,46.7,4c21.6,3.2,43.3-1.8,63.9-7.8c23.9-7,48.2-18.5,73.6-17.6c31.3,1.2,55.1,20.9,87.9,17.9
	c24.8-2.3,47.8-12.2,72.2-16.2c40.2-6.5,80.8,8.4,120.4,13.9c15.8,2.2,37.4,6.7,59.3,8.6c-20.5,10.7-36.4,8-60.2,5.1
	c-11.1-1.3-18.7-3.2-29.6,1.7c-6.9,3.1-11.4,8.7-18.7,11.2c-20.4,6.7-45.9-7.8-64.2-17.5c-2.5-1.4-7.9,1.5-4.5,4
	c16.9,12.3,36,24.6,56.5,29.6c16.3,4,20.3-1.3,34.3-6.6c33.7-12.6,75.2,19.2,99.3-21.5c1.4-2.4,0.3-4.2-1.8-5.4
	c20.7,0.9,40.7-1.3,55.1-10.6c26.8,1.1,53.5,2.2,80.1,6.6c0,0,0.1,0,0.1,0c0,0-0.1,0-0.1,0c-5.9,1.7-11.5,4.3-16.6,7.7
	c-14.2,9.5-21.6,13.3-39.3,11.2C1255.7,451.6,1246.9,458.7,1255.7,461.8z M1428.1,839.2c1.3-1.1,2.4-2,2.9-2.5
	c0.3-0.3,0.6-0.6,0.9-0.9c-2.8-5.7-4.5-11.9-4.5-18v-0.1c-0.5-1.1-1.2-2.1-1.7-3.3c-0.4,0.5-0.9,1-1.3,1.6
	c-2.8-14.3-8.1-25.4-14.5-38.3c-4.5-9-6.2-23.3-12.3-31.2c-1.9-2.4-4.2-4.4-6.8-6.1c0.3,0,0.6-0.1,1-0.2c2.6,1.3,6.4,1,8-1.2
	c0.1-0.1,0.2-0.3,0.2-0.4c6.6-1.4,13.2-2.9,19.7-5.1c6.4-2.1,12.6-4.7,18.6-7.3c0.8,0.7,1.7,1.1,2.6,1.4c3.8-3.8,8.1-7.2,13.1-9.9
	c11.3-6.5,23.5-9.8,36.5-9.9c0.1,0,0.1,0,0.2,0c4.6-0.9,9.3-1.4,13.9-1.6c10-0.4,19.3,1.7,27.9,6.2c6.1,2,11.6,5,16.6,8.9
	c17.8,9.5,33.9,22.8,47.5,36.5c28.8,28.9,33,55,22.6,92.9c-0.1,0.5-0.2,0.9-0.3,1.4c-34.3,5.7-65.7,24.3-101.3,22.7
	c-22.2-1-42.2-5.1-64.8-2.6c-11.7,1.3-22.8,2.9-34,3.9c1.5-2.4,2.3-5,2.6-7.7C1427.9,860.3,1428.9,849.8,1428.1,839.2z
	 M1370.7,865.9c0.6,0.7,1.4,1.1,2.1,1.5c-5.2,0.4-10.4-0.5-15.2-2.6c-0.5,0.2-1,0.3-1.6,0.5c-14.4,0.5-28.9-3-42.8-5.4
	c-12.9-2.2-25.6,0.8-38.2-0.9c-1.4-0.1-2.6-0.3-3.9-0.4c4.8-3.5,7.5-8.5,12.8-14c10-10.3,23.2-17.8,35.2-25.5
	c22.7-14.6,43.9-30.2,54.6-56c1.2-2.9-4.6-3.8-5.9-1.7c-17.4,28.2-35.3,46.5-67.1,57.6c-18.3,6.4-36.1,15.8-44.3,34.2
	c-0.1,0.2,0,0.5-0.1,0.7c-6.9-4.1-11.4-10.6-13.5-19.5c4.4-9.1,12.7-16.4,22-19.9c2.5-0.9,1.6-3.9-0.8-4.1c-8.2-1-15.9,1-22.3,4.9
	c0.1-1.3,0.1-2.5,0.2-3.9c5.3-7.9,11-15.4,17.2-22.5c3.2-3.8,3.1-8.1,1.3-11.4c2,2.6,5.4,3.7,9,1.2c14.3-10.2,29.3-18,46.6-22
	c5.5-1.3,17.7-3.5,29.8-4.2c-4.5,4.7-8.8,9.5-14.2,13.2c-11.3,7.9-23.1,6.5-35.9,8.5c-11.6,1.8-27.9,8.4-26.7,22.4
	c0.5,5.6,10.3,6.7,13.2,2.5c11.7-17.1,31.1-12.4,47.7-21.8c10.2-5.8,20.7-14.9,27.5-25c7.6,0.3,14.2,1.6,17.6,4.7
	c4.2,3.9,4.4,16.3,6,21.2c0.3,0.9,0.7,1.8,1,2.7c-0.1,0.1-0.3,0.1-0.4,0.1c-12,6.5-18.4,16.1-22.8,28.9
	c-4.9,14.3-7.7,31.4-21.3,40.1c-2.7,1.7,1.1,3.7,2.9,3.4c31.6-5.2,26.8-43.7,46.7-60.5c2.5,5.3,5.1,10.6,7.2,16.1
	c1,1,1.8,2.2,2.7,3.3c-11.8,8.7-20.1,24-25.2,36.7C1369.9,853.7,1366.5,861.5,1370.7,865.9z M501.4,852.7c1.2,1.4,2.6,2.6,4.1,3.8
	c-2.9,0.5-5.7,1-8.7,1.8c-0.2,0.1-0.5,0.1-0.7,0.2c-0.1,0-0.3-0.1-0.4-0.2c-0.9,0.4-1.8,0.6-2.8,0.9c-10.7-6.5-19.3-15.5-24-27.8
	c-0.3-0.7-2-0.5-1.7,0.3c4.3,11.3,11.3,21.7,20.6,29.1c-3.9,1.1-7.9,2-12,2.5c-14.3-7.2-21.9-22.4-28.9-36.7c-0.4-0.7-1.6-0.7-2,0
	c-7.7,15,0.2,29.6,12.4,39.1c-1,0.1-2.1,0.3-3.1,0.3c-3.2-0.1-6.5-0.3-9.7-0.8c1.8,0.8,3.5,1.7,5.3,2.5c-8.5-0.4-16.7-2.8-24.2-8.7
	c-1.6-1.2-2.9-2.7-4.1-4.4c0.6,0.3,1.2,0.6,1.8,0.9c-6-5.6-9.7-13.2-9.7-22.2v-1.6c0-0.4,0.1-0.7,0.1-1c-0.1-0.2-0.3-0.4-0.4-0.5
	c-3.3-3.5-5.5-7.3-6.9-11.1c-1-0.6-2.1-1.1-3.2-1.7c-1.3-1.6-2.7-2.9-4-4.2c7.5,2.2,15.4,2.9,22.7,2.1c10.6-1.2,21.2-4.8,30.4-10.1
	c18.8-10.7,28.8-17,53.3-11.8c19.2,4.1,31,12.5,51.2,8.4c7.8-1.6,3.3-9.5-3.2-8.1c-26.4,5.3-49.4-16.1-75.5-14.1
	c-8.3,0.6-15.3,3.4-22.8,6.8c-6.2,2.8-12.9,8.2-19.5,9.6c-13.3,2.9-52.2-14.6-53-30.5c0-0.8-0.4-1.5-1-2
	c4.6-7.9,11.6-15.4,17.9-22.9c8.4-9.9,13.7-19.4,12.8-30.5c20,2.7,42.1,2.1,60.1,4.9c28.9,25.7,67.4,44.6,106.4,35.6
	c7-1.6,13.4-4,19.5-6.7c20.8,29.4,69.2,20.2,99.6,30.1c28.9,9.5,67.7,38.1,92.5,3.3c4-5.6-5.4-8.1-9.3-6.5
	c-34.9,14.5-55.5-9.1-86-13.8c-25.2-3.9-72.2,7.2-93.2-14.9c25.8-12.5,46.3-31.5,80.2-31.9c18.6-0.2,35.9,1.6,53.2,0.9
	c-0.8,0.7-1.5,1.4-2.6,1.8c26.9,2.7,53.8,6.5,80.9,6.3c4,0,8-0.1,12-0.1c19.8,10.4,42.8,19.2,62.9,16.4c1.4-0.2,2.6-0.7,3.9-1
	c-11,9.1-20.8,19.7-28.5,31.7c-13.4,7.3-26.1,17.7-41.1,5.9c-1.8-1.4-7.2-1.1-7,2c0.8,14.1,19.3,18.7,30.8,18c1.7-0.1,3.3-0.4,5-0.7
	c-3.8,11.2-7.2,26.7-6.1,40.6c-18.8,0.3-34.9,9.1-55.6,13.4c-22.1,4.7-24.4-3.8-41-15.6c-6.1-4.4-10.2-8.6-19.1-8.6
	c-9.7,0-15.7,5.8-23.5,10.2c-9.7,5.4-3.5,5.9-17.6,7.2c-2,0.2-3.8,0.1-5.5,0c-4.1-4.9-9.7-8.6-14.3-13c-5.4-5.2-9.5-11-12.3-18.1
	c-0.7-1.7-4.6-1.7-4.6,0.4c-0.3,9.8,2.5,20.2,8.6,27.5c-4.4-0.2-8.7-0.4-12.8-0.1c-1.8-2.4-3.7-4.9-5.1-7.6
	c-2.6-4.9-4.3-10.1-5.4-15.5c-0.3-1.7-4.5-1.5-4.3,0.4c0.5,7.9,2.6,16.7,6.9,23.7c-3.7,0.6-7.4,1.5-11.2,2.8
	c-1.1,0.4-2.1,0.9-3.2,1.3c0.6-0.9,0.8-2-0.1-3.4c-7.3-11.5-13.4-22.7-15.6-36.3c-0.3-2.1-4.8-2.3-4.7,0c0.5,14.1,3.3,28.3,11.4,40
	c0.9,1.3,2.6,1.8,4.3,1.8c-13.3,6.3-24.1,15-40.9,15.8c-23.1,1.1-43.1-4.5-65.1-3.1c-10.1-6.4-19.3-15.7-23.3-25.9
	c-0.4-1-2.7-0.7-2.3,0.4C492.8,837.7,495.6,846.4,501.4,852.7z M1116.7,604.9c2.2-1.5,4.4-3,6.7-4.4c6.7,1.1,13.6,1.6,20.1,2.9
	c1.5,0.3,2.9,0.7,4.3,1c-1.3,3.2-2.6,6.3-4.7,9.2c-5.7,7.8-13.8,13.4-21.8,18.7c-12.4,8.2-24.2,16.1-28.6,31c-1,3.4,4.8,3.9,6.5,1.9
	c12.8-16.1,31.9-23.4,47.3-36.4c5.5-4.6,13-12.3,16-20.3c2.7,0.9,5.5,1.8,8.2,2.7c0.2,0.1,0.4,0.2,0.6,0.3c-4.8,7.1-7,15.4-6.1,23.8
	c-0.5-0.6-2-0.7-2.6-0.1c-15.5,15.6-31.6,30.9-42.2,50.4c-11,20.2-14.6,41-28.1,60.5c-20.8,29.9-50.2,51-75.6,75.9
	c-30.3,3.4-61.6,4.2-89.9,12.5c-4.3,1.3-10.3,3.6-16.9,5.8c8.2-18.9,20.4-36.7,37.1-49c16.6-12.2,36.8-15,54-25.6
	c30.2-18.6,60-55.6,79.8-84.4c1.8-2.6-2.9-3.9-4.6-2.5c-18.2,15.1-33.3,32.9-49.3,50.3c-12.2,13.3-24.4,26.4-40.4,35.5
	c-10.2,5.8-22.3,8-32.8,13.4c-26.4,13.7-42.5,35.6-48.9,63.9c-5.7,1.6-11.7,2.9-17.2,2.9c-1.7-6-9.2-8.8-14.6-6.9
	c6-13,13.1-25.6,22.2-36.8c10.2-12.6,22.5-23.3,33.5-35.1c1.6-1.7-2-2.9-3.2-2.3c-27.5,14.7-46.4,44.1-55.1,74
	c-0.4-0.3-0.7-0.7-1.2-0.9c-1.4-1.9-2.6-4-3.5-6.7c-3.4-10.6,5.7-31.6,10.1-40c2-3.8,4.3-7.3,6.7-10.7c5.3-2.6,10.5-5.8,11.8-11
	c0.3-1.2,0.1-2.2-0.3-3.2c7.3-7.5,15.5-13.9,24.3-19.8c2.6,0.1,5.2,0.3,7.8,0.4c6.7,0.3,11.3-6,11.5-12c1.8-1,3.6-2,5.4-3
	c4.2-2.2,5.7-6.4,5.2-10.5c15.2-9.5,32-15.6,49.2-24.6c23.7-12.6,39.6-30.4,54.4-52.5c13.5-20.1,25.5-34.3,41.6-44.9
	c1,1.2,2.6,2,4.7,1.5c4.7-1.1,9.3-1.7,13.8-2.1c3.2,1.2,6.6,2,10,2.6c-2,1.4-4.1,2.7-6.1,4.1
	C1115.2,604.7,1116.2,605.2,1116.7,604.9z M1187.9,666.1c10.7,12.6-11.1,20-13.6,31.9c-0.2,0.8-0.1,1.4,0,2
	c-11.4,4.9-22.7,10.2-31.9,16.9c-12.7,9.3-5.3,19.9-10.7,34.2c-9.8,26.3-40.5,29.2-45.5,52.2c-12.6,6.9-26.2,11.3-40.4,14.3
	c18.8-16.6,35.5-36.3,50.1-54.9c30.1-38.4,41-86,69.4-126.3c0.1-0.1,0-0.2,0-0.3c0.6,4.8,2.2,9.6,5.1,14.2
	C1174.9,657.8,1182.8,660.1,1187.9,666.1z M1082.4,577.1c-51.2,51.4-76.9,118.3-150.9,141.6c-3.7,1.1-6.6-0.1-8.4-2.3c-2,0-4,0-6,0
	c-9,2.4-17.8,3.5-26.4,3.8c-14.1,5.1-28.5,3.8-42.4-0.4c-25.7,0.3-50.6-10.6-75.7-19.3c-10.7,1.1-21.4,2.7-31.9,5.2
	c-6.3,1.5-10.4-3.5-10.8-8.5c-31.3,0.9-63.1-3.7-92.6,8.1c-22.4,9-35.1,20.9-60.2,26.8c-40.5,9.6-66.3-8.6-98.2-27.5
	c-0.8-1.2-1.3-2.4-1.5-3.7c-2.2-0.4-4.5-0.7-6.7-1c-0.9-0.5-1.8-1.1-2.8-1.6c-1.4-0.8-4.8-0.7-7,0.2c-11.1-1.4-22.2-2.3-33.3-2.1
	c-22.2,0.3-45.1-0.6-54.1-25.9c-3.6-10-3.2-20.7-0.5-30.7c25.1,24.3,57.8,21.5,89.3,4.6c34.4-18.5,68.7-25,107.3-18.7
	c11.6,1.9,23.9,4.3,35.6,3c21-2.3,39.1-12.2,39.1-34.6c0-9.7-16.5-8.4-19.9-1.9c-22.2,41.5-90.7,7.8-127.6,15.7
	c-42.2,9.1-76.7,64.2-119.1,19.4c13.7-28.6,43.2-40.9,69-56.1c37.9,5.2,77.5-6.2,114.6-12.9c123-22.4,253.7-22.8,378.1-12.7
	c42.7,3.4,83.9,16.9,125.9,24.1c1.8-1.9,3.4-3.6,4.9-5C1078.2,556.9,1090.4,569.1,1082.4,577.1z M368.8,621.3
	c-4.4-0.2-9.1,2.4-6.2,6.5c0.6,0.8,1.2,1.5,1.7,2.2c-3.9,9.2-5.9,19.4-5.2,30.6c2.2,32.6,22.3,44,47,48.5
	c-4.8,30.1-42.6,39.4-48.2,69.4c-0.4,2.3-0.5,4.4-0.5,6.5c-17.5-15.4-32.6-33.4-43.9-54.7c-36.5-69-7.7-167.1,79.9-172.7
	c2.9-0.2,4.5-2.3,4.8-4.5c7.1,4.6,14.5,8.6,22.1,11.5c6.3,2.4,12.7,4.2,19.2,5.4C412.7,580.2,383.6,596.8,368.8,621.3z M616.3,874.1
	c8.2-3.2,15.7-8.8,24.4-10.9c17-4.1,25.3,2.5,40.8,5.3c9.7,1.7,17.3,1.9,26.3-2.4c4.1-2,6.9-6.1,10.9-8.1c22.5-10.8,8.7-3.1,18.2,2
	c9.2,4.9,14.1,11.3,25.3,13.5c33.4,6.5,63.5-22.4,96.1-12c2.2,0.7,4.2,0.8,6,0.6c1.2,0.5,2.5,1,3.8,1.3
	c12.1,45.6,102.6,36.4,137.7,32.8c17.6-1.8,35.1-4.7,52-9.6c27.8-8,40.6-14.5,71.9-11.5c38.1,3.6,73.6,0.3,111.3-4.9
	c3.5,2.2,7.2,4.2,11.5,6c11.7,4.7,22.3,3.8,34.6,4c4.5,0.1,8.8,0.4,13.1,1c-71.9,19.9-143.9,36.5-219.7,44.5
	c-109.6,11.4-221,9.7-330.1-5.7c-67.9-9.6-136.4-23.8-202.7-44C571.1,878.3,591.4,883.9,616.3,874.1z M1385.2,847.1
	c2.8-4.8,6-9.4,9.5-13.8c2.5-3,5.4-5.8,8.2-8.7c0.7,2.7,1.1,5.5,1.1,8.4c-0.3,13.1-7.9,23.6-18.7,30.4c-1.1,0.7-2.3,1.1-3.5,1.6
	c0.3-1.9-3.2-3.5-5.2-2.5C1380.4,860.5,1383.1,850.8,1385.2,847.1z M491.6,303.7c4.2-4,29.9-6.9,35.7-8.2
	c52.3-12.1,104.2-27.2,158.4-24.3c7.6,0.4,8.4-10.8,2.3-12.8c36.9-55,119.6-26,173.3-20.7c24.9,2.5,49.8,2.9,74.5-1.5
	c35.2-6.2,64.6-22.8,99-2.6c9.4,5.5,17.7,12.4,26.2,18.9c-29.9,3.4-59.6,4.4-89.6,6.8c-27.3,2.2-89.1,27.2-108.1,6.9
	c-2.9-3.1-12.6-1-8.9,3.6c16.6,20.7,38.4,21.4,63.1,15.7c34.8-8,63.7-14.7,99.5-14.8c21.7,0,40.6-0.3,60.9-7.1
	c2.7,1.5,5.4,2.9,8.3,4c19.8,8.1,40.7,8.3,61.6,10.3c26.2,2.5,43.7,9.9,57.2,24.9c-6.2,9-4.9,22.9,8.9,25.8c2.9,0.6,5.8,1.3,8.6,1.9
	c0.3,0.6,0.6,1.1,0.9,1.7c2.7,6,5.7,13,8.2,20.3c-17.4-3-35.5-2.5-52.5,2.2c-31.3,8.6-52.3,35.1-86.7,13.3c-6.3-4-21,1.9-12.3,8.6
	c16.4,12.7,35.7,18.7,56.6,15.7c11.5-1.6,21.5-6.9,32-11.6c23.4-10.3,43.1-7.9,67.3-9.8c1.3,10.8-0.2,21.3-7.5,29.2
	c-6.7-0.7-13.5-1.3-20.3-1.7c-9.2-0.5-13.4,6.9-12.7,14c-8.5,0.1-17.2-0.7-24.7-1.1c-58.4-2.7-118.5-25-176.9-20.4
	c-25.9,2.1-50.7,11.8-76.6,13.4c-29.9,1.9-52.5-15.6-81.5-17.6c-47.7-3.3-87.9,30.5-134.8,30.4c-12.8,0-25.5-5.4-38.4-4.6
	c-11.8,0.7-22.3,6.9-33.8,8.9c-30,5.2-57.4-8.4-73.9-32.3c7.6,2.4,14.2,3.9,18.8,4.2c6.2,0.4,6.7-8.4,1.4-10.3
	c-22.5-7.9-41.4-19.5-59.8-33.4c19.2,1.3,40.1-5.4,57.3-15.2c32.3-5.3,52.8,25.3,81.4,31.4c13.7,2.9,28,1.6,41.2-2.6
	c13.2-4.2,25.8-11.9,35.9-21.4c26.4-24.9,35.6-37.4,81.9-39.5c3.3-0.1,5.1-4.4,0.9-4.9c-18.5-2-48-8.3-65.3,1.2
	c-11,6-15.2,16.6-23.2,26.1c-29.3,34.8-53.8,31.1-101.3,15.7c-11.1-3.6-15.6-10.3-28.2-12.4c-4.9-0.8-8.8-1-12.3-0.7
	c0.7-0.5,1.4-0.9,2-1.4c3.9-2.9-2.2-5.3-4.8-4.4c-26.1,9.2-57.5,25.8-83.1,13.8c8.1-3.1,4.8-16.1-3.8-13.3c-2.4,0.8-4.9,1.6-7.3,2.4
	C483.2,318.8,483,311.8,491.6,303.7z M1817.3,892.9c-80.9,70.1-192.5,104.8-294.6,129.9c-229.4,56.4-469.8,46.7-702.5,18.9
	c-117.7-14.1-235.4-32.2-350.1-62.8c-107-28.6-226.2-64.8-313.8-135.5c-113.5-91.6-98-235.9-3.3-335.6
	c84.8-89.2,210.3-123.5,323.6-164.3c13.4,14.6,34.9,27.7,55,36.8c-6.4,2.8-12.5,6.2-18.3,10.2c-0.5-1.8-2.3-3.2-4.5-1.9
	c-25.8,14.6-52.7,25.2-81.5,32.1c-23.3,5.5-47.9,5.2-70.8,11.5c-27.8,7.7-37.3,26.9-22.5,51.7c1.9,3.2,4,6.5,6.1,9.7
	c-0.2,0.4-0.1,0.8,0.4,1.4c0.5,0.6,1.1,1,1.6,1.6c12.9,18.8,29.2,37.2,47.9,51c-93.3,5-130.2,107.3-95.9,185.8
	c20.2,46.2,56.3,80,99.2,106c0,0.1,0.1,0.2,0.2,0.3c8.4,20.6,14.2,39.2,37.3,47.2c19.9,6.9,39,1.7,58-3.8
	c36.5,12.9,73.5,23,107.1,32.1c247,66.9,539.2,71.5,783-19.6c0.9,0.5,1.8,1,2.8,1.5c3.5,1.5,6.5-1.8,5.5-4.6
	c1.6-0.6,3.3-1.2,4.9-1.9c37.9,5.1,77-2.5,115.2,1.3c46.7,4.7,86.5-22.1,132.2-19.4c11,0.6,13.4-13,7.2-19
	c42.7-49.5-31.5-122.4-73.6-144c-18.2-9.3-38.4-16.7-58.9-19.1c0-0.4,0.1-0.8,0.2-1.2c0.8-9.2-12.7-10-15.3-2.1
	c-0.3,0.9-0.6,1.7-0.9,2.5c-7.8,0.1-15.6,1-23.3,3c-3.3,0.8-6.5,1.9-9.7,3.1c6.1-21.4,3.2-45.1,4.4-68.9
	c1.1-20.8,5.4-40.2,17.2-57.8c5.4-8.1,14.9-14.4,19.6-22.6c6.6-11.6,7.1-19,2.4-32.3c-9-25.7-33-51-61.8-47.5
	c-15,1.8-30.8,9.5-45.8,16.9c6.2-15.6,5.7-33.1-8.6-44.9c-18.7-15.3-54.7-17.4-77.4-22.3c-19.6-4.2-39.1-8.4-58.9-11.7
	c8.9-20.5,3.3-45.3-5.7-67.4c104.2,23.7,205.8,55.6,303.2,100.3c97.6,44.8,205.2,98.2,278.1,179.3
	C1911.8,705.2,1907.9,814.5,1817.3,892.9z"/>
</svg>
