<?xml version="1.0" encoding="utf-8"?>
<!-- Generator: Adobe Illustrator 23.1.1, SVG Export Plug-In . SVG Version: 6.00 Build 0)  -->
<svg version="1.1" id="Capa_1" xmlns="http://www.w3.org/2000/svg" xmlns:xlink="http://www.w3.org/1999/xlink" x="0px" y="0px"
	 viewBox="0 0 1946 1364" style="enable-background:new 0 0 1946 1364;" xml:space="preserve">
<style type="text/css">
	.st0{fill:#D2B163;}
	.st1{fill:#EBC56C;}
	.st2{fill:#F3D98A;}
	.st3{fill:#FEFDEE;}
	.st4{fill:#FAF9D6;}
	.st5{fill:#F4F4D1;}
	.st6{opacity:0.16;fill:#FFFFFF;}
	.st7{fill:#FFFFFF;}
	.st8{opacity:0.16;fill:#070308;}
	.st9{fill:#070308;}
</style>
<g>
	<path class="st0" d="M1157.1,1230c-2.1-3.2-3.1-7.3-2-12.2l14.3-62.9c0.4-1.7,1-3.1,1.7-4.4c34.4-131.9,88.3-257.8,121.4-390.1
		c20.1-80.4,35-164.9,61.4-244.6c3.1-36.3,5-72.8,5.6-109.5c0.6-33.9-50.4-36.7-58.1-5.2c-37.5,152.3-77.6,304.6-124.4,454.3
		c-22.5,71.9-49.2,142-76.8,212c-11.1,28-23.4,58-33.4,89c-25.5-8-52.6-12.6-76.2-17.9c-62.9-14.2-131.3-38.1-196.4-35.4
		c-12.6,0.5-25.7,2.6-38.7,6c-3.3-28-7.2-55.8-12.5-83.3c-15.5-80.7-37-159.4-58.3-238.6c-40.8-151.8-81.7-312.6-66.9-471
		c2.6-28.4-36.3-39.2-44.4-10.1c-44.7,162.2-21.5,325.3,15.8,486.4c18.5,79.8,39.9,158.8,59.5,238.3c5.6,22.9,11.4,45.5,16.8,68
		c-9.6,35.9-17,73.1-17.8,109.5c-1.2,6.2-2,12.7-2,19.4c-0.3,26.4,7.6,46.1,20.6,60.9c2.6,4.6,5.5,8.9,8.5,13.2
		c25.9,2.4,50,11.9,73.9,23.7c10.4,5.1,20.6,10,30.8,14.7c111.5,25.2,249.7,43.1,348.9-7.8c0.5-0.5,1-1.1,1.5-1.6
		c8.7-6.2,15.3-15.2,17.7-26.7c9.7-19.8,13.4-41.8,8.4-64.3C1156.2,1236.6,1156.7,1233.3,1157.1,1230z"/>
	<path class="st1" d="M846.5,1185.2c-0.9-12.2-4.2-21.8-8.3-32.9c-1.2-3.3-6.1-21.1-5.5-17.5c-2.7-16.2-1.9-33.2-2.2-49.6
		c-0.7-35.7-4-71.3-9.6-106.6C808.9,902.2,785.8,828,762,754.6c-45-139-108.7-276.6-104.1-425.6c0.9-30.4-48.9-35.1-53.7-4.8
		c-25,157.2,7.2,313.4,48.4,464.9c19.8,72.5,37.9,144.7,47.8,217.9c5.1,37.4,5.5,74.6,7.3,112.2c2.5,51.6,17.2,105,71.1,122.5
		C812.9,1252.6,849,1218.6,846.5,1185.2z"/>
	<path class="st1" d="M1247.5,396.7c-62.8,123.2-110.4,253.8-159.1,383c-25.2,66.7-48.8,133.9-71.7,201.4
		c-11,32.5-22.4,64.9-32,97.9c-10.9,37.2-28.6,76.6-17.2,115.4c9.5,32.2,54.8,52.9,83.5,30.7c34.7-26.8,43.5-68,58.1-107.7
		c11.4-30.7,21.7-61.8,32.1-92.9c22.3-66.6,45-133.1,66.6-200c42.5-131.6,89.9-262.1,124.1-396.1
		C1344.6,378.7,1270.9,350.8,1247.5,396.7z"/>
	<path class="st2" d="M1254.3,451.2c5.4-33.7-43.8-57.2-59.6-22.3c-2.9,6.3-5.6,12.7-8.3,19.1c-14.7-2.5-30,1.5-40.1,14.8
		c-10.3,13.7-17.4,29-23.2,45c-16.4-29.1-69.9-39.2-85.3-1.4c-8,19.6-16.1,39.1-24.2,58.7c-3.4,2-6.6,4.4-9.7,7.1
		c4.1-17.6,8.1-35.2,12.1-52.8c13.2-58.4-74.8-78-90.4-20.6c-0.7,2.7-1.4,5.3-2.2,8c-19.1-8-44.3-1.3-52.2,25.5
		c-0.8,2.6-1.6,5.3-2.4,7.9c-9.3-4-20.1-5.1-30.1-3.3c-0.5-2.1-0.9-4.2-1.4-6.3c-3.4-14.7-14.9-22.4-27.8-24.4
		c-1.4-6.7-2.8-13.4-4.3-20.2c-7.3-35-52-25.7-61.1,2.5c-10.6-42-21.5-84-32.4-126c-11.3-43.2-72.3-21.4-64.7,20.4
		c26.3,142.9,46.6,287,67.5,430.7c10.5,72,20,144.2,29.9,216.2c4.7,34.5,9.3,69.1,13.7,103.6c2.2,17.7,3.5,36.1,5.7,54.3
		c-5.2,21.3,0.7,42.6,14,59.3c1,2.5,2.1,4.9,3.3,7.3c8.9,18,25.9,25.7,43.5,25.4c53.6,24.5,118,27.5,172.9,7.4
		c29.1-10.7,48.6-38.7,46.2-68.9c43.8-123.4,76.5-251.5,112.9-377.2c18.2-62.8,34-126.4,50.9-189.5
		C1225.4,585.4,1243.5,518.9,1254.3,451.2z"/>
	<path class="st3" d="M1351.6,522.7c11.8-36.6,25.8-72.3,43.8-106.1c-2.5-25.9-10.7-50.4-27.5-73.4c-25.8-35.5-60.4-57.6-100.9-72.7
		c-65.1-24.3-133.4-41.1-201.5-54.1c-46.6-8.9-96.9-19.4-145.8-20c-62.6-16.2-130.2-21.5-194.2-14.5c-64.9,7-137.2,27.9-179.1,81.8
		c-48.3,62.1-49.7,153.5,7,202.6c23.6,54.7,80.2,99.2,140.7,117.1c10.9,6.1,22.4,11.2,34,15.3c0.6,0.4,1.1,0.8,1.6,1.2
		c71.9,47.4,151.1,49,228.2,29.8c9.5,1.3,19,2.4,28.5,3.4c80.3,48,203.1,37,269.9-30.5c17.2-13.2,32.7-28.8,45.9-45.9
		c5.6-7.2,11.4-14.7,17.1-22.4C1330.6,531.9,1341.6,528.1,1351.6,522.7z"/>
	<path class="st4" d="M1175.9,447.6c2.9-2.2,5.7-4.5,8.4-6.8c6.3-4.8,12.1-10.1,17.4-15.8c23.3-15.9,40.6-39.4,46.4-70.9
		c11.7-62.9-29.2-106-85-130.4c-10.7-9.7-24-17.2-39.4-21.8c-93.3-27.9-190.4-42.3-287.8-44.5c-50.2-1.2-103.7-2.3-149.2,21.9
		c-58.3,31-90.3,112.1-49.9,169.6c17.3,24.6,43.5,39.4,71.9,42.4c0.7,0.6,1.4,1.3,2.1,1.9c28.4,29.1,68.7,38.8,109.3,35.6
		c1.3,0.1,2.6,0.3,3.9,0.4c6.7,0.6,13.3,1.2,20,1.7c-2.3,10.6-1.6,21.6,2.8,31.1c-1,0.6-2,1.2-3,1.9c-8.6-2.1-17.8-1-25.7,3.7
		c-4.5-11.7-20.8-12-25.4,1.3c-12.1,34.6-12.9,71.1-18.5,107c-2.9,18.5,10.2,33.1,25.3,36.7c1.4,3.6,3.1,7,5.2,10.3
		c0.7,1.1,1.4,2.2,2.2,3.2c8.5,13.5,23.9,23.9,40.5,26.7c2.3,0.4,4.6,0.6,6.9,0.7c43.1,13,86.6,7.3,129.1-6.7
		c14.1,12.7,31.9,21.3,50.2,24.8c52.1,10,102.6-20,125.6-66.2c21.8-43.7,16.5-93.1,18.9-140.2
		C1178.3,459.1,1177.5,453.2,1175.9,447.6z"/>
	<path class="st5" d="M1360.1,351.7c-15.2-19.9-38.8-31.4-63.9-23.5c-14.2,4.5-27.3,16-34.2,30.1c-7.7-5-17.7-6.2-25.6-0.4
		c-7,5.2-13.6,11-20,17.4c-42.1,6.3-83.5,18.5-126.1,23.2c-46.2,5.1-93,7-139.5,5.7c-47.8-1.4-95.3-7-142.1-16.3
		c-22.8-4.6-45.5-10-67.8-16.4c-18.9-5.4-40.9-17.2-60.9-16.1c-6.8,0.4-12.5,1.8-17.3,4c-10.7-10.5-17.6-23.4-13.5-39.8
		c6.8-27.4-12.2-56.3-39.3-62.4c-30-6.8-53.2,12.6-62.4,39.3c-29.5,84.9,53.1,148.3,121.3,175.5c27.9,11.1,61.9,22.7,78.6,49.7
		c8.7,14.1,9.2,29.8,8.9,45.8c-0.2,8.1-1.3,16.3-1.3,24.4c0,4.9,2.4,12.4,1.8,16.1c-2.1,14.4,15.1,20.2,23.2,8.7
		c2.7-3.9,8.7-6.5,12.1-10.9c4.5-5.8,8.2-13.3,11.2-19.9c7.1-15.9,10.8-33.9,11.6-51.3c0.2-5.7,0-11.2-0.5-16.7
		c17.1,5.2,34.4,9.9,51.8,13.8c68.5,15.5,140,22.2,210.1,21.1c14.2-0.2,28.4-0.7,42.6-1.5c-9.9,30.4-16.6,62-15.8,92.6
		c1.4,55.2,85.3,63,96.8,8.7c8.2-38.5,10.1-77.4,18.1-115.9c16.5-4.3,32.6-9.8,48.3-16.8C1325.6,493.8,1415.4,424.3,1360.1,351.7z"
		/>
	<path class="st6" d="M1157.3,1178.4c0.4-37.2,0.6-74.3,1-111.5c0.7-74.4,3.9-148.6,9.4-222.8c0.7-9.2,1.3-18.4,2.1-27.6
		c0.2-2.5,0.3-4.4,0.4-5.9c0.2-1.5,0.4-3.5,0.7-6.2c2.1-18.4,4.1-36.7,6.6-55.1c5-36.4,11.6-72.4,19.1-108.3
		c16-76.9,35.2-153.7,65.8-225.9c16.7-39.3,35.2-78.9,32.8-122.8c-1-18.6-6.8-40.4-18.5-55.1c-9.5-11.9-31.6-24.6-46.5-12.4
		c-13.9,11.3-15.1,21.7-21.3,37.4c-5.1,12.9-12.9,25.5-20.6,36.8c-21.4,31.3-44.7,61.3-64.8,93.5c-40.6,64.9-71.6,137.3-94.3,210.3
		c-45.6,146.6-59.2,301.6-66.7,454.2c-1.8,37.2-3.2,74.4-3.6,111.7c-0.2,15.4-1.2,31-0.5,46.3c2.3,47.9,30.5,91.2,79.1,102.2
		c41.8,9.5,87.1-13.5,107.1-50.8C1158.9,1239.6,1157,1207.9,1157.3,1178.4z"/>
	<path class="st6" d="M872.2,1291.1c15.4-94.5,10.3-196.1,3.5-291.2c-6.8-94.7-20.8-188.4-41.8-281
		c-20.2-89.2-48.6-174.9-77.6-261.4c-25.7-76.6-51.6-173.2-7.3-247.7c26.8-45.1-42.5-80.1-70.7-38c-111,165.5-17.7,364.8,9.4,541.3
		c14,91.2,22.5,183.9,25.9,276.2c1.7,47.9,1.5,95.8,0.3,143.7c-1.1,47.8-7.2,95.7-7.2,143.4C706.7,1369.7,856.9,1385.1,872.2,1291.1
		z"/>
	<path class="st7" d="M1304.6,291.9c-41.1-19.8-82.9-43.2-125.9-62.6c-5.4-22.6-22.1-43-46.4-46.8c-83-13.1-166.9-19.7-250.3-29.7
		c-71.9-8.6-144.8-17.1-202.2,33.9c-44.7,12.8-85.1,40.1-107.7,80.2c-29.1,51.6-5.4,107.1,49.5,125.1c19.9,6.5,40.7,10.5,61.8,12.1
		c2.8,31.8,26.6,52,56.4,61.5c41.5,13.3,91.1,3.6,124.1-25.3c17.5,19.6,43.6,31.2,70.2,32.4c1.6,0.1,3.2,0.1,4.9,0.1
		c32.5,10.8,69.6,10.8,102.9,8.9c17.9-1,35.8-3.1,53.6-6.1c16.2,3,32.7,4.2,49.2,3.7c20.8,17.8,47.8,26.7,79.5,18.6
		c35.6-9.1,60-37.8,64.6-70.2c12-9.4,23.1-20,33-31.8C1348,364.5,1345,311.4,1304.6,291.9z M686.9,290.8c3,2.2,6.2,4.2,9.5,5.9
		c-5-0.3-9.9-0.8-14.8-1.6C683.3,293.7,685,292.2,686.9,290.8z"/>
	<path class="st7" d="M1155,903.9c-9.1-10.7-31.8-8.9-34.2,7.3c-0.5,3.4,0.7,7.5,4.1,9c10.5,4.6,26.4,5.5,34.9-3.8
		C1163.5,912.3,1161,903.8,1155,903.9z"/>
	<path class="st7" d="M1180.3,808.7c-0.5-6.8-5.1-15.5-12.5-16.4c-3.7-0.5-7.9,0.7-9.7,4.4c-0.5,1-0.8,2.1-0.9,3.1
		c-4.8,3.3-7,9.2-4.6,15c2.6,6.4,8.8,11.2,16,9.9C1176.1,823.4,1180.8,816,1180.3,808.7z"/>
	<path class="st7" d="M1055.7,814.7c-1-3.6-4.8-6.1-8.4-5.9c-2.7,0.1-5.9,2-7.2,4.6c0.5-5.5-6.3-10.2-11.2-5.2
		c-7.1,7.2-4.6,20.4,4.6,24.6C1044.4,837.8,1059.2,826.9,1055.7,814.7z"/>
	<path class="st7" d="M1044.8,935.7c-0.5-5.9-5.3-9.6-10.9-10.2c-5.9-0.6-12,2.2-16.7,5.6c-3.7,2.7-4.8,7.6-1.8,11.2
		c2.4,2.9,6.7,3.6,9.8,1.7c0.1,0.2,0.2,0.4,0.3,0.6C1032.3,954.6,1045.7,946,1044.8,935.7z"/>
	<path class="st7" d="M946.5,858.1c-1.6-0.1-3.2-0.1-4.8-0.1c-5.7-0.1-7.7,8.6-2.5,11.1c1.4,0.7,2.9,1.3,4.4,2c4.1,1.8,8.9,0,10-4.6
		C954.6,861.9,950.9,858.2,946.5,858.1z"/>
	<path class="st7" d="M1113.9,1003.2c-1-0.1-2-0.2-3.1-0.3c-4-1.4-6.6,1.4-7,4.7c-1,3.2,0.1,6.8,4.3,7.3c1,0.3,1.9,0.7,2.9,1
		C1118.9,1018.7,1122.3,1004.1,1113.9,1003.2z"/>
	<path class="st7" d="M993.3,1040.8c-1.6-0.5-3.2-1-4.8-1.5c-4-1.3-8.9,2-9.7,6.1c-0.7,4,1.6,9,6.1,9.7c1.6,0.2,3.3,0.5,4.9,0.7
		c4,0.6,8.4-1.5,9.2-5.8C999.9,1045.6,997.5,1042,993.3,1040.8z"/>
	<path class="st7" d="M1096.3,1102.6c0.8-5.1-2-10.9-7.5-11.9c-5.6-1-10.3,2.1-11.9,7.5c-0.5,1.6-0.9,3.2-1.4,4.8
		c-1.5,5.1,2.5,11.3,7.7,12.3c5.2,0.9,11.3-2.1,12.3-7.7C1095.8,1105.9,1096.1,1104.2,1096.3,1102.6z"/>
	<path class="st7" d="M1110.6,771.2c-10.8-2.5-14.6,14.3-3.8,16.8C1117.6,790.5,1121.5,773.7,1110.6,771.2z"/>
	<path class="st7" d="M937.1,1093.4c3.8-3,5.9-8.3,2.9-12.6c-3.1-4.4-8-5.1-12.6-2.9c-0.5,0.3-1,0.5-1.6,0.8
		c-0.1,0.1-0.2,0.1-0.3,0.1c0,0-0.1,0-0.3,0c-2.2,0.2-4.4,2.6-6,4c-3.1,2.7-3.4,8.5-1.1,11.8c2.3,3.3,7.1,5.8,11.1,4.1
		c1.5-0.6,6.1-2.1,6.1-3.7c0.4-0.3,0.4-0.4,0-0.1c-0.4,0.3-0.4,0.2,0-0.1C935.8,1094.2,936.6,1093.8,937.1,1093.4z"/>
	<path class="st7" d="M963.2,1217.9c-8.7-2-11.7,11.5-3.1,13.5C968.8,1233.4,971.9,1219.9,963.2,1217.9z"/>
	<path class="st7" d="M882.6,1214.2c-9.4-2.1-12.8,12.5-3.3,14.7C888.7,1231.1,892.1,1216.4,882.6,1214.2z"/>
	<path class="st7" d="M1083.2,1250.1c-9-2-12.1,11.9-3.2,13.9C1088.9,1266,1092.1,1252.1,1083.2,1250.1z"/>
	<path class="st7" d="M1028.5,382.6c-8.9-2-10.9,6.9-2,8.9C1035.4,393.5,1037.4,384.6,1028.5,382.6z"/>
	<path class="st8" d="M1164.6,1202.7l14.3-62.9c0.4-1.7,1-3.1,1.7-4.4c5-19.2,10.4-38.2,16.1-57.2c-7.2-5.9-17.1-7.5-26.6,0
		c-16.7,13.1-31.1,26.1-46.7,37.1c-3.9,0.5-7.6,1.3-11.4,2.5c-10.5,0.4-21,3.3-30.8,8.9c-7.1,0.2-14.1,1.5-20.8,3.9
		c-14.1-1.1-28.7,1.8-41.9,9.2c-5.4,3-10.4,6.5-15.3,10.1c-19.6,1.2-39.2,1.3-58.6,1.1c-12.9-4.3-26.8-5.2-39.5-1.6
		c-80.5-6.1-164.5-29.7-234.7-66c-8.4-4.4-15.2,6.3-9.3,12.9c2,2.3,4.1,4.5,6.2,6.7c-1.2,1.8-2.3,3.9-3,6.3
		c-0.6,2.3-1.2,4.6-1.8,6.9c-3.3-2.9-7.5-4.5-11.7-4.7c3,2.5,5,6.3,4.8,11.7c-0.5,19.5-1.1,39-3.6,58.3c0,0.7,0,1.3,0,2
		c0.1,3-0.4,5.5-1.4,7.7c-0.1,0.7-0.3,1.3-0.4,2c-0.3,1.5-0.5,2.9-0.8,4.4c-0.8,4.1-2.6,7-5,9.1c0,1.3,0,2.7,0,4
		c2.2,13.8,5,27.6,8.7,41c2,7.2,6.9,10.4,12.2,10.7c6.1,7,14.8,11.3,24,12.4c3.5,4.7,8,8.3,13.1,11c1.2,1.8,2.6,3.4,4,5
		c16,4,31.5,10.3,46.9,17.7c3.2-0.3,6.3-0.8,9.4-1.7c0.7,2.6,1.7,5.2,2.8,7.6c7.7,3.8,15.4,7.4,23,10.9c21.9,4.9,44.7,9.6,68.2,13.5
		c0,0,0,0,0.1,0c6.7,1.3,13.2,1.5,19.3,0.7c0.9,1,1.9,1.9,2.9,2.8c43.8,6.3,88.8,9.5,132,6.8c18.8-4.6,37.3-11.7,55.6-20.5
		c11.6-2.9,22-8.9,30.5-17.1c13.8-9,26.3-19.1,38-30.1c1.9-1.6,3.7-3.3,5.3-5.1c0.5-0.5,1-1,1.5-1.5c16.7-5.2,31.2-16.1,37.9-32.6
		c2.4-5.9,4.5-11.8,6.1-17.8c0.2,0.1,0.3,0.1,0.5,0.2c0.4-1.5,0.6-2.6,0.8-3.5C1176.6,1225.3,1161.2,1217.5,1164.6,1202.7z"/>
	<path class="st9" d="M1343.1,636.7c10.3-37.6,16.3-77,19.9-116.4c18.1-28.3,25.6-62.5,27.7-95.6c4.8-75.8-19.4-153.5-66.8-212.9
		C1272.3,147,1195.5,95.7,1123,56.7c-67.9-36.5-146.5-61.8-223.5-41.6c-21.9,5.7-42.3,15.7-63.3,23.8c-24.1,9.3-47.7,12.8-73.5,12.5
		c-38.4-0.5-72.9,2.8-105.5,24.6c-60.7,40.6-89.5,111.5-113,177.6c-3.2-1.7-7.2-1.6-10.3,1.8c-16.3,17.8-20.9,38.9-22.9,62.5
		c-2.7,30.6-3.8,61.4-5.3,92c-0.9,18.9-2.9,38.4,9.3,54.4c10.8,14.1,28,20.5,45,23.9c1.1,2.6,2.1,5.3,3.1,8
		c-5.5,71.6-8.8,143.4,3.7,214.2c1.9,10.5,4.2,21.2,7,32c0.3-0.8,0.6-1.5,0.9-2.3c11.1,58.9,39.8,116,55.2,172.6
		c26.5,97.2,25.1,199.5,24.1,299.4c0,1.9,0.4,3.5,1.2,4.8c-0.6,6.4-1.1,12.8-1.6,19.2c-0.1,1.7,2.8,2,3.1,0.3
		c0.6-4.4,1.3-8.9,2-13.3c0.9,5,2.6,9.6,5,13.8c3,33.2,32.2,57.5,64.3,70c56.6,22.1,119.8,36.2,179.9,43.9
		c91.8,11.8,243.6,1.7,271.7-109.8c1.5-6-5.5-9-9.6-5.9c2.8-14.3,3-30.1,5.3-43.2c3.9-21.9,8.4-43.7,13.5-65.4
		c11.5-48.2,26-95.5,41.4-142.5c15-45.7,30.9-91.2,45.5-137c12-37.6,21-75.8,30.5-114c2.7,1.5,5.1,3.5,6.9,5.9
		c8-23.8,15-48,21.1-72.4c2.6-7.4,4.9-15,7.1-22.6c0.9-0.4,1.8-0.8,2.7-1.2C1346.6,641.2,1345.4,637.6,1343.1,636.7z M1362.3,455.1
		c0.7-0.6,1.4-1.2,2.1-1.8c-0.6,6.5-1.3,13-2.1,19.5C1362.4,466.8,1362.4,460.9,1362.3,455.1z M1367.5,450c1.2-1.4,2.4-2.9,3.4-4.4
		c-1,7.4-2.4,14.8-4.2,22C1367,461.7,1367.3,455.9,1367.5,450z M522.6,395.3c3.2-38.7-3.7-97.3,24.5-127.5c3.7-4,2.8-8.8-0.1-12
		c24.9-56.7,55.4-120.3,104.8-159.6c27.8-22.1,59.4-31.5,94.7-31.6c38.3,0,69-2.9,105-16.8c37.4-14.4,73-25.9,113.7-23.7
		c41.6,2.2,82.2,15.6,119.6,33.3c71.3,33.7,143.4,82.1,199.1,138.1c55.6,55.8,88.7,131.9,89.4,210.9c0,4.8,0,9.7-0.2,14.7
		c-1,0.4-2.1,0.8-3.1,1.1c-0.3,4.8-2.5,9.6-7.1,13c-2.8,2-5.6,4-8.5,5.9c0,0.1,0,0.2,0,0.3c-0.5,0.5-1.1,1-1.7,1.5
		c6.4,6.7,7.7,17.6-0.7,23.9c-1.3,15-2.7,30-4.2,45c-2.4,3.6-4.9,7-7.6,10.3c-23.5,28-58.5,40.1-81,70.1
		c-21.7,28.9-40.8,69.5-79.2,78.9c-37.7,9.2-63-34.4-101.3-28.4c-15,2.3-27.7,11.9-42.6,14.2c-23,3.5-42.4-10.2-61.9-20.3
		c-28-14.6-53.3-19.2-84.4-13c-44.1,8.8-79.1,21.4-117.2-11.1C747,590.7,726,564.1,694,551.5c-34.1-13.4-91.6-10.1-107.3-49.9
		c-9.9-25-17.6-60.1-53.1-50.5c-4.1,1.1-6.3,3.8-7.1,6.9c-0.5-0.7-1-1.3-1.5-2.1C515,439,521.1,413.2,522.6,395.3z M554.1,477.6
		c-4.2-1.8-8.4-3.8-12.3-6.1C546.8,470.9,550.8,473.4,554.1,477.6z M572.9,522.1c7.5,11.7,18.4,20,31,25.8c32.4,15,70.5,13,101,32.8
		c31.1,20.2,51.8,54.1,86.8,68.7c30,12.5,60.3,4.2,90.3-3.1c23.8-5.7,45.6-8.6,68.7,1.5c17,7.4,32.4,18.2,49.9,24.6
		c14.4,5.3,28.7,7.2,43.7,3.4c26-6.6,41.4-20.6,68.8-5.4c8.4,4.7,16.5,9.1,24.4,12.6c-64.9,7.8-130.6,8.4-197.8,0.1
		c-130.2-16.1-259.9-63-367-139.6C572.8,536.4,572.8,529.2,572.9,522.1z M572.1,665.5c-0.4-4.5-0.9-9.1-1.2-13.6
		c0-1.9,0.1-3.8,0.1-5.8c0.6,5.9,1.2,11.9,1.9,17.8C572.5,664.3,572.2,664.8,572.1,665.5z M673.8,1211.1c0-3.2,0.1-6.5,0.1-9.7
		c10.7-16.6,39.5-20.6,56.9-24.8c44.6-10.8,90.3-17.4,136.1-20.2c45.9-2.8,92-1.4,137.7,3.9c21.6,2.5,43.1,5.9,64.5,10.2
		c19,3.9,46.4,6.2,63.2,16.1c41.7,24.6,6.5,65.3-17,82.5c-18.8,13.8-40.6,22.3-62.9,28.1c-45.7,11.9-93.9,12.6-140.6,7.9
		c-75.3-7.6-167.5-20.7-232.5-65.3c-5.2-5.7-8.7-12.6-9.4-20.9C672.2,1217.2,673.8,1214.6,673.8,1211.1z M1061.2,1324.8
		c-45.2,13.2-92.7,14.9-139.3,11.1c-48-3.9-95-14.1-141.7-25.2c-39.5-9.3-106.3-25.7-114.8-71.1c12.2,17.9,37.3,28,57.5,34
		c2.4,0.7,4.3-1,5-3.1c54.7,26.7,116.8,39.3,176.9,46.5c74.9,8.9,181,9.4,235.5-53.2c3.5-4.1,7.2-9.3,10.3-15.2
		c0.5,3,1.3,5.9,2.5,8.7c0.1,0.3,0.3,0.5,0.4,0.8C1129.9,1290,1103.2,1312.5,1061.2,1324.8z M1304,731.6
		c-12.6,39.4-28.5,78-42.5,116.8c-16.4,45.4-33,90.6-48.5,136.3c-15.4,45.4-29.7,91.1-41.3,137.7c-6.2,24.7-11.6,49.6-15.7,74.7
		c-0.4,2.3-0.8,4.6-1.3,7c-3.8-2.6-6.8-6.5-8.1-12.1c-0.6-2.7-1.1-5.3-1.6-8c-10.7-6.2-25.1-8.3-36.1-11.3
		c-25.2-7-50.6-13-76.3-17.5c-89.5-15.7-182-14.7-271.2,2.6c-22.2,4.3-64.1,8.1-87.1,25.7c0.9-85.6-0.2-171.6-19.9-255.3
		c-17.7-75-51.3-143.8-68.2-218.4c0.1-0.2,0.1-0.4,0.2-0.6c-4.7-30.7-8.5-61.5-11-92.3c-0.6-22.9-1.4-45.8-2.6-68.6
		c0-1.1,0-2.3,0-3.4C682,624.7,806.4,676.5,941.1,694.8c126.2,17.2,264.7,6.8,383.2-43.6c-6.8,26.7-14.6,53.1-23.5,79.1
		C1301.9,730.7,1302.9,731.1,1304,731.6z M1326.8,641.2c-34.6,10.9-69.3,20.1-104.2,27.5c20.6-18,34.4-42.8,50.7-64.9
		c19.3-26,48.4-39.6,71.1-61.1c-2.9,24.6-6.6,49.1-11.9,73.7C1330.7,624.7,1328.8,633,1326.8,641.2z"/>
</g>
</svg>
