<?xml version="1.0" encoding="utf-8"?>
<!-- Generator: Adobe Illustrator 23.1.1, SVG Export Plug-In . SVG Version: 6.00 Build 0)  -->
<svg version="1.1" id="Capa_1" xmlns="http://www.w3.org/2000/svg" xmlns:xlink="http://www.w3.org/1999/xlink" x="0px" y="0px"
	 viewBox="0 0 1946 1364" style="enable-background:new 0 0 1946 1364;" xml:space="preserve">
<style type="text/css">
	.st0{fill:#EBC698;}
	.st1{fill:#CC964F;}
	.st2{fill:#67391A;}
	.st3{fill:#CB8D3B;}
	.st4{fill:#CD9D5C;}
	.st5{fill:#E3AD30;}
	.st6{fill:#E2A925;}
	.st7{fill:#81491E;}
	.st8{fill:#94541D;}
	.st9{fill:#931F27;}
	.st10{fill:#446630;}
	.st11{fill:#202020;}
</style>
<g>
	<path class="st0" d="M1475.9,599.4c-5.3,0.1-5.1,8.2,0.1,8.2C1481.3,607.5,1481.2,599.3,1475.9,599.4z"/>
	<path class="st1" d="M1515.3,901.3c-3.6,19.4-9.2,38.1-12.6,57.5c-1.8,10,11.3,16.1,16.9,6.8c11.7-19.5,15.1-39.3,16.5-61.8
		C1536.8,892,1517.4,889.6,1515.3,901.3z"/>
	<path class="st2" d="M1563.5,885.1c-8.7-5.6-19.2,2.2-19.5,11.6c-0.5,17.7,7.3,34.3,6.8,52.3c-0.5,19.5-6.9,37.9-15.4,55.2
		c-12.1,24.7,20.6,41.6,36.3,20.5C1597.9,989.3,1606.3,912.4,1563.5,885.1z"/>
	<path class="st3" d="M1595.7,987.7c-0.5-11-1-22-1.5-33c-1-23.1-9.7-46.7-23.7-66.4c17.8-9.2,34.4-21.4,49.2-36.7
		c54-55.8,65.9-140.5,47-213.3c-6.6-25.4-16.6-48.3-29.2-69.1c-15-38-41.7-71.2-79-95.2c-17.1-11-35.6-18.7-54.7-23.2
		c-42-21.9-87.8-38-132.6-49.8c-70.5-18.5-149.3-30.9-219.9-14.8c-1.9-2.8-3.8-5.6-5.8-8.3C1044.5,240.2,853,219,694.8,218.9
		c-86.2,0-182.3,18.6-253.8,69.5c-77,54.8-125.9,142.7-111,236.6c-34,66.1-4.3,146.2,59.6,185.5c-15.5,22.1-25,48.9-28.1,77.9
		c-2.1,19.7,8.2,37.6,23.5,49.8c1.1,11.4,3.7,21.9,7.5,31.8c-49.2,25.5-84.8,71.3-83.1,134c2.2,79.1,64.2,132,134.6,154.4
		c19.6,6.2,41.3,7.1,61.6,9.5c31,3.7,62,7.6,93.1,10c46.5,3.6,93,4.2,139.3-1.8c15.5-2,30.8-4.6,46-7.6c2,3.9,4.2,7.8,6.6,11.6
		c0.7,3.7,1.5,7.5,2.5,11.2c7.3,49.6,40,97.9,92.1,108.9c5.9,1.2,11.7,2,17.4,2.5c3.6,1.4,7.1,2.9,10.7,4.2
		c58.6,21.5,120.3,31.5,182.3,36.5c76.4,6.1,161.2-1.6,226.8-38.6c38.5-3.4,76.8-8.3,115.1-14c60-8.9,118.7-18.1,164.2-62.7
		c44.4-43.6,61-110.8,43.4-170C1636.8,1030.2,1619,1005.2,1595.7,987.7z"/>
	<path class="st1" d="M1541.3,1046.4c-4.7-5.9-9.9-11.4-15.2-16.7c17.3-51.4,17.3-108.4-4.7-158.5c-7.6-17.3-17.3-33.3-28.7-47.8
		c14.3-18.9,25-40.5,31-63.3c25.5-97.2-26.7-201.6-102.1-261.6c-68.5-54.5-156.2-85.9-244.1-85c-35.3-9-70.3-9.4-107.3-0.6
		c-38.6,9.1-74.7,26.9-105.6,51.4c-6.8,1.2-13.5,2.8-20.2,4.7c-8.3-103.1-92.3-179.7-189.2-210.7c-96.7-30.9-204.5-10.9-292.7,35.1
		c-28.4,14.8-54.2,32.9-77.4,53.5c-4.8,2.9-9.5,5.9-14,9.3c-53,39.4-84.3,95.8-100.3,159.2c-9.8,39,7.5,83.6,40.9,105.6
		c10.9,36.1,35.9,66.3,75.3,81.3c10.3,3.9,20.7,6.3,31.2,7.6c-0.4,0.6-0.8,1.3-1.3,1.9c-51.1,19.1-91.9,61.2-113.2,117.8
		c-4.9,13.1-5.1,27.8-1.8,42.3c-29,26.9-50.1,62.7-55.9,101.6c-10.4,69.8,21.2,138.6,87.4,168.8c52.9,24.1,113,33.2,170.8,33.5
		c31.9,0.2,65.3-2.8,97.9-9.7c44.7,5,91.7,0.3,134.6-10.6c-1.8,13.2-1.9,26.9,0.3,41.1c10.7,71.3,64.5,114.4,130,135.6
		c54.3,17.6,115.5,21.7,171.9,27.3c57.1,5.6,114.5,7.4,171.8,5.3c62.3-2.2,124.2-9.5,185.8-19.5c64.5-10.6,123.2-36.3,158-94.9
		C1592.2,1187.2,1586.9,1103.7,1541.3,1046.4z"/>
	<path class="st4" d="M1438,1157c-6.7-19.3-19.3-36.5-35.3-49.1c-6.8-8.2-15.3-15.8-24.9-21.9c16.6-16.4,26.9-38.3,25.3-65.2
		c-1.3-22-10.7-45.1-25.8-63c12.2-33.9,13.4-70.9,3.1-105.4c19.3-20.1,34.3-45.3,42.9-75.9c40.6-143.5-64.7-304.1-194.8-359.9
		c-57.4-24.6-121.7-33.1-180.7-14.4c-4.5-0.6-9.1-1.1-13.8-1.4c-82.8-6.1-151.7,35.4-196.1,97c-8.1-19.5-18.4-37.9-30.6-54.4
		c-21.1-28.6-46.2-53.9-74.4-74.7c-5.4-6.5-11.2-12.7-17.4-18.7c-96-93-286.9-114.5-363.8,15.1c-4.5,7.6-8.2,15.4-11.2,23.3
		c-70,55.5-110.6,150.3-42.9,227.4c21.6,24.6,54.2,43.9,87.9,56.4c1.6,1,3.2,1.9,4.8,2.9c-14.9,13.7-27.6,28.9-39.1,47.4
		c-18.8,30.4-14.7,69,4.2,97.6c4.5,22,16.9,42,33.7,56.7c-2.3,8-3.7,16.6-4.1,25.7c-0.2,3.8-0.1,7.5,0,11.2
		c-14.2,13.7-26.4,29.5-35.4,46.8c-19.1,36.8-14.3,83.4,16.2,112.7c41.7,40.2,93.7,64.4,149,75.1c9.1,2.9,18.8,4.4,28.6,4.4
		c22,2.4,44.4,2.9,66.7,1.5c84-5.4,211.4-24.8,236.6-122c10.5-40.5,0.1-80.4-24.2-110.5c18.8-40.7,4.6-97.1-33.6-121.9
		c3.5-1.9,6.9-4,10.2-6.2c9.9,22.9,25,43.8,45.5,60.9c20.1,16.7,43.3,28.6,68,37c5.9,5.1,12.3,9.4,19.3,13
		c-35.8,34.5-54.7,84.8-42.7,133.1c-3.1,0.5-6.3,1.1-9.4,1.9c-54.3,14.4-84.5,72.7-71.7,124.6c9.3,85.1,100.8,141.3,182.1,160.1
		c88.4,20.5,187.6,19.4,274.1-10.6c6.3-1.7,12.4-3.8,18.4-6.3c34.3,13.5,72.7,10.9,107-6.9c19-9.9,37.1-28.4,47-47.6
		C1453.2,1220.8,1449.3,1189.7,1438,1157z"/>
	<path class="st5" d="M772.1,731.7c0.1-1.7,0.2-3.3,0.3-5c-56,3.2-112.1,5.7-168.2,7.6c-26.3,0.9-52.7,2-78.9-0.9
		c-23.8-2.6-47.2-9.7-71.2-9.5c0,0,0-0.1,0-0.1c7.9-17.8-10.7-43.3-30.2-29.3c-40.2,29-80.5,77.3-77.4,129.8
		c0.7,11.7,15.9,19.5,24.6,9.8c4.1-4.6,8.3-9.3,12.2-14.2c3.6,2.6,7.8,4.2,11.9,3.7c35.3-4.6,68.4-17,104.5-19.4
		c37.1-2.4,73.9,5.2,110.8,1.6c2.9-0.3,5.4-1.2,7.5-2.4c18-0.1,36.1-0.6,54.1-1c34.4-0.8,68.7-2.1,103-3.7c4.2,4.3,9.2,8,14.5,11.5
		C777.6,786.4,771.1,760.3,772.1,731.7z"/>
	<path class="st0" d="M1019.6,496.7c-7,0.1-6.8,10.9,0.2,10.8C1026.7,507.5,1026.6,496.6,1019.6,496.7z"/>
	<path class="st0" d="M1110.3,481.3c-5.7-0.6-11.4-0.5-17.1-0.1c-3.5,0.3-3.5,5.4,0.1,5.5c5.7,0.2,11.4,0.2,17-0.6
		C1113.5,485.8,1113.5,481.6,1110.3,481.3z"/>
	<path class="st0" d="M1122.5,538.2c-2.9,0-2.9,4.6,0.1,4.5C1125.5,542.7,1125.5,538.1,1122.5,538.2z"/>
	<path class="st0" d="M1230,499.3c-7,0.1-6.8,10.9,0.2,10.8C1237.1,510.1,1237,499.2,1230,499.3z"/>
	<path class="st0" d="M1320.7,481.7c-1.9-0.2-3.8-0.4-5.7-0.5c-6.7-0.5-6.6,11.1,0.2,10.5c1.9-0.2,3.8-0.4,5.7-0.7
		C1326.7,490.1,1326.6,482.4,1320.7,481.7z"/>
	<path class="st0" d="M1384.3,553.3c-7.8,0.1-7.6,12.2,0.2,12.1C1392.2,565.2,1392.1,553.2,1384.3,553.3z"/>
	<path class="st0" d="M1144.8,571.4c-2.5-3.5-7.1-3.4-9.5,0.1c-2.1,3.2-1.3,6.5-0.8,10c0.8,5.6,10.6,5.4,11.3-0.2
		C1146.3,577.9,1147.1,574.6,1144.8,571.4z"/>
	<path class="st0" d="M1299,555.7c-6.3,0.1-6.2,9.9,0.1,9.8C1305.5,565.4,1305.3,555.6,1299,555.7z"/>
	<path class="st0" d="M1037.8,576.4c-1.2-0.1-2.3-0.2-3.5-0.3c-3.4-0.3-5.1,2.4-5,5.2c-0.2,3,1.5,6,5.2,5.6c1.2-0.1,2.3-0.3,3.5-0.4
		C1044.5,585.8,1044.4,576.9,1037.8,576.4z"/>
	<path class="st0" d="M1271.2,595.2c-7.2,0.1-7,11.3,0.2,11.2C1278.6,606.3,1278.4,595.1,1271.2,595.2z"/>
	<path class="st0" d="M1209.3,641.8c-1.5,0-3,0-4.5,0c-7,0-6.9,11.1,0.2,10.9c1.5,0,3-0.1,4.5-0.1
		C1216.4,652.3,1216.3,641.8,1209.3,641.8z"/>
	<path class="st0" d="M1357.1,640.8c-5.4,0.1-5.3,8.5,0.1,8.4C1362.7,649.1,1362.6,640.7,1357.1,640.8z"/>
	<path class="st0" d="M996.4,618c-2.7,1.3-4.8,4.1-6.9,6.1c-4.7,4.6,2.8,11.9,7.3,7.1c2-2.1,4.7-4.4,5.9-7.1
		C1004.5,619.8,1000.6,616,996.4,618z"/>
	<path class="st0" d="M937.7,573.4c-4.1-2.1-8.1-4.6-12.7-5.4c-3.6-0.7-7,3.9-3.7,6.7c3.5,3,7.8,4.7,12,6.6
		C938.5,583.6,942.9,576,937.7,573.4z"/>
	<path class="st0" d="M1096.8,648.5c-0.3-1.1-1.9-1-2.1,0c-0.5,2.5-1.7,4.6-0.2,6.8c0.7,1.1,2.2,1,2.8,0
		C1098.6,653,1097.4,651,1096.8,648.5z"/>
	<path class="st0" d="M1428.9,496.8c-1.5,0.1-3,0.1-4.5,0.2c-6.3,0.3-6.2,9.8,0.1,9.9l4.5,0.1C1435.6,507,1435.4,496.5,1428.9,496.8
		z"/>
	<path class="st0" d="M620.5,354c-0.3-0.2-0.6-0.3-1-0.4c-0.1,0-0.2-0.1-0.3-0.1c-0.3-0.1-0.6-0.1-0.9-0.1c-0.3,0-0.5-0.1-0.8-0.1
		c-1.2,0-2.3-0.1-3.5-0.1c-9.2-0.3-9,14.9,0.2,14.3c1.2-0.1,2.3-0.2,3.5-0.2c0.4,0,0.7-0.1,1-0.2c0.2,0,0.4,0,0.6-0.1
		c0.3-0.1,0.5-0.2,0.8-0.3c0.2-0.1,0.4-0.1,0.5-0.2c2.5-1.2,3.7-3.7,3.6-6.2C624.2,357.7,623,355.2,620.5,354z"/>
	<path class="st0" d="M750.2,342.2c-6.1,0.1-5.9,9.5,0.1,9.4C756.4,351.6,756.2,342.2,750.2,342.2z"/>
	<path class="st0" d="M463.6,415.8c-1.9-1.3-4.1-2.2-6.3-2.9c-2.3-0.8-4.6-0.6-7-1.1c-6.4-1.3-8.3,7.3-2.5,9.6
		c2.1,0.9,3.9,2.3,6.3,2.9c2.3,0.6,4.8,1,7.1,1C466.6,425.3,467.7,418.5,463.6,415.8z"/>
	<path class="st0" d="M659.4,422.2c-0.6-6-9-5.9-9.4,0.1c-0.2,3.4-0.7,6,1.8,8.7c1.5,1.7,4.7,1.6,6.1-0.1
		C660.2,428.1,659.7,425.6,659.4,422.2z"/>
	<path class="st0" d="M714,297c-1.4,0.5-2.8,0.6-4.3,0.7c-5.5,0.4-5.4,8.4,0.1,8.6c1.5,0.1,2.9,0.2,4.3,0.6c3.2,1,6.5-1.8,6.4-5.1
		C720.6,298.7,717.2,296,714,297z"/>
	<path class="st0" d="M586.7,434.9c-1.9,0-3.8-0.1-5.7-0.1c-7.1-0.1-7,11.4,0.2,11.1c1.9-0.1,3.8-0.2,5.7-0.3
		C593.7,445.4,593.6,435.1,586.7,434.9z"/>
	<path class="st0" d="M751.8,456.5c-5.3,0.1-5.2,8.3,0.1,8.3C757.3,464.7,757.2,456.4,751.8,456.5z"/>
	<path class="st0" d="M831.7,374.6c-2.7-1.1-5.7,0-8.5,0.5c-4.8,0.8-4.7,9.1,0.1,9.8c2.8,0.4,5.8,1.4,8.5,0.2
		C836.9,382.9,836.8,376.6,831.7,374.6z"/>
	<path class="st0" d="M898.9,295.2c-1.4-1-3.2-1.4-5-1.4c-2.9,0-4,1.3-6.1,3c-1.3,1.1-2.5,2.2-3.7,3.4c-1.3,1.4-3.2,2.2-4.8,3.2
		c-1.6,1-0.4,3.1,1.2,2.8c3.8-0.7,7.9-0.7,11.7-0.4c3.9,0.3,7.6-2.4,8.4-6.3C901.1,297.6,900.3,296.3,898.9,295.2z"/>
	<path class="st0" d="M989.2,360.3c-7.5,0.1-7.4,11.8,0.2,11.7C996.9,371.9,996.7,360.2,989.2,360.3z"/>
	<path class="st0" d="M866.1,414.9c-2.9-0.6-5.3-1.8-8.3-0.6c-4.9,1.9-4.8,8.3,0.1,10c3,1.1,5.3-0.2,8.2-0.8
		C870.4,422.5,870.3,415.7,866.1,414.9z"/>
	<path class="st0" d="M961.4,401.2c-6.6,0.1-6.5,10.4,0.2,10.3C968.1,411.4,968,401.1,961.4,401.2z"/>
	<path class="st6" d="M752.5,780.9c-33.9-27.9-87.2-29.1-129.4-31.9c-48.5-3.1-98.1-2.3-145.5,9.1c-4.1,1-7.2,2.9-9.5,5.4
		c-12.3-0.7-24.7,0.2-37,2.4c8-16.3,13.6-33.3,14.5-50.1c0.6-11.2-14.5-20.4-23.9-13.3c-13.9,10.7-19.3,28.9-28.6,43.5
		c-12.6,19.7-27.7,37.1-44.8,53.1c-22.1,20.8,6.8,49.3,30.6,38.5c41.4-18.8,84.4-19,127.2-31.3c4.2-1.2,7.6-4.1,9.8-7.8
		c34.2-0.7,68.3-1.6,102.6,1c40.8,3.1,86.6,19.1,126.9,10.1C757.4,806.9,762.1,788.9,752.5,780.9z"/>
	<path class="st5" d="M1506.8,855.9c-36.6,0.2-70.4,8-104.7,19.5c-29.5-2.4-59.1-1.3-88.5,1.2c-29.1,2.5-58,7.4-86.8,12.7
		c-9.2,1.7-19.2,3.3-29.1,5.8c-32.9-0.9-65.9-1-98.9-0.2c-27.5,0.7-55,2.2-82.5,4.5c-6.5-0.8-13.1-1.7-19.6-2.7
		c-38.5-5.8-78.4-7.9-105.2-38.9c-13.4-15.5-33.8-0.6-35.6,15.4c-0.5,4.3-1.4,8.6-2.6,13c-6.3,6.3-11.8,14.2-16.6,22.2
		c-16.3,21-32,42-45.4,65.6c-10.9,19.2,13.8,34.3,29,21.7c4-3.3,7.7-6.7,11.3-10.2c4.1-2.4,7.2-5.7,9.7-9.5c3.1-0.7,5.8-2.2,8.2-4.1
		c7.1,3.7,16.9,4.1,23.4-0.7c2.1,0.4,4.2,0.6,6.5,0.4c5.9-0.2,11.7-0.4,17.6-0.6c16.8,1.4,34.2,0.4,51.3-1.7
		c37.5-1.2,75.1-2.2,112.7-2.6c21,3.1,43.4,5.8,62.9-0.1c27,0.3,54,1.1,81.1,2.4c31.5,1.6,65.1,7.6,97.1,7.1
		c39.3,19.2,74.7,43.7,118.1,55.5c10.3,2.8,24-0.1,31.1-8.7c6.2-7.6,8.6-13.1,9.1-22.8c0.3-5.9-1.9-12.3-5.5-17.6
		c5.9-8,7.6-19.4,9.1-29.6c3.3-1.2,6.5-2.8,9.7-4.8c11-7.2,15.6-19.3,13.3-31.2c7,0.5,14,1,21.1,1.3
		C1547.6,920.3,1547.2,855.7,1506.8,855.9z"/>
	<path class="st6" d="M1529.1,855.7c-17.1,1.1-33.5,7.6-48.5,17.1c-3.1-3.3-7.8-5.1-13.8-3.7c-25.5,6-51.7,20.7-67.6,41.7
		c-9.1,12-20.7,31.2-22,48.7c-12.8-5.3-25.9-9.9-39.3-13.6c-23.3-11.4-49.3-18.2-74.3-22.5c-28-4.9-58.2-9-88.1-9.3
		c-2.6-0.2-5.1-0.4-7.7-0.6c-32-2.3-77.8-5.5-114.6,4c-10-0.3-19.9-0.6-29.6-0.6c-57.3-0.1-112.7,7-167.4,24.3
		c-5,1.6-7.5,6-7.9,10.6c-5.9,2.1-11.7,4.2-17.4,6.6c0.9-2.8,1.8-5.7,2.9-8.5c4.3-10.9,10.4-20.8,16.1-31
		c9.3-16.7,21.4-33,28.1-50.8c1.2-3.3-2.8-5.1-5.3-4c-21.2,9.9-38.8,31.8-51.7,50.9c-12.8,18.9-27.3,41.5-15.8,63.9
		c3.6,7.1,15.3,6.8,18.8-0.3c0.1-0.1,0.1-0.2,0.1-0.3c26.5-7.7,52.7-13.8,79-18.6c38.6-3.4,77.4-5.4,115.9-4.5
		c55.8,1.4,109.3,12.9,164.4,19.8c10.9,1.4,18.3-4.7,20.7-12.3c0.5,0,1.1,0,1.6,0.1c35.1,7.3,69.4,17.6,105,20.9c0.5,0,0.9,0,1.4,0
		c7.8,2.3,15.6,4.5,23.4,6.5c6.1,2.7,12.3,5.4,18.5,8.3c8.6,4.9,17.3,9.5,26.6,13.4c10.1,5.8,20.3,11.3,30.9,16.1
		c24.6,11.1,41.8-18.4,23.9-35.3c2.6-12.8,40-50.5,46-56.1c19.1-18.2,43.5-30.3,61.3-49.7C1552.8,875.7,1545.6,854.6,1529.1,855.7z"
		/>
	<path class="st7" d="M822.7,905c2.6-3.9,4.3-8.4,4.7-13.7c0.3-4.1-3.1-6.9-6.5-8.3c-12-4.8-25.4,2.1-36.8,5.6
		c-3.5,1.1-7,1.9-10.6,2.7c-1.6-0.8-3.3-1.5-5.2-1.7c-64-9.4-133,5.8-197.6,8.4c-7.8,0.3-18.8,0.6-31.1,0.4
		c-5.6-0.8-11.1-1.8-16.7-3c-20.2-4.3-60.2-15.4-69-37.4c-0.5-1.2-1.1-2.3-1.9-3.4c7.4-2.7,15.6-4.5,19.9-3.9
		c1.2,0.2,1.6-1.4,0.5-1.8c-8.1-2.8-12.8-8.6-19.6-12.1c1.1-1.9,2.2-3.8,3.6-5.7c4.9-7.2-3.5-14.6-10.5-13.2
		c-14.4,2.8-25.6,11.9-32.6,23.8c-12.2,9.1-18.5,25-13.7,40.1c2.2,6.9,6.4,12.6,11.6,17.3c13.3,25.2,44.7,38.7,71,46.4
		c10.9,3.2,22.2,5.5,33.6,7.2c17.6,5.6,34.4,9.3,47.1,11.2c41.5,6.2,83.7,8.2,125.6,5.8c29-1.7,69.7-1.7,91.9-22.5
		c8.3,2.4,17.4,1,23.2-6.6c1.4-1.8,2.1-4.3,2-6.7c2.2-1.4,3.4-3.9,3.7-6.5c5.2-1.8,9.9-4.6,13.5-8.4
		C826.8,914.7,826.3,908.7,822.7,905z"/>
	<path class="st7" d="M1594.8,932.4c-0.5-16.2-1.2-38.7-18.6-46.1c-1.3-0.6-2.7-1-4.1-1.3c-6.2-8.7-20.2-8.6-23.8,3.1
		c-0.5,0.1-1,0.1-1.5,0.2c-13.7,3.5-14.3,24.4-16.9,35.5c-5,21.1-16,39.8-21.6,60.5c-1.1,4.3-0.5,9.5,1.9,13.5
		c-11.1,12.9-24.2,23.9-38.6,33.3c-9.8,6.4-20.2,11.4-31.1,15.8c-10.6-0.1-21.4,1-32.2,3c-29-0.2-58.1,4.4-87,5.8
		c-12.4,0.6-24.8,0.7-37.3,0.7c-0.3-0.1-0.5-0.3-0.8-0.3c-66.8-21.1-144.4-6.6-213.5-7.3c-34.3-0.3-68.5-2.6-102.4-8.8
		c-22.5-4.1-72.7-6.7-72.7-36.4c0-9.7-11.1-19.8-21.1-15.6c-32.6,13.8-32,52.8-8.6,75.9c29.7,29.3,81.4,39.4,120.7,45.9
		c48.6,8,97.6,10.1,146.8,9.6c49.5-0.6,100.6,1.7,148.8-11c22.4,0.3,44.7-0.7,64.7-0.4c18.7,0.3,40.8,1.3,58.5-5.1
		c11.4-1.3,22.6-3.8,33.1-7.9c23.8-6.8,46.6-17.9,64.8-29.5c21.2-13.6,50.6-38.4,66.8-66.3c0.6-0.2,1.1-0.5,1.7-0.7
		c5.2-1.2,10.1-4.2,13.7-9.5C1595.1,973.2,1595.3,950.9,1594.8,932.4z"/>
	<path class="st8" d="M1518.9,902.8c-11.8,11.2-17.6,28.5-23.4,43.7c-1,0.6-1.9,1.3-2.6,2.2c-8.5,10.7-12.8,22.9-18.9,34.9
		c-6,11.8-13.5,22.6-17.9,35.1c-1.2,3.4,0.1,7,2.4,9.6c-12.4,1.1-24.8,3.1-37.3,4.3c-1.8,0.2-3.6,0.3-5.5,0.4
		c-3.1-8.1-9.5-14.9-18.9-16.9c-12.1-2.6-24.8-3.3-37.9-3.1c-15.8-9.9-36.5-13.2-55.8-15.3c-1.4-0.2-2.7-0.2-4.1-0.3
		c-23.4-14.7-57.8-17.2-82.9-21.4c-39.5-6.5-79.8-11.1-119.8-12.7c-38.8-1.5-77.8-0.8-116.3,4.1c-20.2,2.6-59.7,2.8-70.8,24.3
		c0,0-0.1,0-0.1,0c-5.6-1.8-12.6,1.4-15.3,6.5l-1.1,2.1c-2.6,4.9-3,11.4,0.2,16.2c23.8,35,74.4,43.9,119.2,47.3
		c46.5,9.9,95.5,13.3,138.8,16.3c41.8,2.8,83.8,2.5,125.7,2.6c40.8,0.1,91.1,6,127.8-14.4c3.2-1.8,5.8-4.1,7.8-6.8
		c4.4,0.1,8.7,0,12.7-0.1c18.8-0.5,37.5-3.7,54.2-12.7c4.9-2.7,6.1-7.7,4.9-12.2c0.7-0.3,1.3-0.7,1.9-1.2
		c15.4-13.3,23.6-31.9,25.8-51.6c4.1-7,7.7-14.4,11.2-21.7c7.5-15.7,17.3-32.8,17.5-50.5C1540.7,900,1526.5,895.6,1518.9,902.8z"/>
	<path class="st8" d="M835.2,850.9c-2.1-2.6-4.4-5.1-6.8-7.4c-4.5-4.6-11.3-7.1-18-7c-50.8-23.9-110.8-31.6-166-32
		c-5.5-7.6-14.7-12.8-27.9-12.5c-40.1,0.9-80.2,4.6-120,9.2c-11.7,1.3-22.7,3.5-32.1,7.3c-24.5-2.3-45.1,27.4-31.5,45.3
		c-0.6,14.8,12.9,32.1,27.6,34.6c2.6,0.4,5.2,0.8,7.8,1.3c31.9,16.5,76.4,17.6,108.2,19.1c18.6,0.9,37.2,1.3,55.8,1.5
		c10.6,1.1,21.2,2.1,31.8,3.2c32.2,3.3,64.3,6.7,96.5,9.6c24.5,2.2,44.2,1.2,57.8-15.2C841.9,902.3,855.3,874.1,835.2,850.9z"/>
	<path class="st7" d="M966.5,1066.2c-12.6-8.2-23.2-18.7-30.7-31.8c-4.7-8.3-19-39.5-4.8-45.6c4.1-1.7,3.8-8-1.2-8.1
		c-20.8-0.2-18.4,30-14.6,43.4c6.9,24,24.5,42.4,47.7,50.9C968.3,1077,970.8,1069,966.5,1066.2z"/>
	<path class="st7" d="M1485.5,1047.6c-24.9-6.5-48.1,4.9-69.4-15.2c-11.1-10.5-31.4,4-21.7,17.3c0.8,1.1,1.8,2.3,2.7,3.4
		c-8.1-0.2-16.3-0.5-24.5-2.1c-21.1-4.1-66.3-18.7-68-45.3c-1.2-19.8-29.5-19.2-30.6,0.5c-1.1,19,7.8,37.3,22.3,52.8
		c-14.2-1.7-28.5-3-42.3-10.6c-24-13.3-40.6-31.7-51.9-56.3c-2.1-4.5-9.9-2.2-9.4,2.7c2.2,22.6,10.7,43.5,24,61
		c-13.4-1.2-26.6-2.9-39.4-9.9c-16.2-8.8-45.1-33.5-47.8-53.3c-0.8-6-7.9-10.1-12.7-5.1c-16.2,17.1-0.9,46,15.4,66.1
		c-7.8-1.4-15.6-3.3-22.9-7.4c-10-5.5-19.4-12.6-26.8-21.4c-10.3-12.3-12.6-25.7-18.5-39.9c0,0.1-0.1,0.2-0.1,0.2
		c-1.6-4.8-7.6-6.2-10.8-1.5c-17.5,25.1,7.9,64.4,28.4,82.5c-10.5-2.1-20.8-4.8-30.6-10.8c-9.8-5.9-18.5-13.6-25.1-22.9
		c-4.7-6.6-20.2-29.7-8.9-36.4c1.3-0.8,0.7-3-0.8-3c-32.7,1-4.9,52,4.3,63.9c0.8,1.1,1.8,2.2,2.7,3.3c-8.5-2.2-16.8-4.7-24.5-9.2
		c-8.8-5.2-16.8-12.3-22.3-20.9c-6.9-10.8-15.1-36.3,2.1-43.7c3-1.3,1.8-6.3-1.5-5.1c-29.1,9.9-28.7,44-14.2,66.8
		c17.7,28,61.8,47.9,94.3,38c18.9,9,40.3,11.6,57.8,0.2c19.3,8,40.9,10.8,57.1-0.5c26.5,13.8,59.5,19.8,83.4,3
		c25.4,14.2,62.9,24.9,77.9-2.3c37.8,20.2,84.4,25.7,110.7,3.1c1.9-1.6,3.1-3.7,4-6c18,3.9,35.6,0.2,45.5-18
		C1496.9,1058.5,1493.2,1049.6,1485.5,1047.6z"/>
	<path class="st7" d="M734.4,935.7c-82.4,8.2-145.2-30-169.1-110.1c-1.6-5.4-10.4-5.8-11.6,0.2c-4.7,24.2,0.9,48.2,13,69.3
		c-17.7,0.4-35.6-5.2-50.1-15.5c-20-14.2-24.6-35.8-40.4-52.5c-0.8-0.8-1.9-0.4-2.5,0.4c-18.5,25.7,7.6,60.8,29.3,76.1
		c23.9,16.8,51.7,21.9,78.2,12.1c38.9,45.4,108.4,69.6,158,37.3C746.5,948.3,744.1,934.7,734.4,935.7z"/>
	<path class="st7" d="M905.8,876.7c-33.9-3.2-67.2-3.5-100.3-12.7c-33.7-9.5-61.9-25.9-92.1-42.6c-6.2-3.5-11.4,4.5-7.1,9.5
		c21.1,24.6,51.5,44.8,84.8,58.2c-25.7,0.9-50.2,3.2-76.7-4.2c-36.9-10.2-59.3-33-86.3-58.1c-4.8-4.5-13.9,0.1-11.5,6.9
		c23.8,66.2,141.7,119.8,202,73.1c2.5-2,3.8-4.6,4.1-7.3c29.5,7.5,59.8,9.4,87.1,3.9C926,900,919.9,878,905.8,876.7z"/>
	<path class="st9" d="M1084.8,68.9c-0.5,0.2-0.9,0.4-1.4,0.6c-2.9-1.7-6.4-2.9-10.4-3.6c-45-7.3-90-14.6-135-21.8
		c-2.9-0.5-5.6-0.5-8.2-0.3c1.4-7.4-10.8-11.7-14.6-4.4c-0.7,1.4-1.4,2.7-2,4.1c-3.7-0.9-7.4-0.7-10.9,0.2
		c-5.8-3.5-13.7-2.7-18.4,4.8c-1.5,2.5-3,5-4.4,7.4c0.2-7.4,0.4-14.7,0.6-22.1c0.6-21.8-30.5-23.8-36.7-4.4
		c-13.1,41.1-18.7,83.3-16.7,126.4c0.2,3.5,1.3,6.5,3,9c-0.8,1-1.5,2-2.2,3.1c-10.6,17.3-2.9,38.4,13.7,48c0.7,0.4,1.4,0.7,2.1,1
		c1.3,1,2.7,2,4.4,2.8c18.7,9.2,35.7,10.5,52.6,8.8c2.3,0.6,4.6,1.2,6.7,1.7c8.3,2.2,16.8,4,25.2,5.7c18.6,7.1,40.3,13.1,62.6,15.8
		c11.6,9.1,24.9,15.4,39.8,17.4c28.2,3.9,42.6-13.9,52.2-35.6c1.5-1.1,3.1-2.2,4.6-3.4c8.7-7.4,9.6-17.1,6.2-25.6
		c11.6-33.7,22.3-67.8,32.2-102.1C1137.8,74.5,1107.1,58.8,1084.8,68.9z"/>
	<path class="st10" d="M1506.9,158c-35.7,9.2-71,4.8-106.5-3.7c-30.5-7.3-66.6-25.8-98.2-24.5c-55.6,2.3-43.1,77.9-29.5,126.8
		c-3,17.7-6,35.5-8.9,53.2c-9,55.6,55.3,48.8,94.2,53.1c28.4,3.2,56.7,6.3,85.2,8.7c21.3,1.8,43,1.8,57.5-16.5
		c15.2-19.3,17.1-49,22.6-72.2c7-29.6,13.8-59.3,20.6-89C1549.1,171.5,1529.1,152.2,1506.9,158z"/>
	<path class="st11" d="M1566.3,872.8c-2-0.8-3.2,2.5-1.4,3.4c35.3,18.3,30.4,66,15.4,96.6c-15.1,30.8-40.3,56.1-68.6,75
		c-55.8,37.4-124.5,52.7-190.3,60c-83.5,9.2-168.3,10.2-252,4.2c-44.3-3.2-90-5.9-133.4-15.6c-39.4-8.8-105.7-54.9-59.1-99
		c0.7-0.6-0.3-1.6-1-1c-17.3,14.4-21,35.7-15.9,57.1c6.5,26.9,30.3,42.4,55,51.4c38.2,13.8,81.8,17.5,122,22.1
		c47,5.4,94.5,7.8,141.8,8.1c131.8,0.8,314.6-5.2,400.5-123.5C1607.9,972.1,1624.6,895.4,1566.3,872.8z"/>
	<path class="st11" d="M1603.7,988.6c-3.5-2.2-6.9,2.8-4.2,5.6c62.8,65.7,43.8,169.1-18.9,227.2c-74.9,69.4-190.9,85.4-288.3,92
		c-109,7.4-224.4,3.9-332.3-14.1c-49.4-8.2-99.7-25.5-129.8-68.2c-31.9-45.3-20.2-113.3,35-134.1c0.8-0.3,0.4-1.3-0.3-1.2
		c-74.1,12.2-82,104.4-42.4,155.3c58.4,75.3,168.6,76,255,83.1c112.5,9.2,226.3,10.4,337.4-11.9c81.6-16.4,171-50.1,217.5-123.8
		C1673.2,1133.9,1673.5,1033.1,1603.7,988.6z"/>
	<path class="st11" d="M1642.7,634.9c-52.5-144-198.8-207.8-341.7-221.8c-14.4-1.4-28.9-2.6-43.6-3.5c2.2-18,4.3-36,6.2-54
		c70.2,31.1,146.8,39.5,222.5,24.8c2.7,1.8,6.8,1.6,8.5-1.8c0-0.1,0.1-0.2,0.1-0.2c3.7-1.8,4.9-5.5,4.1-9.1
		c11.8-27.7,17.6-58.7,28.7-86.7c14.4-36.5,32.1-71.5,52.1-105.2c3.9-6.6-1.5-14.1-8.5-14.4c-49.6-2.1-98.9-3.7-148.2-9.5
		c-18-2.1-147.6-13-147.8-34c-0.1-5.1-6.6-5.1-8.2-1c-1.2,3-1.4,5.9-0.8,8.5c0,0.2-0.1,0.3-0.2,0.5c-9.6,61.4-11.1,124.8-15.8,186.8
		c-0.6,7.9-1.3,15.8-1.9,23.8c-4.1,0.4-6.1,7.2-1.8,9.4c0.3,0.2,0.7,0.3,1,0.5c-1.6,20.3-3.2,40.6-4.9,60.8
		c-64.8-3.3-131.7-1.3-194.2,9c-75.9,12.6-140.1,55-190.6,112c-53.5,60.4-104.7,143.6-87.8,227.8c11.1,55.3,55.7,104.2,110.4,110.7
		c70.4,41.6,152.8,33.4,231.3,28.7c98.9-5.8,197.8-12.2,296.7-18.7c36.3-2.4,83-0.6,125.7-7.9c-48.5,40.7-88.2,91.8-91.7,155.2
		c-202-77.5-433.7-96.3-642.5-34.9c10.7-42.9,30.4-81.3,54.8-118.3c1-1.5-1.3-3.2-2.5-1.9c-32.8,36.7-53.3,80.9-67.2,127.8
		c-1.4,4.9,3.4,8.7,7.9,7.7c220.6-48.9,445.3-40.9,656.6,43.2c6,2.4,12.4-3.9,12.3-9.6c-2.5-83,62.8-139.6,125.6-185.5
		c15-7.5,28.3-17.5,38.7-31.1C1665.6,771.1,1664.1,693.8,1642.7,634.9z M1278,140.6c26.3,15.6,86.3,20.9,99.4,23.2
		c58.2,10.4,118,17.9,177.3,18.5c-15.4,28-29.3,56.8-41.1,86.6c-11.2,28.4-25.4,61.2-29.2,92.6c-74.1,13.5-149,7.2-219.7-17.6
		c0.6-6.2,1.3-12.4,2-18.6C1272.7,264.5,1280,201.8,1278,140.6z M1613.2,798.2c-21.5,34.8-60.5,43.1-98.4,46.9
		c-39.3,3.9-78.8,5.7-118.2,8.8c-89.6,7-179.1,13.8-268.6,21.3c-72.1,6-150.4,17.5-219.9-7.2c3-0.4,5.9-1,8.9-1.6
		c7.9-1.9,6.2-15.5-2.2-14.4c-74.9,9.3-130.4-63.4-128-133.1c2.5-71.9,48.5-138.4,96.2-188.9c47.7-50.5,105.5-85.8,174.6-97.2
		c59.5-9.8,122.5-11.4,183.5-9c-2.4,28.8-4.9,57.6-7.2,86.5c-0.4,5,8.1,6.1,8.9,1.1c4.7-28.9,8.9-57.9,12.6-86.9
		c7.1,0.3,14.3,0.7,21.3,1.1c135.7,8.4,274.6,57.1,336.1,188C1639.3,669.6,1647.3,743,1613.2,798.2z"/>
	<path class="st11" d="M1566.3,872.8c-2-0.8-3.2,2.5-1.4,3.4c35.3,18.3,30.4,66,15.4,96.6c-15.1,30.8-40.3,56.1-68.6,75
		c-55.8,37.4-124.5,52.7-190.3,60c-83.5,9.2-168.3,10.2-252,4.2c-44.3-3.2-90-5.9-133.4-15.6c-39.4-8.8-105.7-54.9-59.1-99
		c0.7-0.6-0.3-1.6-1-1c-17.3,14.4-21,35.7-15.9,57.1c6.5,26.9,30.3,42.4,55,51.4c38.2,13.8,81.8,17.5,122,22.1
		c47,5.4,94.5,7.8,141.8,8.1c131.8,0.8,314.6-5.2,400.5-123.5C1607.9,972.1,1624.6,895.4,1566.3,872.8z"/>
	<path class="st11" d="M1603.7,988.6c-3.5-2.2-6.9,2.8-4.2,5.6c62.8,65.7,43.8,169.1-18.9,227.2c-74.9,69.4-190.9,85.4-288.3,92
		c-109,7.4-224.4,3.9-332.3-14.1c-49.4-8.2-99.7-25.5-129.8-68.2c-31.9-45.3-20.2-113.3,35-134.1c0.8-0.3,0.4-1.3-0.3-1.2
		c-74.1,12.2-82,104.4-42.4,155.3c58.4,75.3,168.6,76,255,83.1c112.5,9.2,226.3,10.4,337.4-11.9c81.6-16.4,171-50.1,217.5-123.8
		C1673.2,1133.9,1673.5,1033.1,1603.7,988.6z"/>
	<path class="st11" d="M421.4,704.2c70.4,41.6,152.8,33.4,231.3,28.7c45.7-2.7,91.4-5.5,137.1-8.4c0-7.8,0.4-15.7,1.3-23.4
		c-40.7,3.2-81.3,6.4-122,9.8c-72.1,6-150.4,17.5-219.9-7.2c3-0.4,5.9-1,8.9-1.6c7.9-1.8,6.2-15.5-2.2-14.4
		C381,697,325.6,624.3,328,554.6c2.5-71.9,48.5-138.4,96.2-188.9c47.7-50.5,105.5-85.8,174.6-97.2c63.2-10.4,130.5-11.6,195.1-8.6
		c-6.7,29.8-13.6,59.5-20.6,89.3c-2.5,10.4,12.9,14.3,16,4.2c9.3-30.5,17.5-61.3,25.1-92.4c1.2,0.1,2.5,0.1,3.7,0.2
		c128.9,8,260.7,52.4,326.3,169.1c5.1,0.6,10.1,1.5,15.1,2.7c2.5-0.2,4.9-0.2,7.4-0.4C1104,315.4,971.7,261.8,842.1,249
		c-8.1-0.8-16.3-1.5-24.5-2.1c2.5-10.7,4.9-21.4,7.2-32.1c25.2,25,69.3,31.8,101.8,37.2c27.5,4.5,55.4,7.3,83.2,8.1
		c28.2,0.8,61.9,3.8,88.3-7.1c4.5-1.9,7-7.1,6.4-11.5c22-34.6,31.4-82,38.8-121.4c3.8-20.5,18.5-64.8-12.2-72.2
		c-19.2-4.6-45.5,2.8-64.8,4.2c-25.4,1.9-50.9,3.2-76.3,1.5c-48.6-3.3-96-17.4-132.6-50.7c-4.9-4.4-15.2-3.1-16.2,4.5
		c-11,80.3-26.6,159.3-44,238.1c-69-4.3-140.8-2.8-207.7,8.3c-75.9,12.6-140.1,55-190.6,112c-53.5,60.4-104.7,143.6-87.8,227.8
		C322,648.8,366.6,697.7,421.4,704.2z M857.6,28.3c51.8,39.4,117,49.9,181.6,48.4c21.9-0.5,43.7-2.3,65.5-4.2
		c16.5-1.4,19.2-3,20.2,13.6c0.6,10.4-3.3,22.7-5.2,33c-7.4,39.2-24.1,75.8-32.7,114.2c-18.6-1.4-37.5,1.8-56.2,2.1
		c-25,0.5-50.1-0.3-75.1-2.4c-43.9-3.8-92.6-7-127.3-35.8C840.2,141.1,849.6,84.6,857.6,28.3z"/>
	<path class="st11" d="M868.1,844.2c-12.8-7.7-24.3-17-34.2-27.9c-162.2-36.6-334.3-36.4-493,10.3c10.7-42.9,30.4-81.3,54.8-118.3
		c1-1.5-1.3-3.2-2.5-1.9c-32.8,36.7-53.3,80.9-67.2,127.8c-1.4,4.9,3.4,8.7,7.9,7.7c179.2-39.7,361.2-41.9,536.5,3.8
		C869.6,845.3,868.8,844.7,868.1,844.2z"/>
	<path class="st11" d="M797.3,949.1c-62.2,3.7-124.8,3.2-186.7-1.2c-44.3-3.2-90-5.9-133.4-15.6c-39.4-8.8-105.7-54.9-59.1-99
		c0.7-0.6-0.3-1.6-1-1c-17.3,14.4-21,35.7-15.9,57.1c6.5,26.9,30.3,42.4,55,51.4c38.2,13.8,81.8,17.5,122,22.1
		c47,5.4,94.5,7.8,141.8,8.1c24.1,0.1,49.9,0,76.5-0.9C795,963.5,795.4,956.4,797.3,949.1z"/>
	<path class="st11" d="M818.1,1150.4c-104.5,6.1-214.1,2.1-317-15c-49.4-8.2-99.7-25.5-129.8-68.2c-31.9-45.3-20.2-113.3,35-134.1
		c0.8-0.3,0.4-1.3-0.3-1.2c-74.1,12.2-82,104.4-42.4,155.3c58.4,75.3,168.6,76,255,83.1c64,5.2,128.5,7.9,192.6,5.1
		C812.5,1166.6,814.7,1158.3,818.1,1150.4z"/>
	<path class="st11" d="M783.3,278.1c-0.2,0-0.2,0.4,0,0.4C783.6,278.4,783.5,278.1,783.3,278.1z"/>
	<path class="st11" d="M789,277.8c-0.5,0-0.4,0.7,0,0.7C789.5,278.5,789.5,277.8,789,277.8z"/>
</g>
</svg>
