<?xml version="1.0" encoding="utf-8"?>
<!-- Generator: Adobe Illustrator 23.1.1, SVG Export Plug-In . SVG Version: 6.00 Build 0)  -->
<svg version="1.1" id="Capa_1" xmlns="http://www.w3.org/2000/svg" xmlns:xlink="http://www.w3.org/1999/xlink" x="0px" y="0px"
	 viewBox="0 0 223 188" style="enable-background:new 0 0 223 188;" xml:space="preserve">
<style type="text/css">
	.st0{fill:#FFFFFF;stroke:#070308;stroke-width:5.3281;stroke-linecap:round;stroke-linejoin:round;}
	.st1{fill:#ECC563;}
	.st2{fill:#FFFFFF;}
	.st3{fill:#CCCCCC;}
	.st4{fill:#FFFFFF;stroke:#070308;stroke-width:4.2625;stroke-linecap:round;stroke-linejoin:round;}
	.st5{fill:none;stroke:#070308;stroke-width:4.2625;stroke-linecap:round;stroke-linejoin:round;}
	.st6{fill:#070308;}
	.st7{fill:#FFFFFF;stroke:#070308;stroke-width:5.3281;}
</style>
<g>
	<g>
		<g>
			<path class="st0" d="M69.9,181.3c-1,2.8-11.3,1.9-23.1-2.2c-11.7-4.1-20.5-9.7-19.5-12.5c3.3-4.3,10.6-19.4,12.8-25.5
				c2.1-6.1,3.2-20.6,4.6-36C46.1,89.7,53,66.8,60,52c0.5-0.9,13,2.6,28.2,7.9c15.1,5.3,27.2,10.3,27,11.3l0,0
				c-3.7,16-12.5,38.2-20.9,51.2c-8.4,13-16.5,25-18.7,31.1C73.5,159.6,69.9,175.9,69.9,181.3z"/>
			<path class="st1" d="M59.3,60.6C59.2,61.5,71,67,84.1,71.5c13.1,4.5,25.8,7.6,26.2,6.8l0,0c-3.1,13.9-11.6,32.7-19,43.9
				c-7.4,11.2-15.2,21.6-18.1,30c-2.9,8.4-4.5,15.2-5.5,20c0,0,0,0.1,0,0.1c-0.9,2.5-8.1,2.2-18.2-1.3c-10.1-3.5-16-7.8-15.1-10.2
				c2-4.6,5.2-10.8,8.1-19.2c2.9-8.4,3.3-21.4,4.4-34.8C48.2,93.5,53.2,73.4,59.3,60.6L59.3,60.6z"/>
			<path class="st2" d="M66.8,94.2c-0.5,1.5-2.2,2.3-3.7,1.8c-1.5-0.5-2.3-2.2-1.8-3.7c0.5-1.5,2.2-2.3,3.7-1.8
				C66.5,91,67.3,92.7,66.8,94.2z"/>
			<path class="st2" d="M88.9,87.4c-0.5,1.5-2.2,2.3-3.7,1.8c-1.5-0.5-2.3-2.2-1.8-3.7c0.5-1.5,2.2-2.3,3.7-1.8
				C88.6,84.2,89.4,85.9,88.9,87.4z"/>
			<path class="st2" d="M87.8,111.9c-0.5,1.5-2.2,2.3-3.7,1.8c-1.5-0.5-2.3-2.2-1.8-3.7c0.5-1.5,2.2-2.3,3.7-1.8
				C87.5,108.8,88.3,110.4,87.8,111.9z"/>
			<path class="st2" d="M58.2,100.5c1,0,1.9,0.8,1.9,1.8c0,1-0.8,1.9-1.8,1.9c-1,0-1.9-0.8-1.9-1.8
				C56.4,101.3,57.2,100.5,58.2,100.5z"/>
			<path class="st2" d="M74.8,96.6c1,0,1.9,0.8,1.9,1.8c0,1-0.8,1.9-1.8,1.9c-1,0-1.9-0.8-1.9-1.8S73.7,96.6,74.8,96.6z"/>
			<path class="st2" d="M79.5,79.9c-1,0.3-2-0.2-2.4-1.1c-0.3-1,0.2-2,1.1-2.4c1-0.3,2,0.2,2.4,1.1S80.4,79.6,79.5,79.9z"/>
			<circle class="st2" cx="103.2" cy="88.6" r="1.9"/>
			<path class="st2" d="M59.2,79.7c-1,0.3-2-0.2-2.4-1.1c-0.3-1,0.2-2,1.1-2.4c1-0.3,2,0.2,2.4,1.1C60.6,78.3,60.1,79.4,59.2,79.7z"
				/>
			<circle class="st2" cx="86.9" cy="93.7" r="1.9"/>
			<path class="st0" d="M116.2,71.5c-0.6,4.2-4.7,6.3-7.9,3.7c-3.2,5.3-7.1,7-9.8,6.3c-2.7-0.6-6.3-3.6-5.8-10.5
				c-3.2,0.9-4.1-4-6.7-4.9c-2.2-0.8-5.1,0.5-7.2-0.3c-2.7-1-4.5-4.2-6.8-5.2c-1.9-0.9-4.1-0.7-6.1-1.2c-2.1-0.5-2.9-2.2-4.1-3.2
				c-2.7-2.1-2.9-3.7-2.4-4.5c0.6-0.9,2.1-2.4,4-1.9c1.6-2.1,5.4-2.3,6.1-0.7c1.6-0.9,3.9-0.5,4.5,1.3c3.7-3.6,15.2-0.8,16.4,3.3
				c3.1-0.8,6.6,0.8,8.5,3.2c3-1.2,7,0.9,6.9,3.5c2.8,1.7,5,3.5,6.6,5.4C115.2,67.3,116.4,70.2,116.2,71.5z"/>
			<path class="st3" d="M63.3,176c-3.4-0.4-8.7-1.6-14.3-3.6s-10.5-4.2-13.5-6c-2.4-0.2-3.9-0.1-4.2,0.6c-0.6,1.7,6.7,5.8,16.4,9.1
				c9.6,3.3,17.9,4.7,18.5,2.9C66.4,178.4,65.3,177.3,63.3,176z"/>
			<path class="st4" d="M70.4,39.1c0.4-0.4,1-0.7,1.6-0.7c0.3,0,0.5,0,0.8,0c0.7,0.2,1.2,0.7,1.4,1.3s0.2,1.3,0.1,2
				c-0.1,0.3-0.2,0.7-0.4,0.9c-0.2,0.2-0.4,0.3-0.6,0.3c-0.8,0.2-1.6,0.2-2.3-0.2c-0.5-0.3-0.8-0.7-1-1.2c-0.1-0.2-0.1-0.5-0.1-0.8
				c0-0.3,0-0.5,0-0.8C70,39.6,70.2,39.3,70.4,39.1z"/>
			<path class="st5" d="M103.7,49.5c-0.4,0.6-0.7,1.2-0.7,2c0,0.7,0.2,1.4,0.7,1.9c0.4,0.4,1,0.7,1.6,0.9c0.5,0.2,1.1,0.4,1.6,0.3
				c0.8-0.1,1.4-0.8,1.9-1.5c0.2-0.3,0.4-0.6,0.5-0.9c0.1-0.6,0-1.2-0.1-1.7c-0.1-0.3-0.1-0.5-0.3-0.8c-0.4-0.7-1.2-1-2-1.1
				c-0.7-0.2-1.5-0.2-2.1,0.1C104.3,48.8,103.9,49.1,103.7,49.5z"/>
			<path class="st4" d="M113.5,59.3c-0.1,0.5-0.4,0.9-0.8,1.2c-0.2,0.1-0.4,0.2-0.6,0.3c-0.5,0.2-1.1,0-1.6-0.4
				c-0.4-0.3-0.7-0.9-0.9-1.4c-0.1-0.3-0.2-0.6-0.1-0.8c0.1-0.2,0.2-0.3,0.3-0.5c0.4-0.5,1.1-0.8,1.7-0.8c0.4,0,0.9,0.2,1.2,0.4
				c0.2,0.1,0.3,0.3,0.4,0.5c0.1,0.2,0.2,0.4,0.3,0.6C113.5,58.7,113.5,59,113.5,59.3z"/>
			<path class="st4" d="M85.6,46.4c0.2-0.3,0.4-0.7,0.3-1.1c-0.1-0.6-0.6-1-1.1-1.1c-0.6-0.1-1.1,0-1.6,0.4
				c-0.1,0.1-0.3,0.2-0.4,0.4c-0.1,0.2-0.1,0.3-0.1,0.5c0,0.3,0,0.6,0.1,0.9c0.1,0.3,0.3,0.5,0.6,0.7c0.2,0.1,0.4,0.1,0.7,0.1
				c0.2,0,0.4,0,0.6,0C85,47,85.4,46.7,85.6,46.4z"/>
			<path class="st4" d="M82.5,38c0.3-0.5,0.5-1,0.4-1.6c-0.1-0.9-0.8-1.7-1.7-1.9c-0.9-0.2-1.8,0-2.5,0.6c-0.7,0.5-1.2,1.3-1.6,2.2
				c-0.2,0.6-0.4,1.2-0.3,1.8c0.1,0.4,0.3,0.8,0.5,1.2c0.1,0.2,0.3,0.5,0.5,0.7c0.3,0.2,0.8,0.2,1.2,0.2c0.3-0.1,0.7-0.1,0.9-0.3
				c0.2-0.2,0.4-0.4,0.6-0.6c0.3-0.3,0.7-0.6,1-1C82,38.8,82.3,38.4,82.5,38z"/>
		</g>
		<path class="st6" d="M98,132.4c2.2-0.6,4.6-2.4,5.5-4.8c1.1-2.9-0.5-7.1-3.4-8.7c-2.6-1.4-7.5-3.6-12.3-5.5
			c-4-1.5-10.5-3-14.8-3.4c-2.4-0.2-11.2-0.5-18.9-0.7c-3.6-0.1-6.8-0.2-8.8-0.3c0.1-1.3,0.2-2.6,0.4-3.9c0.2-1.7,0.4-3.5,0.7-5.4
			c0.1-0.4-0.1-0.7-0.4-0.9c-0.3-0.2-0.7-0.2-1,0c-2.8,1.7-6.6,4.7-10.6,7.8c-2.8,2.2-5.7,4.4-8.3,6.3c-5.7,4.1-10.5,5.2-17.6,4
			c-0.5-0.1-1,0.3-1.1,0.8c-0.1,0.5,0.3,1,0.8,1.1c7.6,1.2,12.9,0,19-4.3c2.6-1.8,5.5-4.1,8.3-6.3c3.2-2.5,6.3-4.9,8.7-6.6
			c-0.2,1.2-0.3,2.4-0.4,3.5c-0.2,1.6-0.3,3.2-0.4,4.8c0,0.3,0.1,0.5,0.2,0.7c0.2,0.2,0.4,0.3,0.7,0.3c1.9,0.1,5.6,0.2,9.8,0.3
			c7.3,0.2,16.5,0.5,18.9,0.7c4.2,0.3,10.5,1.8,14.3,3.2c4.6,1.8,9.6,4,12.1,5.4c2.1,1.2,3.4,4.3,2.6,6.4c-0.8,2.1-3.4,3.7-5.3,3.8
			c-4.6-2.2-10.5-3.8-20.7-5.6c-0.5-0.1-1,0.3-1.1,0.8c-0.1,0.5,0.2,0.9,0.6,1c0,0,0.1,0,0.1,0c10.1,1.8,15.8,3.3,20.3,5.4
			c2.3,2.6,1.1,5.5,0.6,6.4c-0.9,1.6-3.4,4-7,3.7c-3-0.5-5.8-1-8.3-1.4c-4.2-0.7-7.8-1.2-10.4-1.9c-0.5-0.1-1,0.2-1.1,0.7
			c-0.1,0.5,0.2,0.9,0.6,1.1c0,0,0.1,0,0.1,0c2.7,0.6,6.3,1.2,10.5,1.9c2.5,0.4,5.2,0.8,8.2,1.3c1.6,0.7,1.5,2.3,1.4,3
			c-0.4,2.2-2.5,4.6-5.9,4.9c-7.4,0.4-13.1,0.2-17.9-0.5c-0.5-0.1-1,0.3-1.1,0.8c-0.1,0.5,0.2,0.9,0.6,1c0.1,0,0.1,0,0.2,0
			c4.9,0.7,10.6,0.9,18,0.5c0.8,0.4,1.1,1.1,1.1,1.9c-0.1,1.7-1.8,4-4.5,5c-3.1,1.1-10.1,1.4-14.3,1.6c-0.8,0-1.5,0.1-2.1,0.1
			c-1.4,0.1-3.2,0.4-5.1,0.7c-3.4,0.6-7.6,1.3-11.7,1.1c-7.2-0.3-22.7-4.4-27.9-6c-3.6-1.1-15.7-4.9-21.9-6c-0.5-0.1-1,0.3-1.1,0.8
			c-0.1,0.5,0.2,0.9,0.6,1c0,0,0.1,0,0.2,0c6,1,18.1,4.8,21.6,5.9c5.3,1.7,21.1,5.9,28.4,6.1c4.2,0.2,8.6-0.6,12.1-1.1
			c1.9-0.3,3.6-0.6,5-0.7c0.6,0,1.3-0.1,2.1-0.1c4.6-0.2,11.5-0.6,14.8-1.7c3.1-1.1,5.6-3.9,5.8-6.6c0.1-0.9-0.2-1.7-0.6-2.4
			c3.2-1,5.2-3.6,5.6-6.1c0.2-1.3,0-2.4-0.6-3.4c3-0.6,5.3-2.6,6.4-4.6C99.1,137.7,99.5,134.9,98,132.4z"/>
		<path class="st2" d="M-2.1,152.6c6.2,1,18.3,4.8,21.9,6c5.3,1.7,20.7,5.8,27.9,6c4.1,0.1,8.3-0.6,11.7-1.1c2-0.3,3.7-0.6,5.1-0.7
			c0.6,0,1.3-0.1,2.1-0.1c4.2-0.2,11.2-0.6,14.3-1.6c2.7-0.9,4.4-3.3,4.5-5c0-0.9-0.3-1.5-1.1-1.9c-7.4,0.4-13.1,0.2-18-0.5
			c-0.1,0-0.1,0-0.2,0c-0.4-0.1-0.7-0.6-0.6-1c0.1-0.5,0.6-0.9,1.1-0.8c4.8,0.7,10.5,0.9,17.9,0.5c3.4-0.3,5.6-2.7,5.9-4.9
			c0.1-0.7,0.2-2.3-1.4-3c-2.9-0.5-5.7-1-8.2-1.3c-4.2-0.7-7.8-1.2-10.5-1.9c0,0-0.1,0-0.1,0c-0.4-0.2-0.7-0.6-0.6-1.1
			c0.1-0.5,0.6-0.8,1.1-0.7c2.6,0.6,6.2,1.2,10.4,1.9c2.5,0.4,5.3,0.8,8.3,1.4c3.5,0.3,6.1-2,7-3.7c0.4-0.8,1.7-3.8-0.6-6.4
			c-4.5-2.1-10.2-3.7-20.3-5.4c-0.1,0-0.1,0-0.1,0c-0.4-0.1-0.7-0.6-0.6-1c0.1-0.5,0.6-0.9,1.1-0.8c10.2,1.8,16.1,3.4,20.7,5.6
			c1.9-0.1,4.5-1.7,5.3-3.8c0.8-2.1-0.4-5.2-2.6-6.4c-2.5-1.4-7.4-3.6-12.1-5.4c-3.8-1.5-10.1-2.9-14.3-3.2
			c-2.4-0.2-11.5-0.5-18.9-0.7c-4.2-0.1-7.9-0.2-9.8-0.3c-0.3,0-0.5-0.1-0.7-0.3c-0.2-0.2-0.3-0.4-0.2-0.7c0.1-1.6,0.3-3.2,0.4-4.8
			c0.1-1.1,0.2-2.3,0.4-3.5c-2.5,1.7-5.5,4.1-8.7,6.6c-2.8,2.2-5.7,4.5-8.3,6.3c-6.1,4.3-11.4,5.6-19,4.3L-2.1,152.6z"/>
	</g>
</g>
<g>
	<g>
		<path class="st7" d="M194.6,169C194.6,169.1,194.6,169.1,194.6,169c0.7,3-8.5,7.8-20.5,10.7c-12.1,3-22.4,3-23.2,0.1
			c0.4-5.5-1.6-22-3.1-28.3c-1.5-6.3-8.5-19-15.7-32.7c-7.2-13.7-13.8-36.7-16-53c-0.1-1,12.3-4.9,27.9-8.7
			c15.6-3.8,28.4-6.1,28.8-5.2l0,0c5.6,15.5,10.3,38.9,10.3,54.4c0,15.5-0.3,30,1.3,36.3C185.8,148.8,191.7,164.4,194.6,169z"/>
		<path class="st1" d="M120.2,73.4c0.3,0.8,13.3-1,26.7-4.3c13.4-3.3,25.8-7.7,25.7-8.5l0,0c4.9,13.3,8.1,33.8,7.9,47.2
			c-0.1,13.4-1,26.4,1.1,35c2.1,8.7,4.5,15.2,6.3,19.8c0,0,0,0.1,0,0.1c0.6,2.5-5.6,6.2-16,8.8c-10.4,2.6-17.6,2.2-18.2-0.4
			c-0.8-5-1.5-11.9-3.6-20.5c-2.1-8.7-8.9-19.8-15.2-31.6C128.6,107.1,122,87.5,120.2,73.4L120.2,73.4z"/>
		<circle class="st2" cx="141.9" cy="98.2" r="2.9"/>
		<ellipse transform="matrix(0.9078 -0.4193 0.4193 0.9078 -19.3301 73.132)" class="st2" cx="156.7" cy="80.5" rx="2.9" ry="2.9"/>
		<path class="st2" d="M172.1,102c0.4,1.5-0.6,3.1-2.1,3.5c-1.5,0.4-3.1-0.6-3.5-2.1c-0.4-1.5,0.6-3.1,2.1-3.5
			C170.1,99.5,171.7,100.5,172.1,102z"/>
		<path class="st2" d="M154.8,112.7c0.9-0.6,2-0.3,2.6,0.5c0.6,0.9,0.3,2-0.5,2.6c-0.9,0.6-2,0.3-2.6-0.5
			C153.7,114.4,154,113.3,154.8,112.7z"/>
		<path class="st2" d="M140.9,107.5c0.9-0.6,2-0.3,2.6,0.5c0.6,0.9,0.3,2-0.5,2.6c-0.9,0.6-2,0.3-2.6-0.5
			C139.8,109.2,140.1,108.1,140.9,107.5z"/>
		<path class="st2" d="M152.7,95.2c0.9-0.6,2-0.3,2.6,0.5c0.6,0.9,0.3,2-0.5,2.6c-0.9,0.6-2,0.3-2.6-0.5
			C151.6,96.9,151.8,95.8,152.7,95.2z"/>
		<path class="st2" d="M147.5,78.7c-0.6,0.8-1.8,1-2.6,0.3c-0.8-0.6-1-1.8-0.3-2.6c0.6-0.8,1.8-1,2.6-0.3
			C148,76.7,148.2,77.9,147.5,78.7z"/>
		<path class="st2" d="M173.6,74.2c-0.6,0.8-1.8,1-2.6,0.3c-0.8-0.6-1-1.8-0.3-2.6c0.6-0.8,1.8-1,2.6-0.3
			C174.1,72.2,174.3,73.4,173.6,74.2z"/>
		<path class="st2" d="M175.9,123.4c-0.6,0.8-1.8,1-2.6,0.3c-0.8-0.6-1-1.8-0.3-2.6c0.6-0.8,1.8-1,2.6-0.3
			C176.4,121.5,176.6,122.6,175.9,123.4z"/>
		<path class="st2" d="M130.4,89.5c-0.6,0.8-1.8,1-2.6,0.3c-0.8-0.6-1-1.8-0.3-2.6c0.6-0.8,1.8-1,2.6-0.3
			C130.9,87.6,131,88.7,130.4,89.5z"/>
		<path class="st2" d="M162.8,87.4c-0.6,0.8-1.8,1-2.6,0.3c-0.8-0.6-1-1.8-0.3-2.6c0.6-0.8,1.8-1,2.6-0.3
			C163.2,85.4,163.4,86.6,162.8,87.4z"/>
		<path class="st0" d="M115.3,66c0.2,4.3,4.1,6.7,7.6,4.4c2.7,0.9,4.9,1.4,7.6,1.1c2.7-0.4,6.5-1.8,8.2-4.5c3.1,2.7,5.7,3.7,8.2,2.1
			c2.1-1.3,3.6,8.2,9,6.9c2.8-0.7,3.4-11.4,5.4-13.4c1.4-1.5,3.5-1.7,6-1.5c1.9,0.2,3.2-1.2,4.1-3.3c0.7-1.8,3-4.4,2.6-6.1
			c-0.3-1.1-1.9-2.6-3.8-2.3c-1.4-2.2-5.1-2.8-6-1.2c-1.5-1-3.8-0.9-4.7,0.9c-2.9-3.4-7.3-3.2-10.3,0.5c-4.6-2.5-9.2-1.3-11.3,2.3
			c-2.8-1.5-10.8,1.6-11,4.3c-2.9,1.4-5.3,3-7.1,4.8C116.7,61.9,115.3,64.7,115.3,66z"/>
		<path class="st3" d="M186.1,168.1c-3.1,1.6-8.1,3.3-14,4.8c-5.8,1.4-11.1,2.2-14.6,2.2c-2.1,1.1-3.3,2.1-3.2,2.8
			c0.4,1.8,8.8,1.2,18.7-1.2c9.9-2.4,17.6-5.8,17.1-7.6C190,168.4,188.5,168.1,186.1,168.1z"/>
		<path class="st4" d="M163.9,38c-0.4-0.5-0.9-0.8-1.5-0.9c-0.3-0.1-0.5-0.1-0.8,0c-0.7,0.1-1.2,0.6-1.5,1.2c-0.3,0.6-0.4,1.3-0.3,2
			c0,0.3,0.1,0.7,0.3,0.9c0.1,0.2,0.4,0.3,0.6,0.4c0.7,0.3,1.6,0.3,2.3,0c0.5-0.2,0.9-0.6,1.1-1.1c0.1-0.2,0.2-0.5,0.2-0.7
			c0-0.3,0.1-0.5,0-0.8C164.3,38.6,164.1,38.3,163.9,38z"/>
		<path class="st5" d="M129.9,45.3c0.4,0.6,0.6,1.3,0.5,2c0,0.7-0.4,1.4-0.9,1.9c-0.5,0.4-1.1,0.6-1.6,0.8c-0.5,0.2-1.1,0.3-1.6,0.2
			c-0.8-0.2-1.3-0.9-1.7-1.6c-0.2-0.3-0.3-0.6-0.4-1c-0.1-0.6,0.1-1.2,0.3-1.7c0.1-0.3,0.2-0.5,0.3-0.8c0.5-0.7,1.3-0.8,2.1-1
			c0.7-0.1,1.5,0,2.1,0.3C129.3,44.6,129.6,44.9,129.9,45.3z"/>
		<path class="st4" d="M119.2,54.1c0.1,0.5,0.3,1,0.7,1.3c0.2,0.1,0.4,0.3,0.6,0.4c0.5,0.2,1.1,0.1,1.6-0.2c0.5-0.3,0.8-0.8,1.1-1.3
			c0.1-0.3,0.2-0.5,0.2-0.8c0-0.2-0.1-0.4-0.2-0.5c-0.4-0.5-1-0.9-1.7-1c-0.4,0-0.9,0.1-1.3,0.3c-0.2,0.1-0.3,0.3-0.4,0.5
			c-0.1,0.2-0.3,0.3-0.4,0.6C119.2,53.5,119.2,53.8,119.2,54.1z"/>
		<path class="st4" d="M148.1,43.9c-0.2-0.3-0.3-0.7-0.2-1.1c0.1-0.6,0.7-1,1.2-1c0.6-0.1,1.1,0.2,1.6,0.5c0.1,0.1,0.3,0.2,0.3,0.4
			c0.1,0.2,0.1,0.3,0.1,0.5c0,0.3-0.1,0.6-0.2,0.9c-0.1,0.3-0.3,0.5-0.6,0.6c-0.2,0.1-0.4,0-0.7,0c-0.2,0-0.4,0-0.6-0.1
			C148.6,44.5,148.3,44.2,148.1,43.9z"/>
		<path class="st4" d="M152,35.8c-0.2-0.5-0.4-1-0.3-1.6c0.1-0.9,0.9-1.6,1.8-1.7c0.9-0.2,1.8,0.2,2.5,0.8c0.7,0.6,1.1,1.4,1.4,2.3
			c0.2,0.6,0.3,1.2,0.1,1.8c-0.1,0.4-0.4,0.8-0.6,1.1c-0.2,0.2-0.3,0.5-0.6,0.6c-0.4,0.2-0.8,0.1-1.2,0c-0.3-0.1-0.7-0.2-0.9-0.4
			c-0.2-0.2-0.4-0.4-0.6-0.6c-0.3-0.4-0.6-0.7-0.9-1C152.5,36.7,152.2,36.2,152,35.8z"/>
	</g>
	<g>
		<path class="st6" d="M223.9,123.5c-3.7-0.2-7.8-0.4-12.1-0.9c-2.4-0.3-5.8-2.6-7.3-4.1c-3.3-3.5-6-5.7-9.1-8
			c-2.5-1.8-3.9-3.8-5.7-6.4l-0.4-0.6c-1-1.4-2-2.9-3-4.2c-0.7-1-1.4-2-2-2.8c-0.7-0.9-1.3-1.9-1.8-2.8c-2-3.2-3.8-5.9-6.8-5
			c-1.5,0.4-2.8,1.7-3.8,3.5c-1.6,3.2-1.8,7.4-0.5,11.1c1.4,4.1,4.9,9.3,10.7,15.8c0,11.4,0.2,19.3,1.3,23.7
			c1.3,5.1,5.1,15.8,8.1,22.3c0.2,0.4,0.7,0.6,1.1,0.5c3.5-1.1,8.2-2.3,10.6-2.7c2.9-0.4,13.3,0.1,17.9,0.6c0.1,0,0.2,0,0.3,0
			c0.4-0.1,0.7-0.4,0.7-0.8c0.1-0.5-0.3-1-0.8-1c-4-0.4-15-1.1-18.3-0.6c-2.4,0.4-6.6,1.5-10.1,2.5c-2.9-6.4-6.5-16.5-7.7-21.3
			c-1.2-4.7-1.3-14.7-1.3-23.6c0-0.2-0.1-0.5-0.2-0.6c-5.8-6.4-9.2-11.5-10.6-15.4c-1.1-3.2-0.9-6.9,0.4-9.6
			c0.7-1.4,1.6-2.3,2.6-2.6c1.6-0.5,2.7,1.1,4.7,4.3c0.6,0.9,1.2,1.8,1.9,2.8c0.6,0.8,1.2,1.7,1.9,2.7c1,1.4,2,2.9,3,4.2l0.4,0.6
			c1.9,2.6,3.4,4.8,6.2,6.8c3,2.2,5.7,4.3,8.9,7.7c1.6,1.8,5.5,4.4,8.4,4.7c4.4,0.5,8.4,0.7,12.2,0.9c0.5,0,1-0.4,1-0.9
			C224.8,124,224.4,123.6,223.9,123.5z"/>
		<path class="st2" d="M221.3,161.7c-4-0.4-15-1.1-18.3-0.6c-2.4,0.4-6.6,1.5-10.1,2.5c-2.9-6.4-6.5-16.5-7.7-21.3
			c-1.2-4.7-1.3-14.7-1.3-23.6c0-0.2-0.1-0.5-0.2-0.6c-5.8-6.4-9.2-11.5-10.6-15.4c-1.1-3.2-0.9-6.9,0.4-9.6
			c0.7-1.4,1.6-2.3,2.6-2.6c1.6-0.5,2.7,1.1,4.7,4.3c0.6,0.9,1.2,1.8,1.9,2.8c0.6,0.8,1.2,1.7,1.9,2.7c1,1.4,2,2.9,3,4.2l0.4,0.6
			c1.9,2.6,3.4,4.8,6.2,6.8c3,2.2,5.7,4.3,8.9,7.7c1.6,1.8,5.5,4.4,8.4,4.7c4.4,0.5,8.4,0.7,12.2,0.9L221.3,161.7z"/>
		<path class="st6" d="M155.7,130.7c-0.4,0-0.8-0.1-1.3-0.1c-1-0.1-2.3-0.3-4.4-0.3c2.2-1.9,3.4-4.5,3-7c-0.5-3.7-2.8-5.6-6.7-5.6
			c-4.1,0-5.9,0.2-8.7,0.8c-4.4,0.9-7.4,3.3-8.4,6.4c-0.4,1.4-0.9,4,0.4,6.3c0.7,1.2,1.7,2.1,3.1,2.7c-1.7,1.6-2.5,3.8-2.2,6.1
			c0.3,2.7,2.1,5.1,4.6,6.5c-2.1,1.9-2.6,4.1-1.7,6.7c1.3,3.6,4,5.8,7.5,6.4c-0.7,1.9-1,5.1,3.1,8.4c1.7,1.3,4.8,2.7,6,3.2
			c0.2,0.1,0.4,0.1,0.6,0l0,0c0.5-0.1,0.8-0.5,0.7-1c-0.1-0.8-0.2-1.7-0.3-2.6c4.6-0.9,5.8-1.9,7.2-3.1l0.3-0.3
			c1.5-1.3,2.4-3.3,2.2-5.2c-0.1-1-0.5-1.9-1.1-2.6c3.4-1.8,4.7-3.9,4.5-7c-0.2-2.1-2-4.1-4.6-5.2c1.6-1.4,2.5-3.7,2.3-6.6
			C161.7,133.6,158.1,130.9,155.7,130.7z M131.3,130.2c-1-1.7-0.6-3.7-0.3-4.8c0.7-2.3,3.1-4.2,6.5-5c0.2,0,0.3-0.1,0.5-0.1
			c2.2-0.5,4-0.8,8.3-0.8c3,0,4.5,1.2,4.9,4c0.3,2.2-1.1,5.2-4.8,6.9c-0.8,0.1-1.5,0.1-2.2,0.2c-4.1,0.4-6.7,0.6-9.5,1.9
			C133.1,132.1,132,131.3,131.3,130.2z M159,159.1c0.1,1.3-0.5,2.7-1.5,3.6l-0.3,0.3c-1.4,1.2-2.3,2-7.1,2.9c-0.5,0.1-0.8,0.5-0.8,1
			c0,0,0,0.1,0,0.1c0.1,0.6,0.1,1.2,0.2,1.7c-1.8-0.8-3.3-1.7-4.1-2.3c-0.7-0.5-1.8-1.6-2.5-3c-0.6-1.4-0.5-2.8,0.4-4.2
			c0.1-0.1,0.1-0.2,0.1-0.3c2.4-1.8,4.7-2.1,6.8-2.4l0.2,0c2.5-0.4,4.7-0.7,6.9,0c0.1,0.1,0.2,0.2,0.3,0.3
			C158.6,157.5,158.9,158.4,159,159.1z M162.3,149.4c0.2,2.3-0.5,4-4.6,5.8c-2.5-0.8-5-0.5-7.6-0.1l-0.2,0c-2.1,0.3-4.8,0.7-7.5,2.7
			c-4.4-0.2-6.3-3-7.2-5.3c-0.8-2.2-0.2-3.9,2.2-5.5c4-2,6.7-2,10.4-2l1,0c2.7,0,5,0,8.2,0.2C159.8,145.7,162.2,147.6,162.3,149.4z
			 M160.1,137.5c0.1,1.7-0.2,4.8-3,5.8c-3.2-0.3-5.6-0.2-8.2-0.2l-1,0c-3.7,0-6.7,0-10.9,2.1c-2.5-1-4.2-3.1-4.5-5.5
			c-0.2-2.2,0.8-4.1,2.8-5.4c2.7-1.2,5-1.5,9.2-1.8c0.7-0.1,1.5-0.1,2.4-0.2c4.2-0.2,6,0,7.4,0.2c0.5,0.1,0.9,0.1,1.4,0.2
			C157,132.7,159.9,134.7,160.1,137.5z"/>
	</g>
	<path class="st2" d="M131.3,130.2c-1-1.7-0.6-3.7-0.3-4.8c0.7-2.3,3.1-4.2,6.5-5c0.2,0,0.3-0.1,0.5-0.1c2.2-0.5,4-0.8,8.3-0.8
		c3,0,4.5,1.2,4.9,4c0.3,2.2-1.1,5.2-4.8,6.9c-0.8,0.1-1.5,0.1-2.2,0.2c-4.1,0.4-6.7,0.6-9.5,1.9C133.1,132.1,132,131.3,131.3,130.2
		z"/>
	<path class="st2" d="M159,159.1c0.1,1.3-0.5,2.7-1.5,3.6l-0.3,0.3c-1.4,1.2-2.3,2-7.1,2.9c-0.5,0.1-0.8,0.5-0.8,1c0,0,0,0.1,0,0.1
		c0.1,0.6,0.1,1.2,0.2,1.7c-1.8-0.8-3.3-1.7-4.1-2.3c-0.7-0.5-1.8-1.6-2.5-3c-0.6-1.4-0.5-2.8,0.4-4.2c0.1-0.1,0.1-0.2,0.1-0.3
		c2.4-1.8,4.7-2.1,6.8-2.4l0.2,0c2.5-0.4,4.7-0.7,6.9,0c0.1,0.1,0.2,0.2,0.3,0.3C158.6,157.5,158.9,158.4,159,159.1z"/>
	<path class="st2" d="M162.3,149.4c0.2,2.3-0.5,4-4.6,5.8c-2.5-0.8-5-0.5-7.6-0.1l-0.2,0c-2.1,0.3-4.8,0.7-7.5,2.7
		c-4.4-0.2-6.3-3-7.2-5.3c-0.8-2.2-0.2-3.9,2.2-5.5c4-2,6.7-2,10.4-2l1,0c2.7,0,5,0,8.2,0.2C159.8,145.7,162.2,147.6,162.3,149.4z"
		/>
	<path class="st2" d="M160.1,137.5c0.1,1.7-0.2,4.8-3,5.8c-3.2-0.3-5.6-0.2-8.2-0.2l-1,0c-3.7,0-6.7,0-10.9,2.1
		c-2.5-1-4.2-3.1-4.5-5.5c-0.2-2.2,0.8-4.1,2.8-5.4c2.7-1.2,5-1.5,9.2-1.8c0.7-0.1,1.5-0.1,2.4-0.2c4.2-0.2,6,0,7.4,0.2
		c0.5,0.1,0.9,0.1,1.4,0.2C157,132.7,159.9,134.7,160.1,137.5z"/>
</g>
<g>
	<path class="st6" d="M109.1,29.6c-0.6,0-1.1-0.5-1.1-1.1l-1.6-25.6c0-0.6,0.4-1.2,1.1-1.2c0.6,0,1.2,0.4,1.2,1.1l1.6,25.6
		C110.3,29,109.8,29.5,109.1,29.6C109.2,29.6,109.2,29.6,109.1,29.6z"/>
</g>
<g>
	<path class="st6" d="M128.8,34.1c-0.1,0-0.3,0-0.4-0.1c-0.6-0.3-0.8-1-0.5-1.5L138,12c0.3-0.6,0.9-0.8,1.5-0.5
		c0.6,0.3,0.8,1,0.5,1.5l-10.1,20.5C129.7,33.9,129.2,34.1,128.8,34.1z"/>
</g>
<g>
	<path class="st6" d="M96.3,31.3c-0.5,0.1-1-0.2-1.2-0.6l-9.9-19.5c-0.3-0.6-0.1-1.2,0.5-1.5c0.6-0.3,1.2-0.1,1.5,0.5l9.9,19.5
		c0.3,0.6,0.1,1.2-0.5,1.5C96.5,31.2,96.4,31.3,96.3,31.3z"/>
</g>
</svg>
